<?xml version="1.0" encoding="utf-8"?>
<!-- Generator: Adobe Illustrator 27.3.1, SVG Export Plug-In . SVG Version: 6.00 Build 0)  -->
<svg version="1.1" id="Layer_1" xmlns="http://www.w3.org/2000/svg" xmlns:xlink="http://www.w3.org/1999/xlink" x="0px" y="0px"
	 width="16px" height="16px" viewBox="0 0 16 16" enable-background="new 0 0 16 16" xml:space="preserve">
<g>
	<path fill="#FFFFFF" d="M5.258,10.503c-0.171,0-0.299,0.129-0.299,0.287v0.002c0,0.159,0.126,0.286,0.297,0.286
		c0.171,0,0.299-0.129,0.299-0.287v-0.002C5.555,10.63,5.429,10.503,5.258,10.503z M5.399,10.792c0,0.08-0.056,0.148-0.141,0.148
		c-0.084,0-0.141-0.07-0.141-0.149v-0.002c0-0.08,0.056-0.148,0.14-0.148c0.084,0,0.142,0.07,0.142,0.149V10.792z"/>
	<path fill="#FFFFFF" d="M8.232,10.938c-0.077,0-0.132-0.065-0.132-0.148v-0.002c0-0.081,0.054-0.146,0.132-0.146
		c0.053,0,0.089,0.025,0.121,0.065l0.115-0.089c-0.049-0.068-0.122-0.115-0.235-0.115c-0.167,0-0.291,0.126-0.291,0.287v0.002
		c0,0.165,0.127,0.286,0.285,0.286c0.122,0,0.193-0.053,0.245-0.125l-0.115-0.082C8.324,10.911,8.29,10.938,8.232,10.938z"/>
	<polygon fill="#FFFFFF" points="6.403,10.728 6.271,10.514 6.109,10.514 6.109,11.066 6.259,11.066 6.259,10.751 6.399,10.965 
		6.403,10.965 6.544,10.749 6.544,11.066 6.696,11.066 6.696,10.514 6.535,10.514 	"/>
	<polygon fill="#FFFFFF" points="9.233,10.715 9.12,10.514 8.945,10.514 9.155,10.86 9.155,11.066 9.309,11.066 9.309,10.857 
		9.519,10.514 9.348,10.514 	"/>
	<path fill="#FFFFFF" d="M1.182,10.938c-0.077,0-0.132-0.065-0.132-0.148v-0.002c0-0.081,0.054-0.146,0.132-0.146
		c0.053,0,0.089,0.025,0.121,0.065l0.115-0.089c-0.049-0.068-0.122-0.115-0.235-0.115c-0.167,0-0.291,0.126-0.291,0.287v0.002
		c0,0.165,0.127,0.286,0.285,0.286c0.122,0,0.193-0.053,0.245-0.125l-0.115-0.082C1.273,10.911,1.239,10.938,1.182,10.938z"/>
	<path fill="#FFFFFF" d="M3.269,10.722c-0.077-0.017-0.096-0.028-0.096-0.054v-0.002c0-0.02,0.018-0.036,0.055-0.036
		c0.049,0,0.104,0.019,0.155,0.054l0.077-0.108c-0.06-0.048-0.133-0.074-0.227-0.074c-0.133,0-0.214,0.074-0.214,0.177v0.002
		c0,0.114,0.091,0.147,0.209,0.174c0.075,0.017,0.093,0.03,0.093,0.053v0.002c0,0.024-0.022,0.038-0.063,0.038
		c-0.064,0-0.125-0.023-0.179-0.066l-0.085,0.102c0.068,0.061,0.161,0.092,0.259,0.092c0.134,0,0.224-0.067,0.224-0.18v-0.002
		C3.475,10.791,3.396,10.75,3.269,10.722z"/>
	<path fill="#FFFFFF" d="M2.314,10.825c0,0.077-0.04,0.114-0.102,0.114c-0.062,0-0.102-0.038-0.102-0.118v-0.307H1.954v0.31
		c0,0.173,0.099,0.253,0.256,0.253c0.157,0,0.259-0.078,0.259-0.257v-0.306H2.314V10.825z"/>
	<path fill="#FFFFFF" d="M10.26,10.938c-0.077,0-0.132-0.065-0.132-0.148v-0.002c0-0.081,0.054-0.146,0.132-0.146
		c0.053,0,0.089,0.025,0.121,0.065l0.115-0.089c-0.049-0.068-0.122-0.115-0.235-0.115c-0.167,0-0.291,0.126-0.291,0.287v0.002
		c0,0.165,0.127,0.286,0.285,0.286c0.122,0,0.193-0.053,0.245-0.125l-0.115-0.082C10.352,10.911,10.318,10.938,10.26,10.938z"/>
	<polygon fill="#FFFFFF" points="3.976,10.648 4.142,10.648 4.142,11.066 4.295,11.066 4.295,10.648 4.461,10.648 4.461,10.514 
		3.976,10.514 	"/>
	<polygon fill="#FFFFFF" points="13.103,10.806 12.875,10.514 12.732,10.514 12.732,11.066 12.884,11.066 12.884,10.763 
		13.12,11.066 13.255,11.066 13.255,10.514 13.103,10.514 	"/>
	<polygon fill="#FFFFFF" points="11.193,10.514 11.04,10.514 11.04,11.066 11.461,11.066 11.461,10.932 11.193,10.932 	"/>
	<path fill="#FFFFFF" d="M14.094,10.856h0.109v0.067c-0.023,0.015-0.051,0.023-0.088,0.023c-0.088,0-0.15-0.064-0.15-0.153v-0.002
		c0-0.084,0.062-0.152,0.141-0.152c0.054,0,0.094,0.019,0.133,0.052l0.09-0.108c-0.058-0.051-0.127-0.081-0.224-0.081
		c-0.171,0-0.298,0.126-0.298,0.287v0.002c0,0.167,0.129,0.286,0.301,0.286c0.1,0,0.182-0.037,0.24-0.085v-0.249h-0.254V10.856z"/>
	<path fill="#FFFFFF" d="M10.098,6.427c-0.554,0-1.004,0.451-1.004,1.004c0,0.554,0.451,1.004,1.004,1.004
		c0.554,0,1.004-0.451,1.004-1.004C11.102,6.878,10.652,6.427,10.098,6.427z M10.098,7.998c-0.313,0-0.566-0.254-0.566-0.566
		c0-0.313,0.254-0.566,0.566-0.566c0.313,0,0.566,0.254,0.566,0.566C10.664,7.744,10.411,7.998,10.098,7.998z"/>
	<path fill="#FFFFFF" d="M12.599,4.922c-0.455,0-0.882,0.122-1.251,0.335c-0.267-0.154-0.567-0.261-0.884-0.308
		c-0.12-0.018-0.242-0.027-0.367-0.027c0,0-0.001,0-0.001,0l0,0H5.022v1.591H4.905H3.971H3.149L2.911,6.791L2.67,6.513H0.925V9.94
		h3.017h0.963h1.471l0.181-0.221L6.735,9.94h2.344L8.782,9.567C9.165,9.803,9.616,9.94,10.098,9.94c0.455,0,0.882-0.122,1.251-0.334
		c0.368,0.213,0.796,0.334,1.251,0.334c1.383,0,2.509-1.125,2.509-2.509C15.108,6.048,13.983,4.922,12.599,4.922z M4.466,9.502
		H3.326v-1.23L2.913,8.734L2.506,8.272v1.23H1.363V6.951H2.47l0.443,0.511l0.438-0.511h1.116V9.502z M6.945,9.502L6.559,9.024
		L6.168,9.502H4.861l1.047-1.286l-1.02-1.265h1.259l0.386,0.486l0.752-0.928H5.46V5.361h2.754h1.34l-2.37,2.898l0.987,1.243H6.945z
		 M4.905,8.751V7.671l0.437,0.541L4.905,8.751z M10.098,9.502c-0.995,0-1.826-0.702-2.025-1.637l1.82-2.226l0.232-0.278
		c1.131,0.014,2.044,0.936,2.044,2.07C12.169,8.575,11.242,9.502,10.098,9.502z M12.599,9.502c-0.303,0-0.592-0.065-0.851-0.182
		c0.282-0.246,0.508-0.554,0.657-0.903c0.063,0.012,0.128,0.019,0.194,0.019c0.554,0,1.004-0.451,1.004-1.004
		c0-0.554-0.451-1.004-1.004-1.004c-0.066,0-0.131,0.007-0.194,0.019c-0.149-0.349-0.376-0.657-0.657-0.903
		c0.26-0.117,0.548-0.182,0.851-0.182c1.144,0,2.071,0.927,2.071,2.071C14.67,8.575,13.743,9.502,12.599,9.502z M12.543,6.868
		c0.018-0.002,0.037-0.003,0.056-0.003c0.313,0,0.566,0.254,0.566,0.566c0,0.313-0.253,0.566-0.566,0.566
		c-0.019,0-0.038-0.001-0.056-0.003c0,0,0,0,0,0c0.042-0.181,0.064-0.37,0.064-0.564C12.607,7.238,12.585,7.049,12.543,6.868z"/>
	<rect x="12.003" y="10.514" fill="#FFFFFF" width="0.154" height="0.553"/>
</g>
</svg>
