<?xml version="1.0" encoding="utf-8"?>
<!-- Generator: Adobe Illustrator 27.3.1, SVG Export Plug-In . SVG Version: 6.00 Build 0)  -->
<svg version="1.1" id="Layer_1" xmlns="http://www.w3.org/2000/svg" xmlns:xlink="http://www.w3.org/1999/xlink" x="0px" y="0px"
	 width="16px" height="16px" viewBox="0 0 16 16" enable-background="new 0 0 16 16" xml:space="preserve">
<g>
	<path fill="#FFFFFF" d="M9.484,10.022c0.03,0.051,0.086,0.083,0.146,0.083c0.03,0,0.059-0.008,0.085-0.023
		c0.039-0.023,0.066-0.059,0.078-0.103C9.804,9.935,9.798,9.89,9.775,9.851L9.156,8.795c0.315-0.301,0.487-0.701,0.487-1.128
		c0-0.879-0.742-1.594-1.655-1.594c-0.913,0-1.655,0.715-1.655,1.594c0,0.425,0.171,0.823,0.482,1.123L6.201,9.852
		C6.179,9.891,6.173,9.936,6.184,9.98c0.012,0.044,0.039,0.08,0.078,0.102c0.026,0.015,0.055,0.023,0.085,0.023
		c0.06,0,0.116-0.032,0.146-0.084L7.084,9c0.269,0.17,0.581,0.26,0.905,0.26c0.321,0,0.631-0.088,0.899-0.256L9.484,10.022z
		 M8.979,8.493l-0.856-1.46C8.093,6.982,8.038,6.95,7.978,6.95c-0.06,0-0.116,0.032-0.146,0.084L6.991,8.487
		c-0.207-0.229-0.321-0.517-0.321-0.82c0-0.693,0.591-1.256,1.318-1.256c0.727,0,1.318,0.564,1.318,1.256
		C9.306,7.973,9.19,8.264,8.979,8.493z M8.717,8.713C8.5,8.85,8.249,8.923,7.988,8.923c-0.264,0-0.517-0.074-0.735-0.215
		l0.726-1.254L8.717,8.713z"/>
	<path fill="#FFFFFF" d="M5.386,5.037L3.648,4.575c-0.026-0.007-0.054,0.003-0.07,0.025L3.427,4.808
		C3.411,4.83,3.411,4.86,3.426,4.882l0.986,1.505c0.011,0.018,0.031,0.028,0.051,0.03l0.004,0c0.021,0,0.041-0.01,0.053-0.027
		l0.138-0.191c0.016-0.022,0.017-0.052,0.001-0.075L4.423,5.772L4.8,5.251l0.408,0.113c0.026,0.007,0.055-0.003,0.071-0.025
		l0.144-0.2c0.013-0.018,0.016-0.04,0.008-0.06C5.424,5.058,5.407,5.042,5.386,5.037z M4.466,5.159L4.23,5.486L3.907,5.003
		L4.466,5.159z"/>
	<path fill="#FFFFFF" d="M6.385,4.552c0.007,0,0.014-0.001,0.021-0.003l0.975-0.327c0.017-0.006,0.03-0.017,0.038-0.033
		c0.008-0.016,0.009-0.033,0.003-0.05L7.361,3.955c-0.006-0.017-0.017-0.03-0.033-0.038c-0.016-0.008-0.033-0.009-0.05-0.003
		l-0.7,0.235L6.126,2.801C6.12,2.784,6.108,2.771,6.093,2.763C6.077,2.756,6.059,2.754,6.043,2.76L5.829,2.831
		c-0.017,0.006-0.03,0.017-0.038,0.033C5.784,2.88,5.782,2.898,5.788,2.914l0.535,1.592C6.332,4.534,6.357,4.552,6.385,4.552z"/>
	<path fill="#FFFFFF" d="M9.691,2.67l-0.58-0.182C9.076,2.477,9.039,2.496,9.028,2.53L8.525,4.133
		C8.519,4.15,8.521,4.167,8.529,4.183C8.537,4.198,8.551,4.21,8.567,4.215l0.629,0.198c0.11,0.034,0.21,0.052,0.299,0.052
		c0.243,0,0.412-0.13,0.489-0.376c0.057-0.182,0.018-0.337-0.11-0.449c0.136-0.042,0.241-0.147,0.287-0.293
		C10.231,3.128,10.205,2.832,9.691,2.67z M9.602,2.979C9.837,3.053,9.835,3.163,9.808,3.25C9.776,3.351,9.718,3.396,9.621,3.396
		c-0.041,0-0.089-0.008-0.143-0.023L9.168,3.275l0.124-0.394L9.602,2.979z M9.634,3.982C9.6,4.088,9.545,4.134,9.448,4.134h0
		c-0.046,0-0.1-0.01-0.166-0.031L8.941,3.996l0.132-0.419l0.341,0.107C9.665,3.762,9.668,3.873,9.634,3.982z"/>
	<path fill="#FFFFFF" d="M11.597,5.804l-0.239,0.349c-0.015,0.022-0.015,0.052,0,0.075L11.5,6.43
		c0.012,0.017,0.032,0.028,0.054,0.028c0.022,0,0.042-0.011,0.054-0.029l1.002-1.494c0.015-0.022,0.015-0.052-0.001-0.074
		l-0.148-0.21c-0.016-0.022-0.044-0.033-0.07-0.026l-1.743,0.443c-0.021,0.005-0.038,0.021-0.046,0.041
		c-0.007,0.02-0.004,0.043,0.008,0.06l0.136,0.193c0.016,0.022,0.044,0.032,0.07,0.026l0.409-0.108L11.597,5.804z M12.121,5.04
		l-0.329,0.478l-0.233-0.33L12.121,5.04z"/>
	<path fill="#FFFFFF" d="M12.683,7.377c-0.026-0.001-0.053-0.002-0.078-0.002c-0.634,0-0.881,0.403-0.901,0.781
		c-0.012,0.229,0.06,0.44,0.202,0.594c0.157,0.17,0.396,0.268,0.689,0.283c0.026,0.001,0.053,0.002,0.078,0.002
		c0.271,0,0.499-0.08,0.659-0.23c0.148-0.139,0.232-0.329,0.244-0.55C13.604,7.751,13.253,7.407,12.683,7.377z M13.251,8.237
		c-0.014,0.274-0.223,0.431-0.572,0.431c0,0,0,0,0,0c-0.021,0-0.042-0.001-0.064-0.002c-0.191-0.01-0.345-0.062-0.447-0.149
		c-0.099-0.086-0.145-0.202-0.138-0.345c0.014-0.274,0.222-0.431,0.569-0.431c0.021,0,0.042,0.001,0.064,0.002
		c0.192,0.01,0.347,0.062,0.449,0.149C13.212,7.978,13.259,8.094,13.251,8.237z"/>
	<path fill="#FFFFFF" d="M11.249,10.029c-0.012-0.011-0.029-0.017-0.048-0.016c-0.017,0.001-0.034,0.009-0.045,0.022l-0.149,0.169
		c-0.012,0.013-0.017,0.03-0.016,0.047c0.001,0.018,0.009,0.034,0.022,0.045l0.445,0.393l-0.164,0.186
		c-0.133,0.151-0.212,0.296-0.233,0.432c-0.029,0.179,0.038,0.341,0.198,0.482c0.116,0.103,0.239,0.155,0.365,0.155
		c0.176,0,0.356-0.103,0.535-0.306l0.356-0.404c0.024-0.027,0.021-0.069-0.006-0.092L11.249,10.029z M12.08,11.237l-0.171,0.194
		c-0.069,0.079-0.153,0.159-0.243,0.159c-0.052,0-0.105-0.025-0.164-0.077c-0.161-0.142-0.112-0.26,0.027-0.418l0.171-0.194
		L12.08,11.237z"/>
	<path fill="#FFFFFF" d="M9.873,12.959c-0.004-0.017-0.014-0.032-0.029-0.041c-0.015-0.009-0.032-0.012-0.05-0.008l-0.456,0.104
		l-0.317-1.386c-0.004-0.017-0.014-0.031-0.029-0.041s-0.032-0.012-0.05-0.008l-0.219,0.05c-0.017,0.004-0.032,0.014-0.041,0.029
		c-0.009,0.015-0.012,0.032-0.008,0.049l0.317,1.386l-0.456,0.104c-0.017,0.004-0.032,0.014-0.041,0.029
		c-0.009,0.015-0.012,0.032-0.008,0.05l0.043,0.188c0.004,0.017,0.015,0.032,0.029,0.041c0.01,0.007,0.023,0.01,0.035,0.01
		c0.005,0,0.01-0.001,0.015-0.002l1.259-0.288c0.035-0.008,0.057-0.043,0.049-0.079L9.873,12.959z"/>
	<path fill="#FFFFFF" d="M7.002,11.565l-0.215-0.067c-0.017-0.005-0.035-0.004-0.05,0.004c-0.015,0.008-0.027,0.022-0.032,0.039
		l-0.499,1.604c-0.011,0.034,0.009,0.071,0.043,0.082l0.215,0.067c0.006,0.002,0.013,0.003,0.019,0.003
		c0.011,0,0.021-0.003,0.03-0.007c0.016-0.008,0.027-0.022,0.032-0.039l0.499-1.604C7.056,11.612,7.037,11.575,7.002,11.565z"/>
	<path fill="#FFFFFF" d="M4.572,10.047c-0.14,0-0.275,0.046-0.39,0.132c-0.028,0.021-0.034,0.06-0.015,0.089l0.12,0.182
		c0.01,0.015,0.025,0.025,0.042,0.028c0.017,0.003,0.035,0,0.05-0.01c0.065-0.045,0.144-0.069,0.22-0.069
		c0.082,0,0.203,0.028,0.318,0.162c0.077,0.091,0.112,0.204,0.098,0.318c-0.018,0.144-0.109,0.286-0.27,0.423
		C4.592,11.431,4.438,11.5,4.298,11.5c-0.12,0-0.231-0.052-0.311-0.146c-0.123-0.145-0.174-0.37-0.007-0.546
		c0.012-0.013,0.019-0.03,0.018-0.048c-0.001-0.017-0.008-0.034-0.021-0.046l-0.161-0.148c-0.026-0.024-0.065-0.023-0.09,0.001
		c-0.27,0.262-0.265,0.671,0.012,0.995c0.158,0.185,0.37,0.287,0.597,0.287c0.217,0,0.441-0.094,0.65-0.272
		c0.225-0.192,0.355-0.416,0.376-0.648c0.019-0.207-0.051-0.414-0.197-0.585C4.999,10.153,4.788,10.047,4.572,10.047z"/>
	<path fill="#FFFFFF" d="M3.73,7.777L3.73,7.777C3.837,7.772,3.958,7.869,3.967,8.09c0.011,0.271-0.18,0.398-0.304,0.414
		C3.646,8.506,3.63,8.516,3.619,8.53c-0.01,0.014-0.015,0.032-0.012,0.05l0.036,0.216C3.649,8.827,3.676,8.85,3.708,8.85l0.007,0
		c0.358-0.038,0.596-0.356,0.579-0.774C4.277,7.675,4.031,7.405,3.696,7.419C3.418,7.431,3.264,7.603,3.197,7.976L3.152,8.227
		C3.114,8.431,3.058,8.473,2.974,8.476C2.844,8.481,2.756,8.37,2.749,8.189c-0.008-0.189,0.09-0.334,0.244-0.361
		c0.035-0.006,0.059-0.04,0.053-0.075L3.01,7.537C3.004,7.502,2.973,7.479,2.938,7.483c-0.33,0.041-0.532,0.324-0.515,0.72
		C2.44,8.64,2.71,8.835,2.969,8.835c0.007,0,0.015,0,0.022,0C3.173,8.827,3.406,8.736,3.48,8.342l0.048-0.257
		C3.575,7.832,3.638,7.781,3.73,7.777z"/>
	<path fill="#FFFFFF" d="M14.423,5.287c-0.351-0.83-0.854-1.576-1.494-2.216c-0.64-0.64-1.386-1.143-2.216-1.494
		C9.854,1.214,8.941,1.029,8,1.029c-0.941,0-1.854,0.184-2.713,0.548c-0.83,0.351-1.576,0.854-2.216,1.494
		c-0.64,0.64-1.143,1.386-1.494,2.216C1.214,6.146,1.029,7.059,1.029,8c0,0.941,0.184,1.854,0.548,2.713
		c0.351,0.83,0.854,1.576,1.494,2.216c0.64,0.64,1.386,1.143,2.216,1.494C6.146,14.786,7.059,14.971,8,14.971
		c0.941,0,1.854-0.184,2.713-0.548c0.83-0.351,1.576-0.854,2.216-1.494c0.64-0.64,1.143-1.386,1.494-2.216
		C14.786,9.854,14.971,8.941,14.971,8C14.971,7.059,14.786,6.146,14.423,5.287z M14.62,8c0,0.894-0.175,1.761-0.52,2.577
		c-0.333,0.788-0.811,1.496-1.419,2.104c-0.608,0.608-1.316,1.085-2.104,1.419C9.761,14.445,8.894,14.62,8,14.62
		c-0.894,0-1.761-0.175-2.577-0.52c-0.788-0.333-1.496-0.811-2.104-1.419c-0.608-0.608-1.085-1.316-1.419-2.104
		C1.555,9.761,1.38,8.894,1.38,8c0-0.894,0.175-1.761,0.52-2.577c0.333-0.788,0.811-1.496,1.419-2.104
		C3.927,2.711,4.635,2.233,5.423,1.9C6.239,1.555,7.106,1.38,8,1.38c0.894,0,1.761,0.175,2.577,0.52
		c0.788,0.333,1.496,0.811,2.104,1.419c0.608,0.608,1.086,1.316,1.419,2.104C14.445,6.239,14.62,7.106,14.62,8z"/>
</g>
</svg>
