<?xml version="1.0" encoding="utf-8"?>
<!-- Generator: Adobe Illustrator 27.3.1, SVG Export Plug-In . SVG Version: 6.00 Build 0)  -->
<svg version="1.1" id="Layer_1" xmlns="http://www.w3.org/2000/svg" xmlns:xlink="http://www.w3.org/1999/xlink" x="0px" y="0px"
	 width="16px" height="16px" viewBox="0 0 16 16" enable-background="new 0 0 16 16" xml:space="preserve">
<g id="SqiD1I_00000008130381885468644670000004674970625535686055_">
	<g>
		<path fill="#FFFFFF" d="M3.997,3.763c0.025,0.006,0.049,0.013,0.074,0.016c0.297,0.037,0.57,0.146,0.829,0.29
			c0.288,0.16,0.546,0.36,0.785,0.585c0.374,0.35,0.691,0.747,0.978,1.17C6.715,5.9,6.764,5.977,6.815,6.054
			c0.006,0.009,0.01,0.019,0.019,0.035c-0.073-0.01-0.14-0.018-0.206-0.029C6.346,6.014,6.069,5.952,5.798,5.86
			c-0.356-0.121-0.691-0.284-0.99-0.515C4.45,5.066,4.183,4.719,4.035,4.287c-0.059-0.17-0.094-0.344-0.106-0.524
			C3.952,3.763,3.974,3.763,3.997,3.763z"/>
		<path fill="#FFFFFF" d="M12.17,3.763c-0.013,0.224-0.064,0.439-0.15,0.646c-0.15,0.361-0.383,0.658-0.686,0.903
			c-0.292,0.236-0.621,0.402-0.973,0.527c-0.278,0.099-0.564,0.169-0.856,0.215c-0.077,0.012-0.155,0.024-0.24,0.037
			c0.009-0.017,0.013-0.027,0.019-0.036c0.257-0.405,0.541-0.79,0.869-1.141c0.27-0.288,0.563-0.549,0.899-0.759
			c0.226-0.142,0.465-0.259,0.724-0.326c0.092-0.024,0.186-0.036,0.279-0.054c0.015-0.003,0.03-0.008,0.045-0.013
			C12.125,3.763,12.147,3.763,12.17,3.763z"/>
		<path fill="#FFFFFF" d="M8.074,8.135c-0.062-0.072-0.12-0.139-0.176-0.207c-0.264-0.325-0.478-0.68-0.622-1.074
			c-0.083-0.226-0.14-0.458-0.165-0.698C7.096,6.007,7.093,5.859,7.105,5.711c0.001-0.014,0.006-0.029,0.006-0.043
			c0-0.031,0.017-0.05,0.04-0.067C7.313,5.48,7.489,5.389,7.684,5.334c0.335-0.094,0.657-0.057,0.966,0.1
			c0.112,0.057,0.216,0.128,0.314,0.207C8.99,5.662,9.001,5.687,9.005,5.719c0.038,0.34-0.004,0.672-0.102,0.998
			c-0.12,0.4-0.314,0.761-0.563,1.094C8.268,7.908,8.189,8,8.113,8.094C8.103,8.106,8.091,8.117,8.074,8.135z"/>
		<path fill="#FFFFFF" d="M12.461,11.467c0.017,0.008,0.025,0.013,0.034,0.016c0.009,0.003,0.018,0.006,0.028,0.008
			c0.14,0.037,0.214,0.129,0.225,0.273c0.006,0.077,0.015,0.154,0.018,0.231c0.004,0.113,0.002,0.114,0.058,0.206
			c-0.014,0.001-0.026,0.002-0.039,0.002c-0.137,0-0.274,0-0.411,0c-0.054,0-0.072-0.011-0.083-0.066
			c-0.011-0.05-0.016-0.102-0.021-0.153c-0.005-0.054-0.005-0.109-0.011-0.164c-0.003-0.027-0.011-0.054-0.02-0.079
			c-0.023-0.063-0.065-0.109-0.134-0.119c-0.063-0.01-0.127-0.02-0.191-0.021c-0.16-0.003-0.319-0.001-0.479-0.001
			c-0.019,0-0.038,0.004-0.061,0.006c0,0.198,0,0.393,0,0.593c-0.057,0.008-0.109,0.003-0.161,0.004c-0.052,0.001-0.103,0-0.155,0
			c-0.053,0-0.105-0.001-0.162-0.001c-0.001-0.024-0.003-0.041-0.003-0.058c0-0.432,0.001-0.864-0.001-1.296
			c0-0.067,0.028-0.11,0.084-0.14c0.046-0.025,0.096-0.036,0.148-0.036c0.132,0,0.264,0,0.396,0c0.214,0,0.429-0.001,0.643,0.002
			c0.121,0.002,0.241,0.018,0.356,0.058c0.071,0.024,0.135,0.06,0.191,0.11c0.135,0.121,0.166,0.411-0.059,0.545
			c-0.045,0.027-0.097,0.042-0.146,0.063C12.494,11.455,12.482,11.459,12.461,11.467z M11.377,10.928c0,0.139,0,0.274,0,0.412
			c0.018,0.002,0.034,0.006,0.05,0.006c0.211-0.001,0.422-0.002,0.633-0.006c0.061-0.001,0.121-0.015,0.177-0.044
			c0.077-0.04,0.111-0.113,0.094-0.198c-0.009-0.049-0.036-0.085-0.076-0.112c-0.076-0.05-0.162-0.063-0.249-0.064
			c-0.192-0.002-0.383-0.001-0.575,0C11.412,10.922,11.395,10.925,11.377,10.928z"/>
		<path fill="#FFFFFF" d="M7.105,7.152C7.156,7.254,7.2,7.348,7.249,7.44c0.18,0.339,0.403,0.648,0.658,0.934
			c0.045,0.051,0.087,0.104,0.13,0.156c0.01,0.012,0.021,0.023,0.036,0.039c0.384-0.406,0.705-0.849,0.936-1.366
			C9.027,7.31,9.027,7.406,9.025,7.502C9.018,7.883,8.922,8.243,8.768,8.59C8.602,8.966,8.372,9.301,8.101,9.608
			C8.095,9.616,8.087,9.622,8.078,9.63C8.07,9.624,8.062,9.619,8.056,9.612C7.73,9.25,7.464,8.849,7.288,8.392
			C7.198,8.156,7.136,7.913,7.107,7.663C7.088,7.496,7.086,7.329,7.105,7.152z"/>
		<path fill="#FFFFFF" d="M6.253,12.203c0-0.026,0-0.044,0-0.061c0-0.43,0.001-0.861-0.001-1.291c0-0.072,0.03-0.118,0.09-0.145
			c0.037-0.017,0.08-0.032,0.12-0.032c0.292-0.002,0.583-0.005,0.875,0.001c0.171,0.004,0.34,0.032,0.501,0.094
			c0.19,0.074,0.33,0.199,0.395,0.396c0.052,0.157,0.056,0.317,0.014,0.476c-0.05,0.191-0.174,0.324-0.346,0.414
			c-0.144,0.076-0.299,0.12-0.462,0.129c-0.183,0.01-0.367,0.015-0.55,0.018c-0.192,0.003-0.383,0.001-0.575,0.001
			C6.296,12.203,6.279,12.203,6.253,12.203z M6.724,11.932c0.017,0.002,0.033,0.006,0.049,0.005
			c0.167-0.002,0.335-0.002,0.502-0.009c0.103-0.004,0.204-0.029,0.297-0.076c0.098-0.049,0.161-0.127,0.189-0.232
			c0.031-0.116,0.031-0.233,0.005-0.349c-0.034-0.153-0.129-0.253-0.277-0.302c-0.085-0.028-0.172-0.041-0.261-0.041
			c-0.151-0.001-0.303,0-0.454,0c-0.016,0-0.031,0.002-0.05,0.004C6.724,11.266,6.724,11.597,6.724,11.932z"/>
		<path fill="#FFFFFF" d="M9.08,11.195c0,0.142,0,0.284,0,0.425c0,0.029,0,0.058,0.004,0.087c0.02,0.126,0.09,0.208,0.214,0.24
			c0.164,0.042,0.328,0.042,0.492-0.001c0.012-0.003,0.024-0.008,0.036-0.013c0.124-0.045,0.18-0.139,0.189-0.266
			c0.002-0.03,0.001-0.061,0.001-0.092c0-0.271,0-0.541,0-0.812c0-0.011,0-0.023,0-0.034c0-0.065,0-0.065,0.063-0.065
			c0.119,0,0.238,0,0.358,0c0.01,0,0.019,0,0.029,0c0.024-0.001,0.036,0.01,0.035,0.035c0,0.01,0,0.019,0,0.029
			c0,0.301,0.001,0.603-0.001,0.904c0,0.061-0.008,0.123-0.023,0.181c-0.027,0.108-0.095,0.188-0.185,0.251
			c-0.106,0.074-0.225,0.117-0.352,0.14c-0.209,0.038-0.42,0.038-0.631,0.022c-0.116-0.009-0.23-0.029-0.339-0.07
			c-0.09-0.033-0.172-0.08-0.242-0.147c-0.084-0.08-0.129-0.179-0.137-0.295c-0.002-0.031-0.003-0.061-0.003-0.092
			c0-0.248,0-0.496,0-0.745c0-0.045-0.004-0.091,0.031-0.127c0.039-0.041,0.086-0.072,0.142-0.076
			c0.095-0.007,0.19-0.007,0.285-0.01c0.022-0.001,0.032,0.011,0.032,0.033c0,0.011,0,0.023,0,0.034
			C9.08,10.886,9.08,11.04,9.08,11.195z"/>
		<path fill="#FFFFFF" d="M15.241,12.203c-0.057,0-0.104,0-0.151,0c-0.103,0-0.206-0.001-0.309,0.001
			c-0.033,0.001-0.053-0.009-0.067-0.04c-0.037-0.079-0.079-0.155-0.116-0.234c-0.016-0.033-0.035-0.047-0.074-0.047
			c-0.28,0.002-0.561,0.002-0.841,0c-0.04,0-0.061,0.014-0.076,0.049c-0.035,0.079-0.075,0.157-0.112,0.236
			c-0.012,0.025-0.027,0.036-0.055,0.036c-0.148-0.001-0.296-0.001-0.445-0.001c-0.005,0-0.009-0.001-0.016-0.002
			c-0.006-0.02,0.009-0.033,0.017-0.047c0.219-0.398,0.439-0.795,0.658-1.193c0.03-0.055,0.063-0.109,0.091-0.165
			c0.04-0.081,0.11-0.118,0.195-0.121c0.137-0.005,0.274-0.001,0.411-0.003c0.026,0,0.037,0.015,0.047,0.034
			c0.066,0.116,0.131,0.233,0.197,0.349c0.207,0.366,0.413,0.732,0.62,1.098C15.222,12.166,15.229,12.181,15.241,12.203z
			 M14.435,11.627c-0.014-0.055-0.306-0.621-0.338-0.652c-0.023,0.044-0.045,0.086-0.067,0.128
			c-0.023,0.044-0.046,0.089-0.069,0.133c-0.022,0.043-0.044,0.086-0.066,0.129c-0.023,0.044-0.046,0.089-0.068,0.133
			c-0.021,0.042-0.048,0.082-0.06,0.129C13.816,11.641,14.39,11.64,14.435,11.627z"/>
		<path fill="#FFFFFF" d="M3.025,12.201c-0.023,0.001-0.035,0.003-0.048,0.003c-0.137,0-0.274-0.001-0.411,0.001
			c-0.036,0.001-0.055-0.013-0.07-0.044c-0.038-0.08-0.08-0.158-0.118-0.238c-0.014-0.029-0.032-0.039-0.064-0.038
			c-0.285,0.001-0.57,0.001-0.855,0c-0.035,0-0.052,0.014-0.065,0.044c-0.036,0.079-0.076,0.157-0.112,0.236
			c-0.014,0.03-0.032,0.042-0.067,0.042c-0.137-0.002-0.274-0.001-0.411-0.001c-0.013,0-0.025-0.002-0.046-0.003
			c0.01-0.021,0.017-0.038,0.026-0.054c0.164-0.298,0.328-0.595,0.492-0.893c0.084-0.152,0.17-0.304,0.251-0.457
			c0.043-0.082,0.112-0.12,0.199-0.122c0.135-0.004,0.271-0.001,0.406-0.003c0.031,0,0.041,0.02,0.053,0.041
			c0.089,0.157,0.177,0.314,0.266,0.471c0.18,0.318,0.359,0.637,0.539,0.955C3.002,12.157,3.011,12.175,3.025,12.201z M1.891,10.968
			c-0.014,0.019-0.021,0.028-0.026,0.037c-0.1,0.196-0.201,0.393-0.301,0.59c-0.005,0.01-0.007,0.023-0.01,0.036
			c0.015,0.003,0.024,0.006,0.034,0.006c0.2,0,0.4,0,0.599,0c0.012,0,0.023-0.005,0.041-0.01
			C2.115,11.407,2.005,11.192,1.891,10.968z"/>
		<path fill="#FFFFFF" d="M3.751,11.652c0,0.185,0,0.364,0,0.546C3.733,12.2,3.72,12.203,3.706,12.203c-0.131,0-0.261,0-0.392,0
			c-0.046,0-0.048-0.003-0.048-0.051c0-0.321,0-0.642,0-0.962c0-0.113,0.002-0.226-0.001-0.339
			c-0.001-0.064,0.025-0.108,0.079-0.139c0.044-0.025,0.091-0.04,0.142-0.04c0.093-0.001,0.187-0.001,0.28-0.001
			c0.221,0,0.442-0.002,0.663,0.002c0.123,0.002,0.245,0.019,0.359,0.067c0.049,0.02,0.096,0.046,0.139,0.077
			c0.104,0.076,0.154,0.183,0.16,0.311c0.003,0.067-0.002,0.132-0.026,0.195c-0.046,0.12-0.133,0.2-0.249,0.25
			c-0.099,0.042-0.203,0.066-0.31,0.069c-0.226,0.005-0.451,0.004-0.677,0.005C3.804,11.648,3.782,11.65,3.751,11.652z
			 M3.754,10.931c0,0.153,0,0.299,0,0.449c0.023,0.002,0.043,0.005,0.064,0.005c0.134,0,0.267,0.001,0.401,0
			c0.048,0,0.097-0.002,0.144-0.008c0.053-0.006,0.104-0.019,0.151-0.045c0.078-0.043,0.102-0.112,0.096-0.195
			c-0.005-0.081-0.044-0.14-0.12-0.172c-0.063-0.027-0.13-0.038-0.198-0.038c-0.163-0.001-0.325,0-0.488,0
			C3.79,10.928,3.774,10.93,3.754,10.931z"/>
		<path fill="#FFFFFF" d="M11.771,7.194c-0.052,0.021-0.097,0.041-0.144,0.058c-0.2,0.071-0.407,0.106-0.62,0.108
			c-0.332,0.003-0.644-0.078-0.938-0.229C9.763,6.973,9.503,6.754,9.269,6.501c-0.003-0.003-0.004-0.008-0.01-0.017
			c0.023-0.003,0.043-0.008,0.063-0.008C9.51,6.472,9.699,6.462,9.887,6.467c0.347,0.01,0.69,0.051,1.023,0.153
			c0.222,0.068,0.431,0.16,0.615,0.305c0.087,0.068,0.163,0.146,0.227,0.236C11.758,7.169,11.762,7.178,11.771,7.194z"/>
		<path fill="#FFFFFF" d="M6.841,6.485C6.835,6.495,6.832,6.5,6.828,6.505C6.615,6.734,6.38,6.935,6.107,7.089
			C5.868,7.224,5.615,7.314,5.343,7.346c-0.334,0.039-0.658,0-0.969-0.133C4.359,7.207,4.346,7.199,4.329,7.19
			c0.014-0.02,0.024-0.036,0.035-0.051c0.122-0.161,0.279-0.28,0.457-0.372c0.202-0.104,0.417-0.17,0.638-0.215
			C5.675,6.507,5.894,6.48,6.115,6.473c0.156-0.005,0.312-0.006,0.468-0.006c0.066,0,0.132,0.006,0.198,0.01
			C6.8,6.477,6.818,6.482,6.841,6.485z"/>
		<path fill="#FFFFFF" d="M5.877,10.678c0,0.507,0,1.013,0,1.521c-0.017,0.002-0.031,0.004-0.045,0.004c-0.127,0-0.255,0-0.382,0
			c-0.048,0-0.05-0.002-0.05-0.048c0-0.438,0-0.877-0.001-1.315c0-0.055,0.023-0.092,0.066-0.121
			c0.04-0.027,0.084-0.044,0.131-0.045c0.087-0.003,0.174-0.001,0.261-0.001C5.862,10.673,5.867,10.675,5.877,10.678z"/>
		<path fill="#FFFFFF" d="M8.585,5.025c-0.35-0.128-0.698-0.132-1.052-0.016c-0.005-0.022-0.011-0.04-0.011-0.058
			C7.52,4.742,7.561,4.544,7.68,4.369c0.057-0.084,0.128-0.153,0.222-0.195c0.15-0.066,0.318-0.032,0.445,0.09
			c0.105,0.099,0.167,0.223,0.206,0.36C8.59,4.752,8.602,4.882,8.585,5.025z"/>
	</g>
</g>
</svg>
