<?xml version="1.0" encoding="utf-8"?>
<!-- Generator: Adobe Illustrator 27.3.1, SVG Export Plug-In . SVG Version: 6.00 Build 0)  -->
<svg version="1.1" id="Layer_1" xmlns="http://www.w3.org/2000/svg" xmlns:xlink="http://www.w3.org/1999/xlink" x="0px" y="0px"
	 width="16px" height="16px" viewBox="0 0 16 16" enable-background="new 0 0 16 16" xml:space="preserve">
<g>
	<path fill="#FFFFFF" d="M8.001,6.534c-0.121,0-0.218,0.098-0.218,0.218c0,0.121,0.098,0.219,0.218,0.219
		c0.121,0,0.218-0.098,0.218-0.219C8.219,6.632,8.121,6.534,8.001,6.534"/>
	<polygon fill="#FFFFFF" points="7.966,5.059 7.779,5.303 7.511,5.059 7.641,5.482 7.642,5.482 7.956,5.482 7.975,5.482 
		8.289,5.482 8.29,5.482 8.42,5.059 8.152,5.303 	"/>
	<path fill="#FFFFFF" d="M7.775,10.947l-0.207,0.744h0.217L7.577,12.45l0.716-0.895c0,0-0.097-0.002-0.202-0.003l0.184-0.604
		C8.274,10.947,7.775,10.938,7.775,10.947"/>
	<path fill="#FFFFFF" d="M11.109,7.054h-0.211c0.003-0.058,0.005-0.117,0.005-0.176c0-1.604-1.305-2.908-2.908-2.908
		c-1.604,0-2.908,1.305-2.908,2.908c0,0.059,0.002,0.118,0.005,0.176H4.891H0.285C0.999,7.876,1.777,7.962,1.97,7.97h2.62
		L2.094,8.786c0.062,0.058,0.127,0.109,0.194,0.155c0.33,0.245,0.59,0.337,0.713,0.37C3.32,9.408,3.539,9.363,3.62,9.339
		c0,0,0,0,0,0l0.004-0.002c0.005-0.002,0.01-0.003,0.014-0.005L5.3,8.779l-1.8,1.333c0.067,0.051,0.134,0.094,0.2,0.131
		c0.629,0.364,0.983,0.21,1.108,0.125c0,0,0.001,0,0.001,0c0.001-0.001,0.002-0.002,0.003-0.003c0.032-0.023,0.048-0.04,0.048-0.04
		h0C5.302,9.96,5.788,9.553,6.078,9.309c0.213,0.165,0.447,0.305,0.699,0.41c0.125,0.052,0.254,0.096,0.387,0.132l0.089,0.321
		L6.97,10.283l0.273,0.095l-0.749,1.024l-0.429-0.034c-0.041,0.001-0.071,0.035-0.067,0.075c0.004,0.04,0.04,0.072,0.08,0.07
		l0.399-0.089l-0.009,0.013l-0.301,0.257c-0.028,0.03-0.025,0.075,0.006,0.101c0.031,0.026,0.079,0.023,0.106-0.007l0.201-0.316
		l0.021-0.02L6.47,11.855c0.001,0.041,0.035,0.071,0.075,0.067c0.04-0.004,0.072-0.04,0.07-0.08l-0.091-0.41l0.966-0.917
		l0.231,0.203l-0.033-0.236h0.686l-0.033,0.236l0.231-0.203l0.966,0.917l-0.091,0.41c-0.002,0.041,0.03,0.077,0.07,0.08
		c0.04,0.004,0.074-0.026,0.075-0.067L9.56,11.453l0.021,0.02l0.201,0.316c0.028,0.03,0.075,0.033,0.107,0.007
		c0.031-0.026,0.034-0.071,0.006-0.101l-0.301-0.257l-0.009-0.013l0.399,0.089c0.041,0.001,0.077-0.03,0.08-0.07
		c0.004-0.04-0.026-0.074-0.067-0.075l-0.429,0.034l-0.749-1.024l0.273-0.095l-0.293-0.116l0.1-0.334
		c0.111-0.032,0.219-0.07,0.324-0.114c0.252-0.105,0.486-0.245,0.699-0.41c0.29,0.243,0.776,0.65,1.218,1.016l0,0
		c0,0,0.016,0.017,0.048,0.04c0.001,0.001,0.002,0.002,0.003,0.003c0,0,0.001,0,0.001,0c0.125,0.086,0.479,0.24,1.108-0.125
		c0.066-0.037,0.133-0.08,0.2-0.131l-1.8-1.333l1.661,0.553c0.004,0.002,0.009,0.003,0.014,0.005l0.004,0.002c0,0,0,0,0,0
		c0.081,0.025,0.3,0.07,0.619-0.028c0.123-0.033,0.383-0.125,0.713-0.37c0.066-0.046,0.131-0.098,0.194-0.155L11.41,7.97h2.62
		c0.192-0.008,0.97-0.094,1.685-0.916H11.109z M5.183,6.878c0-1.551,1.262-2.812,2.812-2.812c1.551,0,2.812,1.262,2.812,2.812
		c0,0.059-0.002,0.118-0.006,0.176h-0.709c0.005-0.058,0.008-0.117,0.008-0.176c0-1.161-0.945-2.106-2.106-2.106
		c-1.161,0-2.106,0.945-2.106,2.106c0,0.059,0.003,0.118,0.008,0.176H5.189C5.185,6.996,5.183,6.937,5.183,6.878 M8.412,6.753
		c0,0.227-0.184,0.411-0.411,0.411c-0.227,0-0.411-0.184-0.411-0.411c0-0.227,0.184-0.411,0.411-0.411
		C8.228,6.341,8.412,6.526,8.412,6.753 M9.335,8.374l0.094-0.316L8.244,8.607H8.17l0.44-0.91L8.59,7.701
		c0.003-0.002,0.006-0.004,0.009-0.006c0.173-0.022,0.672-0.123,0.672-0.534H8.864c0,0,0.001-0.001,0.001-0.001
		c-0.065,0-0.123-0.031-0.159-0.079c0.047-0.014,0.079-0.036,0.107-0.055C8.851,7,8.88,6.979,8.945,6.979
		c0.064,0,0.094,0.021,0.131,0.047c0.043,0.03,0.097,0.068,0.198,0.068c0.032,0,0.058-0.026,0.058-0.058
		c0-0.032-0.026-0.058-0.058-0.058c-0.064,0-0.094-0.021-0.132-0.047c-0.043-0.03-0.097-0.068-0.197-0.068
		c-0.1,0-0.154,0.037-0.197,0.068C8.721,6.95,8.698,6.965,8.665,6.973c0-0.004-0.001-0.008-0.001-0.013c0-0.11,0.09-0.2,0.2-0.2
		h0.433l0.334,0.145V6.76h0c0-0.003,0-0.006,0-0.009V6.744h0C9.617,5.96,8.537,5.732,8.387,5.704
		c-0.12-0.044-0.25-0.069-0.386-0.069c-0.617,0-1.117,0.5-1.117,1.117c0,0.237,0.074,0.456,0.2,0.637l0.388,0.708l0.003-0.003
		l0.232,0.481L6.669,8.058l0.117,0.423c-0.485-0.367-0.8-0.949-0.8-1.603c0-1.108,0.901-2.009,2.009-2.009
		c1.108,0,2.009,0.901,2.009,2.009C10.005,7.471,9.745,8.006,9.335,8.374"/>
	<path fill="#FFFFFF" d="M5.791,6.244L5.745,6.234C5.687,6.22,5.64,6.228,5.611,6.27C5.602,6.228,5.569,6.202,5.512,6.188
		l-0.02-0.005c-0.086-0.02-0.137,0.009-0.158,0.099l-0.03,0.131l0.557,0.13l0.032-0.136C5.912,6.32,5.877,6.264,5.791,6.244
		 M5.558,6.345L5.551,6.379L5.403,6.345l0.01-0.042c0.007-0.031,0.028-0.04,0.068-0.031L5.512,6.28
		C5.556,6.29,5.566,6.313,5.558,6.345 M5.813,6.388l-0.011,0.05L5.63,6.398l0.009-0.039C5.648,6.32,5.668,6.307,5.72,6.319
		L5.768,6.33C5.81,6.34,5.819,6.359,5.813,6.388"/>
	<path fill="#FFFFFF" d="M5.541,6.05l0.275,0.112C5.901,6.196,5.967,6.172,6,6.091C6.033,6.01,6.002,5.946,5.918,5.912L5.642,5.8
		C5.558,5.765,5.491,5.79,5.458,5.871C5.425,5.952,5.456,6.015,5.541,6.05 M5.534,5.901C5.545,5.875,5.566,5.864,5.603,5.88
		l0.286,0.116C5.927,6.011,5.935,6.034,5.924,6.06c-0.011,0.026-0.032,0.037-0.07,0.022L5.569,5.965
		C5.531,5.95,5.523,5.928,5.534,5.901"/>
	<polygon fill="#FFFFFF" points="6.116,5.83 5.775,5.613 6.152,5.774 6.197,5.703 5.884,5.431 6.23,5.652 6.275,5.581 5.793,5.273 
		5.726,5.378 6.036,5.647 5.658,5.484 5.592,5.589 6.074,5.896 	"/>
	<path fill="#FFFFFF" d="M6.423,5.417c0.06-0.065,0.057-0.131-0.008-0.191L6.381,5.194C6.337,5.153,6.292,5.137,6.246,5.16
		c0.013-0.042-0.002-0.08-0.046-0.12L6.186,5.025C6.121,4.966,6.062,4.965,6,5.033L5.908,5.131l0.42,0.388L6.423,5.417z
		 M6.163,5.199L6.14,5.224L6.029,5.122L6.058,5.09c0.021-0.023,0.044-0.021,0.074,0.007l0.023,0.022
		C6.189,5.15,6.186,5.174,6.163,5.199 M6.227,5.251c0.027-0.03,0.051-0.031,0.09,0.005L6.353,5.29c0.031,0.029,0.03,0.05,0.01,0.072
		L6.329,5.399L6.2,5.28L6.227,5.251z"/>
	<path fill="#FFFFFF" d="M6.613,5.234L6.561,5.143l0.086-0.068l0.076,0.072l0.071-0.056L6.369,4.699L6.267,4.78l0.282,0.505
		L6.613,5.234z M6.377,4.822L6.59,5.022L6.522,5.075L6.377,4.822z"/>
	<path fill="#FFFFFF" d="M6.923,5.017L6.81,4.814l0.027-0.015c0.035-0.02,0.06-0.011,0.086,0.035l0.044,0.079
		C6.99,4.953,6.997,4.959,7.008,4.97l0.079-0.044C7.069,4.912,7.059,4.894,7.045,4.87L7.002,4.793
		C6.973,4.741,6.939,4.71,6.891,4.715c0.026-0.036,0.023-0.078-0.005-0.13L6.864,4.546C6.821,4.469,6.766,4.451,6.685,4.495
		L6.567,4.561l0.278,0.5L6.923,5.017z M6.77,4.742L6.685,4.589l0.038-0.021C6.75,4.553,6.771,4.562,6.791,4.597l0.027,0.049
		C6.84,4.687,6.83,4.709,6.801,4.725L6.77,4.742z"/>
	<path fill="#FFFFFF" d="M7.281,4.851c0.084-0.03,0.108-0.092,0.076-0.178L7.259,4.401C7.227,4.315,7.169,4.283,7.086,4.314
		L6.953,4.362l0.195,0.537L7.281,4.851z M7.112,4.391c0.027-0.01,0.048-0.002,0.062,0.037l0.102,0.279
		c0.014,0.038,0.003,0.058-0.024,0.068L7.205,4.792L7.065,4.408L7.112,4.391z"/>
	
		<rect x="7.419" y="4.214" transform="matrix(0.9743 -0.2251 0.2251 0.9743 -0.8215 1.7958)" fill="#FFFFFF" width="0.089" height="0.572"/>
	<polygon fill="#FFFFFF" points="7.898,4.722 7.889,4.641 7.736,4.658 7.718,4.492 7.839,4.478 7.83,4.397 7.709,4.411 7.69,4.253 
		7.843,4.235 7.834,4.154 7.593,4.181 7.657,4.749 	"/>
	<path fill="#FFFFFF" d="M8.071,4.49l0.031,0.001c0.04,0.002,0.057,0.022,0.055,0.075l-0.004,0.09
		C8.152,4.703,8.155,4.712,8.159,4.727L8.25,4.73c-0.008-0.022-0.008-0.042-0.007-0.07l0.004-0.088
		c0.002-0.06-0.011-0.103-0.054-0.124c0.04-0.017,0.06-0.055,0.063-0.114L8.257,4.29C8.26,4.202,8.222,4.157,8.13,4.153L7.996,4.148
		L7.973,4.719l0.089,0.004L8.071,4.49z M8.082,4.233l0.043,0.002c0.032,0.001,0.045,0.02,0.043,0.061L8.165,4.352
		C8.163,4.397,8.143,4.411,8.109,4.41L8.075,4.409L8.082,4.233z"/>
	<path fill="#FFFFFF" d="M8.432,4.77c0.086,0.017,0.14-0.026,0.158-0.116c0.031-0.16-0.135-0.215-0.112-0.331
		c0.008-0.04,0.027-0.052,0.054-0.047C8.56,4.282,8.573,4.3,8.565,4.34L8.561,4.364L8.643,4.38l0.004-0.018
		c0.018-0.09-0.016-0.15-0.101-0.166C8.461,4.179,8.407,4.222,8.389,4.312c-0.031,0.16,0.135,0.216,0.112,0.331
		c-0.008,0.04-0.028,0.051-0.056,0.046C8.418,4.683,8.403,4.665,8.411,4.625l0.008-0.04L8.336,4.568L8.33,4.603
		C8.312,4.693,8.346,4.753,8.432,4.77"/>
	
		<rect x="8.922" y="4.547" transform="matrix(0.3888 -0.9213 0.9213 0.3888 1.2142 11.0856)" fill="#FFFFFF" width="0.082" height="0.162"/>
	<path fill="#FFFFFF" d="M9.235,5.11c0.072,0.05,0.139,0.033,0.191-0.042L9.47,5.006L9.401,4.958L9.354,5.025
		C9.331,5.058,9.308,5.06,9.284,5.044c-0.023-0.016-0.03-0.038-0.006-0.072l0.176-0.254c0.023-0.034,0.047-0.036,0.07-0.02
		C9.548,4.715,9.553,4.738,9.53,4.771l-0.035,0.05L9.564,4.87l0.032-0.046C9.648,4.749,9.641,4.68,9.569,4.63
		C9.497,4.58,9.43,4.597,9.378,4.672l-0.17,0.244C9.156,4.992,9.164,5.06,9.235,5.11"/>
	<polygon fill="#FFFFFF" points="9.458,5.279 9.523,5.341 9.653,5.203 9.998,5.003 9.936,4.944 9.708,5.087 9.838,4.851 9.77,4.787 
		9.589,5.142 	"/>
	<path fill="#FFFFFF" d="M9.736,5.362C9.664,5.418,9.65,5.486,9.704,5.555c0.054,0.069,0.123,0.073,0.195,0.017l0.06-0.047
		L9.907,5.458l-0.065,0.05C9.81,5.533,9.788,5.529,9.77,5.506C9.753,5.484,9.754,5.461,9.786,5.436l0.244-0.189
		c0.032-0.025,0.055-0.021,0.073,0.002c0.017,0.022,0.016,0.046-0.016,0.071l-0.048,0.038l0.052,0.066l0.044-0.034
		c0.072-0.056,0.086-0.124,0.032-0.193c-0.054-0.069-0.123-0.073-0.195-0.017L9.736,5.362z"/>
	<polygon fill="#FFFFFF" points="9.945,5.924 10.016,5.883 9.944,5.756 10.371,5.515 10.328,5.438 9.83,5.719 	"/>
	<polygon fill="#FFFFFF" points="10.057,6.204 10.134,6.175 10.078,6.031 10.234,5.971 10.278,6.085 10.355,6.055 10.31,5.941 
		10.459,5.884 10.514,6.027 10.591,5.998 10.503,5.771 9.97,5.978 	"/>
	<path fill="#FFFFFF" d="M10.5,6.17c-0.159,0.036-0.143,0.21-0.257,0.236c-0.04,0.009-0.058-0.005-0.064-0.033
		c-0.006-0.028,0.004-0.048,0.044-0.057l0.04-0.009l-0.018-0.082l-0.034,0.008c-0.089,0.02-0.13,0.076-0.111,0.161
		c0.019,0.085,0.08,0.118,0.169,0.098c0.159-0.036,0.143-0.21,0.257-0.236c0.04-0.009,0.059,0.003,0.065,0.031
		c0.006,0.028-0.005,0.047-0.045,0.056l-0.023,0.005l0.018,0.082l0.018-0.004c0.089-0.02,0.13-0.075,0.111-0.159
		C10.65,6.182,10.589,6.15,10.5,6.17"/>
	<polygon fill="#FFFFFF" points="6.975,13.266 7.19,13.266 7.19,13.195 7.054,13.195 7.054,13.048 7.162,13.048 7.162,12.977 
		7.054,12.977 7.054,12.837 7.19,12.837 7.19,12.766 6.975,12.766 	"/>
	<path fill="#FFFFFF" d="M7.307,12.881c0-0.036,0.014-0.049,0.039-0.049c0.025,0,0.039,0.013,0.039,0.049v0.021H7.46v-0.016
		c0-0.08-0.039-0.126-0.116-0.126c-0.077,0-0.116,0.046-0.116,0.126c0,0.143,0.154,0.162,0.154,0.265
		c0,0.036-0.016,0.049-0.041,0.049c-0.025,0-0.041-0.013-0.041-0.049v-0.036H7.226v0.031c0,0.08,0.04,0.126,0.117,0.126
		c0.077,0,0.117-0.046,0.117-0.126C7.461,13.003,7.307,12.984,7.307,12.881"/>
	<polygon fill="#FFFFFF" points="7.726,12.766 7.483,12.766 7.483,12.837 7.565,12.837 7.565,13.266 7.644,13.266 7.644,12.837 
		7.726,12.837 	"/>
	<rect x="7.718" y="13.191" fill="#FFFFFF" width="0.076" height="0.076"/>
	<path fill="#FFFFFF" d="M8.079,12.76c-0.077,0-0.117,0.046-0.117,0.126v0.049h0.074v-0.054c0-0.036,0.016-0.049,0.041-0.049
		c0.025,0,0.041,0.012,0.041,0.057c0,0.144-0.156,0.169-0.156,0.316v0.061h0.227v-0.072H8.04c-0.001-0.004-0.001-0.007-0.001-0.011
		c0-0.082,0.157-0.141,0.157-0.298C8.196,12.806,8.156,12.76,8.079,12.76"/>
	<path fill="#FFFFFF" d="M8.358,12.76c-0.077,0-0.119,0.046-0.119,0.126v0.26c0,0.08,0.042,0.126,0.119,0.126
		c0.077,0,0.119-0.046,0.119-0.126v-0.26C8.477,12.806,8.435,12.76,8.358,12.76 M8.398,13.151c0,0.036-0.016,0.049-0.041,0.049
		c-0.025,0-0.041-0.013-0.041-0.049v-0.27c0-0.036,0.016-0.049,0.041-0.049c0.025,0,0.041,0.013,0.041,0.049V13.151z"/>
	<path fill="#FFFFFF" d="M8.577,12.829v0.056h0.061v0.382h0.079v-0.501H8.663C8.651,12.799,8.637,12.829,8.577,12.829"/>
	<path fill="#FFFFFF" d="M8.955,12.92c-0.031,0-0.054,0.013-0.069,0.037l0.006-0.119h0.137v-0.072H8.822l-0.014,0.29h0.074v-0.015
		c0-0.036,0.016-0.049,0.041-0.049c0.025,0,0.041,0.014,0.041,0.049v0.11c0,0.036-0.016,0.049-0.041,0.049
		c-0.025,0-0.041-0.013-0.041-0.049v-0.047H8.808v0.041c0,0.08,0.04,0.126,0.117,0.126c0.077,0,0.117-0.046,0.117-0.126v-0.112
		C9.042,12.961,9.013,12.92,8.955,12.92"/>
</g>
</svg>
