<?xml version="1.0" encoding="utf-8"?>
<!-- Generator: Adobe Illustrator 27.3.1, SVG Export Plug-In . SVG Version: 6.00 Build 0)  -->
<svg version="1.1" id="Layer_1" xmlns="http://www.w3.org/2000/svg" xmlns:xlink="http://www.w3.org/1999/xlink" x="0px" y="0px"
	 width="173.1px" height="170.4px" viewBox="0 0 173.1 170.4" enable-background="new 0 0 173.1 170.4" xml:space="preserve">
<g>
	<g>
		<g>
			<path fill="#FFFFFF" d="M100.2,59.9c5.5,0,10.8,0,16.2,0c0.9,0,1.2-0.7,1.6-1.2c3-4,6.1-8,9-12.1c0.9-1.2,1.5-1,2.4-0.2
				c0.8,0.7,1.5,1.1,0.6,2.3c-3.4,4.4-6.8,8.8-10,13.3c-0.8,1-1.5,1.4-2.8,1.4c-6,0-12.1,0.1-18.1,0c-2.7,0-2.9,2.4-4.1,3.7
				c-1,1.1,0.1,1.9,0.7,2.7c1.3,1.8,2,4.4,3.9,5.2c1.8,0.8,4.2,0.2,6.4,0.2c3.8,0,7.7,0,11.5,0c1,0,1.8,0.2,2.6,0.8
				c3.2,2.4,6.4,4.9,9.6,7.2c1.2,0.8,1,1.4,0.2,2.4c-0.8,1-1.3,1.5-2.5,0.5c-2.6-2.1-5.3-4-8-6.1c-0.7-0.6-1.5-0.9-2.5-0.9
				c-4.4,0-8.9,0-13.3,0c-1.3,0-1.6,0.3-0.8,1.5c2.9,4.3,5.7,8.5,8.6,12.9c0.6,0.8,1.2,1.4,2.2,1.1c4.2-1,6.2,1.2,7.9,4.8
				c2.6,5.5,5.6,10.8,8.6,16.2c0.7,1.3,0.2,1.7-0.9,2.3c-1.1,0.6-1.7,0.7-2.3-0.6c-3.1-5.9-6.3-11.8-9.4-17.7
				c-0.3-0.5-0.4-1.2-1.1-1.3c-0.4-0.1-0.9-0.2-1.2,0.2c-0.3,0.3,0.1,0.7,0.3,1c0.9,1.4,1.8,2.8,2.8,4.2c0.8,1.1,0.6,1.6-0.4,2.4
				c-7.8,6.3-15.6,12.7-23.4,19c-2.6,2.2-5.3,4.3-7.9,6.5c-0.9,0.8-1.4,0.8-2.4,0c-10.3-8.4-20.5-16.9-30.9-25.2
				c-1.5-1.2-1.6-2-0.5-3.4c0.8-1,1.4-2.1,2.1-3.1c0.3-0.4,1.1-1.1,0.4-1.5c-0.7-0.4-1.8-0.5-2.4,0.3c-0.2,0.3-0.4,0.7-0.5,1.1
				c-2.6,5.7-5.1,11.5-7.7,17.2c-0.4,1-0.8,1.7-2.1,1c-1-0.6-2.1-0.7-1.3-2.4c3-6.5,5.9-13.1,8.8-19.6c0.5-1.1,1.1-1.6,2.3-1.4
				c4.6,0.9,7.4-1,9.5-5.1c1.6-3.2,3.9-6,5.9-9c0.7-1,0.6-1.4-0.7-1.4c-4.5,0-9,0-13.5,0c-0.8,0-1.5,0.3-2.1,0.8
				c-2.6,2.1-5.2,4-7.7,6.2c-1.4,1.2-1.7,0.1-2.4-0.7c-0.9-0.9-0.7-1.5,0.3-2.2c2.9-2.3,5.8-4.6,8.7-7c1-0.8,2-1.1,3.3-1.1
				c5.4,0.1,10.8,0,16.2,0c1.2,0,1.9-0.4,2.5-1.3c0.7-1.2,1.5-2.3,2.3-3.5c0.6-0.9,1.8-1.7,1.4-2.8c-0.5-1.4-1.6-2.7-2.5-3.9
				c-0.4-0.6-1.2-0.3-1.9-0.3c-6,0-12.1-0.1-18.1,0c-1.1,0-1.9-0.3-2.5-1.3c-3.1-4.6-6.1-9.1-9.3-13.6c-0.7-1.1-0.6-1.6,0.5-2.2
				c1-0.6,1.6-1.2,2.6,0.2c2.6,4.1,5.4,8,8.1,12.1c0.5,0.8,1.1,1.3,2.2,1.3c4.7,0,9.5,0,14.2,0c0.4,0,1.1,0.2,1.3-0.3
				c0.2-0.5-0.3-0.9-0.5-1.2c-2.8-4.2-5.5-8.4-8.4-12.5c-0.6-0.9-0.6-1.4,0.3-2.2c7.5-6.1,15-12.2,22.5-18.4
				c0.9-0.7,1.4-0.6,2.3,0.1c7.4,6.1,14.9,12.2,22.4,18.3c1,0.8,1,1.3,0.3,2.3c-2.7,4-5.4,8.1-8.1,12.1
				C100.8,58.6,100.3,59,100.2,59.9 M85.5,29.5c-0.4,0.3-0.7,0.6-1.1,0.8c-5.8,4.7-11.6,9.5-17.4,14.2c-1.1,0.9-1.2,1.4-0.4,2.6
				c4.8,7,9.4,14.2,14.2,21.2c0.8,1.2,0.8,2.1,0,3.3c-7.1,10.6-14.1,21.2-21.2,31.8c-0.6,0.9-1,1.5,0.1,2.5
				c8.1,6.5,16.1,13,24.1,19.6c1.2,1,1.9,0.8,3,0c7.9-6.5,15.7-12.9,23.6-19.3c1.1-0.9,1.4-1.6,0.5-2.9c-7-10.3-13.8-20.7-20.7-31
				c-0.9-1.4-1-2.4,0-3.8c4.8-7.1,9.6-14.3,14.4-21.5c0.5-0.8,0.9-1.4-0.1-2.2c-6-4.8-12-9.7-18-14.6C86.1,29.9,85.8,29.7,85.5,29.5
				"/>
			<path fill="#FFFFFF" d="M85.5,74.4c0.6,0.2,0.8,0.8,1.1,1.3c5.3,8,10.7,16,16,24c2.3,3.4,2.3,3.4-1,6.1c-5,4.1-10,8.2-15,12.3
				c-0.8,0.7-1.4,0.7-2.3,0c-5.7-4.7-11.4-9.3-17.1-13.9c-1-0.8-1-1.3-0.3-2.3c5.9-8.8,11.7-17.6,17.6-26.4
				C84.8,75.1,85,74.6,85.5,74.4 M85.2,113c0.4-0.3,0.7-0.5,1-0.7c4-3.3,8-6.6,12.1-9.8c1-0.8,1-1.3,0.3-2.3
				c-4.2-6.2-8.4-12.5-12.5-18.8c-0.9-1.4-1.3-1-2,0.1c-4.1,6.2-8.2,12.5-12.4,18.7c-0.8,1.1-0.6,1.7,0.4,2.5c4,3.2,8,6.5,12,9.7
				C84.5,112.5,84.8,112.7,85.2,113"/>
			<path fill="#FFFFFF" d="M85.2,36.2c0.4,0.3,0.8,0.6,1.2,0.9c3.7,3,7.4,6.1,11.1,9c0.9,0.7,1,1.2,0.3,2.2
				c-4,5.8-7.8,11.7-11.7,17.6c-0.8,1.2-1.2,1.1-1.9,0c-3.9-5.9-7.8-11.8-11.7-17.6c-0.6-0.8-0.7-1.3,0.2-2
				c3.9-3.1,7.7-6.3,11.5-9.4C84.6,36.6,84.9,36.4,85.2,36.2 M85.6,39.3c-0.4,0.3-0.7,0.5-1,0.7c-2.7,2.2-5.4,4.5-8.2,6.7
				c-0.9,0.7-0.9,1.3-0.3,2.2c2.9,4.2,5.7,8.5,8.5,12.8c0.7,1.1,1.1,1.3,2,0.1c2.8-4.4,5.7-8.7,8.6-13c0.6-0.9,0.6-1.4-0.3-2.1
				c-2.8-2.2-5.5-4.4-8.2-6.6C86.3,39.8,86,39.6,85.6,39.3"/>
			<path fill="#FFFFFF" d="M95,99.7c-0.1,0.6-0.5,0.8-0.8,1c-2.7,2.2-5.4,4.4-8,6.6c-0.7,0.6-1.2,0.6-1.9,0
				c-2.8-2.3-5.5-4.5-8.3-6.8c-0.6-0.5-0.6-0.9-0.2-1.5c2.9-4.4,5.8-8.7,8.7-13.1c0.5-0.7,0.8-0.9,1.4-0.1c2.9,4.4,5.8,8.7,8.7,13.1
				C94.8,99.2,94.9,99.5,95,99.7 M84.7,104.5c2,0,4.1-0.8,6.1-2.3c3.3-2.4,3.3-2.4,0.4-5.1C87,93.3,80.1,94.2,76.9,99
				c-0.3,0.4-0.3,0.7,0,1.1C79.3,102.2,81.7,104.2,84.7,104.5"/>
			<path fill="#FFFFFF" d="M85.6,42.8c0.3,0.2,0.6,0.4,0.9,0.6c1.7,1.3,3.3,2.7,5,4c0.8,0.6,0.8,1.1,0.3,1.9c-1.8,2.7-3.6,5.3-5.4,8
				c-0.6,1-1,1-1.6,0c-1.8-2.8-3.6-5.5-5.5-8.2c-0.4-0.5-0.6-1,0-1.5c1.9-1.5,3.7-3,5.6-4.5C85.1,43,85.3,42.9,85.6,42.8"/>
			<path fill="#FFFFFF" d="M85.2,102.9c-2,0-3.4-1.4-3.3-3.4c0-2,1.4-3.3,3.4-3.3c1.9,0,3.2,1.4,3.2,3.3
				C88.5,101.5,87.1,102.9,85.2,102.9 M87.7,99.6c0-1.3-1.1-2.6-2.4-2.6c-1.3-0.1-2.6,1.1-2.6,2.4c-0.1,1.4,1.1,2.7,2.5,2.7
				C86.4,102.1,87.7,100.9,87.7,99.6"/>
			<path fill="#FFFFFF" d="M85.2,100.9c-0.9-0.2-1.4-0.6-1.4-1.4c0-0.8,0.6-1.3,1.4-1.3c0.8,0,1.3,0.6,1.3,1.4
				C86.5,100.4,85.9,100.8,85.2,100.9"/>
		</g>
	</g>
</g>
</svg>
