<?xml version="1.0" encoding="UTF-8"?><svg id="Capa_2" xmlns="http://www.w3.org/2000/svg" width="888.93" height="94.98" viewBox="0 0 888.93 94.98"><g id="Capa_1-2"><path d="M102.83,75.92c-16.22,12.71-34.69,19.06-55.42,19.06-8.68,0-16.3-1.17-22.86-3.52-6.57-2.34-11.85-5.59-15.84-9.73-3.99-4.15-6.63-9.1-7.92-14.87-1.29-5.77-.98-12.12.92-19.06,1.88-6.85,5.02-13.18,9.44-19,4.41-5.81,9.79-10.86,16.15-15.14,6.36-4.28,13.47-7.62,21.34-10.01C56.49,1.26,64.76.07,73.44.07c9.8,0,18.51,1.31,26.13,3.92,7.62,2.62,13.41,7.17,17.38,13.66l-24.15,15.95c-2.22-3.42-5.23-6.17-9.06-8.25-3.83-2.07-8.56-3.11-14.19-3.11-4.73,0-9.13.63-13.19,1.89-4.06,1.26-7.67,3.02-10.83,5.27-3.15,2.25-5.82,4.89-8,7.91-2.18,3.02-3.75,6.29-4.72,9.8-.99,3.61-1.2,6.94-.63,10,.57,3.07,1.84,5.73,3.81,7.98,1.97,2.25,4.62,4.01,7.93,5.27,3.31,1.26,7.22,1.89,11.73,1.89,6.53,0,12.11-.92,16.73-2.77,4.62-1.84,9.44-4.75,14.48-8.72l15.96,15.14Z" style="fill:#fff;"/><path d="M129.12,2.5h29.91l-14.5,52.87c-1.36,4.96-1.04,9.01.97,12.17,2,3.16,6.33,4.73,12.98,4.73s11.82-1.6,15.51-4.8c3.69-3.2,6.21-7.23,7.55-12.1l14.5-52.87h30.25l-15.1,55.03c-1.58,5.77-4.19,10.98-7.83,15.61-3.64,4.64-8.07,8.59-13.3,11.83-5.23,3.24-11.04,5.72-17.42,7.43-6.38,1.71-13.13,2.57-20.23,2.57s-13.4-.86-18.9-2.57c-5.5-1.71-9.98-4.17-13.44-7.37-3.46-3.2-5.74-7.12-6.83-11.76-1.09-4.64-.84-9.89.77-15.75l15.1-55.03Z" style="fill:#fff;"/><path d="M232.05,64.15c2.46,2.52,5.94,4.82,10.44,6.89,4.5,2.08,9.79,3.11,15.88,3.11,1.46,0,3.01-.11,4.66-.34,1.64-.23,3.15-.61,4.54-1.15,1.39-.54,2.6-1.26,3.64-2.16,1.03-.9,1.75-2.07,2.15-3.51.64-2.34-.32-4.28-2.88-5.81-2.57-1.53-6.51-3.06-11.84-4.6l-5.81-1.62c-3.25-.9-6.44-2.07-9.6-3.51-3.15-1.44-5.86-3.18-8.12-5.2-2.26-2.03-3.89-4.42-4.88-7.17-.99-2.75-.98-5.97.03-9.67,1.14-4.15,3.15-8,6.05-11.56,2.89-3.56,6.53-6.67,10.93-9.33,4.39-2.66,9.49-4.73,15.31-6.22,5.82-1.49,12.27-2.23,19.37-2.23,5.52,0,10.42.4,14.71,1.22,4.28.81,7.96,1.8,11.01,2.97,3.06,1.17,5.59,2.43,7.58,3.79,2,1.35,3.47,2.57,4.41,3.65l-19.44,15.41c-3.3-2.34-6.89-4.26-10.76-5.75-3.88-1.49-8.07-2.23-12.57-2.23-1.46,0-2.97.14-4.51.41-1.54.27-2.97.68-4.3,1.22s-2.48,1.24-3.45,2.1c-.97.86-1.63,1.92-1.97,3.18-.37,1.35-.27,2.52.3,3.51.57.99,1.49,1.85,2.76,2.57,1.26.72,2.86,1.38,4.78,1.96,1.92.59,3.98,1.2,6.17,1.83l5.04,1.35c3.56.99,7.13,2.14,10.71,3.45,3.58,1.31,6.65,3.07,9.2,5.27,2.55,2.21,4.39,4.96,5.51,8.25,1.12,3.29,1.03,7.32-.28,12.1-1.14,4.15-3.4,7.98-6.79,11.49-3.39,3.51-7.48,6.53-12.29,9.06-4.81,2.52-10.19,4.49-16.15,5.88-5.96,1.4-12.1,2.09-18.4,2.09-11.27,0-20.38-1.2-27.33-3.58-6.95-2.39-12.52-5.61-16.7-9.67l22.87-17.44Z" style="fill:#fff;"/><path d="M334.15,2.5h29.91l-9.05,32.99h41.57l9.05-32.99h29.91l-24.74,90.18h-29.91l9.68-35.29h-41.57l-9.68,35.29h-29.91L334.15,2.5Z" style="fill:#fff;"/><path d="M560.11,75.85c-16.22,12.71-34.69,19.06-55.42,19.06-8.68,0-16.3-1.17-22.87-3.52-6.57-2.34-11.85-5.59-15.84-9.73-3.99-4.15-6.63-9.1-7.92-14.87-1.29-5.77-.99-12.12.91-19.06,1.88-6.85,5.02-13.18,9.43-19,4.41-5.81,9.79-10.86,16.15-15.14,6.35-4.28,13.46-7.62,21.33-10.01,7.86-2.39,16.13-3.58,24.81-3.58,9.8,0,18.51,1.31,26.14,3.92,7.62,2.62,13.41,7.17,17.38,13.66l-24.15,15.95c-2.22-3.42-5.24-6.17-9.06-8.25-3.83-2.07-8.56-3.11-14.19-3.11-4.73,0-9.13.63-13.19,1.89-4.06,1.26-7.67,3.02-10.83,5.27-3.15,2.25-5.82,4.89-8,7.91-2.18,3.02-3.75,6.29-4.72,9.8-.99,3.61-1.2,6.94-.63,10,.57,3.07,1.84,5.73,3.81,7.98,1.97,2.25,4.62,4.01,7.94,5.27,3.31,1.26,7.22,1.89,11.73,1.89,6.53,0,12.11-.92,16.73-2.77,4.62-1.84,9.44-4.75,14.47-8.72l15.96,15.14Z" style="fill:#fff;"/><path d="M613.29,94.78c-8.45,0-15.92-1.2-22.43-3.58-6.5-2.39-11.8-5.68-15.88-9.87-4.09-4.19-6.8-9.19-8.14-15.01-1.34-5.81-1.06-12.15.81-19,1.88-6.85,5.08-13.18,9.6-19,4.52-5.81,9.98-10.81,16.37-15.01,6.39-4.19,13.48-7.46,21.28-9.8,7.8-2.34,15.92-3.51,24.37-3.51s15.96,1.17,22.53,3.51c6.57,2.35,11.87,5.61,15.9,9.8,4.03,4.19,6.72,9.19,8.06,15.01,1.33,5.82,1.06,12.15-.81,19-1.88,6.85-5.08,13.18-9.6,19-4.53,5.81-9.95,10.82-16.28,15.01-6.33,4.19-13.43,7.48-21.3,9.87-7.87,2.39-16.02,3.58-24.47,3.58ZM619.44,72.33c4.39,0,8.49-.65,12.29-1.96,3.79-1.31,7.18-3.09,10.17-5.34,2.98-2.25,5.51-4.91,7.6-7.98,2.08-3.06,3.59-6.31,4.53-9.73.94-3.42,1.21-6.67.81-9.73-.4-3.06-1.47-5.72-3.22-7.98-1.75-2.25-4.16-4.03-7.24-5.34-3.08-1.3-6.81-1.96-11.21-1.96s-8.49.66-12.28,1.96c-3.8,1.31-7.19,3.09-10.17,5.34-2.99,2.26-5.52,4.92-7.6,7.98-2.08,3.07-3.59,6.31-4.53,9.73-.94,3.43-1.21,6.67-.81,9.73.4,3.07,1.47,5.73,3.22,7.98,1.75,2.25,4.16,4.03,7.24,5.34,3.07,1.31,6.81,1.96,11.21,1.96Z" style="fill:#fff;"/><path d="M707.41,2.43h46.65c6.08,0,11.4.63,15.96,1.89,4.55,1.26,8.24,3.13,11.05,5.61,2.81,2.48,4.67,5.57,5.57,9.26.9,3.7.69,7.98-.65,12.84-1.63,5.95-4.68,11.11-9.15,15.48-4.47,4.37-9.76,7.87-15.89,10.48l14.68,34.61h-32.11l-10.68-30.69h-12.51l-8.41,30.69h-29.24l24.72-90.18ZM740.03,43.13c3.94,0,7.42-.97,10.43-2.91,3.01-1.94,4.96-4.53,5.85-7.77.94-3.42.5-6.13-1.33-8.11-1.82-1.98-4.87-2.97-9.16-2.97h-14.36l-5.97,21.77h14.53Z" style="fill:#fff;"/><path d="M807.81,2.43h81.12l-5.67,20.69h-51.21l-3.82,13.92h42.08l-5.34,19.47h-42.08l-4.23,15.41h54.76l-5.67,20.69h-84.67l24.72-90.18Z" style="fill:#fff;"/></g></svg>