<?xml version="1.0" encoding="UTF-8" standalone="no"?>
<svg
   width="279.39999mm"
   height="70.900002mm"
   viewBox="0 0 279.4 70.9"
   version="1.1"
   id="svg1527"
   inkscape:version="1.1.1 (1:1.1+202109281949+c3084ef5ed)"
   sodipodi:docname="nuevo-logo-blanco.svg"
   inkscape:export-filename="/home/miguelange/Documentos/Cuentas/Enbiciados/Logotipo/nuevo-logo.png"
   inkscape:export-xdpi="96"
   inkscape:export-ydpi="96"
   xmlns:inkscape="http://www.inkscape.org/namespaces/inkscape"
   xmlns:sodipodi="http://sodipodi.sourceforge.net/DTD/sodipodi-0.dtd"
   xmlns="http://www.w3.org/2000/svg"
   xmlns:svg="http://www.w3.org/2000/svg"
   xmlns:rdf="http://www.w3.org/1999/02/22-rdf-syntax-ns#"
   xmlns:cc="http://creativecommons.org/ns#"
   xmlns:dc="http://purl.org/dc/elements/1.1/">
  <defs
     id="defs1521" />
  <sodipodi:namedview
     units="mm"
     id="base"
     pagecolor="#ffffff"
     bordercolor="#666666"
     borderopacity="1.0"
     inkscape:pageopacity="1"
     inkscape:pageshadow="2"
     inkscape:zoom="0.49497475"
     inkscape:cx="941.46217"
     inkscape:cy="-67.680221"
     inkscape:document-units="mm"
     inkscape:current-layer="layer1"
     inkscape:document-rotation="0"
     showgrid="false"
     inkscape:window-width="1269"
     inkscape:window-height="856"
     inkscape:window-x="651"
     inkscape:window-y="36"
     inkscape:window-maximized="0"
     inkscape:pagecheckerboard="0" />
  <metadata
     id="metadata1524">
    <rdf:RDF>
      <cc:Work
         rdf:about="">
        <dc:format>image/svg+xml</dc:format>
        <dc:type
           rdf:resource="http://purl.org/dc/dcmitype/StillImage" />
      </cc:Work>
    </rdf:RDF>
  </metadata>
  <g
     inkscape:label="Capa 1"
     inkscape:groupmode="layer"
     id="layer1">
    <path
       d="m 44.998905,15.47144 -1.56152,5.828191 h -9.090119 q -3.57366,0 -5.339754,0.50371 -1.735458,0.47967 -3.193993,1.89476 -0.976585,0.95938 -1.503695,1.94276 -0.527341,0.98336 -1.355558,3.35783 h 18.420063 l -1.561747,5.82823 H 21.392517 q -0.777763,4.24526 0.889499,5.90015 1.667265,1.65492 6.728029,1.65492 h 8.778184 l -1.56152,5.82823 H 27.13659 q -3.693686,0 -6.377847,-0.45568 -4.22034,-0.71953 -5.992657,-3.8615 -2.5093,-4.50909 -0.440026,-12.23206 2.294359,-8.56245 8.819423,-13.311404 2.22939,-1.606937 4.435051,-2.230559 2.212344,-0.647578 5.642016,-0.647578 z"
       style="font-style:normal;font-variant:normal;font-weight:normal;font-stretch:normal;font-size:201.879px;line-height:1.25;font-family:HandelGotDBol;-inkscape-font-specification:HandelGotDBol;letter-spacing:-7.82px;fill:#ffffff;fill-opacity:1;stroke:none;stroke-width:0.562947"
       id="path620" />
    <path
       d="m 46.175687,24.297721 h 12.68774 q 2.830224,0 4.232082,0.40775 1.401632,0.40771 2.305193,1.51101 1.908002,2.27851 0.571104,7.26731 l -3.945723,14.72643 h -6.57182 l 4.145232,-15.46997 q 0.475505,-1.77487 -0.110644,-2.54234 -0.579402,-0.79153 -2.378213,-0.79153 h -5.732329 l -5.038416,18.80384 h -6.571832 z"
       style="font-style:normal;font-variant:normal;font-weight:normal;font-stretch:normal;font-size:201.879px;line-height:1.25;font-family:HandelGotDBol;-inkscape-font-specification:HandelGotDBol;letter-spacing:-7.82px;fill:#ffffff;fill-opacity:1;stroke:none;stroke-width:0.562947"
       id="path622-7" />
    <path
       d="m 79.242412,24.297721 h 5.828167 q 3.837445,0 5.921,1.17525 2.848887,1.63092 3.394658,4.96474 0.38704,2.49441 -0.416303,5.4925 -1.947404,7.26725 -8.097864,10.52916 -1.900869,1.00735 -3.802663,1.3911 -1.871142,0.35975 -5.109146,0.35975 H 66.263247 L 75.035662,15.47144 h 6.571608 z m -1.368915,5.10866 -3.669502,13.69516 h 4.868859 q 3.117973,0 5.166971,-1.91873 2.153359,-2.03871 2.962922,-5.06076 1.799499,-6.71567 -4.460391,-6.71567 z"
       style="font-style:normal;font-variant:normal;font-weight:normal;font-stretch:normal;font-size:201.879px;line-height:1.25;font-family:HandelGotDBol;-inkscape-font-specification:HandelGotDBol;letter-spacing:-7.82px;fill:#ffffff;fill-opacity:1;stroke:none;stroke-width:0.562947"
       id="path624" />
    <path
       d="m 100.12501,24.297721 h 6.5716 l -6.40733,23.9125 h -6.571611 z m 0.65544,-2.44642 1.70942,-6.379861 h 6.57182 l -1.70942,6.379861 z"
       style="font-style:normal;font-variant:normal;font-weight:normal;font-stretch:normal;font-size:201.879px;line-height:1.25;font-family:HandelGotDBol;-inkscape-font-specification:HandelGotDBol;letter-spacing:-7.82px;fill:#ffffff;fill-opacity:1;stroke:none;stroke-width:0.562947"
       id="path626" />
    <path
       d="m 131.22476,24.297721 -1.36893,5.10866 h -7.89076 q -3.93351,0 -5.968,1.77487 -1.91308,1.67892 -2.82562,5.08473 -1.03464,3.8615 0.90125,5.58838 0.79044,0.71952 1.87091,0.98335 1.08072,0.2638 3.14332,0.2638 h 7.0994 l -1.36892,5.10869 h -8.99405 q -3.6218,0 -5.53949,-0.71955 -1.91147,-0.74348 -3.07167,-2.59028 -2.15083,-3.42982 -0.73698,-8.70639 1.70942,-6.37988 6.25137,-9.54582 1.80365,-1.27117 4.0077,-1.79884 2.2105,-0.55163 5.49641,-0.55163 z"
       style="font-style:normal;font-variant:normal;font-weight:normal;font-stretch:normal;font-size:201.879px;line-height:1.25;font-family:HandelGotDBol;-inkscape-font-specification:HandelGotDBol;letter-spacing:-7.82px;fill:#ffffff;fill-opacity:1;stroke:none;stroke-width:0.562947"
       id="path628" />
    <path
       d="m 134.40676,24.297721 h 6.57185 l -6.40736,23.9125 h -6.57182 z m 0.65567,-2.44642 1.70941,-6.379861 h 6.57184 l -1.70965,6.379861 z"
       style="font-style:normal;font-variant:normal;font-weight:normal;font-stretch:normal;font-size:201.879px;line-height:1.25;font-family:HandelGotDBol;-inkscape-font-specification:HandelGotDBol;letter-spacing:-7.82px;fill:#ffffff;fill-opacity:1;stroke:none;stroke-width:0.562947"
       id="path630" />
    <path
       d="m 159.56405,33.675641 q 0.6748,-2.51836 -0.12429,-3.38182 -0.76971,-0.88744 -3.74368,-0.88744 h -11.12876 l 1.36895,-5.10866 h 11.12872 q 2.97398,0 4.06922,0.12016 1.12542,0.0956 2.18032,0.45572 4.8919,2.06266 2.53925,9.85761 l -3.61169,13.47926 H 148.3792 q -3.71765,0 -5.09899,-0.2158 -1.35718,-0.21582 -2.24368,-0.93539 -2.3992,-1.96672 -1.33875,-5.92416 0.64919,-2.42245 2.30174,-4.29325 1.68291,-1.89476 3.7575,-2.56634 1.83959,-0.59962 5.74913,-0.59962 z m -1.36868,5.10871 h -7.60324 l -1.09683,-0.0239 q -1.12726,0 -1.95939,0.59963 -0.8084,0.59959 -1.07819,1.60696 -0.31492,1.17521 0.34813,1.65492 0.68675,0.47968 2.62954,0.47968 h 7.60301 z"
       style="font-style:normal;font-variant:normal;font-weight:normal;font-stretch:normal;font-size:201.879px;line-height:1.25;font-family:HandelGotDBol;-inkscape-font-specification:HandelGotDBol;letter-spacing:-7.82px;fill:#ffffff;fill-opacity:1;stroke:none;stroke-width:0.562947"
       id="path632" />
    <path
       d="m 191.27306,15.470989 -2.36602,8.826402 h -6.18772 c -3.07005,0 -5.69908,0.74345 -7.88831,2.23048 -3.35865,2.27054 -5.58883,5.46105 -6.6899,9.5704 -0.66842,2.49438 -0.77502,4.62141 -0.31885,6.38027 0.681,2.59032 2.3106,4.32398 4.88917,5.20342 1.05699,0.35176 2.73758,0.52835 5.04015,0.52835 h 11.32028 l 2.12573,-7.93452 -1.63435,0.0447 -1.54501,-0.37277 v -1.58043 l 0.077,-1.56503 1.66208,-0.72399 2.61403,-0.59151 c 0.0421,-0.0113 0.08,-0.0307 0.12166,-0.0432 l 2.50465,-9.34552 -1.55578,-1.03513 -0.9304,-1.16916 0.90729,-1.48647 1.02128,-1.53421 1.71444,0.10939 0.19409,0.0725 1.49572,-5.583902 z m -8.48289,13.935862 h 4.749 l -3.67074,13.69401 h -4.74899 c -1.48704,0 -2.65816,-0.39897 -3.51516,-1.19842 -1.23822,-1.16727 -1.49574,-3.10192 -0.77173,-5.80417 0.50129,-1.87078 1.37614,-3.40653 2.62481,-4.60574 1.46014,-1.39116 3.23819,-2.08568 5.33281,-2.08568 z"
       style="font-style:normal;font-variant:normal;font-weight:normal;font-stretch:normal;font-size:201.879px;line-height:1.25;font-family:HandelGotDBol;-inkscape-font-specification:HandelGotDBol;letter-spacing:-7.82px;fill:#ffffff;fill-opacity:1;stroke:none;stroke-width:0.562948"
       id="path634" />
    <path
       d="m 249.62436,24.297391 c -1.55119,0 -2.8593,0.15317 -3.93415,0.45133 l -0.21257,0.16175 -2.46461,1.27081 c -0.0398,0.0228 -0.0735,0.0504 -0.1124,0.0739 -1.44364,1.19719 -2.45346,2.68605 -3.03147,4.46403 -0.28191,2.04573 0.62249,4.00653 2.82968,4.56109 l 2.38297,0.63155 1.29546,0.79637 -0.46827,1.59893 -0.13247,0.39279 c 0.23051,0.005 0.45534,0.0125 0.70549,0.0125 h 3.98035 c 1.50303,0 2.43571,0.10489 2.79579,0.3127 0.66939,0.36777 0.86943,1.04657 0.60384,2.03793 -0.31701,1.18324 -1.07656,1.8392 -2.27823,1.96708 -0.54024,0.0479 -1.53811,0.0708 -2.99297,0.0708 h -11.70383 l -1.3694,5.10946 h 13.60004 c 2.39849,0 4.16567,-0.18371 5.30355,-0.55145 1.13784,-0.36778 2.22565,-1.11122 3.261,-2.23049 1.34935,-1.45506 2.25464,-3.0468 2.71723,-4.77365 0.61279,-2.28653 0.27751,-4.0202 -1.00433,-5.20341 -1.15215,-1.07132 -2.96682,-1.60817 -5.44526,-1.60817 h -3.88484 c -1.74304,0 -2.77178,-0.1278 -3.08694,-0.38356 -0.60034,-0.44777 -0.78719,-1.09499 -0.55915,-1.94242 0.27438,-1.02334 0.82187,-1.66356 1.64205,-1.91932 0.40198,-0.12786 1.26521,-0.19101 2.59246,-0.19101 h 11.65763 l 1.36786,-5.10944 z"
       style="font-style:normal;font-variant:normal;font-weight:normal;font-stretch:normal;font-size:201.879px;line-height:1.25;font-family:HandelGotDBol;-inkscape-font-specification:HandelGotDBol;letter-spacing:-7.82px;fill:#ffffff;fill-opacity:1;stroke:none;stroke-width:0.562948"
       id="path636" />
    <path
       d="m 223.17904,5.7018754 -1.64976,0.06317 -0.89341,1.512656 -0.7702,2.516993 c -1.2512,4.2599186 -7.25228,5.8187796 -9.50262,2.6325056 l -1.21383,-1.980935 -0.98584,-1.1167746 -1.40792,0.7809766 -1.52498,0.90883 v 1.595834 l 0.68702,2.281312 c 1.21662,3.834116 -3.57685,8.134548 -7.49859,6.931728 l -2.26438,-0.84568 -1.71443,-0.10939 -1.02128,1.53422 -0.90729,1.48647 0.93039,1.16915 1.96553,1.30779 c 3.35755,2.16625 1.34137,7.89769 -3.03609,9.11598 l -2.61403,0.59151 -1.66208,0.72399 -0.077,1.56503 v 1.58043 l 1.54501,0.37277 2.59708,-0.0708 c 4.39961,-0.17379 5.77123,5.13769 2.34293,8.35811 l -2.12573,1.82382 -1.10446,1.49572 0.87956,1.27081 0.90574,1.16608 1.6667,-0.55301 2.39838,-1.4418 c 4.03234,-2.48282 8.38485,0.69065 7.02262,4.89535 l -0.94273,2.47847 -0.29728,1.64821 1.43101,0.43439 1.51728,0.38664 1.25696,-1.28776 1.44179,-2.33676 c 2.39066,-3.97053 8.30109,-3.90953 9.40713,-0.0693 l 0.5191,2.33676 0.73015,1.36323 1.66824,-0.45594 1.65129,-0.52066 0.44363,-1.61894 0.0247,-2.49388 c -0.0238,-4.20493 5.57086,-7.30188 8.81255,-5.05246 l 1.82843,1.45104 1.38326,0.69163 1.2323,-1.1445 1.26158,-1.25541 -0.49908,-1.43872 -1.39558,-1.86233 c -2.40703,-3.1143 1.1188,-8.36214 5.45295,-8.39355 l 2.5478,0.11865 1.74217,-0.32502 0.5453,-1.61123 0.46827,-1.59892 -1.29546,-0.79638 -2.38297,-0.63155 c -4.05125,-1.01788 -3.74485,-6.76858 0.31424,-9.09906 l 2.46461,-1.27081 1.4649,-1.11063 -0.3928,-1.42485 -0.47135,-1.43255 -1.6744,0.094 -2.60479,0.79175 c -4.39797,1.38818 -7.38737,-3.037464 -4.89071,-6.911694 l 1.59891,-2.244339 0.74246,-1.602005 -1.18916,-0.851831 -1.26004,-0.8117916 -1.52344,0.9565796 -2.00404,1.964 c -3.35183,3.356195 -8.69304,1.660994 -8.55068,-2.5308486 l 0.22645,-2.509295 -0.18948,-1.578893 z m -3.27486,12.7066276 a 14.230949,17.182203 50.339345 0 1 12.83603,15.500878 14.230949,17.182203 50.339345 0 1 -18.71259,15.50089 14.230949,17.182203 50.339345 0 1 -12.83602,-15.50089 14.230949,17.182203 50.339345 0 1 18.71258,-15.500878 z"
       inkscape:transform-center-y="-91.52699"
       inkscape:transform-center-x="81.69624"
       style="fill:#db241b;fill-opacity:0.992157;stroke:none;stroke-width:0.0631464px;stroke-linecap:butt;stroke-linejoin:miter;stroke-opacity:1"
       id="path638" />
    <path
       d="m 219.90418,18.408503 a 14.230949,17.182203 50.339345 0 0 -18.71258,15.500878 14.230949,17.182203 50.339345 0 0 12.83602,15.50089 14.230949,17.182203 50.339345 0 0 0.75787,-0.0169 12.620979,15.470843 58.169186 0 1 -11.11233,-13.4568 12.620979,15.470843 58.169186 0 1 17.15217,-13.47528 12.620979,15.470843 58.169186 0 1 12.06121,10.53622 14.230949,17.182203 50.339345 0 0 -12.98236,-14.58897 z"
       style="fill:#ffff00;stroke-width:0.0354941"
       id="ellipse640" />
    <path
       d="m 220.81609,22.461251 a 12.620979,15.470843 58.169186 0 0 -17.14293,13.47529 12.620979,15.470843 58.169186 0 0 11.82861,13.47373 12.620979,15.470843 58.169186 0 0 17.15217,-13.47373 12.620979,15.470843 58.169186 0 0 -11.82861,-13.47529 12.620979,15.470843 58.169186 0 0 -0.009,0 z m -0.0493,5.80416 a 7.3756184,9.3743779 44.798601 0 1 2.22585,0.33581 7.3756184,9.3743779 44.798601 0 1 3.11774,10.46383 7.3756184,9.3743779 44.798601 0 1 -11.50205,5.74717 7.3756184,9.3743779 44.798601 0 1 -3.11929,-10.46382 7.3756184,9.3743779 44.798601 0 1 9.27775,-6.08299 z"
       style="fill:#000000;stroke-width:0.0317177"
       id="ellipse642" />
    <text
       id="text1045"
       y="18.986925"
       x="257.6973"
       style="font-style:normal;font-weight:normal;font-size:10.5833px;line-height:1.25;font-family:sans-serif;fill:#000000;fill-opacity:1;stroke:none;stroke-width:0.264583"
       xml:space="preserve"><tspan
         style="stroke-width:0.264583"
         y="18.986925"
         x="257.6973"
         id="tspan1043"
         sodipodi:role="line" /></text>
    <g
       style="font-style:normal;font-weight:normal;font-size:12.0903px;line-height:1.25;font-family:sans-serif;fill:#ffffff;fill-opacity:1;stroke:none;stroke-width:0.264583"
       id="text1049"
       aria-label="®">
      <path
         id="path1051"
         style="stroke-width:0.264583;fill:#ffffff"
         d="m 264.58605,21.560953 q -0.96722,0 -1.77727,-0.326438 -0.81005,-0.326438 -1.41457,-0.918863 -0.59242,-0.604515 -0.91886,-1.414565 -0.32644,-0.81005 -0.32644,-1.777274 0,-0.967224 0.32644,-1.777274 0.32644,-0.81005 0.91886,-1.402475 0.60452,-0.604515 1.41457,-0.930953 0.81005,-0.326438 1.77727,-0.326438 0.91887,0 1.71683,0.326438 0.81005,0.326438 1.41456,0.930953 0.61661,0.592425 0.95513,1.402475 0.35062,0.81005 0.35062,1.777274 0,0.967224 -0.32644,1.777274 -0.32643,0.81005 -0.93095,1.414565 -0.59242,0.592425 -1.40247,0.918863 -0.81005,0.326438 -1.77728,0.326438 z m 0,-0.640786 q 0.77378,0 1.45084,-0.278077 0.67706,-0.278077 1.19694,-0.785869 0.51988,-0.519883 0.81005,-1.20903 0.29017,-0.689147 0.29017,-1.523378 0,-0.785869 -0.27808,-1.475016 -0.27808,-0.689147 -0.78587,-1.20903 -0.4957,-0.519883 -1.18485,-0.81005 -0.67706,-0.302258 -1.4992,-0.302258 -1.08812,0 -1.94654,0.495702 -0.84632,0.483612 -1.32993,1.342024 -0.48361,0.846321 -0.48361,1.958628 0,0.78587 0.27808,1.475017 0.27807,0.689147 0.77378,1.20903 0.50779,0.519883 1.19694,0.82214 0.68914,0.290167 1.51128,0.290167 z m -1.65637,-1.148578 v -5.283461 h 1.54756 q 0.9914,0 1.45084,0.386889 0.45943,0.38689 0.45943,1.17276 0,0.568244 -0.29017,0.906772 -0.29017,0.326438 -0.65288,0.471522 l 1.40248,2.345518 h -1.03977 l -1.20903,-2.091622 h -0.7496 v 2.091622 z m 0.91886,-2.841221 h 0.60452 q 0.47152,0 0.73751,-0.241806 0.26598,-0.241806 0.26598,-0.616605 0,-0.42316 -0.2418,-0.616605 -0.24181,-0.193445 -0.77378,-0.193445 h -0.59243 z" />
    </g>
    <path
       style="fill:#ffffff;stroke-width:0.0317177"
       d="m 220.76679,28.265411 a 7.3756184,9.3743779 44.798601 0 1 2.22585,0.33581 7.3756184,9.3743779 44.798601 0 1 3.11774,10.46383 7.3756184,9.3743779 44.798601 0 1 -11.50205,5.74717 7.3756184,9.3743779 44.798601 0 1 -3.11929,-10.46382 7.3756184,9.3743779 44.798601 0 1 9.27775,-6.08299 z"
       id="path27" />
  </g>
</svg>
