<?xml version="1.0" encoding="utf-8"?>
<!-- Generator: Adobe Illustrator 29.2.1, SVG Export Plug-In . SVG Version: 9.03 Build 55982)  -->
<svg version="1.0" id="Capa_1" xmlns="http://www.w3.org/2000/svg" xmlns:xlink="http://www.w3.org/1999/xlink" x="0px" y="0px"
	 viewBox="0 0 3249.1 452.1" style="enable-background:new 0 0 3249.1 452.1;" xml:space="preserve">
<style type="text/css">
	.st0{fill:#FFFFFF;}
</style>
<g>
	<g>
		<path class="st0" d="M3132.4,143.6v13.1h6c3.4,0,5.9-0.5,7.5-1.5c1.6-1,2.4-2.7,2.4-4.9c0-2.3-0.8-4-2.5-5.1
			c-1.7-1.1-4.2-1.6-7.8-1.6L3132.4,143.6z M3123.2,137.9h16.4c5.9,0,10.4,1,13.5,2.9c3.1,1.9,4.6,4.8,4.6,8.5c0,3-0.8,5.6-2.5,7.6
			c-1.6,2-4,3.3-7,4l9.5,19h-10.2l-8.5-17.5h-6.6v17.5h-9.1V137.9z M3138.7,127.8c-4.4,0-8.5,0.8-12.3,2.3
			c-3.8,1.6-7.3,3.9-10.2,6.8c-3.1,3-5.5,6.6-7.2,10.6c-1.7,3.8-2.5,8-2.5,12.2c0,4.2,0.8,8.2,2.4,12c3.3,7.8,9.6,14,17.4,17.3
			c3.9,1.6,7.9,2.4,12,2.4c4.4,0,8.6-0.8,12.6-2.3c4-1.6,7.6-3.9,10.7-6.9c3.1-2.9,5.4-6.2,7-10c1.7-3.8,2.5-7.7,2.5-11.9
			c0-4.3-0.8-8.5-2.3-12.5c-1.6-3.9-3.9-7.4-6.9-10.3c-3.1-3-6.7-5.4-10.6-7.1C3147.2,128.6,3143,127.8,3138.7,127.8 M3138.7,122.2
			c5.2,0,10.1,0.9,14.8,2.8c4.7,1.9,8.9,4.7,12.4,8.3c3.5,3.5,6.2,7.5,8,12c1.8,4.4,2.8,9.2,2.8,14.2c0,5.1-0.9,10-2.8,14.5
			c-1.9,4.5-4.7,8.5-8.3,12c-3.6,3.5-7.8,6.2-12.5,8.1c-4.6,1.9-9.4,2.8-14.4,2.8c-5,0-9.9-1-14.5-2.9c-4.6-1.9-8.8-4.8-12.4-8.4
			c-3.5-3.4-6.3-7.5-8.2-12.1c-1.9-4.5-2.9-9.3-2.8-14.1c0-4.9,1-9.7,2.9-14.3c2-4.6,4.9-8.8,8.5-12.4c3.6-3.5,7.6-6.1,12-7.9
			C3128.8,123.1,3133.8,122.2,3138.7,122.2 M2551.3,218.7c-12.1-9-30.9-15.1-55.9-18.4c-8.7-1.1-26.4-2.5-54-4.3
			c-18.2-1.1-31.4-3-39.3-5.8c-10.4-3.6-15.4-8.9-15.4-16.4c0-7.2,4.7-12.7,14.5-17c10.3-4.5,25.5-6.7,45.2-6.7
			c30.7,0,72,5.2,107.3,21.2c1,0.5,1.8-0.4,1.8-2v-32.8c0-1.6,0.1-2.8-0.7-3.2c-22.4-10.3-72-16.8-105.9-16.8
			c-31.8,0-56.9,5.4-74.6,16.2c-18,11-27.2,26.2-27.2,45.2c0,18.6,8.2,32.1,24.2,40c13.3,6.5,36.6,10.9,69.2,13.1
			c36.3,2.3,58.8,4.5,66.9,6.6c14.8,3.8,22,11.1,22,22.2c0,9.6-5.5,17-16.8,22.6c-12.3,6-30.1,9.4-52.4,9.1
			c-32.5-0.5-74.5-7.8-109.1-29.2c-1.1-0.7-2,0-2,1.6v30.3c0,1.6-0.1,3,0.6,3.2c0.4,0.1,36.3,27.2,110.2,27.2
			c34.9,0,62.2-5.8,81-17.2c19.2-11.7,29-28.4,29-49.8C2570,241.1,2563.7,227.9,2551.3,218.7 M3035.9,121.6c-1.6,0-2.9,1.3-2.9,2.9
			l0.5,144.4c0,1.6-0.8,1.9-1.8,0.7l-122.2-144.9l-2.2-2.6c-0.2-0.2-1.7-0.4-3.2-0.4h-38.4c-1.6,0-2.9,1.3-2.9,2.9v193.1
			c0,1.6,1.3,2.9,2.9,2.9h32c1.6,0,2.9-1.3,2.9-2.9V168.2c0-1.6,0.8-1.9,1.9-0.7l129.1,150.7c1.2,1.3,2.9,2.1,4.7,2.2h31.7
			c1.6,0,2.9-1.3,2.9-2.9V124.5c0-1.6-1.3-2.9-2.9-2.9L3035.9,121.6L3035.9,121.6z M2773.7,271.8c-16.2,13.1-33.2,19.8-60.4,19.8
			c-27.4,0-44.5-6.6-60.8-19.7c-16.2-12.9-24.4-30.1-24.4-51.2c0-20.3,8.4-37.4,24.9-50.6c16.7-13.4,33.6-20.2,60.3-20.2
			c24.4,0,40,6,56.3,17.7c18.8,13.5,28.3,31.4,28.3,53.1C2798,241.6,2789.8,258.8,2773.7,271.8 M2796,142.2
			c-23.5-17.7-48-26.7-82.7-26.7c-34.4,0-59,9-82.9,26.7c-27.4,20.4-41.2,46.8-41.2,78.6c0,32.3,13.7,58.8,40.7,78.8
			c23.6,17.6,48.3,26.5,83.5,26.5c34.8,0,59.4-8.8,82.9-26.2c27-20,40.7-46.7,40.7-79.1C2837,189,2823.2,162.6,2796,142.2
			 M2280,268.8c0,1.6-0.8,1.9-1.8,0.7l-122.2-144.9c-1-1.2-2-2.4-2.2-2.6c-0.2-0.2-1.7-0.4-3.2-0.4h-38.4c-1.6,0-2.9,1.3-2.9,2.9
			v193.1c0,1.6,1.3,2.9,2.9,2.9h32c1.6,0,2.9-1.3,2.9-2.9V168.2c0-1.6,0.8-1.9,1.8-0.7l129.1,150.7c1.2,1.3,2.9,2.1,4.7,2.2h31.7
			c1.6,0,2.9-1.3,2.9-2.9V124.5c0-1.6-1.3-2.9-2.9-2.9h-32c-1.6,0-2.8,1.3-2.8,2.8c0,0,0,0,0,0L2280,268.8L2280,268.8z
			 M2030.6,317.6c0,1.6,1.3,2.9,2.9,2.9h32c1.6,0,2.9-1.3,2.9-2.9V124.5c0-1.6-1.3-2.9-2.9-2.9h-32c-1.6,0-2.9,1.3-2.9,2.9V317.6z
			 M1952,192.2c0,1.6-1.3,2.9-2.9,2.9h-116.3c-1.6,0-2.9-1.3-2.9-2.9v-67.8c0-1.6-1.3-2.9-2.9-2.9h-31.9c-1.6,0-2.9,1.3-2.9,2.9
			v193.1c0,1.6,1.3,2.9,2.9,2.9h31.9c1.6,0,2.9-1.3,2.9-2.9v-85.7c0-1.6,1.3-2.9,2.9-2.9h116.3c1.6,0,2.9,1.3,2.9,2.9v85.7
			c0,1.6,1.3,2.9,2.9,2.9h31.9c1.6,0,2.9-1.3,2.9-2.9V124.4c0-1.6-1.3-2.9-2.9-2.9h-31.9c-1.6,0-2.9,1.3-2.9,2.9V192.2z M1583.5,170
			c16.6-13.3,38.4-20.1,64.9-20.1c35,0,61.8,9.7,82.5,31.1c0.8,0.8,1.8,0.1,3.3-0.4l29.1-10.2c1.5-0.5,2.2-1.6,1.6-2.3
			c-26.7-35.1-66.5-52.7-116.4-52.7c-34.7,0-64.2,8.9-87.7,26.5c-27.2,20.2-41,46.7-41,78.6c0,32.5,13.6,59.1,40.4,79.1
			c23.4,17.4,53,26.2,88.2,26.2c25.1,0,46.9-3.9,65-11c30.1-11.8,49.4-36.4,50-37.1c0.6-0.7-0.1-1.8-1.5-2.5l-27.4-15
			c-1.4-0.7-2.4-1.5-3.2-0.7c-15.9,17.9-46.3,32.7-80.9,31.8c-28.1-0.8-50.7-6.6-67.1-19.7c-16.3-12.9-24.5-30.2-24.5-51.2
			C1558.7,200.2,1567,183.1,1583.5,170 M1516.7,124.5c0-1.6-1.3-2.9-2.9-2.9h-199c-1.6,0-2.9,1.3-2.9,2.9v28.2
			c0,1.6,1.3,2.9,2.9,2.9h77.8c1.6,0,2.9,1.3,2.9,2.9v159.2c0,1.6,1.3,2.9,2.9,2.9h31.9c1.6,0,2.9-1.3,2.9-2.9V158.4
			c0-1.6,1.3-2.9,2.9-2.9h77.9c1.6,0,2.9-1.3,2.9-2.9V124.5z M1241.9,244.7c0.7,16.9-6.1,27.9-18.7,35.5c-11.6,7-24.9,11.7-52,11.7
			c-27.1,0-40.5-4.7-52.3-11.7c-12.8-7.6-19.7-19.8-19-35.5V124.5c0-1.6-1.3-2.9-2.9-2.9h-32c-1.6,0-2.9,1.3-2.8,2.9v0v128
			c-1,22.2,10.4,40.9,31.1,54c22.2,14,45.4,19.9,77.9,19.9c32.5,0,55.6-6,77.4-19.9c20.6-12.9,31.7-30.2,31.1-54v-128
			c0-1.6-1.3-2.9-2.9-2.9h-32c-1.6,0-2.9,1.3-2.9,2.9V244.7z M989.9,192.2c0,1.6-1.3,2.9-2.9,2.9H870.7c-1.6,0-2.9-1.3-2.9-2.9
			v-67.8c0-1.6-1.3-2.9-2.9-2.9h-31.9c-1.6,0-2.9,1.3-2.9,2.9v193.1c0,1.6,1.3,2.9,2.9,2.9H865c1.6,0,2.9-1.3,2.9-2.9v-85.7
			c0-1.6,1.3-2.9,2.9-2.9H987c1.6,0,2.9,1.3,2.9,2.9v85.7c0,1.6,1.3,2.9,2.9,2.9h31.9c1.6,0,2.9-1.3,2.9-2.9V124.4
			c0-1.6-1.3-2.9-2.9-2.9h-31.9c-1.6,0-2.9,1.3-2.9,2.9L989.9,192.2z M685.7,402.4h10.1V39.8h-10.1L685.7,402.4z"/>
	</g>
	<path class="st0" d="M294.8,392c17.8,14.8,46.2,12.8,63.9-4.4l174.4-180.8c11.5-13.7,16.3-60.9-44.4-61.1l-140.9,0
		c-10.8,0-27.2,7.4-35.7,16.2l-35.3,36.7c-4,4.1-5,5.4-4.3,7.1c1.3,1.3,1.6,1.1,5.2,1.1l106.6,0.1c35.4-0.7,37.4,1.8,39.7,7.5
		c1.4,3.4,0.5,10.9-8.6,20.2L346.4,305c-6,6-14.1,9.4-22.6,9.4c-7.8,0-15.4-2.9-21.1-8.2l-63-58.4c-5.9-5.5-9.3-13-9.6-21.1
		c-0.3-8.2,2.7-16.3,8.3-22.3l73.2-78.6c10.5-11.3,29.8-20.2,43.9-20.2l158.9,0.1c11,0,27.7-7,36.6-15.3l46.8-43.7
		c3.1-3.3,4.8-5.5,4.4-6.1c-0.4-0.7-1.6-0.6-4.9-0.6l-279.7-0.1c-10.8,0-26.9,7.7-35.1,16.7L142.7,215.1c-7.2,8-6.9,20.2,0.8,27.3
		L294.8,392L294.8,392z M61.4,145.9c-3.5,0-5.2,0-5.2,1c0,1.5,0.4,2.1,4.6,6.3l42.9,41.7c7.2,6.9,19.5,6.3,26.2-1.4l33.8-38.3
		c4.8-6.1,4.4-6.7,4-7.9c-0.5-1.4-1.8-1.4-5.4-1.4L61.4,145.9z"/>
</g>
</svg>
