<?xml version="1.0" encoding="utf-8"?>
<!-- Generator: Adobe Illustrator 27.1.1, SVG Export Plug-In . SVG Version: 6.00 Build 0)  -->
<svg version="1.1" id="Layer_1" xmlns="http://www.w3.org/2000/svg" xmlns:xlink="http://www.w3.org/1999/xlink" x="0px" y="0px"
	 width="977.654px" height="436.193px" viewBox="0 0 977.654 436.193" enable-background="new 0 0 977.654 436.193"
	 xml:space="preserve">
<g>
	<path fill="#F27368" d="M124.917,282.583c-0.91,1.14-1.83,2.28-2.74,3.42c0.39-3.85,0.22-7.65-0.49-11.3
		c-0.15-0.78-1.35-0.98-1.85-0.23c-0.58,0.88-1.17,1.76-1.75,2.63c2.52-11.03,3.54-22.22,3-33.11c-0.06-1.26-1.87-1.35-2.18,0.03
		c-1.46,6.45-2.9,12.9-4.37,19.35c-0.63,2.74-1.32,5.59-2.88,8.05c-1.15,1.81-2.99,3.49-4.97,3.96c0.65-2.54,1.69-4.98,3.11-7.28
		c0.55-0.9-0.38-1.99-1.26-1.52c-3.24,1.71-6.47,3.43-9.71,5.14c-0.78,0.42-1.57,0.83-2.35,1.25c-0.47,0.25-1.17,0.82-1.46,0.26
		c-0.36-0.7-0.53-1.59-0.78-2.35c-0.28-0.86-0.56-1.71-0.84-2.57c-0.3-0.94-1.5-0.89-2.03,0.03c-2.35,4.1-6.35,7.04-10.57,7.95
		c-0.4-3.34-2.48-6.15-5.49-7.1c-0.51-0.16-1.24-0.01-1.51,0.65c-1.1,2.6-2.41,5.12-3.91,7.53c-3.09-2.99-4.32-7.94-2.9-12.72
		c1.29-4.34,4.78-8.1,8.77-9.79c-0.84,1.97-1.48,4.01-1.91,6.07c-0.2,0.96,0.53,1.5,1.37,1.22c3.74-1.24,7.27-3.51,10.19-6.5
		c0,0.97,0.13,1.92,0.42,2.83c0.24,0.75,1.28,1.01,1.85,0.23c0.64-0.87,1.22-1.76,1.76-2.67c0.06,1.09,0.2,2.16,0.44,3.2
		c0.27,1.19,1.77,0.71,2.14-0.33c1.55-4.42,4.9-8.18,8.88-10.27c-0.16,3.47-0.32,6.93-0.49,10.4c-0.03,0.74,0.75,1.25,1.41,0.91
		c3.56-1.82,6.01-5.78,6.29-9.67c1.55,1.27,3.11,2.54,4.66,3.8c0.63,0.51,1.59,0.09,1.85-0.8c1.92-6.56,2.96-13.26,3.12-19.87
		c0.03-1.3-1.93-1.32-2.18,0.03c-0.3,1.61-1.07,3.13-2.18,4.32c1.69-5.62,3.04-11.3,4.05-17.01c0.17-0.94-0.77-1.82-1.63-1.07
		c-3.37,2.94-6.9,5.62-10.57,8.04c0.05-1.27,0.11-2.55,0.16-3.82c0.04-0.97-1.28-1.4-1.89-0.53c-2.56,3.64-5.54,6.92-8.88,9.76
		c-0.59-3.57-1.89-6.87-3.9-9.66c-0.6-0.84-2.07-0.3-2.06,0.91c0.01,3.01-0.9,6.06-2.57,8.71c-1.7-2.41-3.83-4.39-6.32-5.9
		c-0.72-0.43-1.64,0.45-1.66,1.27c-0.06,2.7-1.22,5.39-2.98,7.54c0.05-0.55-0.35-1.01-0.83-1.12c-6.78-1.62-10.84-9.1-9.78-16.65
		c1.09,1.55,2.45,2.85,4.04,3.87c0.32,0.21,0.79,0.05,1.12-0.17c6.3-4.22,10.02-12.46,9.36-19.65c4.01,4.49,7.25,9.76,9.55,15.58
		c0.33,0.84,1.52,0.98,2.03-0.03c1.13-2.25,2.09-4.57,2.86-6.93c0.06,0.17,0.1,0.35,0.17,0.51c0.78,1.96,2.29,3.54,4.34,3.95
		c2.23,0.45,4.34-0.96,6.25-2.39c1.76-1.31,3.46-2.27,5.5-2.07c2.05,0.2,3.76,1.35,4.64,3.24c0.21,0.44,0.81,0.52,1.25,0.34
		c1.93-0.79,3.28-2.56,4.02-4.56c0.83-2.25,0.79-4.46,0.48-6.65c-0.34-2.45-1.12-5.07-0.35-7.68c0.55-1.87,1.93-3.77,3.85-3.82
		c0.95-0.03,1.47-1.59,0.77-2.11c-5.06-3.82-6.85-11.67-3.99-18.51c0.42-1-0.28-1.88-1.26-1.52c-5.75,2.11-10.67,7.11-13.12,13.05
		c-0.73-2.17-0.39-4.94-0.09-7.26c0.12-0.95-0.48-1.5-1.37-1.22c-4.27,1.34-8.06,4.46-10.62,8.41
		c-0.42-11.73-4.85-22.59-12.21-30.38c-2.35-2.48-5-4.61-7.88-6.38c-0.8-0.49-1.89,0.69-1.62,1.57c1.72,5.66,5.03,10.31,7.73,15.35
		c2.57,4.79,4.56,10.33,2.89,16.42c-0.66,2.39-1.84,4.7-3.39,6.68c0.13-4.53-1.94-8.69-5.5-10.79c-0.66-0.39-1.74,0.43-1.66,1.27
		c0.33,3.55-2.66,6.62-5.4,8.54c-2.19,1.53-4.53,2.8-6.62,4.47c1.96-8.37,5.49-16.53,10.39-23.83c0.72-1.07-0.2-2.56-1.35-1.62
		c-8.6,7-12.4,17.97-19.09,26.6c-1.53,1.98-3.22,3.79-5.11,5.34c-1.35-4.58-4.34-8.29-8.34-10.38c-1.03-0.54-1.92,0.92-1.51,1.83
		c3.21,7.14,6.52,14.74,6.59,23.21c0.03,4.2-0.97,8.19-2.55,12.25c-1.53,3.94-2.9,7.78-3.05,11.9c-0.1,2.75,0.28,5.44,1.08,7.92
		c-0.72-0.5-1.44-0.99-2.17-1.49c-0.96-0.66-2.35,0.54-1.73,1.68c2.44,4.49,3.74,9.74,3.75,15.23c0.01,5.36-1.44,10.81-1.35,16.16
		c0.01,0.75,0.06,1.49,0.15,2.22c-1.77-1.56-3.76-2.84-5.95-3.77c-0.95-0.41-2.1,0.9-1.51,1.83c1.38,2.16,2.79,4.35,3.76,6.8
		c1,2.56,1.35,5.22,1.1,8.16c-0.45,5.17-1.85,10.67,1.02,14.88c0.93,1.35,2.18,2.32,3.7,2.69c0.04,0.05,0.09,0.11,0.14,0.16
		c2.29,2,4.58,4,6.87,6.01c0.74,0.65,1.79-0.13,1.89-1.12c0.22-2.31,0.71-4.61,1.44-6.86c0.93,5.35,3.33,10.14,6.94,13.73
		c0.75,0.75,2.16-0.37,1.85-1.42c-1.44-4.79-1.31-10.23,0.38-15.38c0.8,1.48,1.6,2.96,2.4,4.43c0.29,0.54,1,0.53,1.52,0.18
		c1.33-0.91,2.39-2.27,2.99-3.78c0.37,0.4,0.68,0.87,0.92,1.4c0.44,0.93,1.74,0.3,2.02-0.59l0.29-0.93
		c1.62,3.01,3.99,5.44,6.96,7.03c0.65,0.35,1.77-0.4,1.66-1.27c-0.39-3.29-0.55-6.63-0.48-10c1.35,1.44,3.14,2.54,4.64,3.48
		c4.42,2.75,8.85,5.51,13.27,8.26c0.74,0.46,1.6-0.47,1.66-1.27c0.26-3.33,1.19-6.68,2.69-9.79c-0.21,1.5-0.39,2.99-0.55,4.49
		c-0.08,0.82,0.78,1.14,1.41,0.91c4.76-1.77,9.21-4.64,13.05-8.34c0.31,2.81,0.62,5.62,0.93,8.43c0.11,0.97,1.15,1.38,1.89,0.53
		c5.54-6.3,9.64-13.87,11.88-21.85C127.097,282.263,125.667,281.643,124.917,282.583z"/>
	<path fill="#F27368" d="M210.747,249.803c0.22,3.76,0.92,7.4,1.45,11.07c0.49,3.39,0.99,7.08,0.19,10.66
		c-0.63,2.82-2.43,5.81-5.09,6.8c0.24-1.95,0.47-3.91,0.71-5.86c0.14-1.13-0.98-1.84-1.86-0.85c-2.35,2.65-4.2,5.67-5.53,8.92
		c-2.84-2.36-3.96-6.73-2.77-10.81c0.15-0.51-0.1-1.05-0.51-1.24c-0.46-0.21-0.95,0.01-1.34,0.39c-5.32,5.19-11.33,10-18.06,12.33
		c-5.6,1.94-11.64,1.68-16.22-1.32c-2.36-1.55-4.2-3.84-5.07-6.71c-0.3-0.98-1.93-0.89-2.14,0.33c-0.81,4.76-0.77,9.5,0.11,13.98
		c-3.97-2.04-7.41-4.98-10.06-8.68c-0.48-0.67-1.85-0.5-2.02,0.59c-0.46,2.96-0.58,5.9-0.34,8.78c-1.42,0.38-2.79,0.97-4.09,1.77
		c-4.43-2.35-6.43-7.57-7.21-12.8c-1.02-6.83,0.22-14.08,0.07-21.07c-0.04-1.86-0.19-3.69-0.47-5.46c1.14,1.54,2.28,3.07,3.42,4.61
		c0.83,1.08,2.73-0.36,1.91-1.47c-3.42-4.45-3.89-10.61-3.34-16.63c0.63-6.93,2.7-13.82,3.47-20.76c0.25-2.22,0.34-4.43,0.22-6.59
		c0.68,0.99,1.35,1.98,2.03,2.98c0.68,0.99,2.35,0.05,2.02-1.21c-3.85-14.86,4.16-31.06,8.35-46.04c0.61-2.16,1.14-4.34,1.57-6.52
		c1.79,9.93,2.66,20.16,2.57,30.54c-0.03,3.54-0.18,7.1-0.43,10.67c-0.07,0.93,0.99,1.25,1.67,0.75c2.81-2.05,5.09-4.84,6.65-7.96
		c-0.04,1.8-0.11,3.61-0.25,5.42c-0.32,4.21-1.09,8.38-2.31,12.53c-1.2,4.06-2.67,8.07-3.69,12.17c-1.06,4.28-1.45,8.54-1.1,12.74
		c0.4,4.87,1.55,9.51,2.72,14.11c0.28,1.1,1.83,0.79,2.14-0.33c1.08-3.96,2.16-7.92,3.24-11.89c1.34,4.98,1.34,10.47-0.07,15.88
		c-0.17,0.64,0.21,1.22,0.78,1.32c4.41,0.71,9.04,1.44,13.69,0.08c2.53-0.74,4.99-2.06,6.98-3.98c-0.29,1.99-0.59,3.98-0.88,5.97
		c-0.09,0.64,0.15,1.23,0.78,1.32c4.29,0.57,8.85-2.45,11.11-6.62c0.14,0.77,0.33,1.51,0.65,2.2c1.03,2.21,3.78,2.51,5.72,0.58
		c2.02-2.01,2.49-5.02,3.58-7.51c1.23-2.8,2.97-5.36,5.08-7.57c1.42-1.48,3-2.75,4.69-3.79
		C211.117,240.003,210.477,245.153,210.747,249.803z"/>
	<path fill="#F27368" d="M491.597,352.023c0.22,3.76,0.92,7.4,1.45,11.07c0.49,3.39,0.99,7.08,0.19,10.66
		c-0.63,2.82-2.43,5.81-5.09,6.8c0.24-1.95,0.47-3.91,0.71-5.86c0.14-1.13-0.98-1.84-1.86-0.85c-2.35,2.65-4.2,5.67-5.53,8.92
		c-2.84-2.36-3.96-6.73-2.77-10.81c0.15-0.51-0.1-1.05-0.51-1.24c-0.46-0.21-0.95,0.01-1.34,0.39c-5.32,5.19-11.33,10-18.06,12.33
		c-5.6,1.94-11.64,1.68-16.22-1.32c-2.36-1.55-4.2-3.84-5.07-6.71c-0.3-0.98-1.93-0.89-2.14,0.33c-0.81,4.76-0.77,9.5,0.11,13.98
		c-3.97-2.04-7.41-4.98-10.06-8.68c-0.48-0.67-1.85-0.5-2.02,0.59c-0.46,2.96-0.58,5.9-0.34,8.78c-1.42,0.38-2.79,0.97-4.09,1.77
		c-4.43-2.35-6.43-7.57-7.21-12.8c-1.02-6.83,0.22-14.08,0.07-21.07c-0.04-1.86-0.19-3.69-0.47-5.46c1.14,1.54,2.28,3.07,3.42,4.61
		c0.83,1.08,2.73-0.36,1.91-1.47c-3.42-4.45-3.89-10.61-3.34-16.63c0.63-6.93,2.7-13.82,3.47-20.76c0.25-2.22,0.34-4.43,0.22-6.59
		c0.68,0.99,1.35,1.98,2.03,2.98c0.68,0.99,2.35,0.05,2.02-1.21c-3.85-14.86,4.16-31.06,8.35-46.04c0.61-2.16,1.14-4.34,1.57-6.52
		c1.79,9.93,2.66,20.16,2.57,30.54c-0.03,3.54-0.18,7.1-0.43,10.67c-0.07,0.93,0.99,1.25,1.67,0.75c2.81-2.05,5.09-4.84,6.65-7.96
		c-0.04,1.8-0.11,3.61-0.25,5.42c-0.32,4.21-1.09,8.38-2.31,12.53c-1.2,4.06-2.67,8.07-3.69,12.17c-1.06,4.28-1.45,8.54-1.1,12.74
		c0.4,4.87,1.55,9.51,2.72,14.11c0.28,1.1,1.83,0.79,2.14-0.33c1.08-3.96,2.16-7.92,3.24-11.89c1.34,4.98,1.34,10.47-0.07,15.88
		c-0.17,0.64,0.21,1.22,0.78,1.32c4.41,0.71,9.04,1.44,13.69,0.08c2.53-0.74,4.99-2.06,6.98-3.98c-0.29,1.99-0.59,3.98-0.88,5.97
		c-0.09,0.64,0.15,1.23,0.78,1.32c4.29,0.57,8.85-2.45,11.11-6.62c0.14,0.77,0.33,1.51,0.65,2.2c1.03,2.21,3.78,2.51,5.72,0.58
		c2.02-2.01,2.49-5.02,3.58-7.51c1.23-2.8,2.97-5.36,5.08-7.57c1.42-1.48,3-2.75,4.69-3.79
		C491.967,342.233,491.327,347.373,491.597,352.023z"/>
	<path fill="#F27368" d="M286.317,239.683c1.68-4.14,3.66-8.33,2.98-12.64c-0.07-0.46-0.63-0.8-1.07-0.69
		c-0.02,0-0.04,0.01-0.06,0.02c0.6-1.86,0.89-3.79,0.84-5.69c-0.03-1.18-1.48-1.33-2.07-0.27c-0.4,0.72-0.89,1.39-1.43,2
		c2.57-7.93,2.64-16.37,0.03-23.55c-0.35-0.95-1.44-0.83-1.94-0.06c0.4-2.69,0.69-5.37,0.93-8.01c1.04-11.14,1.57-22.27,1.57-33.31
		c0-6.27-0.17-12.52-0.5-18.74c-0.08-1.48-2.24-1.17-2.22,0.34c0.16,11.67-1.46,23.59-4.8,35.25c-0.53,1.84-1.1,3.68-1.71,5.5
		c-1.3-9.48-4.02-18.48-8.09-26.68c-0.47-0.96-2.15-0.21-2.06,0.91c0.76,9.94-0.09,20.18-2.49,30.28
		c-1.16-10.46-1.09-21.25,0.17-32.06c0.15-1.28-1.52-1.2-2.07-0.27c-5.19,8.89-6.37,19.05-6.68,28.65
		c-0.17,5.39-0.14,10.75-0.18,16.12c-0.04,5.82-0.09,11.65-0.13,17.47l-0.08,11.39c-1.17-4.26-2.33-8.51-3.5-12.77
		c-0.34-1.26-2.11-0.65-2.17,0.65c-0.59,11.43-1.12,23.24,1.98,33.8c0.53,1.82,1.2,3.57,1.96,5.27l-6.31-2.53
		c-1.27-0.51-2.28,1.52-1.11,2.19c3.34,1.89,6.78,4.44,8.25,8.31c0.68,1.77,0.94,3.69,0.42,5.72c-0.49,1.9-1.53,3.76-2.95,5.15
		c-1.5,1.47-3.33,2.22-5.15,1.82c-0.44-0.1-0.8,0.09-1.04,0.4c-0.48-0.14-1.09,0.24-1.34,0.72c-0.33,0.64-0.08,1.24,0.4,1.53
		c5.26,3.28,13.14,0.76,17.61-4.65c0.64-0.77,1.19-1.59,1.67-2.46c0.45,1.02,0.98,1.99,1.61,2.89c0.93,1.33,2.35,3.42,4.33,2.31
		c1.73-0.97,1.94-3.24,2.12-4.93c0.13-1.22,0.27-2.43,0.4-3.65c0.35,0.47,0.73,0.92,1.15,1.32c0.61,0.59,1.3,1.09,2.02,1.53
		c0.74,0.44,1.65,0.96,2.53,1.08c1.48,0.2,3.21-0.68,4.38-1.79c1.23-1.16,2.13-2.66,2.73-4.24c0.65-1.73,0.98-3.55,0.87-5.3
		c-0.14-2.28-0.7-4.42-1.15-6.6c-0.41-1.96-0.74-4.02-0.4-6.13C284.897,243.363,285.577,241.503,286.317,239.683z"/>
	<path fill="#F27368" d="M536.897,200.943c1.68-4.14,3.66-8.33,2.98-12.64c-0.07-0.46-0.63-0.8-1.07-0.69
		c-0.02,0-0.04,0.01-0.06,0.02c0.6-1.86,0.89-3.79,0.84-5.69c-0.03-1.18-1.48-1.33-2.07-0.27c-0.4,0.72-0.89,1.39-1.43,2
		c2.57-7.93,2.64-16.37,0.03-23.55c-0.35-0.95-1.44-0.83-1.94-0.06c0.4-2.69,0.69-5.37,0.93-8.01c1.04-11.14,1.57-22.27,1.57-33.31
		c0-6.27-0.17-12.52-0.5-18.74c-0.08-1.48-2.24-1.17-2.22,0.34c0.16,11.67-1.46,23.59-4.8,35.25c-0.53,1.84-1.1,3.68-1.71,5.5
		c-1.3-9.48-4.02-18.48-8.09-26.68c-0.47-0.96-2.15-0.21-2.06,0.91c0.76,9.94-0.09,20.18-2.49,30.28
		c-1.16-10.46-1.09-21.25,0.17-32.06c0.15-1.28-1.52-1.2-2.07-0.27c-5.19,8.89-6.37,19.05-6.68,28.65
		c-0.17,5.39-0.14,10.75-0.18,16.12c-0.04,5.82-0.09,11.65-0.13,17.47l-0.08,11.39c-1.17-4.26-2.33-8.51-3.5-12.77
		c-0.34-1.26-2.11-0.65-2.17,0.65c-0.59,11.43-1.12,23.24,1.98,33.8c0.53,1.82,1.2,3.57,1.96,5.27l-6.31-2.53
		c-1.27-0.51-2.28,1.52-1.11,2.19c3.34,1.89,6.78,4.44,8.25,8.31c0.68,1.77,0.94,3.69,0.42,5.72c-0.49,1.9-1.53,3.76-2.95,5.15
		c-1.5,1.47-3.33,2.22-5.15,1.82c-0.44-0.1-0.8,0.09-1.04,0.4c-0.48-0.14-1.09,0.24-1.34,0.72c-0.33,0.64-0.08,1.24,0.4,1.53
		c5.26,3.28,13.14,0.76,17.61-4.65c0.64-0.77,1.19-1.59,1.67-2.46c0.45,1.02,0.98,1.99,1.61,2.89c0.93,1.33,2.35,3.42,4.33,2.31
		c1.73-0.97,1.94-3.24,2.12-4.93c0.13-1.22,0.27-2.43,0.4-3.65c0.35,0.47,0.73,0.92,1.15,1.32c0.61,0.59,1.3,1.09,2.02,1.53
		c0.74,0.44,1.65,0.96,2.53,1.08c1.48,0.2,3.21-0.68,4.38-1.79c1.23-1.16,2.13-2.66,2.73-4.24c0.65-1.73,0.98-3.55,0.87-5.3
		c-0.14-2.28-0.7-4.42-1.15-6.6c-0.41-1.96-0.74-4.02-0.4-6.13C535.477,204.633,536.157,202.773,536.897,200.943z"/>
	<path fill="#F27368" d="M393.787,239.023c-0.83-5.22-1.41-10.53-2.09-15.8l-0.08-0.58c0.87,0.61,1.87,1.05,2.98,1.24
		c0.72,0.13,1.37-0.61,1.4-1.34c0.44-11.03,0.73-22.05,0.86-33.04c0.04-3.13,0.07-6.25,0.08-9.38c0.01-1-1.23-1.36-1.89-0.53
		c-0.73,0.91-1.46,1.82-2.19,2.74c2.82-8.6,4.64-17.4,5.38-26.19c0.26-3.07,0.38-6.13,0.37-9.17c0-1.08-1.61-1.44-2.07-0.27
		c-1.1,2.8-2.2,5.59-3.3,8.39c-1.32-7.97-2.65-15.95-3.97-23.92c-0.18-1.09-1.96-0.81-2.14,0.33c-1.18,7.65-4,15.22-8.27,21.96
		c-2.33-5.24-3.64-11.08-3.83-17.16c-0.04-1.36-1.76-1.25-2.18,0.03c-2.94,8.91-3.78,18.26-2.54,26.98l-8.23-14.14
		c-0.62-1.06-2.36-0.01-2.02,1.21c2.15,7.77,4.3,15.55,6.46,23.32c1.89,6.83,4.09,13.73,4.17,21.17c0.03,2.76-0.29,5.57-1.06,8.3
		c-1.21-5.43-2.43-10.85-3.64-16.28c-0.25-1.12-1.84-0.78-2.14,0.33c-0.9,3.4-2.12,6.71-3.64,9.92c-0.06-0.13-0.13-0.25-0.19-0.37
		c-1.45-2.58-2.92-5.15-4.38-7.73c-2.94-5.19-5.88-10.38-8.83-15.57c-0.5-0.88-2.2-0.25-2.06,0.91c0.38,3.22-0.35,6.64-2.09,9.61
		c-3.82-8.72-8.05-17.19-12.71-25.35c-1.41-2.47-2.86-4.91-4.34-7.32c-0.45-0.73-1.86-0.46-2.02,0.59c-0.5,3.24-2.84,6.35-5.83,7.5
		c-1.44-3.74-2.23-7.78-2.34-11.98c0.25-1.09,0.28-2.21-0.02-3.32c-0.34-1.25-2.11-0.65-2.17,0.65c-0.04,0.93-0.05,1.86-0.03,2.79
		c-0.34,1.18-1.04,2.32-1.79,3.34c-1.48,2-3.25,3.75-4.76,5.73c-2.8,3.67-4.85,7.92-5.99,12.31c-0.17-0.87-0.38-1.72-0.65-2.55
		c-0.44-1.4-2.35-0.47-2.13,0.95c0.4,2.57,0.8,5.15,1.2,7.72c0.2,5.42-0.56,11.07-0.42,16.51l-0.52-1.17
		c-0.19-0.43-0.83-0.54-1.25-0.34c-0.5,0.23-0.77,0.72-0.81,1.25c-0.53,6.76-0.79,13.51-0.77,20.22c0.01,3.35,0.09,6.69,0.24,10.02
		c0.14,3.11,0.26,6.25,0.64,9.3c0.05,0.42,0.11,0.84,0.18,1.25c-0.94-1.03-1.87-2.06-2.81-3.09c-0.72-0.79-2.17,0.4-1.85,1.42
		c1.66,5.23,1.45,11.03,1.59,16.69c0.11,4.86,0.56,9.77,2.4,14.02c0.98,2.27,2.37,4.26,4.2,5.77c0.27,0.22,0.56,0.26,0.84,0.18
		c0.12,0.49,0.22,0.97,0.32,1.44c0.48,2.29,0.98,4.51,1.88,6.61c1.9,4.44,4.95,8.04,8.84,10.53c0.79,0.5,1.9-0.7,1.62-1.57
		c-1.74-5.44-2.54-11.27-2.4-17.25c1.48,3.68,2.95,7.36,4.43,11.04c0.2,0.51,0.64,0.83,1.22,0.65c0.49-0.15,1.03-0.72,0.96-1.29
		c-0.31-2.53-0.47-5.09-0.47-7.68c0.35,0.58,1.18,0.82,1.73,0.05c3.49-4.89,5.94-10.47,7.19-16.17c0.02,0.1,0.04,0.2,0.06,0.31
		c0.13,0.54,0.7,0.81,1.22,0.65c0.59-0.18,0.89-0.69,0.96-1.29c0.26-2.26,0.23-4.5-0.08-6.66c0.43-2.74,1.21-5.52,1.55-8.23
		c0.29-2.34,0.32-4.76-0.23-6.9c1.51,0.89,3.03,1.79,4.54,2.68c0.75,0.45,1.98-0.69,1.62-1.57c-3.19-7.74-5.34-16.08-6.32-24.75
		c1.62,4.68,3.8,9.07,6.48,13.06c0.64,0.95,1.93,0.22,2.06-0.91c0.43-3.65,0.86-7.29,1.29-10.94c4.46,7.63,9.22,15.04,14.28,22.18
		c0.05,0.07,0.1,0.14,0.15,0.21c-1.55-1.16-3.11-2.31-4.66-3.47c-0.94-0.7-2.37,0.57-1.73,1.68c5,8.68,10.47,17,16.41,24.91
		c1.7,2.27,3.44,4.5,5.21,6.69c0.39,0.49,1.24,0.68,1.74-0.03c1.83-2.57,3.65-5.14,5.48-7.71c0.74,0.82,1.48,1.65,2.23,2.47
		c0.4,0.44,1.16,0.21,1.57-0.24c1.64-1.82,3.11-3.79,4.4-5.88c1.27,2.01,2.33,4.18,3.15,6.48c0.44,1.22,2.04,0.67,2.17-0.65
		c0.18-1.74,0.36-3.47,0.54-5.21c2.23,1.31,4.84,1.9,7.6,1.68c0.96-0.08,1.45-1.55,0.77-2.11
		C395.477,247.343,394.437,243.113,393.787,239.023z"/>
	<path fill="#F27368" d="M838.517,170.283c-0.83-5.22-1.41-10.53-2.09-15.8l-0.08-0.58c0.87,0.61,1.87,1.05,2.98,1.24
		c0.72,0.13,1.37-0.61,1.4-1.34c0.44-11.03,0.73-22.05,0.86-33.04c0.04-3.13,0.07-6.25,0.08-9.38c0.01-1-1.23-1.36-1.89-0.53
		c-0.73,0.91-1.46,1.82-2.19,2.74c2.82-8.6,4.64-17.4,5.38-26.19c0.26-3.07,0.38-6.13,0.37-9.17c0-1.08-1.61-1.44-2.07-0.27
		c-1.1,2.8-2.2,5.59-3.3,8.39c-1.32-7.97-2.65-15.95-3.97-23.92c-0.18-1.09-1.96-0.81-2.14,0.33c-1.18,7.65-4,15.22-8.27,21.96
		c-2.33-5.24-3.64-11.08-3.83-17.16c-0.04-1.36-1.76-1.25-2.18,0.03c-2.94,8.91-3.78,18.26-2.54,26.98l-8.23-14.14
		c-0.62-1.06-2.36-0.01-2.02,1.21c2.15,7.77,4.3,15.55,6.46,23.32c1.89,6.83,4.09,13.73,4.17,21.17c0.03,2.76-0.29,5.57-1.06,8.3
		c-1.21-5.43-2.43-10.85-3.64-16.28c-0.25-1.12-1.84-0.78-2.14,0.33c-0.9,3.4-2.12,6.71-3.64,9.92c-0.06-0.13-0.13-0.25-0.19-0.37
		c-1.45-2.58-2.92-5.15-4.38-7.73c-2.94-5.19-5.88-10.38-8.83-15.57c-0.5-0.88-2.2-0.25-2.06,0.91c0.38,3.22-0.35,6.64-2.09,9.61
		c-3.82-8.72-8.05-17.19-12.71-25.35c-1.41-2.47-2.86-4.91-4.34-7.32c-0.45-0.73-1.86-0.46-2.02,0.59c-0.5,3.24-2.84,6.35-5.83,7.5
		c-1.44-3.74-2.23-7.78-2.34-11.98c0.25-1.09,0.28-2.21-0.02-3.32c-0.34-1.25-2.11-0.65-2.17,0.65c-0.04,0.93-0.05,1.86-0.03,2.79
		c-0.34,1.18-1.04,2.32-1.79,3.34c-1.48,2-3.25,3.75-4.76,5.73c-2.79,3.67-4.85,7.92-5.99,12.31c-0.17-0.87-0.38-1.72-0.65-2.55
		c-0.44-1.4-2.35-0.47-2.13,0.95c0.4,2.57,0.8,5.15,1.2,7.72c0.2,5.42-0.56,11.07-0.42,16.51l-0.52-1.17
		c-0.19-0.43-0.83-0.54-1.25-0.34c-0.5,0.23-0.77,0.72-0.81,1.25c-0.53,6.76-0.79,13.51-0.77,20.22c0.01,3.35,0.09,6.69,0.24,10.02
		c0.14,3.11,0.26,6.25,0.64,9.3c0.05,0.42,0.11,0.84,0.18,1.25c-0.94-1.03-1.87-2.06-2.81-3.09c-0.72-0.79-2.17,0.4-1.85,1.42
		c1.66,5.23,1.45,11.03,1.59,16.69c0.11,4.86,0.56,9.77,2.4,14.02c0.98,2.27,2.37,4.26,4.2,5.77c0.27,0.22,0.56,0.26,0.84,0.18
		c0.12,0.49,0.22,0.97,0.32,1.44c0.48,2.29,0.98,4.51,1.88,6.61c1.9,4.44,4.95,8.04,8.84,10.53c0.79,0.5,1.9-0.7,1.62-1.57
		c-1.74-5.44-2.54-11.27-2.4-17.25c1.48,3.68,2.95,7.36,4.43,11.04c0.2,0.51,0.64,0.83,1.22,0.65c0.49-0.15,1.03-0.72,0.96-1.29
		c-0.31-2.53-0.47-5.09-0.47-7.68c0.35,0.58,1.18,0.82,1.73,0.05c3.49-4.89,5.94-10.47,7.19-16.17c0.02,0.1,0.04,0.2,0.06,0.31
		c0.13,0.54,0.7,0.81,1.22,0.65c0.59-0.18,0.89-0.69,0.96-1.29c0.26-2.26,0.23-4.5-0.08-6.66c0.43-2.74,1.21-5.52,1.55-8.23
		c0.29-2.34,0.32-4.76-0.23-6.9c1.51,0.89,3.03,1.79,4.54,2.68c0.75,0.45,1.98-0.69,1.62-1.57c-3.19-7.74-5.34-16.08-6.32-24.75
		c1.62,4.68,3.8,9.07,6.48,13.06c0.64,0.95,1.93,0.22,2.06-0.91c0.43-3.65,0.86-7.29,1.29-10.94c4.46,7.63,9.22,15.04,14.28,22.18
		c0.05,0.07,0.1,0.14,0.15,0.21c-1.55-1.16-3.11-2.31-4.66-3.47c-0.94-0.7-2.37,0.57-1.73,1.68c5,8.68,10.47,17,16.41,24.91
		c1.7,2.27,3.44,4.5,5.21,6.69c0.39,0.49,1.24,0.68,1.74-0.03c1.83-2.57,3.65-5.14,5.48-7.71c0.74,0.82,1.48,1.65,2.23,2.47
		c0.4,0.44,1.16,0.21,1.57-0.24c1.64-1.82,3.11-3.79,4.4-5.88c1.27,2.01,2.33,4.18,3.15,6.48c0.44,1.22,2.04,0.67,2.17-0.65
		c0.18-1.74,0.36-3.47,0.54-5.21c2.23,1.31,4.84,1.9,7.6,1.68c0.96-0.08,1.45-1.55,0.77-2.11
		C840.207,178.603,839.167,174.373,838.517,170.283z"/>
	<path fill="#F27368" d="M487.677,175.303c-0.59,0.75-1.19,1.51-1.78,2.26c-0.68-3.01-1.08-6.1-1.2-9.28
		c-0.04-1.18-1.46-1.32-2.07-0.27c-1.21,2.11-2.72,4.06-4.45,5.74c-0.85,0.82-1.76,1.58-2.7,2.26c-0.89,0.65-2.03,1.56-3.08,1.71
		c-1.43,0.2-1.39-1.67-1.44-2.84c-0.08-1.71-0.1-3.6-1.08-4.92c-0.45-0.6-1.51-0.61-1.91,0.3c-2.61,5.92-7.36,10.8-12.96,13.37
		c-0.67-3.37-2.18-6.36-4.34-8.76c-0.3-0.33-0.96-0.29-1.34,0.03c-4.32,3.6-9.28,6.06-14.4,7.15c2.99-4.82,5.36-9.96,7.03-15.32
		c0.26-0.84-0.6-1.65-1.37-1.22c-1.59,0.87-3.22,1.49-4.89,1.87c0.82-1.06,1.95-1.88,3.07-2.46c2.08-1.07,4.23-1.48,6.4-1.95
		c2.42-0.52,4.86-1.14,7.07-2.59c0.39-0.26,0.76-0.54,1.11-0.85c5.95,3.8,14.46,2.77,20.88-2.08c0.05-0.04,0.1-0.08,0.15-0.12
		c0.17,1.26,0.91,2.31,2.06,2.75c1.67,0.64,3.38-0.37,4.06-2.29c0.21-0.6,0.37-1.21,0.52-1.82c1.23,2.81,3.64,4.9,6.62,5.51
		c0.45,0.09,1.03-0.26,1.25-0.73c4.68-9.78,5.59-20.39,5.55-30.55c-0.01-2.55-0.08-5.1-0.16-7.64c0-0.38-0.01-0.75-0.03-1.13
		c-0.11-1.47-2.27-1.17-2.22,0.34c0.01,0.32,0.02,0.64,0.03,0.96c-0.02,3.59-1.61,7.23-4.19,9.87c1.06-4.15,1.49-8.39,1.24-12.49
		c-0.08-1.33-1.75-1.28-2.18,0.03c-1.66,5.1-7.94,8.1-11.99,5.97c-1.22-0.64-2.26,1.51-1.11,2.19c0.93,0.55-0.39,2.49-1.12,2.92
		c-0.93,0.54-2.09,0.39-3,0.22c-1.14-0.21-2.22-0.61-3.35-0.87c-4.08-0.94-8.63-0.36-12.81,1.44c-1.82,0.78-3.58,1.81-5.21,3.05
		c-0.36-3.82-0.73-7.64-1.09-11.46c-0.14-1.45-2.23-1.19-2.22,0.34c0.05,6.58-7.34,10.66-12.33,12.76
		c-6.13,2.58-13.22,5.38-15.9,12.62c-0.08,0.22-0.15,0.44-0.23,0.66c-0.55-0.24-1.3,0.01-1.54,0.91
		c-1.68,6.38-2.24,12.89-1.68,19.14c-0.99-1.58-2.11-3.08-3.33-4.47c-0.81-0.93-2.34,0.66-1.73,1.68c1.82,3.07,2.99,6.63,3.35,10.41
		c0.39,4.03-0.26,8.07-1.09,12.17c-0.86,4.29-1.56,8.52-1.52,12.78c0.05,4.27,0.67,8.44,1.56,12.47c0.79,3.58,1.81,7.07,2.88,10.53
		c-1.8-1.02-3.6-2.05-5.39-3.07c-0.92-0.53-2.09,0.96-1.51,1.83c4.64,6.93,6.02,16.32,3.91,25.41c-0.6,2.6-1.48,5.14-2.64,7.6
		c-0.36,0.76,0.02,1.36,0.55,1.55c-0.6,1.18,0.83,2.34,1.73,1.16c1.77-2.31,3.54-4.61,5.31-6.92c0.77,1.72-0.18,4.37-0.7,6.3
		c-0.77,2.88-1.63,6.31,0.1,8.64c0.39,0.52,1.23,0.64,1.74-0.03c4.94-6.57,9.43-13.49,13.43-20.67c1.33,2.4,2.66,4.8,3.99,7.19
		c0.38,0.69,1.55,0.54,1.91-0.3c1.02-2.34,1.89-4.72,2.62-7.13c0.08,2.05,0.17,4.11,0.25,6.16c0.03,0.8,0.95,1.41,1.67,0.75
		c3.72-3.41,2.31-8.75,1.68-12.67c-0.78-4.89-1.56-9.79-2.34-14.68c0.87,0.24,1.74,0.48,2.61,0.72c0.42,0.96,0.86,1.92,1.33,2.85
		c0.34,0.68,1.24,0.49,1.74-0.03c0.87-0.9,2.13-1.36,3.24-1.23c0.27,0.06,0.54,0.13,0.81,0.19c1.17,0.27,1.99-1.88,0.84-2.26
		c-0.09-0.03-0.18-0.04-0.27-0.07v-0.01c-2.02-0.47-4.02-0.96-6.02-1.49c-1.91-4.61-3.22-9.56-3.89-14.71
		c1.76,1.13,4.01,1.53,6.22,1.5c3.9-0.05,7.78-1.48,11.68-1.86c2.17-0.21,4.41-0.04,6.15,1.14c0.98,0.67,2.3-0.53,1.73-1.68
		c-1.11-2.26-2.96-3.93-5.15-4.94c0.29-0.08,0.58-0.15,0.87-0.24c1.08-0.32,2.17-0.83,2.92-1.82c0.61-0.82,0.86-2.13,1.67-2.76
		c0.73-0.57,1.73-0.47,2.49-0.35c2.27,0.34,4.48,1.18,6.58,1.98c2.53,0.97,4.96,2.13,7.3,3.47c1.04,0.6,2.24-1.28,1.33-2.04
		c-1.21-1.02-1.08-2.91-0.77-4.54c0.45-2.33,1.24-4.65,1.89-6.95c1.47-5.15,2.94-10.3,4.41-15.46
		C489.867,174.993,488.427,174.353,487.677,175.303z M460.637,149.583c0.56,1.23,0.05,3.02-0.89,4.19
		c-0.92,1.13-2.15,1.83-3.45,2.31c0.24-0.35,0.47-0.71,0.7-1.06C458.147,153.183,459.187,151.193,460.637,149.583z"/>
	<path fill="#F27368" d="M627.997,210.783c-3.59,0.78-7.44,0.51-10.64-0.73c-1.89-0.73-3.61-1.85-4.89-3.46
		c-0.3-0.37-0.75-0.57-1.25-0.34c-0.43,0.19-0.87,0.76-0.81,1.25c0.44,3.5-1.84,6.99-4.72,9.03c-3.31,2.36-7.27,3.14-10.93,3.85
		c-3.15,0.61-6.39,1.05-9.43,0.52c-1.41-0.24-2.79-0.73-3.91-1.58c-1.28-0.97-1.99-2.68-3.45-3.38s-3.2-0.14-4.75,0.55
		c-1.27,0.56-2.99,1.64-4.3,1.25c-0.74-0.22-1.68,0.3-1.66,1.27c0.06,3.38,1.12,6.52,2.99,8.95c-5.82-0.35-10.92-4.19-12.74-9.93
		c-0.39-1.23-2.08-0.67-2.17,0.65c-0.35,5.09,1.1,9.97,3.9,13.61c-3.13-1.12-5.75-3.32-7.41-6.35c-0.21-0.39-0.55-0.5-0.89-0.44
		c-4.53-6.15-5.3-14.83-4.79-23.08c0.12-2.02,0.22-4.07-0.02-6.02c1.58,1.03,3.04,2.22,4.36,3.6c0.73,0.76,2.19-0.39,1.85-1.42
		c-2.75-8.37-4.93-17.19-4.65-26.56c0.29-9.35,3.12-18.8,2.59-28.08c-0.21-3.61-0.78-7.13-1.47-10.6c1.17,1.8,1.99,3.86,2.43,6.12
		c0.21,1.08,1.95,0.82,2.14-0.33c1.48-9.12,3.34-18.23,5.55-27.3c2.77,4.08,6.5,7.32,10.87,9.44c0.55,0.26,1.18-0.09,1.51-0.65
		c2.69-4.45,6.77-8,11.26-10.05c2.22-1.01,4.53-1.65,6.85-1.85c2.91-0.26,5.74,0.23,8.66-0.15c1.03-0.14,2.08-0.39,3.09-0.79
		c-1.24,1.65-2.64,3.16-4.19,4.5c-0.73,0.63-0.72,2.02,0.27,2.09c5.61,0.39,11.94-1.36,16.85-5.34c2.08-1.68,4.07-4.04,4.55-6.74
		c0.45-2.56-0.39-4.76-1.96-6.38c1.42,0.44,2.77,1.03,4,1.86c2.91,1.96,5.03,5.28,4.49,9.37c-0.34,2.55-1.49,5-2.83,7.26
		c-0.37,0.63-0.01,1.61,0.67,1.61c1.52,0,3.06-0.6,4.29-1.67c0.25,5.12-0.19,10.36-1.39,15.55c-0.17,0.72-0.34,1.44-0.54,2.16
		c-0.17,0.62-0.29,1.39-0.65,1.96c-0.29,0.46-0.72,0.32-1.13,0.27c-0.71-0.08-1.41-0.17-2.11-0.26c-2.56-0.35-5.17-0.87-7.31-2.25
		c-2.03-1.3-3.66-3.46-3.79-6.18c-0.04-0.78-0.96-1.43-1.67-0.75c-3.02,2.9-4.67,6.93-4.5,10.85c-4.62,0.23-8.8-2.68-10.1-7.23
		c-0.26-0.91-1.56-0.92-2.03,0.03c-1.12,2.29-2.25,4.57-3.37,6.86c-0.53,1.08-1.05,2.17-1.59,3.24c-0.11,0.22-0.34,0.77-0.57,0.9
		c-0.29,0.17-0.61-0.13-0.84-0.28c-2.83-1.9-4.8-4.93-5.65-8.46c-0.18-0.76-1.33-1-1.85-0.23c-2.78,4.14-4.35,8.97-4.35,13.73
		c0,4.52,1.49,8.74,4.12,11.91c1.48,1.79,3.27,3.22,5.32,4.25c0.55,0.28,1.17-0.1,1.51-0.65c1.47-2.31,2.64-4.78,3.49-7.34
		c0.66,1.17,1.32,2.34,1.98,3.5c0.89,1.56,2.33,2.93,4.28,1.52c0.79-0.57,1.49-1.41,2.13-2.15c0.7-0.8,1.36-1.64,1.97-2.52
		c0.77-1.09,1.46-2.23,2.08-3.4c1.54,4.11,1.72,8.89,0.52,13.55c-0.36,1.41,1.32,1.7,2.03,0.59c3.02-4.8,6.04-9.59,9.06-14.39
		c1.71,2.4,3.43,4.79,5.14,7.19c0.43,0.6,1.54,0.61,1.91-0.3c1.89-4.54,4.47-8.76,7.66-12.5c0.5,4.18-0.74,8.74-3.18,12.55
		c-1.4,2.18-3.22,4.08-5.31,5.5c-1.1,0.74-2.33,1.24-3.38,2.08c-1.29,1.03-2.01,2.45-2.09,4.06c-0.09,1.76,0.45,3.56,0.95,5.13
		c0.31,0.98,0.68,1.92,1.1,2.84c-3.27-0.78-5.98-3.12-7.13-6.49c-0.41-1.2-2.1-0.69-2.17,0.65c-0.09,1.67-0.44,3.38-1.05,5.01
		c-0.2,0.52-1.35,3.56-1.97,3.32c-0.43-0.16-0.72-1.28-0.89-1.67c-0.37-0.81-0.73-1.63-1.1-2.44c-0.75-1.67-1.5-3.34-2.25-5.01
		c-0.28-0.63-1.3-0.55-1.74,0.03c-2.57,3.41-5.55,7.19-9.33,9.02c-1.72,0.83-3.53,1.13-5.22,0.69c-1.6-0.42-2.93-1.49-3.98-2.73
		c-1.28-1.51-2.23-3.34-3.07-5.19c-0.41-0.91-1.77-0.32-2.02,0.59c-2.23,7.99-4.6,17.82,0.43,24.12c2.09,2.62,5.11,4.32,8.49,4.73
		c3.4,0.41,6.95-0.59,10.07-2.71c2.27-1.54,4.2-3.64,5.64-6.03c-0.11,1.58-0.53,3.18-1.27,4.7c-0.44,0.92,0.15,1.62,0.96,1.61
		c8.56-0.15,17.38-4.27,24.13-10.88c1.29-1.26,2.49-2.63,3.6-4.06c0.47,3.38,0.94,6.76,1.41,10.13c0.1,0.68,1.11,0.95,1.63,0.45
		c1.9-1.83,3.49-3.92,4.72-6.21c0.18,2.81,0.37,5.62,0.55,8.43c0.13,2.01,0.21,4.03,0.41,6.03c0.14,1.49,0.44,2.91,1.26,4.01
		C633.997,208.683,630.707,210.183,627.997,210.783z"/>
	<path fill="#F27368" d="M397.437,389.703c-3.59,0.78-7.44,0.51-10.64-0.73c-1.89-0.73-3.61-1.85-4.89-3.46
		c-0.3-0.37-0.75-0.57-1.25-0.34c-0.43,0.19-0.87,0.76-0.81,1.25c0.44,3.5-1.84,6.99-4.72,9.03c-3.31,2.36-7.27,3.14-10.93,3.85
		c-3.15,0.61-6.39,1.05-9.43,0.52c-1.41-0.24-2.79-0.73-3.91-1.58c-1.28-0.97-1.99-2.68-3.45-3.38s-3.2-0.14-4.75,0.55
		c-1.27,0.56-2.99,1.64-4.3,1.25c-0.74-0.22-1.68,0.3-1.66,1.27c0.06,3.38,1.12,6.52,2.99,8.95c-5.82-0.35-10.92-4.19-12.74-9.93
		c-0.39-1.23-2.08-0.67-2.17,0.65c-0.35,5.09,1.1,9.97,3.9,13.61c-3.13-1.12-5.75-3.32-7.41-6.35c-0.21-0.39-0.55-0.5-0.89-0.44
		c-4.53-6.15-5.3-14.83-4.79-23.08c0.12-2.02,0.22-4.07-0.02-6.02c1.58,1.03,3.04,2.22,4.36,3.6c0.73,0.76,2.19-0.39,1.85-1.42
		c-2.75-8.37-4.93-17.19-4.65-26.56c0.29-9.35,3.12-18.8,2.59-28.08c-0.21-3.61-0.78-7.13-1.47-10.6c1.17,1.8,1.99,3.86,2.43,6.12
		c0.21,1.08,1.95,0.82,2.14-0.33c1.48-9.12,3.34-18.23,5.55-27.3c2.77,4.08,6.5,7.32,10.87,9.45c0.55,0.26,1.18-0.09,1.51-0.65
		c2.69-4.45,6.77-8,11.26-10.05c2.22-1.01,4.53-1.65,6.85-1.85c2.91-0.26,5.74,0.23,8.66-0.15c1.03-0.14,2.08-0.39,3.09-0.79
		c-1.24,1.65-2.64,3.16-4.19,4.5c-0.73,0.63-0.72,2.02,0.27,2.09c5.61,0.39,11.94-1.36,16.85-5.34c2.08-1.68,4.07-4.04,4.55-6.74
		c0.45-2.56-0.39-4.76-1.96-6.38c1.42,0.44,2.77,1.03,4,1.86c2.91,1.96,5.03,5.28,4.49,9.37c-0.34,2.55-1.49,5-2.83,7.26
		c-0.37,0.63-0.01,1.61,0.67,1.61c1.52,0,3.06-0.6,4.29-1.67c0.25,5.12-0.19,10.36-1.39,15.55c-0.17,0.72-0.34,1.44-0.54,2.16
		c-0.17,0.62-0.29,1.39-0.65,1.96c-0.29,0.46-0.72,0.32-1.13,0.27c-0.71-0.08-1.41-0.17-2.11-0.26c-2.56-0.35-5.17-0.87-7.31-2.25
		c-2.03-1.3-3.66-3.46-3.79-6.18c-0.04-0.78-0.96-1.43-1.67-0.75c-3.02,2.9-4.67,6.93-4.5,10.85c-4.62,0.23-8.8-2.68-10.1-7.23
		c-0.26-0.91-1.56-0.92-2.03,0.03c-1.12,2.29-2.25,4.57-3.37,6.86c-0.53,1.08-1.05,2.17-1.59,3.24c-0.11,0.22-0.34,0.77-0.57,0.9
		c-0.29,0.17-0.61-0.13-0.84-0.28c-2.83-1.9-4.8-4.93-5.65-8.46c-0.18-0.76-1.33-1-1.85-0.23c-2.78,4.14-4.35,8.97-4.35,13.73
		c0,4.52,1.49,8.74,4.12,11.91c1.48,1.79,3.27,3.22,5.32,4.25c0.55,0.28,1.17-0.1,1.51-0.65c1.47-2.31,2.64-4.78,3.49-7.34
		c0.66,1.17,1.32,2.34,1.98,3.5c0.89,1.56,2.33,2.93,4.28,1.52c0.79-0.57,1.49-1.41,2.13-2.15c0.7-0.8,1.36-1.64,1.97-2.52
		c0.77-1.09,1.46-2.23,2.08-3.4c1.54,4.11,1.72,8.89,0.52,13.55c-0.36,1.41,1.32,1.7,2.03,0.59c3.02-4.8,6.04-9.59,9.06-14.39
		c1.71,2.4,3.43,4.79,5.14,7.19c0.43,0.6,1.54,0.61,1.91-0.3c1.89-4.54,4.47-8.76,7.66-12.5c0.5,4.18-0.74,8.74-3.18,12.55
		c-1.4,2.18-3.22,4.08-5.31,5.5c-1.1,0.74-2.33,1.24-3.38,2.08c-1.29,1.03-2.01,2.45-2.09,4.06c-0.09,1.76,0.45,3.56,0.95,5.13
		c0.31,0.98,0.68,1.92,1.1,2.84c-3.27-0.78-5.98-3.12-7.13-6.49c-0.41-1.2-2.1-0.69-2.17,0.65c-0.09,1.67-0.44,3.38-1.05,5.01
		c-0.2,0.52-1.35,3.56-1.97,3.32c-0.43-0.16-0.72-1.28-0.89-1.67c-0.37-0.81-0.73-1.63-1.1-2.44c-0.75-1.67-1.5-3.34-2.25-5.01
		c-0.28-0.63-1.3-0.55-1.74,0.03c-2.57,3.41-5.55,7.19-9.33,9.02c-1.72,0.83-3.53,1.13-5.22,0.69c-1.6-0.42-2.93-1.49-3.98-2.73
		c-1.28-1.51-2.23-3.34-3.07-5.19c-0.41-0.91-1.77-0.32-2.02,0.59c-2.23,7.99-4.6,17.82,0.43,24.12c2.09,2.62,5.11,4.32,8.49,4.73
		c3.4,0.41,6.95-0.59,10.07-2.71c2.27-1.54,4.2-3.64,5.64-6.03c-0.11,1.58-0.53,3.18-1.27,4.7c-0.44,0.92,0.15,1.62,0.96,1.61
		c8.56-0.15,17.38-4.27,24.13-10.88c1.29-1.26,2.49-2.63,3.6-4.06c0.47,3.38,0.94,6.76,1.41,10.13c0.1,0.68,1.11,0.95,1.63,0.45
		c1.9-1.83,3.49-3.92,4.72-6.21c0.18,2.81,0.37,5.62,0.55,8.42c0.13,2.01,0.21,4.03,0.41,6.03c0.14,1.49,0.44,2.91,1.26,4.01
		C403.447,387.613,400.147,389.113,397.437,389.703z"/>
	<path fill="#F27368" d="M719.207,166.763c0.56,0.13,1.22-0.43,1.36-1.03c2.66-11.57,12.04-22.57,9.61-34.47
		c-0.01-0.03-0.02-0.05-0.03-0.07c3.01-7.01,3.25-14.96,2.37-22.02c-0.4-3.23-0.99-6.4-1.58-9.56c-0.23-1.2-1.8-0.7-2.14,0.33
		c-0.36,1.11-0.82,2.2-1.35,3.24c-0.07-3.18-1.32-6.21-2.98-8.6c-2.79-4-6.82-6.84-9.04-11.33c-0.46-0.94-2.2-0.22-2.06,0.91
		c0.44,3.66-0.06,7.49-1.48,11.12c-4.03-4.45-6.69-10.2-7.71-16.58c-0.31-1.44-2.36-0.47-2.13,0.95c0.71,3.3-0.92,7.32-3.8,9.46
		c-1.8,1.34-3.97,1.84-5.97,2.49c-1.2,0.39-2.39,0.84-3.5,1.48c0.59-5.64-1.17-11.4-1.11-17.05c0.05-0.54,0.08-1.08,0.07-1.62
		c-0.02-1.52-2.09-1.15-2.22,0.34c-0.04,0.48-0.06,0.95-0.07,1.42c-0.5,5.4-4.07,10.86-8.84,13.46c-1.47,0.8-2.95,1.25-4.51,1.56
		c-1.8,0.36-3.63,0.65-5.36,1.5c-2.75,1.35-4.89,3.7-6.57,6.37c-1.2,1.91-2.14,3.95-2.96,6.03c-0.61-3.15-1.05-6.35-1.33-9.6
		c1.11-3.16,1.34-6.68-0.49-9.15c-0.61-0.83-2.05-0.31-2.06,0.91c-0.02,2.76,0.08,5.5,0.3,8.22c-0.13,0.34-0.28,0.67-0.43,0.99
		c-1.57,3.25-4.14,5.91-6.2,8.84c-2.04,2.9-3.51,6.05-4.19,9.46c-0.68,3.44-0.64,6.88-0.23,10.19c0.31,2.52,0.82,4.98,1.41,7.41
		c-0.87-1.04-1.55-2.26-1.98-3.62c-0.46-1.34-2.57-0.43-2.13,0.95c2.26,6.67,4.33,13.65,3.5,21.26c-0.41,3.77-1.34,7.53-1.54,11.29
		c-0.18,3.35,0.14,6.66,0.9,9.77c0.3,1.23,0.67,2.43,1.11,3.6c-0.88-0.95-1.7-1.95-2.48-3c-0.68-0.92-2.42-0.06-2.02,1.21
		c1.71,5.42,2.42,11.27,2.1,17.27c-0.16,2.97-0.59,5.95-1.25,8.91c-0.66,2.93-1.45,6.03-0.79,8.86c0.56,2.39,2.23,4.49,4.65,4.75
		c2.13,2.52,3.46,5.75,4.63,8.99c0.77,2.15,1.49,4.33,2.35,6.43c0.8,1.95,1.78,4.55,4.29,4.23c0.7-0.09,1.28-0.96,1.06-1.64
		c-1.77-5.59-2.87-11.46-3.31-17.5c0.32,0.95,0.64,1.9,0.97,2.84c0.33,0.96,1.46,0.86,2.03-0.03l6.39-10.16
		c0.71,5.04,3.95,9.31,8.49,10.75c0.82,0.26,1.94-0.56,1.62-1.57c-2.07-6.62-3.53-13.52-4.36-20.61c0.96,0.69,2.1,1.14,3.36,1.25
		c0.63,0.06,1.48-0.56,1.4-1.34c-0.76-6.92,2.31-13.83,5.69-20.24c0.74,4.39,2.09,8.54,4.06,12.33c0.45,0.86,1.77,0.36,2.02-0.59
		c0.49-1.83,0.97-3.67,1.46-5.5c0.75,5.41,2.54,10.49,5.26,14.89c0.29,0.47,1.02,0.62,1.52,0.18c3.23-2.84,5-7.39,4.49-11.38
		c1.97,1.96,1.46,6.73,1.67,9.35c0.38,4.69,1.59,9.11,3.56,13.1c0.45,0.91,1.74,0.32,2.02-0.59c0.67-2.15,1.2-4.33,1.59-6.52
		c1.73,5.28,4.81,9.86,9,13.11c0.64,0.5,2.01-0.05,1.89-1.12c-0.5-4.57-0.28-9.27,0.65-13.94c0.79,2.36,1.87,4.6,3.27,6.46
		c0.96,1.27,2.6,2.29,4.23,0.94c0.65-0.53,1-1.29,1.44-2c0.06-0.1,0.13-0.28,0.23-0.35c-0.01,0,0.04-0.05,0.09-0.1
		c0.25,0.87,1.58,1.15,2.01,0.03c0.04-0.1,0.07-0.2,0.11-0.3l0,0v-0.01c3.19-8.62,0.28-16.95-2.64-24.26
		c-0.37-0.92-1.88-0.94-2.14,0.33c-0.32,1.59-1.01,3.13-2.01,4.42c-1.48-4.71-2.48-9.65-2.93-14.73c-0.13-1.45-2.24-1.18-2.22,0.34
		c0,0.26,0.03,0.26-0.17,0.4c-0.2,0.15-0.46,0.24-0.71,0.3c-0.68,0.16-1.37,0.09-1.95-0.18c-1.58-0.74-2.83-2.09-3.69-3.64
		c-0.74-1.33-1.21-2.86-1.38-4.48c0.35,0.55,0.76,1.06,1.21,1.5C712.867,165.263,716.147,166.033,719.207,166.763z M699.977,148.783
		c-1.22,1.22-2.75,2.26-4.36,2.4c-1.39,0.12-2.78-0.46-3.66-1.46c-0.27-0.31-0.5-0.65-0.71-1c-0.41,0.86-1.02,1.62-1.88,2.13
		c-1.54,0.92-3.8,1.25-5.23,0.49c-0.72-0.38-1.13-1-1.36-1.73c-0.84,1.48-2.05,2.71-3.55,3.47c-2.62,1.32-6.01,0.96-7.37-1.29
		c-0.27-0.08-0.5-0.24-0.63-0.51c-0.98-2.08-1.15-4.38-0.62-6.85c0.49-2.3,1.47-4.52,2.39-6.72c0.89-2.14,1.85-4.44,2.13-6.7
		c0.3-2.49-0.14-4.89-0.68-7.18c-0.43-1.85,2.09-2.9,2.74-1.22c0.87,2.24,2.03,4.26,2.9,6.44c0.44-0.46,0.94-0.88,1.52-1.23
		c0.93-0.57,1.9-1,2.88-1.45c0.43-0.2,0.85-0.4,1.26-0.63c0.03-0.02,0.04-0.02,0.06-0.03c0.01-0.01,0.01-0.01,0.03-0.02
		c0.1-0.06,0.19-0.13,0.29-0.19c0.18-0.13,0.35-0.27,0.52-0.42c0.47-0.42,1.15-0.4,1.58-0.13c0.51,0.32,0.59,0.87,0.52,1.5
		c-0.33,2.74-0.13,5.41-0.35,8.14c1.11-0.37,2.07-1,2.84-2.05c0.15-0.21,0.41-0.64,0.59-1.02c0.21-0.43,0.35-0.77,0.47-1.15
		c0.33-1.01,0.53-2.05,0.67-3.08c0.11-0.76,0.92-1.3,1.56-1.31c0.69-0.02,1.23,0.54,1.24,1.28c0.01,1.65,0.11,3.3,0.37,4.89
		c0.25,1.55,0.59,3.18,1.38,4.43c0.53,0.83,1.33,1.19,2.32,1.64c0.99,0.46,1.99,0.97,2.59,1.95
		C703.997,142.753,702.137,146.633,699.977,148.783z"/>
	<path fill="#F27368" d="M810.537,296.963c0.56,0.13,1.22-0.43,1.36-1.03c2.66-11.57,12.04-22.57,9.61-34.47
		c-0.01-0.03-0.02-0.05-0.03-0.07c3.01-7.01,3.25-14.96,2.37-22.02c-0.4-3.23-0.99-6.4-1.58-9.56c-0.23-1.2-1.8-0.7-2.14,0.33
		c-0.36,1.11-0.82,2.2-1.35,3.24c-0.07-3.18-1.32-6.21-2.98-8.6c-2.79-4-6.82-6.84-9.04-11.33c-0.46-0.94-2.2-0.22-2.06,0.91
		c0.44,3.66-0.06,7.49-1.48,11.12c-4.03-4.45-6.69-10.2-7.71-16.58c-0.31-1.44-2.36-0.47-2.13,0.95c0.71,3.3-0.92,7.32-3.8,9.46
		c-1.8,1.34-3.97,1.84-5.97,2.49c-1.2,0.39-2.39,0.84-3.5,1.48c0.59-5.64-1.17-11.4-1.11-17.05c0.05-0.54,0.08-1.08,0.07-1.62
		c-0.02-1.52-2.09-1.15-2.22,0.34c-0.04,0.48-0.06,0.95-0.07,1.42c-0.5,5.4-4.07,10.86-8.84,13.46c-1.47,0.8-2.95,1.25-4.51,1.56
		c-1.8,0.36-3.63,0.65-5.36,1.5c-2.75,1.35-4.89,3.7-6.57,6.37c-1.2,1.91-2.14,3.95-2.96,6.03c-0.61-3.15-1.05-6.35-1.33-9.6
		c1.11-3.16,1.34-6.68-0.49-9.15c-0.61-0.83-2.05-0.31-2.06,0.91c-0.02,2.76,0.08,5.5,0.3,8.22c-0.13,0.34-0.28,0.67-0.43,0.99
		c-1.57,3.25-4.14,5.91-6.2,8.84c-2.04,2.9-3.51,6.05-4.19,9.46c-0.68,3.44-0.64,6.88-0.23,10.19c0.31,2.52,0.82,4.98,1.41,7.41
		c-0.87-1.04-1.55-2.26-1.98-3.62c-0.46-1.34-2.57-0.43-2.13,0.95c2.26,6.67,4.33,13.65,3.5,21.26c-0.41,3.77-1.34,7.53-1.54,11.29
		c-0.18,3.35,0.14,6.66,0.9,9.77c0.3,1.23,0.67,2.43,1.11,3.6c-0.88-0.95-1.7-1.95-2.48-3c-0.68-0.92-2.42-0.06-2.02,1.21
		c1.71,5.42,2.42,11.27,2.1,17.27c-0.16,2.97-0.59,5.95-1.25,8.91c-0.66,2.93-1.45,6.03-0.79,8.86c0.56,2.39,2.23,4.49,4.65,4.75
		c2.13,2.52,3.46,5.75,4.63,8.99c0.77,2.15,1.49,4.33,2.35,6.43c0.8,1.95,1.78,4.55,4.29,4.23c0.7-0.09,1.28-0.96,1.06-1.64
		c-1.77-5.59-2.87-11.46-3.31-17.5c0.32,0.95,0.64,1.9,0.97,2.84c0.33,0.96,1.46,0.86,2.03-0.03l6.39-10.16
		c0.71,5.04,3.95,9.31,8.49,10.75c0.82,0.26,1.94-0.56,1.62-1.57c-2.07-6.62-3.53-13.52-4.36-20.61c0.96,0.69,2.1,1.14,3.36,1.25
		c0.63,0.06,1.48-0.56,1.4-1.34c-0.76-6.92,2.31-13.83,5.69-20.24c0.74,4.39,2.09,8.54,4.06,12.33c0.45,0.86,1.77,0.36,2.02-0.59
		c0.49-1.83,0.97-3.67,1.46-5.5c0.75,5.41,2.54,10.49,5.26,14.89c0.29,0.47,1.02,0.62,1.52,0.18c3.23-2.84,5-7.39,4.49-11.38
		c1.97,1.96,1.46,6.73,1.67,9.35c0.38,4.69,1.59,9.11,3.56,13.1c0.45,0.91,1.74,0.32,2.02-0.59c0.67-2.15,1.2-4.33,1.59-6.52
		c1.73,5.28,4.81,9.86,9,13.11c0.64,0.5,2.01-0.05,1.89-1.12c-0.5-4.57-0.28-9.27,0.65-13.94c0.79,2.36,1.87,4.6,3.27,6.46
		c0.96,1.27,2.6,2.29,4.23,0.94c0.65-0.53,1-1.29,1.44-2c0.06-0.1,0.13-0.28,0.23-0.35c-0.01,0,0.04-0.05,0.09-0.1
		c0.25,0.87,1.58,1.15,2.01,0.03c0.04-0.1,0.07-0.2,0.11-0.3l0,0v-0.01c3.19-8.62,0.28-16.95-2.64-24.26
		c-0.37-0.92-1.88-0.94-2.14,0.33c-0.32,1.59-1.01,3.13-2.01,4.42c-1.48-4.71-2.48-9.65-2.93-14.73c-0.13-1.45-2.24-1.18-2.22,0.34
		c0,0.26,0.03,0.26-0.17,0.4c-0.2,0.15-0.46,0.24-0.71,0.3c-0.68,0.16-1.37,0.09-1.95-0.18c-1.58-0.74-2.83-2.09-3.69-3.64
		c-0.74-1.33-1.21-2.86-1.38-4.48c0.35,0.55,0.76,1.06,1.21,1.5C804.207,295.473,807.477,296.243,810.537,296.963z M791.317,278.993
		c-1.22,1.22-2.75,2.26-4.36,2.4c-1.39,0.12-2.78-0.46-3.66-1.46c-0.27-0.31-0.5-0.65-0.71-1c-0.41,0.86-1.02,1.62-1.88,2.13
		c-1.54,0.92-3.8,1.25-5.23,0.49c-0.72-0.38-1.13-1-1.36-1.73c-0.84,1.48-2.05,2.71-3.55,3.47c-2.62,1.32-6.01,0.96-7.37-1.29
		c-0.27-0.08-0.5-0.24-0.63-0.51c-0.98-2.08-1.15-4.38-0.62-6.85c0.49-2.3,1.47-4.52,2.39-6.72c0.89-2.14,1.85-4.44,2.13-6.7
		c0.3-2.49-0.14-4.89-0.68-7.18c-0.43-1.85,2.09-2.9,2.74-1.22c0.87,2.24,2.03,4.26,2.9,6.44c0.44-0.46,0.94-0.88,1.52-1.23
		c0.93-0.57,1.9-1,2.88-1.45c0.43-0.2,0.85-0.4,1.26-0.63c0.03-0.02,0.04-0.02,0.06-0.03c0.01-0.01,0.01-0.01,0.03-0.02
		c0.1-0.06,0.19-0.13,0.29-0.19c0.18-0.13,0.35-0.27,0.52-0.42c0.47-0.42,1.15-0.4,1.58-0.13c0.51,0.32,0.59,0.87,0.52,1.5
		c-0.33,2.74-0.13,5.41-0.35,8.14c1.11-0.37,2.07-1,2.84-2.05c0.15-0.21,0.41-0.64,0.59-1.02c0.21-0.43,0.35-0.77,0.47-1.15
		c0.33-1.01,0.53-2.05,0.67-3.08c0.11-0.76,0.92-1.3,1.56-1.31c0.69-0.02,1.23,0.54,1.24,1.28c0.01,1.65,0.11,3.3,0.37,4.89
		c0.25,1.55,0.59,3.18,1.38,4.43c0.53,0.83,1.33,1.19,2.32,1.64c0.99,0.46,1.99,0.97,2.59,1.95
		C795.327,272.963,793.477,276.843,791.317,278.993z"/>
	<path fill="#F27368" d="M966.237,116.483c-0.19-3.63-0.85-7.14-1.51-10.63c-0.25-1.35-2.07-0.59-2.17,0.65
		c-0.25,2.84-0.91,5.72-1.98,8.46c-0.34,0.87-0.72,1.72-1.13,2.57c0.26-0.8,0.43-1.63,0.56-2.42c0.49-2.98,0.55-5.95,0.3-8.86
		c-0.52-5.88-2.14-11.39-3.47-16.98c-0.67-2.82-1.29-5.68-1.61-8.62c-0.33-3.08-0.33-6.24-0.07-9.41c0.36-4.45,1.23-8.9,2.27-13.33
		c0.69-0.76,1.3-1.62,1.82-2.64c1.18-2.32,1.45-4.92,0.29-6.96c-0.47-0.83-1.76-0.39-2.02,0.59c-0.7,2.67-1.4,5.34-2.05,8.01
		c-1.09,1.06-2.39,1.85-3.77,2.46c-2.39,1.06-4.88,1.67-7.29,2.65c-2.12,0.87-4.11,2.12-5.79,3.86c-0.57,0.59-1.07,1.24-1.49,1.93
		c-1.07-6.08-2.14-12.15-3.21-18.23c0.26-1.84-0.01-3.66-0.96-5.07c-0.7-1.05-2.24-0.03-2.02,1.21c0.25,1.4,0.49,2.79,0.74,4.19
		c-0.1,0.54-0.25,1.08-0.46,1.61c-0.87,2.18-2.52,3.9-4.32,5.29c-2.02,1.57-4.22,2.83-6.36,4.15c-1.94,1.2-3.89,2.39-5.83,3.59
		c-1.29-11.09-2.98-22.07-5.06-32.9c-0.24-1.27-2.18-0.64-2.17,0.65c0.06,7.92,0.05,17.83-6.61,24.13
		c-3.15,2.98-7.21,4.06-10.94,5.53c-3.52,1.38-6.76,3.32-9.61,6.12c-2.57,2.52-4.63,5.53-6.1,8.81c-1.61-2.36-3.22-4.72-4.83-7.08
		c-0.57-0.84-2.11-0.3-2.06,0.91c0.25,6.01-3.37,11.62-6.39,16.86c-1.59,2.76-3.13,5.55-4.23,8.51c-1.31,3.52-1.8,7.17-1.58,10.73
		c0.13,2.13,0.48,4.2,0.97,6.21c-0.49-0.81-0.93-1.66-1.32-2.54c-0.06-0.13-0.11-0.26-0.17-0.39c-0.55-1.09-2.52,0.06-2.02,1.21
		c0.04,0.09,0.08,0.17,0.12,0.26c0,0,0,0-0.01,0c1.73,3.41-0.56,7.95-2.14,11.44c-1.55,3.43-2.86,6.79-3.33,10.45
		c-0.88,6.86,0.66,13.68,4.22,18.81c1.73,2.5,3.92,4.58,6.49,6.08c-0.06,1.63,0.64,2.82,1.62,3.94c0.99,1.14,2.02,2.23,2.98,3.39
		c0.36,0.44,0.71,0.88,1.06,1.33c0.36,0.9,0.66,1.84,0.91,2.79c0.36,1.36,0.51,2.84,1.18,4.05c0.9,1.63,2.51,2.06,4.15,2.46
		c2.5,4.38,4.6,9.05,6.26,13.96c1.15,3.42,2.09,6.94,2.81,10.55c0.26,1.32,2.1,0.61,2.17-0.65c0.18-3.08,0.27-6.15,0.3-9.22
		c0.55,0.59,1.17,1.11,1.86,1.46c0.9,1.66,1.73,3.37,2.47,5.13c0.49,1.17,2.02,0.71,2.17-0.65c0.24-2.15,0.85-4.3,1.75-6.34
		c0.37-0.54,0.67-1.14,0.89-1.79c1.06-1.93,2.4-3.72,3.95-5.26c0.57,2.17,1.71,4.05,3.39,5.39c0.51,0.41,1.39,0.24,1.74-0.51
		c1.77-3.8,2.93-7.75,3.51-11.77c1.71,0.63,2.92,2.15,3.26,4.13c0.14,0.8,1.36,0.97,1.85,0.23c1.77-2.62,3.53-5.24,5.3-7.85
		c0.12-0.01,0.24-0.01,0.37-0.02c6.43-0.58,12.89-3.66,17.81-8.81c0.15-0.16,0.3-0.33,0.45-0.49c2-0.47,4.3-1.4,5.72-3.05
		c1.52,2.2,3.65,3.88,6.23,4.71c0.69,0.22,1.74-0.31,1.66-1.27c-0.63-7.38-0.37-14.94,0.78-22.5c1.71,2.72,4.49,4.57,7.73,4.97
		c1.08,0.13,1.83-1.39,1.07-2.12c-1.59-1.5,0.19-4.32,1.51-5.7c0.99-1.04,2.11-1.95,3.13-2.97c0.96-0.96,1.79-2.03,2.53-3.18
		C965.637,127.783,966.527,121.873,966.237,116.483z M924.527,117.683c-0.13,0.88-0.36,1.72-0.7,2.5c0.17,0.3,0.25,0.68,0.17,1.05
		c-1.01,5.06-5.28,9.11-9.92,10.84c0.16,1.9-1.58,3.72-3.17,4.71c-1.89,1.17-4.07,1.31-6.04,1.17c-1.71-0.11-3.4-0.5-4.96-1.11
		c-0.32,0.24-0.71,0.36-1.09,0.33c-0.73-0.05-1.39-0.36-1.91-0.83c-0.15,0.21-0.29,0.44-0.59,0.72c-0.22,0.21-0.45,0.41-0.69,0.6
		c-0.96,0.79-2.06,1.48-3.19,1.86c-1.25,0.43-2.49,0.54-3.65,0.13c-1.19-0.42-2.07-1.44-2.59-2.61c-0.29-0.66-0.23-1.46,0.38-2.02
		c-1.01-1.33-1.65-3.01-1.95-4.88c-0.52-3.26-0.25-6.9-0.94-9.92c-0.37-1.61,1.72-2.87,2.6-1.56c0.48,0.73,1,1.42,1.54,2.08
		c-0.27-1.85-0.28-3.77,0.1-5.72c0.81-4.16,3.52-7.66,6.8-10.24c1-0.79,2.04-0.11,2.15,0.96c0.29,2.75,0.81,5.43,1.51,8.04
		c1.86-1.19,3.66-2.63,5.29-4.17c2.01-1.9,3.88-4.16,4.89-6.78c0.42-1.08,2.01-1.26,2.46-0.38c1.36,2.64,2.63,5.4,3.5,8.34
		c1.81-2.12,3.64-4.24,5.15-6.58c0.72-1.12,2.2-1.31,2.6-0.04c0.45,1.43,0.92,2.85,1.31,4.31
		C924.387,111.403,924.977,114.493,924.527,117.683z"/>
	<path fill="#F27368" d="M308.797,347.433c0.2-3.37-0.04-6.68-0.65-9.87c-0.14-0.7-0.76-0.82-1.3-0.59c0.56-3.07,0.4-6.2-0.16-9.13
		c-0.97-5.09-3.26-9.52-5.07-14.19c-1.05-2.7-1.96-5.52-2.3-8.52c-0.16-1.43-2.21-1.2-2.22,0.34c-0.02,3.17-0.75,6.41-2.13,9.41
		c-0.66-2.62-2.51-4.96-3.84-7c-2.57-3.94-5.15-7.87-7.72-11.81c-1.48-2.26-2.96-4.52-4.43-6.78c-0.71-1.08-2.2-0.02-2.02,1.21
		c0.86,5.9,0.81,12.07-0.13,18.23c-3.93-4.49-7.86-8.98-11.79-13.46c-0.68-0.78-1.79,0.23-1.89,1.12c-0.38,3.6-4.77,6.06-7.45,7.57
		c-3.65,2.05-7.49,3.58-11.38,4.54c-0.37-3.67-0.26-7.45,0.37-11.23c0.14-0.82-0.51-1.68-1.37-1.22
		c-7.74,4.09-15.67,8.36-22.12,14.88c-1.37,1.39-2.65,2.88-3.81,4.47c-1.78-3.5-3.57-7.01-5.35-10.51
		c-0.42-0.83-1.83-0.39-2.02,0.59c-1.96,9.7-2.21,19.47-0.78,28.77c0.09,0.56,0.18,1.11,0.28,1.66c-1.72-2.35-3.53-4.62-5.43-6.81
		c-0.81-0.92-2.36,0.66-1.73,1.68c3.31,5.43,2.3,12.85,1.84,19.45c-0.52,7.48-0.05,14.82,1.58,21.81c0.56,2.4,1.25,4.74,2.07,7.02
		l-3.37-2.55c-0.89-0.67-2.51,0.65-1.73,1.68c1.76,2.33,3.03,5.03,3.74,8.02c0.74,3.12,0.75,6.39,0.34,9.72
		c-0.43,3.57-1.14,7.19-0.89,10.71c0.23,3.24,1.12,6.26,2.17,9.18c1.19,3.33,2.55,6.59,3.32,10.12c0.04,0.17,0.1,0.3,0.18,0.4
		c-0.27,0.24-0.46,0.58-0.46,0.99c0,0.57,0.52,1.17,1.11,1c3.97-1.15,7.94-2.3,11.91-3.44c0.98-0.28,1.41-1.38,0.77-2.11
		c-0.71-0.81-1.42-1.62-2.13-2.43c6.5,1.45,13.6,0.57,20.47-0.92c2.44-0.53,4.87-1.14,7.3-1.76c0.5-0.13,0.92-0.47,1.06-1.02
		c0.12-0.47-0.07-1.11-0.51-1.24c-3.97-1.2-7.38-3.58-9.87-6.87c3.24,1.19,6.19,3.08,9.47,4.19c4.4,1.48,9.19,1.94,14.04,1.35
		c2.74-0.33,5.47-1.02,8.15-2c1.03-0.38,1.07-2.23-0.01-2.25c-3-0.05-5.57-1.77-7.03-4.29c1.03,1.01,2.27,1.78,3.67,2.24
		c2.34,0.75,4.91,0.53,7.44-0.01c2.36-0.51,4.72-1.17,7.04-1.98c4.39-1.53,8.75-3.76,12.3-7.21c3.49-3.39,5.84-7.72,7.24-12.32
		c1.59-5.21,1.99-10.61,2.04-15.83c0.01-1.41-1.74-1.19-2.18,0.03c-1.29,3.61-3,7.11-5.05,10.39c-0.95,1.53-1.97,3.11-3.22,4.41
		c-0.71,0.74-1.66,1.52-2.61,1.68c1.23-2.81,2.13-5.72,2.7-8.65C303.247,369.903,308.147,358.583,308.797,347.433z M241.137,358.933
		c0.13,0.77,0.25,1.55,0.36,2.33c-0.1-0.08-0.21-0.14-0.33-0.17C241.167,360.373,241.157,359.653,241.137,358.933z M237.677,366.203
		c-0.04,0.63-0.09,1.26-0.14,1.89c-0.01-0.03-0.03-0.06-0.04-0.08C237.207,367.453,237.257,366.743,237.677,366.203z
		 M281.027,363.653c-1.32,1.44-3.23,1.64-4.84,1.4c1.02,1.79,2.11,3.93,2.03,6.23c-0.06,1.81-1.08,3.85-2.87,4.48
		c-1.72,0.61-3.41-0.14-4.86-0.77c-0.77-0.34-1.54-0.7-2.32-1.01c-0.81-0.32-1.28-0.5-2.2-0.59c-0.11-0.01-0.22-0.02-0.33-0.02
		c-0.02,0-0.02,0-0.04,0c-0.01,0-0.02,0-0.04,0c-0.19,0.02-0.38,0.05-0.57,0.08c-0.02,0-0.04,0.01-0.07,0.02
		c-0.06,0.02-0.11,0.04-0.17,0.06c-0.06,0.03-0.35,0.19-0.32,0.16c-0.36,0.24-0.69,0.55-0.9,0.76c-0.21,0.22-0.07,0.04-0.24,0.36
		c-0.03,0.06-0.06,0.13-0.09,0.2c-0.01,0.03-0.03,0.07-0.03,0.09c-0.25,0.84-0.29,1.69-0.51,2.53c-0.3,1.15-0.86,2.17-1.74,2.99
		c-1.91,1.79-4.55,2.32-6.79,2.08c-2.36-0.25-4.53-1.21-6.66-2.07c-0.67-0.27-1.37-0.55-2.09-0.8c-0.34,0.18-0.73,0.23-1.14,0.04
		c-0.37-0.17-0.7-0.39-1.02-0.62c-0.6-0.1-1.21-0.16-1.81-0.11c-0.36-0.83-0.6-1.75-0.74-2.69c0.03-0.03,0.06-0.06,0.09-0.08
		c-0.05-0.09-0.09-0.18-0.14-0.28c-0.1-0.78-0.14-1.58-0.13-2.37c0.01-0.83,0.07-1.66,0.16-2.49c0.18-0.21,0.3-0.49,0.32-0.84
		c0.04-0.76,0.06-1.52,0.09-2.28c0.12-0.8,0.25-1.61,0.37-2.41c0.39,0.87,0.7,1.78,0.93,2.75c0.28,1.21,2.29,0.66,2.17-0.65
		c-0.55-6.05-1.5-12-2.87-17.78c0.28-0.84,0.56-1.69,0.81-2.52c0.46-1.53,2.25-1.73,2.74-0.42c0.41,1.09,0.76,2.21,1.1,3.33
		c2.59-5.76,8.78-9.68,14.09-12.57c0.88-0.48,1.81,0.26,1.81,1.17c0,2.53-0.36,5.1-0.82,7.66c5.41-2.11,11.05-2.31,16.45-1.89
		c1.79,0.21,1.04,3.14-0.74,3.01c-0.08-0.01-0.17-0.01-0.25-0.02c-0.01,0-0.01,0-0.02,0c-0.16,0.01-0.32,0.04-0.47,0.07
		c-0.25,0.05-0.44,0.11-0.74,0.23c-0.72,0.28-1.43,0.65-2.11,1.07c-0.56,0.34-1.1,0.72-1.63,1.11c1.67,0.47,3.3,1.08,4.8,1.89
		c2.14,1.15,4.2,2.74,5.08,5.21C282.407,359.183,282.617,361.913,281.027,363.653z"/>
	<path fill="#F27368" d="M716.667,300.713c0.37-2.68,0.92-5.35,1.56-8.01c2.61-10.76,6.87-21.29,8.34-32.19
		c0.82-6.08,0.79-12.17-0.86-17.73c-0.29-0.97-1.97-0.9-2.14,0.33c-0.35,2.57-0.83,5.13-1.45,7.67c-0.09-1.5-0.29-2.99-0.58-4.44
		c-1.16-5.74-3.83-10.8-6.92-15.38c-1.79-2.64-3.73-5.15-5.68-7.66c-0.51-0.66-1.82-0.52-2.02,0.59c-1.2,6.55-2.41,13.1-3.61,19.65
		c-3.06-4.7-6.34-9.21-9.85-13.51c-0.71-0.87-2.39-0.11-2.02,1.21c1.07,3.77,2.17,7.57,2.65,11.56c0.48,4.02,0.14,8.1-0.47,12.25
		c-0.61,4.19-1.21,8.37-1.48,12.56c-0.27,4.26-0.31,8.5-0.22,12.71c0.01,0.7,0.04,1.39,0.06,2.09c-1.15-4.29-2.43-8.52-3.85-12.68
		c-0.11-0.34-0.39-0.69-0.78-0.7c-1.51-0.01-2.32,1.41-2.35,2.89c-0.02,0.81,0.15,1.62,0.24,2.4c0.11,0.92,0.22,1.85,0.33,2.77
		c0.43,3.59,0.87,7.19,1.15,10.82c0.51,6.68,0.47,13.57-1.17,20.41c-0.47,1.96-1.08,3.89-1.82,5.78c-0.34-1.09-0.88-2.1-1.5-2.99
		c-1.51-2.17-3.91-4.08-4.13-7.08c-0.07-0.62-0.46-1.1-1.11-1c-0.57,0.09-1.15,0.71-1.1,1.34c0.29,2.46,0.32,4.99,0.05,7.54
		c-0.13,1.26-0.35,2.54-0.64,3.79c-0.19,0.85-0.41,1.81-1.11,2.43c-1.33,1.17-3.44,0.82-4.83,0.56c-1.58-0.3-3.05-0.92-4.39-1.75
		c-5.28-3.27-8.33-10.31-6.77-17.33c1.14-5.11,3.82-10.01,3.09-15.16c-0.12-0.82-1.37-0.95-1.85-0.23l-2.14,3.2
		c2.42-10.13,2.26-20.58-0.42-29.87c-0.93-3.21-2.16-6.28-3.67-9.16c-0.49-0.94-2.15-0.23-2.06,0.91c0.48,6.2-0.28,12.65-2.24,18.87
		c-1.85-11.51-5.73-22.22-10.09-32.58c-1.39-3.3-2.82-6.56-4.26-9.83c-0.22-0.5-0.93-0.53-1.39-0.26c-0.55,0.33-0.72,0.9-0.64,1.48
		c1.27,8.74,1.11,17.95-0.46,27.06c-0.78,4.52-1.98,8.95-3.29,13.39c-1.29,4.35-2.52,8.81-2.49,13.22c0.01,0.81,0.06,1.6,0.14,2.39
		c-0.7-1.4-1.41-2.8-2.11-4.2c-0.51-1.01-2.04-0.18-2.06,0.91c-0.35,16.64-0.66,33.87,5.22,48.69c1.47,3.7,3.29,7.19,5.54,10.34
		c1,3.4,2.41,6.59,4.44,9.32c3.64,4.92,9.27,7.85,15.67,7.32c3.38-0.28,6.82-1.68,9.59-4.19c0.76-0.69,0.69-1.93-0.27-2.09
		c-3.27-0.55-6.7-1.09-9.44-2.92c-1.88-1.25-3.38-3.18-3.85-5.55c9.02,3.9,19.66,4.42,29.88,1.5c2.19-0.63,4.36-1.4,6.49-2.33
		c-2.86,4.11-8.44,5.57-12.64,6.57c-1.03,0.25-1.58,1.82-0.55,2.26c8.59,3.67,19.26,2.72,28.28-2.68
		c8.18-4.89,14.68-13.16,17.78-22.39c2.13-6.34,2.34-12.91,2.23-19.24c-0.02-1.12-1.54-1.4-2.07-0.27c-0.93,1.97-1.85,3.93-2.78,5.9
		c0.07-0.63,0.13-1.26,0.19-1.89C716.167,305.633,716.327,303.173,716.667,300.713z"/>
	<path fill="#F27368" d="M607.997,280.373c1.52,1.02,3.38,2.16,5.4,1.09c2.66-1.42,2.68-4.55,2.02-6.87c-0.38-1.33-1-2.53-1.46-3.82
		c-0.54-1.52-0.93-3.13-1.12-4.78c-0.44-3.79,0-7.74,1.28-11.57c0.37-1.11-0.85-1.57-1.63-1.07c-4.2,2.7-9.51,5.95-14.14,4.93
		c1.18-1.51,2.35-3.02,3.53-4.54c0.58-0.75,0.3-1.72-0.5-1.87c-8.81-1.71-19.46-3.31-27.88,3.63c-2-4.21-3.99-8.43-5.99-12.64
		c-0.5-1.05-2.02-0.16-2.06,0.91c-0.22,5.27-0.94,10.79-3.36,15.82c-1.86,3.88-4.74,7.4-8.39,9.43c-0.62-2.71-0.59-5.6,0.11-8.51
		c0.24-1.02-0.79-1.71-1.63-1.07c-10.89,8.31-17.52,22.12-16.83,35.3c0.13,2.45,0.5,4.85,1.1,7.15c-2.08-1.88-4.06-3.89-5.91-6.04
		c-0.64-0.75-1.85,0.2-1.89,1.12c-0.23,6.54,1.85,12.75,5.56,17.37c3.22,4.01,7.46,6.7,12.37,7.89c-0.1,0.19-0.16,0.4-0.15,0.63
		c0.24,4.23,3.09,7.02,6.52,8.46c4.01,1.68,8.74,1.71,13.25,1.07c2.63-0.38,5.28-1.06,7.85-2.01c1.26-0.46,2.51-1,3.74-1.6
		c1.04-0.51,2.27-1.22,3.35-0.93c1.74,0.47,2.3,2.71,2.24,4.49c-0.08,2.14-1.02,4.34-2.3,6.14c-3.04,4.27-7.66,6.39-12.15,8.1
		c0.39-1.67,0.38-3.36-0.05-4.95c-0.19-0.71-1.01-0.9-1.63-0.45c-4.07,3.01-8.97,3.78-13.33,2.95c-4.39-0.83-8.09-3.41-11.06-6.61
		c-1.71-1.84-3.18-3.93-4.5-6.12c-0.56-0.93-2.05-0.24-2.06,0.91c-0.02,2.11,0.13,4.19,0.45,6.21c-2.96-2.54-5.57-5.48-7.77-8.8
		c-0.59-0.89-2.04-0.27-2.06,0.91c-0.12,6.39,0.32,12.7,1.27,18.84c-3.39-2.27-6.62-4.76-9.69-7.47c-0.78-0.69-2.17,0.34-1.85,1.42
		c2.35,7.83,6.59,14.7,12.28,19.93c-0.18,0.18-0.33,0.4-0.41,0.67c-0.97,3.08,2.04,4.68,4.28,5.13c3.18,0.64,6.54,0.85,9.83,0.96
		c6.77,0.21,13.68-0.44,20.53-1.98c3.08-0.69,6.15-1.56,9.19-2.59c-0.92,1.61-2.18,3.01-3.67,4.08c-1.04,0.75-0.45,2.15,0.57,2.09
		c6.57-0.42,13.27-4.17,17.8-9.86c0.53,1,0.76,2.18,0.73,3.42c-0.03,0.89,0.97,1.3,1.67,0.75c5.41-4.28,9.69-10.05,12.31-16.48
		c1.27,0.7,3.03,0.57,4.48-0.1c2.09-0.96,3.77-3,4.75-5.16c2.3-5.06,1.76-10.81,0.78-15.67c-0.4-2-0.97-3.94-1.66-5.81
		c0.57,0.49,1.1,1.04,1.57,1.65c0.52,0.68,1.8,0.5,2.02-0.59c1.93-9.56-3.12-17.47-7.81-24.15c-0.25-0.35-0.79-0.62-1.25-0.34
		c-2.94,1.74-6.02,3.11-9.17,4.04c0.01-2.48-0.63-4.83-1.81-6.81c-0.45-0.75-1.44-0.46-1.91,0.3c-2.86,4.54-8.78,4.99-12.64,3.53
		c-5.25-2-8.97-6.5-13.77-9.26c-1.56-0.89-3.22-1.58-4.99-1.96c7.12-2.74,14.87-1.02,21.5,0.52c0.92,0.21,1.73-1.16,1.24-1.91
		c-1.24-1.91-2.92-3.38-4.87-4.34c7.47-0.51,14.75,1.49,20.5,5.74c2.08,1.53,3.96,3.34,5.57,5.41c0.68,0.88,1.93,0.28,2.06-0.91
		c0.6-5.25-0.48-10.21-1.69-15.01c0.35,0.01,0.72,0.13,1.08,0.3C606.557,279.353,607.267,279.883,607.997,280.373z M551.237,322.883
		c2.86,0.17,5.77,0,8.68-0.27c-1.18,0.68-2.51,1.04-3.81,1.12C554.397,323.833,552.787,323.443,551.237,322.883z"/>
	<path fill="#FFF23D" d="M107.897,265.713c-0.91,1.14-1.83,2.28-2.74,3.42c0.39-3.85,0.22-7.65-0.49-11.3
		c-0.15-0.78-1.35-0.98-1.85-0.23c-0.58,0.88-1.17,1.76-1.75,2.63c2.52-11.03,3.54-22.22,3-33.11c-0.06-1.26-1.87-1.35-2.18,0.03
		c-1.46,6.45-2.9,12.9-4.37,19.35c-0.63,2.74-1.32,5.59-2.88,8.05c-1.15,1.81-2.99,3.49-4.97,3.96c0.65-2.54,1.69-4.98,3.11-7.28
		c0.55-0.9-0.38-1.99-1.26-1.52c-3.24,1.71-6.47,3.43-9.71,5.14c-0.78,0.42-1.57,0.83-2.35,1.25c-0.47,0.25-1.17,0.82-1.46,0.26
		c-0.36-0.7-0.53-1.59-0.78-2.35c-0.28-0.86-0.56-1.71-0.84-2.57c-0.3-0.94-1.5-0.89-2.03,0.03c-2.35,4.1-6.35,7.04-10.57,7.95
		c-0.4-3.34-2.48-6.15-5.49-7.1c-0.51-0.16-1.24-0.01-1.51,0.65c-1.1,2.6-2.41,5.12-3.91,7.53c-3.09-2.99-4.32-7.94-2.9-12.72
		c1.29-4.34,4.78-8.1,8.77-9.79c-0.84,1.97-1.48,4.01-1.91,6.07c-0.2,0.96,0.53,1.5,1.37,1.22c3.74-1.24,7.27-3.51,10.19-6.5
		c0,0.97,0.13,1.92,0.42,2.83c0.24,0.75,1.28,1.01,1.85,0.23c0.64-0.87,1.22-1.76,1.76-2.67c0.06,1.09,0.2,2.16,0.44,3.2
		c0.27,1.19,1.77,0.71,2.14-0.33c1.55-4.42,4.9-8.18,8.88-10.27c-0.16,3.47-0.32,6.93-0.49,10.4c-0.03,0.74,0.75,1.25,1.41,0.91
		c3.56-1.82,6.01-5.78,6.29-9.67c1.55,1.27,3.11,2.54,4.66,3.8c0.63,0.51,1.59,0.09,1.85-0.8c1.92-6.56,2.96-13.26,3.12-19.87
		c0.03-1.3-1.93-1.32-2.18,0.03c-0.3,1.61-1.07,3.13-2.18,4.32c1.69-5.62,3.04-11.3,4.05-17.01c0.17-0.94-0.77-1.82-1.63-1.07
		c-3.37,2.94-6.9,5.62-10.57,8.04c0.05-1.27,0.11-2.55,0.16-3.82c0.04-0.97-1.28-1.4-1.89-0.53c-2.56,3.64-5.54,6.92-8.88,9.76
		c-0.59-3.57-1.89-6.87-3.9-9.66c-0.6-0.84-2.07-0.3-2.06,0.91c0.01,3.01-0.9,6.06-2.57,8.71c-1.7-2.41-3.83-4.39-6.32-5.9
		c-0.72-0.43-1.64,0.45-1.66,1.27c-0.06,2.7-1.22,5.39-2.98,7.54c0.05-0.55-0.35-1.01-0.83-1.12c-6.78-1.62-10.84-9.1-9.78-16.65
		c1.09,1.55,2.45,2.85,4.04,3.87c0.32,0.21,0.79,0.05,1.12-0.17c6.3-4.22,10.02-12.46,9.36-19.65c4.01,4.49,7.25,9.76,9.55,15.58
		c0.33,0.84,1.52,0.98,2.03-0.03c1.13-2.25,2.09-4.57,2.86-6.93c0.06,0.17,0.1,0.35,0.17,0.51c0.78,1.96,2.29,3.54,4.34,3.95
		c2.23,0.45,4.34-0.96,6.25-2.39c1.76-1.31,3.46-2.27,5.5-2.07c2.05,0.2,3.76,1.35,4.64,3.24c0.21,0.44,0.81,0.52,1.25,0.34
		c1.93-0.79,3.28-2.56,4.02-4.56c0.83-2.25,0.79-4.46,0.48-6.65c-0.34-2.45-1.12-5.07-0.35-7.68c0.55-1.87,1.93-3.77,3.85-3.82
		c0.95-0.03,1.47-1.59,0.77-2.11c-5.06-3.82-6.85-11.67-3.99-18.51c0.42-1-0.28-1.88-1.26-1.52c-5.75,2.11-10.67,7.11-13.12,13.05
		c-0.73-2.17-0.39-4.94-0.09-7.26c0.12-0.95-0.48-1.5-1.37-1.22c-4.27,1.34-8.06,4.46-10.62,8.41
		c-0.42-11.73-4.85-22.59-12.21-30.38c-2.35-2.48-5-4.61-7.88-6.38c-0.8-0.49-1.89,0.69-1.62,1.57c1.72,5.66,5.03,10.31,7.73,15.35
		c2.57,4.79,4.56,10.33,2.89,16.42c-0.66,2.39-1.84,4.7-3.39,6.68c0.13-4.53-1.94-8.69-5.5-10.79c-0.66-0.39-1.74,0.43-1.66,1.27
		c0.33,3.55-2.66,6.62-5.4,8.54c-2.19,1.53-4.53,2.8-6.62,4.47c1.96-8.37,5.49-16.53,10.39-23.83c0.72-1.07-0.2-2.56-1.35-1.62
		c-8.6,7-12.4,17.97-19.09,26.6c-1.53,1.98-3.22,3.79-5.11,5.34c-1.35-4.58-4.34-8.29-8.34-10.38c-1.03-0.54-1.92,0.92-1.51,1.83
		c3.21,7.14,6.52,14.74,6.59,23.21c0.03,4.2-0.97,8.19-2.55,12.25c-1.53,3.94-2.9,7.78-3.05,11.9c-0.1,2.75,0.28,5.44,1.08,7.92
		c-0.72-0.5-1.44-0.99-2.17-1.49c-0.96-0.66-2.35,0.54-1.73,1.68c2.44,4.49,3.74,9.74,3.75,15.23c0.01,5.36-1.44,10.81-1.35,16.16
		c0.01,0.75,0.06,1.49,0.15,2.22c-1.77-1.56-3.76-2.84-5.95-3.77c-0.95-0.41-2.1,0.9-1.51,1.83c1.38,2.16,2.79,4.35,3.76,6.8
		c1,2.56,1.35,5.22,1.1,8.16c-0.45,5.17-1.85,10.67,1.02,14.88c0.93,1.35,2.18,2.32,3.7,2.69c0.04,0.05,0.09,0.11,0.14,0.16
		c2.29,2,4.58,4.01,6.87,6.01c0.74,0.65,1.79-0.13,1.89-1.12c0.22-2.31,0.71-4.61,1.44-6.86c0.93,5.35,3.33,10.14,6.94,13.73
		c0.75,0.75,2.16-0.37,1.85-1.42c-1.44-4.79-1.31-10.23,0.38-15.38c0.8,1.48,1.6,2.96,2.4,4.43c0.29,0.54,1,0.53,1.52,0.18
		c1.33-0.91,2.39-2.27,2.99-3.78c0.37,0.4,0.68,0.87,0.92,1.4c0.44,0.93,1.74,0.3,2.02-0.59l0.29-0.93
		c1.62,3.01,3.99,5.44,6.96,7.03c0.65,0.35,1.77-0.4,1.66-1.27c-0.39-3.29-0.55-6.63-0.48-10c1.35,1.44,3.14,2.54,4.64,3.48
		c4.42,2.75,8.85,5.51,13.27,8.26c0.74,0.46,1.6-0.47,1.66-1.27c0.26-3.33,1.19-6.68,2.69-9.79c-0.21,1.5-0.39,2.99-0.55,4.49
		c-0.08,0.82,0.78,1.14,1.41,0.91c4.76-1.77,9.21-4.64,13.05-8.34c0.31,2.81,0.62,5.62,0.93,8.43c0.11,0.97,1.15,1.38,1.89,0.53
		c5.54-6.3,9.64-13.87,11.88-21.85C110.077,265.383,108.647,264.773,107.897,265.713z"/>
	<path fill="#FFF23D" d="M193.727,232.933c0.22,3.76,0.92,7.4,1.45,11.07c0.49,3.39,0.99,7.08,0.19,10.66
		c-0.63,2.82-2.43,5.81-5.09,6.8c0.24-1.95,0.47-3.91,0.71-5.86c0.14-1.13-0.98-1.84-1.86-0.85c-2.35,2.65-4.2,5.67-5.53,8.92
		c-2.84-2.36-3.96-6.73-2.77-10.81c0.15-0.51-0.1-1.05-0.51-1.24c-0.46-0.21-0.95,0.01-1.34,0.39c-5.32,5.19-11.33,10-18.06,12.33
		c-5.6,1.94-11.64,1.68-16.22-1.32c-2.36-1.55-4.2-3.84-5.07-6.71c-0.3-0.98-1.93-0.89-2.14,0.33c-0.81,4.76-0.77,9.5,0.11,13.98
		c-3.97-2.04-7.41-4.98-10.06-8.68c-0.48-0.67-1.85-0.5-2.02,0.59c-0.46,2.96-0.58,5.9-0.34,8.78c-1.42,0.38-2.79,0.97-4.09,1.77
		c-4.43-2.35-6.43-7.57-7.21-12.8c-1.02-6.83,0.22-14.08,0.07-21.07c-0.04-1.86-0.19-3.69-0.47-5.46c1.14,1.54,2.28,3.07,3.42,4.61
		c0.83,1.08,2.73-0.36,1.91-1.47c-3.42-4.45-3.89-10.61-3.34-16.63c0.63-6.93,2.7-13.82,3.47-20.76c0.25-2.22,0.34-4.43,0.22-6.59
		c0.68,0.99,1.35,1.98,2.03,2.98c0.68,0.99,2.35,0.05,2.02-1.21c-3.85-14.86,4.16-31.06,8.35-46.04c0.61-2.16,1.14-4.34,1.57-6.52
		c1.79,9.93,2.66,20.16,2.57,30.54c-0.03,3.54-0.18,7.1-0.43,10.67c-0.07,0.93,0.99,1.25,1.67,0.75c2.81-2.05,5.09-4.84,6.65-7.96
		c-0.04,1.8-0.11,3.61-0.25,5.42c-0.32,4.21-1.09,8.38-2.31,12.53c-1.2,4.06-2.67,8.07-3.69,12.17c-1.06,4.28-1.45,8.54-1.1,12.74
		c0.4,4.87,1.55,9.51,2.72,14.11c0.28,1.1,1.83,0.79,2.14-0.33c1.08-3.96,2.16-7.92,3.24-11.89c1.34,4.98,1.34,10.47-0.07,15.88
		c-0.17,0.64,0.21,1.22,0.78,1.32c4.41,0.71,9.04,1.44,13.69,0.08c2.53-0.74,4.99-2.06,6.98-3.98c-0.29,1.99-0.59,3.98-0.88,5.97
		c-0.09,0.64,0.15,1.23,0.78,1.32c4.29,0.57,8.85-2.45,11.11-6.62c0.14,0.77,0.33,1.51,0.65,2.2c1.03,2.21,3.78,2.51,5.72,0.58
		c2.02-2.01,2.49-5.02,3.58-7.51c1.23-2.8,2.97-5.36,5.08-7.57c1.42-1.48,3-2.75,4.69-3.79
		C194.097,223.133,193.467,228.283,193.727,232.933z"/>
	<path fill="#FFF23D" d="M474.577,335.153c0.22,3.76,0.92,7.4,1.45,11.07c0.49,3.39,0.99,7.08,0.19,10.66
		c-0.63,2.82-2.43,5.81-5.09,6.8c0.24-1.95,0.47-3.91,0.71-5.86c0.14-1.13-0.98-1.84-1.86-0.85c-2.35,2.65-4.2,5.67-5.53,8.92
		c-2.84-2.36-3.96-6.73-2.77-10.81c0.15-0.51-0.1-1.05-0.51-1.24c-0.46-0.21-0.95,0.01-1.34,0.39c-5.32,5.19-11.33,10-18.06,12.33
		c-5.6,1.94-11.64,1.68-16.22-1.32c-2.36-1.55-4.2-3.84-5.07-6.71c-0.3-0.98-1.93-0.89-2.14,0.33c-0.81,4.76-0.77,9.5,0.11,13.98
		c-3.97-2.04-7.41-4.98-10.06-8.68c-0.48-0.67-1.85-0.5-2.02,0.59c-0.46,2.96-0.58,5.9-0.34,8.78c-1.42,0.38-2.79,0.97-4.09,1.77
		c-4.43-2.35-6.43-7.57-7.21-12.8c-1.02-6.83,0.22-14.08,0.07-21.07c-0.04-1.86-0.19-3.69-0.47-5.46c1.14,1.54,2.28,3.07,3.42,4.61
		c0.83,1.08,2.73-0.36,1.91-1.47c-3.42-4.45-3.89-10.61-3.34-16.63c0.63-6.93,2.7-13.82,3.47-20.76c0.25-2.22,0.34-4.43,0.22-6.59
		c0.68,0.99,1.35,1.98,2.03,2.98c0.68,0.99,2.35,0.05,2.02-1.21c-3.85-14.86,4.16-31.06,8.35-46.04c0.61-2.16,1.14-4.34,1.57-6.52
		c1.79,9.93,2.66,20.16,2.57,30.54c-0.03,3.54-0.18,7.1-0.43,10.67c-0.07,0.93,0.99,1.25,1.67,0.75c2.81-2.05,5.09-4.84,6.65-7.96
		c-0.04,1.8-0.11,3.61-0.25,5.42c-0.32,4.21-1.09,8.38-2.31,12.53c-1.2,4.06-2.67,8.07-3.69,12.17c-1.06,4.28-1.45,8.54-1.1,12.74
		c0.4,4.87,1.55,9.51,2.72,14.11c0.28,1.1,1.83,0.79,2.14-0.33c1.08-3.96,2.16-7.92,3.24-11.89c1.34,4.98,1.34,10.47-0.07,15.88
		c-0.17,0.64,0.21,1.22,0.78,1.32c4.41,0.71,9.04,1.44,13.69,0.08c2.53-0.74,4.99-2.06,6.98-3.98c-0.29,1.99-0.59,3.98-0.88,5.97
		c-0.09,0.64,0.15,1.23,0.78,1.32c4.29,0.57,8.85-2.45,11.11-6.62c0.14,0.77,0.33,1.51,0.65,2.2c1.03,2.21,3.78,2.51,5.72,0.58
		c2.02-2.01,2.49-5.02,3.58-7.51c1.23-2.8,2.97-5.36,5.08-7.57c1.42-1.48,3-2.75,4.69-3.79
		C474.947,325.353,474.317,330.503,474.577,335.153z"/>
	<path fill="#FFF23D" d="M269.297,222.803c1.68-4.14,3.66-8.33,2.98-12.64c-0.07-0.46-0.63-0.8-1.07-0.69
		c-0.02,0-0.04,0.01-0.06,0.02c0.6-1.86,0.89-3.79,0.84-5.69c-0.03-1.18-1.48-1.33-2.07-0.27c-0.4,0.72-0.89,1.39-1.43,2
		c2.57-7.93,2.64-16.37,0.03-23.55c-0.35-0.95-1.44-0.83-1.94-0.06c0.4-2.69,0.69-5.37,0.93-8.01c1.04-11.14,1.57-22.27,1.57-33.31
		c0-6.27-0.17-12.52-0.5-18.74c-0.08-1.48-2.24-1.17-2.22,0.34c0.16,11.67-1.46,23.59-4.8,35.25c-0.53,1.84-1.1,3.68-1.71,5.5
		c-1.3-9.48-4.02-18.48-8.09-26.68c-0.47-0.96-2.15-0.21-2.06,0.91c0.76,9.94-0.09,20.18-2.49,30.28
		c-1.16-10.46-1.09-21.25,0.17-32.06c0.15-1.28-1.52-1.2-2.07-0.27c-5.19,8.89-6.37,19.05-6.68,28.65
		c-0.17,5.39-0.14,10.75-0.18,16.12c-0.04,5.82-0.09,11.65-0.13,17.47l-0.08,11.39c-1.17-4.26-2.33-8.51-3.5-12.77
		c-0.34-1.26-2.11-0.65-2.17,0.65c-0.59,11.43-1.12,23.24,1.98,33.8c0.53,1.82,1.2,3.57,1.96,5.27l-6.31-2.53
		c-1.27-0.51-2.28,1.52-1.11,2.19c3.34,1.89,6.78,4.44,8.25,8.31c0.68,1.77,0.94,3.69,0.42,5.72c-0.49,1.9-1.53,3.76-2.95,5.15
		c-1.5,1.47-3.33,2.22-5.15,1.82c-0.44-0.1-0.8,0.09-1.04,0.4c-0.48-0.14-1.09,0.24-1.34,0.72c-0.33,0.64-0.08,1.24,0.4,1.53
		c5.26,3.28,13.14,0.76,17.61-4.65c0.64-0.77,1.19-1.59,1.67-2.46c0.45,1.02,0.98,1.99,1.61,2.89c0.93,1.33,2.35,3.42,4.33,2.31
		c1.73-0.97,1.94-3.24,2.12-4.93c0.13-1.22,0.27-2.43,0.4-3.65c0.35,0.47,0.73,0.92,1.15,1.32c0.61,0.59,1.3,1.09,2.02,1.53
		c0.74,0.44,1.65,0.96,2.53,1.08c1.48,0.2,3.21-0.68,4.38-1.79c1.23-1.16,2.13-2.66,2.73-4.24c0.65-1.73,0.98-3.55,0.87-5.3
		c-0.14-2.28-0.7-4.42-1.15-6.6c-0.41-1.96-0.74-4.02-0.4-6.13C267.877,226.493,268.557,224.623,269.297,222.803z"/>
	<path fill="#FFF23D" d="M519.877,184.073c1.68-4.14,3.66-8.33,2.98-12.64c-0.07-0.46-0.63-0.8-1.07-0.69
		c-0.02,0-0.04,0.01-0.06,0.02c0.6-1.86,0.89-3.79,0.84-5.69c-0.03-1.18-1.48-1.33-2.07-0.27c-0.4,0.72-0.89,1.39-1.43,2
		c2.57-7.93,2.64-16.37,0.03-23.55c-0.35-0.95-1.44-0.83-1.94-0.06c0.4-2.69,0.69-5.37,0.93-8.01c1.04-11.14,1.57-22.27,1.57-33.31
		c0-6.27-0.17-12.52-0.5-18.74c-0.08-1.48-2.24-1.17-2.22,0.34c0.16,11.67-1.46,23.59-4.8,35.25c-0.53,1.84-1.1,3.68-1.71,5.5
		c-1.3-9.48-4.02-18.48-8.09-26.68c-0.47-0.96-2.15-0.21-2.06,0.91c0.76,9.94-0.09,20.18-2.49,30.28
		c-1.16-10.46-1.09-21.25,0.17-32.06c0.15-1.28-1.52-1.2-2.07-0.27c-5.19,8.89-6.37,19.05-6.68,28.65
		c-0.17,5.39-0.14,10.75-0.18,16.12c-0.04,5.82-0.09,11.65-0.13,17.47l-0.07,11.38c-1.17-4.26-2.33-8.51-3.5-12.77
		c-0.34-1.26-2.11-0.65-2.17,0.65c-0.59,11.43-1.12,23.24,1.98,33.8c0.53,1.82,1.2,3.57,1.96,5.27l-6.31-2.53
		c-1.27-0.51-2.28,1.52-1.11,2.19c3.34,1.89,6.78,4.44,8.25,8.31c0.68,1.77,0.94,3.69,0.42,5.72c-0.49,1.9-1.53,3.76-2.95,5.15
		c-1.5,1.47-3.33,2.22-5.15,1.82c-0.44-0.1-0.8,0.09-1.04,0.4c-0.48-0.14-1.09,0.24-1.34,0.72c-0.33,0.64-0.08,1.24,0.4,1.53
		c5.26,3.28,13.14,0.76,17.61-4.65c0.64-0.77,1.19-1.59,1.67-2.46c0.45,1.02,0.98,1.99,1.61,2.89c0.93,1.33,2.35,3.42,4.33,2.31
		c1.73-0.97,1.94-3.24,2.12-4.93c0.13-1.22,0.27-2.43,0.4-3.65c0.35,0.47,0.73,0.92,1.15,1.32c0.61,0.59,1.3,1.09,2.02,1.53
		c0.74,0.44,1.65,0.96,2.53,1.08c1.48,0.2,3.21-0.68,4.38-1.79c1.23-1.16,2.13-2.66,2.73-4.24c0.65-1.73,0.98-3.55,0.87-5.3
		c-0.14-2.28-0.7-4.42-1.15-6.6c-0.41-1.96-0.74-4.02-0.4-6.13C518.457,187.763,519.137,185.893,519.877,184.073z"/>
	<path fill="#FFF23D" d="M376.767,222.153c-0.83-5.22-1.41-10.53-2.09-15.8l-0.08-0.58c0.87,0.61,1.87,1.05,2.98,1.24
		c0.72,0.13,1.37-0.61,1.4-1.34c0.44-11.03,0.73-22.05,0.86-33.04c0.04-3.13,0.07-6.25,0.08-9.38c0.01-1-1.23-1.36-1.89-0.53
		c-0.73,0.91-1.46,1.82-2.19,2.74c2.82-8.6,4.64-17.4,5.38-26.19c0.26-3.07,0.38-6.13,0.37-9.17c0-1.08-1.61-1.44-2.07-0.27
		c-1.1,2.8-2.2,5.59-3.3,8.39c-1.32-7.97-2.65-15.95-3.97-23.92c-0.18-1.09-1.96-0.81-2.14,0.33c-1.18,7.65-4,15.22-8.27,21.96
		c-2.33-5.24-3.64-11.08-3.83-17.16c-0.04-1.36-1.76-1.25-2.18,0.03c-2.94,8.91-3.78,18.26-2.54,26.98l-8.23-14.14
		c-0.62-1.06-2.36-0.01-2.02,1.21c2.15,7.77,4.3,15.55,6.46,23.32c1.89,6.83,4.09,13.73,4.17,21.17c0.03,2.76-0.29,5.57-1.06,8.3
		c-1.21-5.43-2.43-10.85-3.64-16.28c-0.25-1.12-1.84-0.78-2.14,0.33c-0.9,3.4-2.12,6.71-3.64,9.92c-0.06-0.13-0.13-0.25-0.19-0.37
		c-1.45-2.58-2.92-5.15-4.38-7.73c-2.94-5.19-5.88-10.38-8.83-15.57c-0.5-0.88-2.2-0.25-2.06,0.91c0.38,3.22-0.35,6.64-2.09,9.61
		c-3.82-8.72-8.05-17.19-12.71-25.35c-1.41-2.47-2.86-4.91-4.34-7.32c-0.45-0.73-1.86-0.46-2.02,0.59c-0.5,3.24-2.84,6.35-5.83,7.5
		c-1.44-3.74-2.23-7.78-2.34-11.98c0.25-1.09,0.28-2.21-0.02-3.32c-0.34-1.25-2.11-0.65-2.17,0.65c-0.04,0.93-0.05,1.86-0.03,2.79
		c-0.34,1.18-1.04,2.32-1.79,3.34c-1.48,2-3.25,3.75-4.76,5.73c-2.79,3.67-4.85,7.92-5.99,12.31c-0.17-0.87-0.38-1.72-0.65-2.55
		c-0.44-1.4-2.35-0.47-2.13,0.95c0.4,2.57,0.8,5.15,1.2,7.72c0.2,5.42-0.56,11.07-0.42,16.51l-0.52-1.17
		c-0.19-0.43-0.83-0.54-1.25-0.34c-0.5,0.23-0.77,0.72-0.81,1.25c-0.53,6.76-0.79,13.51-0.77,20.22c0.01,3.35,0.09,6.69,0.24,10.02
		c0.14,3.11,0.26,6.25,0.64,9.3c0.05,0.42,0.11,0.84,0.18,1.25c-0.94-1.03-1.87-2.06-2.81-3.09c-0.72-0.79-2.17,0.4-1.85,1.42
		c1.66,5.23,1.45,11.03,1.59,16.69c0.11,4.86,0.56,9.77,2.4,14.02c0.98,2.27,2.37,4.26,4.2,5.77c0.27,0.22,0.56,0.26,0.84,0.18
		c0.12,0.49,0.22,0.97,0.32,1.44c0.48,2.29,0.98,4.51,1.88,6.61c1.9,4.44,4.95,8.04,8.84,10.53c0.79,0.5,1.9-0.7,1.62-1.57
		c-1.74-5.44-2.54-11.27-2.4-17.25c1.48,3.68,2.95,7.36,4.43,11.04c0.2,0.51,0.64,0.83,1.22,0.65c0.49-0.15,1.03-0.72,0.96-1.29
		c-0.31-2.53-0.47-5.09-0.47-7.68c0.35,0.58,1.18,0.82,1.73,0.05c3.49-4.89,5.94-10.47,7.19-16.17c0.02,0.1,0.04,0.2,0.06,0.31
		c0.13,0.54,0.7,0.81,1.22,0.65c0.59-0.18,0.89-0.69,0.96-1.29c0.26-2.26,0.23-4.5-0.08-6.66c0.43-2.74,1.21-5.52,1.55-8.23
		c0.29-2.34,0.32-4.76-0.23-6.9c1.51,0.89,3.03,1.79,4.54,2.68c0.75,0.45,1.98-0.69,1.62-1.57c-3.19-7.74-5.34-16.08-6.32-24.75
		c1.62,4.68,3.8,9.07,6.48,13.06c0.64,0.95,1.93,0.22,2.06-0.91c0.43-3.65,0.86-7.29,1.29-10.94c4.46,7.63,9.22,15.04,14.28,22.18
		c0.05,0.07,0.1,0.14,0.15,0.21c-1.55-1.16-3.11-2.31-4.66-3.47c-0.94-0.7-2.37,0.57-1.73,1.68c5,8.68,10.47,17,16.41,24.91
		c1.7,2.27,3.44,4.5,5.21,6.69c0.39,0.49,1.24,0.68,1.74-0.03c1.83-2.57,3.65-5.14,5.48-7.71c0.74,0.82,1.48,1.65,2.23,2.47
		c0.4,0.44,1.16,0.21,1.57-0.24c1.64-1.82,3.11-3.79,4.4-5.88c1.27,2.01,2.33,4.18,3.15,6.48c0.44,1.22,2.04,0.67,2.17-0.65
		c0.18-1.74,0.36-3.47,0.54-5.21c2.23,1.31,4.84,1.9,7.6,1.68c0.96-0.08,1.45-1.55,0.77-2.11
		C378.457,230.473,377.417,226.243,376.767,222.153z"/>
	<path fill="#FFF23D" d="M821.497,153.413c-0.83-5.22-1.41-10.53-2.09-15.8l-0.08-0.58c0.87,0.61,1.87,1.05,2.98,1.24
		c0.72,0.13,1.37-0.61,1.4-1.34c0.44-11.03,0.73-22.05,0.86-33.04c0.04-3.13,0.07-6.25,0.08-9.38c0.01-1-1.23-1.36-1.89-0.53
		c-0.73,0.91-1.46,1.82-2.19,2.74c2.82-8.6,4.64-17.4,5.38-26.19c0.26-3.07,0.38-6.13,0.37-9.17c0-1.08-1.61-1.44-2.07-0.27
		c-1.1,2.8-2.2,5.59-3.3,8.39c-1.32-7.97-2.65-15.95-3.97-23.92c-0.18-1.09-1.96-0.81-2.14,0.33c-1.18,7.65-4,15.22-8.27,21.96
		c-2.33-5.24-3.64-11.08-3.83-17.16c-0.04-1.36-1.76-1.25-2.18,0.03c-2.94,8.91-3.78,18.26-2.54,26.98l-8.23-14.14
		c-0.62-1.06-2.36-0.01-2.02,1.21c2.15,7.77,4.3,15.55,6.46,23.32c1.89,6.83,4.09,13.73,4.17,21.17c0.03,2.76-0.29,5.57-1.06,8.3
		c-1.21-5.43-2.43-10.85-3.64-16.28c-0.25-1.12-1.84-0.78-2.14,0.33c-0.9,3.4-2.12,6.71-3.64,9.92c-0.06-0.13-0.13-0.25-0.19-0.37
		c-1.45-2.58-2.92-5.15-4.38-7.73c-2.94-5.19-5.88-10.38-8.83-15.57c-0.5-0.88-2.2-0.25-2.06,0.91c0.38,3.22-0.35,6.64-2.09,9.61
		c-3.82-8.72-8.05-17.19-12.71-25.35c-1.41-2.47-2.86-4.91-4.34-7.32c-0.45-0.73-1.86-0.46-2.02,0.59c-0.5,3.24-2.84,6.35-5.83,7.5
		c-1.44-3.74-2.23-7.78-2.34-11.98c0.25-1.09,0.28-2.21-0.02-3.32c-0.34-1.25-2.11-0.65-2.17,0.65c-0.04,0.93-0.05,1.86-0.03,2.79
		c-0.34,1.18-1.04,2.32-1.79,3.34c-1.48,2-3.25,3.75-4.76,5.73c-2.79,3.67-4.85,7.92-5.99,12.31c-0.17-0.87-0.38-1.72-0.65-2.55
		c-0.44-1.4-2.35-0.47-2.13,0.95c0.4,2.57,0.8,5.15,1.2,7.72c0.2,5.42-0.56,11.07-0.42,16.51l-0.52-1.17
		c-0.19-0.43-0.83-0.54-1.25-0.34c-0.5,0.23-0.77,0.72-0.81,1.25c-0.53,6.76-0.79,13.51-0.77,20.22c0.01,3.35,0.09,6.69,0.24,10.02
		c0.14,3.11,0.26,6.25,0.64,9.3c0.05,0.42,0.11,0.84,0.18,1.25c-0.94-1.03-1.87-2.06-2.81-3.09c-0.72-0.79-2.17,0.4-1.85,1.42
		c1.66,5.23,1.45,11.03,1.59,16.69c0.11,4.86,0.56,9.77,2.4,14.02c0.98,2.27,2.37,4.26,4.2,5.77c0.27,0.22,0.56,0.26,0.84,0.18
		c0.12,0.49,0.22,0.97,0.32,1.44c0.48,2.29,0.98,4.51,1.88,6.61c1.9,4.44,4.95,8.04,8.84,10.53c0.79,0.5,1.9-0.7,1.62-1.57
		c-1.74-5.44-2.54-11.27-2.4-17.25c1.48,3.68,2.95,7.36,4.43,11.04c0.2,0.51,0.64,0.83,1.22,0.65c0.49-0.15,1.03-0.72,0.96-1.29
		c-0.31-2.53-0.47-5.09-0.47-7.68c0.35,0.58,1.18,0.82,1.73,0.05c3.49-4.89,5.94-10.47,7.19-16.17c0.02,0.1,0.04,0.2,0.06,0.31
		c0.13,0.54,0.7,0.81,1.22,0.65c0.59-0.18,0.89-0.69,0.96-1.29c0.26-2.26,0.23-4.5-0.08-6.66c0.43-2.74,1.21-5.52,1.55-8.23
		c0.29-2.34,0.32-4.76-0.23-6.9c1.51,0.89,3.03,1.79,4.54,2.68c0.75,0.45,1.98-0.69,1.62-1.57c-3.19-7.74-5.34-16.08-6.32-24.75
		c1.62,4.68,3.8,9.07,6.48,13.06c0.64,0.95,1.93,0.22,2.06-0.91c0.43-3.65,0.86-7.29,1.29-10.94c4.46,7.63,9.22,15.04,14.28,22.18
		c0.05,0.07,0.1,0.14,0.15,0.21c-1.55-1.16-3.11-2.31-4.66-3.47c-0.94-0.7-2.37,0.57-1.73,1.68c5,8.68,10.47,17,16.41,24.91
		c1.7,2.27,3.44,4.5,5.21,6.69c0.39,0.49,1.24,0.68,1.74-0.03c1.83-2.57,3.65-5.14,5.48-7.71c0.74,0.82,1.48,1.65,2.23,2.47
		c0.4,0.44,1.16,0.21,1.57-0.24c1.64-1.82,3.11-3.79,4.4-5.88c1.27,2.01,2.33,4.18,3.15,6.48c0.44,1.22,2.04,0.67,2.17-0.65
		c0.18-1.74,0.36-3.47,0.54-5.21c2.23,1.31,4.84,1.9,7.6,1.68c0.96-0.08,1.45-1.55,0.77-2.11
		C823.187,161.733,822.147,157.503,821.497,153.413z"/>
	<path fill="#FFF23D" d="M470.657,158.433c-0.59,0.75-1.19,1.51-1.78,2.26c-0.68-3.01-1.08-6.1-1.2-9.28
		c-0.04-1.18-1.46-1.32-2.07-0.27c-1.21,2.11-2.72,4.06-4.45,5.74c-0.85,0.82-1.76,1.58-2.7,2.26c-0.89,0.65-2.03,1.56-3.08,1.71
		c-1.43,0.2-1.39-1.67-1.44-2.84c-0.08-1.71-0.1-3.6-1.08-4.92c-0.45-0.6-1.51-0.61-1.91,0.3c-2.61,5.92-7.36,10.8-12.96,13.37
		c-0.67-3.37-2.18-6.36-4.34-8.76c-0.3-0.33-0.96-0.29-1.34,0.03c-4.32,3.6-9.28,6.06-14.4,7.15c2.99-4.82,5.36-9.96,7.03-15.32
		c0.26-0.84-0.6-1.65-1.37-1.22c-1.59,0.87-3.22,1.49-4.89,1.87c0.82-1.06,1.95-1.88,3.07-2.46c2.08-1.07,4.23-1.48,6.4-1.95
		c2.42-0.52,4.86-1.14,7.07-2.59c0.39-0.26,0.76-0.54,1.11-0.85c5.95,3.8,14.46,2.77,20.88-2.08c0.05-0.04,0.1-0.08,0.15-0.12
		c0.17,1.26,0.91,2.31,2.06,2.75c1.67,0.64,3.38-0.37,4.06-2.29c0.21-0.6,0.37-1.21,0.52-1.82c1.23,2.81,3.64,4.9,6.62,5.51
		c0.45,0.09,1.03-0.26,1.25-0.73c4.68-9.78,5.59-20.39,5.55-30.55c-0.01-2.55-0.08-5.1-0.16-7.64c0-0.38-0.01-0.75-0.03-1.13
		c-0.11-1.47-2.27-1.17-2.22,0.34c0.01,0.32,0.02,0.64,0.03,0.96c-0.02,3.59-1.61,7.23-4.19,9.87c1.06-4.15,1.49-8.39,1.24-12.49
		c-0.08-1.33-1.75-1.28-2.18,0.03c-1.66,5.1-7.94,8.1-11.99,5.97c-1.22-0.64-2.26,1.51-1.11,2.19c0.93,0.55-0.39,2.49-1.12,2.92
		c-0.93,0.54-2.09,0.39-3,0.22c-1.14-0.21-2.22-0.61-3.35-0.87c-4.08-0.94-8.63-0.36-12.81,1.44c-1.82,0.78-3.58,1.81-5.21,3.05
		c-0.36-3.82-0.73-7.64-1.09-11.46c-0.14-1.45-2.23-1.19-2.22,0.34c0.05,6.58-7.34,10.66-12.33,12.76
		c-6.13,2.58-13.22,5.38-15.9,12.62c-0.08,0.22-0.15,0.44-0.23,0.66c-0.55-0.24-1.3,0.01-1.54,0.91
		c-1.68,6.38-2.24,12.89-1.68,19.14c-0.99-1.58-2.11-3.08-3.33-4.47c-0.81-0.93-2.34,0.66-1.73,1.68c1.82,3.07,2.99,6.63,3.35,10.41
		c0.39,4.03-0.26,8.07-1.09,12.17c-0.86,4.29-1.56,8.52-1.52,12.78c0.05,4.27,0.67,8.44,1.56,12.47c0.79,3.58,1.81,7.07,2.88,10.53
		c-1.8-1.02-3.6-2.05-5.39-3.07c-0.92-0.53-2.09,0.96-1.51,1.83c4.64,6.93,6.02,16.32,3.91,25.41c-0.6,2.6-1.48,5.14-2.64,7.6
		c-0.36,0.76,0.02,1.36,0.55,1.55c-0.6,1.18,0.83,2.34,1.73,1.16c1.77-2.31,3.54-4.61,5.31-6.92c0.77,1.72-0.18,4.37-0.7,6.3
		c-0.77,2.88-1.63,6.31,0.1,8.64c0.39,0.52,1.23,0.64,1.74-0.03c4.94-6.57,9.43-13.49,13.43-20.67c1.33,2.4,2.66,4.8,3.99,7.19
		c0.38,0.69,1.55,0.54,1.91-0.3c1.02-2.34,1.89-4.72,2.62-7.13c0.08,2.05,0.17,4.11,0.25,6.16c0.03,0.8,0.95,1.41,1.67,0.75
		c3.72-3.41,2.31-8.75,1.68-12.67c-0.78-4.89-1.56-9.79-2.34-14.68c0.87,0.24,1.74,0.48,2.61,0.72c0.42,0.96,0.86,1.92,1.33,2.85
		c0.34,0.68,1.24,0.49,1.74-0.03c0.87-0.9,2.13-1.36,3.24-1.23c0.27,0.06,0.54,0.13,0.81,0.19c1.17,0.27,1.99-1.88,0.84-2.26
		c-0.09-0.03-0.18-0.04-0.27-0.07v-0.01c-2.02-0.47-4.02-0.96-6.02-1.49c-1.91-4.61-3.22-9.56-3.89-14.71
		c1.76,1.13,4.01,1.53,6.22,1.5c3.9-0.05,7.78-1.48,11.68-1.86c2.17-0.21,4.41-0.04,6.15,1.14c0.98,0.67,2.3-0.53,1.73-1.68
		c-1.11-2.26-2.96-3.93-5.15-4.94c0.29-0.08,0.58-0.15,0.87-0.24c1.08-0.32,2.17-0.83,2.92-1.82c0.61-0.82,0.86-2.13,1.67-2.76
		c0.73-0.57,1.73-0.47,2.49-0.35c2.27,0.34,4.48,1.18,6.58,1.98c2.53,0.97,4.96,2.13,7.3,3.47c1.04,0.6,2.24-1.28,1.33-2.04
		c-1.21-1.02-1.08-2.91-0.77-4.54c0.45-2.33,1.24-4.65,1.89-6.95c1.47-5.15,2.94-10.3,4.41-15.46
		C472.847,158.123,471.407,157.483,470.657,158.433z M443.617,132.703c0.56,1.23,0.05,3.02-0.89,4.19
		c-0.92,1.13-2.15,1.83-3.45,2.31c0.24-0.35,0.47-0.71,0.7-1.06C441.127,136.313,442.177,134.323,443.617,132.703z"/>
	<path fill="#FFF23D" d="M610.977,193.903c-3.59,0.78-7.44,0.51-10.64-0.73c-1.89-0.73-3.61-1.85-4.89-3.46
		c-0.3-0.37-0.75-0.57-1.25-0.34c-0.43,0.19-0.87,0.76-0.81,1.25c0.44,3.5-1.84,6.99-4.72,9.03c-3.31,2.36-7.27,3.14-10.93,3.85
		c-3.15,0.61-6.39,1.05-9.43,0.52c-1.41-0.24-2.79-0.73-3.91-1.58c-1.28-0.97-1.99-2.68-3.45-3.38s-3.2-0.14-4.75,0.55
		c-1.27,0.56-2.99,1.64-4.3,1.25c-0.74-0.22-1.68,0.3-1.66,1.27c0.06,3.38,1.12,6.52,2.99,8.95c-5.82-0.35-10.92-4.19-12.74-9.93
		c-0.39-1.23-2.08-0.67-2.17,0.65c-0.35,5.09,1.1,9.97,3.9,13.61c-3.13-1.12-5.75-3.32-7.41-6.35c-0.21-0.39-0.55-0.5-0.89-0.44
		c-4.53-6.15-5.3-14.83-4.79-23.08c0.12-2.02,0.22-4.07-0.02-6.02c1.58,1.03,3.04,2.22,4.36,3.6c0.73,0.76,2.19-0.39,1.85-1.42
		c-2.75-8.37-4.93-17.19-4.65-26.56c0.29-9.35,3.12-18.8,2.59-28.08c-0.21-3.61-0.78-7.13-1.47-10.6c1.17,1.8,1.99,3.86,2.43,6.12
		c0.21,1.08,1.95,0.82,2.14-0.33c1.48-9.12,3.34-18.23,5.55-27.3c2.77,4.08,6.5,7.32,10.87,9.45c0.54,0.26,1.18-0.09,1.51-0.65
		c2.69-4.45,6.77-8,11.26-10.05c2.22-1.01,4.53-1.65,6.85-1.85c2.91-0.26,5.74,0.23,8.66-0.15c1.03-0.14,2.08-0.39,3.09-0.79
		c-1.24,1.65-2.64,3.16-4.19,4.5c-0.73,0.63-0.72,2.02,0.27,2.09c5.61,0.39,11.94-1.36,16.85-5.34c2.08-1.68,4.07-4.04,4.55-6.74
		c0.45-2.56-0.39-4.76-1.96-6.38c1.42,0.44,2.77,1.03,4,1.86c2.91,1.96,5.03,5.28,4.49,9.37c-0.34,2.55-1.49,5-2.83,7.26
		c-0.37,0.63-0.01,1.61,0.67,1.61c1.52,0,3.06-0.6,4.29-1.67c0.25,5.12-0.19,10.36-1.39,15.55c-0.17,0.72-0.34,1.44-0.54,2.16
		c-0.17,0.62-0.29,1.39-0.65,1.96c-0.29,0.46-0.72,0.32-1.13,0.27c-0.71-0.08-1.41-0.17-2.11-0.26c-2.56-0.35-5.17-0.87-7.31-2.25
		c-2.03-1.3-3.66-3.46-3.79-6.18c-0.04-0.78-0.96-1.43-1.67-0.75c-3.02,2.9-4.67,6.93-4.5,10.85c-4.62,0.23-8.8-2.68-10.1-7.23
		c-0.26-0.91-1.56-0.92-2.03,0.03c-1.12,2.29-2.25,4.57-3.37,6.86c-0.53,1.08-1.05,2.17-1.59,3.24c-0.11,0.22-0.34,0.77-0.57,0.9
		c-0.29,0.17-0.61-0.13-0.84-0.28c-2.83-1.9-4.8-4.93-5.65-8.46c-0.18-0.76-1.33-1-1.85-0.23c-2.78,4.14-4.35,8.97-4.35,13.73
		c0,4.52,1.49,8.74,4.12,11.91c1.48,1.79,3.27,3.22,5.32,4.25c0.55,0.28,1.17-0.11,1.51-0.65c1.47-2.31,2.64-4.78,3.49-7.34
		c0.66,1.17,1.32,2.34,1.98,3.5c0.89,1.56,2.33,2.93,4.28,1.52c0.79-0.57,1.49-1.41,2.13-2.15c0.7-0.8,1.36-1.64,1.97-2.52
		c0.77-1.09,1.46-2.23,2.08-3.4c1.54,4.11,1.72,8.89,0.52,13.55c-0.36,1.41,1.32,1.7,2.03,0.59c3.02-4.8,6.04-9.59,9.06-14.39
		c1.71,2.4,3.43,4.79,5.14,7.19c0.43,0.6,1.54,0.61,1.91-0.3c1.89-4.54,4.47-8.76,7.66-12.5c0.5,4.18-0.74,8.74-3.18,12.55
		c-1.4,2.18-3.22,4.08-5.31,5.5c-1.1,0.74-2.33,1.24-3.38,2.08c-1.29,1.03-2.01,2.45-2.09,4.06c-0.09,1.76,0.45,3.56,0.95,5.13
		c0.31,0.98,0.68,1.92,1.1,2.84c-3.27-0.78-5.98-3.12-7.13-6.49c-0.41-1.2-2.1-0.69-2.17,0.65c-0.09,1.67-0.44,3.38-1.05,5.01
		c-0.2,0.52-1.35,3.56-1.97,3.32c-0.43-0.16-0.72-1.28-0.89-1.67c-0.37-0.81-0.73-1.63-1.1-2.44c-0.75-1.67-1.5-3.34-2.25-5.01
		c-0.28-0.63-1.3-0.55-1.74,0.03c-2.57,3.41-5.55,7.19-9.33,9.02c-1.72,0.83-3.53,1.13-5.22,0.69c-1.6-0.42-2.93-1.49-3.98-2.73
		c-1.28-1.51-2.23-3.34-3.07-5.19c-0.41-0.91-1.77-0.32-2.02,0.59c-2.23,7.99-4.6,17.82,0.43,24.12c2.09,2.62,5.11,4.32,8.49,4.73
		c3.4,0.41,6.95-0.59,10.07-2.71c2.27-1.54,4.2-3.64,5.64-6.03c-0.11,1.58-0.53,3.18-1.27,4.7c-0.44,0.92,0.15,1.62,0.96,1.61
		c8.56-0.15,17.38-4.27,24.13-10.88c1.29-1.26,2.49-2.63,3.6-4.06c0.47,3.38,0.94,6.76,1.41,10.13c0.1,0.68,1.11,0.95,1.63,0.45
		c1.9-1.83,3.49-3.92,4.72-6.21c0.18,2.81,0.37,5.62,0.55,8.43c0.13,2.01,0.21,4.03,0.41,6.03c0.14,1.49,0.44,2.91,1.26,4.01
		C616.977,191.813,613.687,193.313,610.977,193.903z"/>
	<path fill="#FFF23D" d="M380.427,372.833c-3.59,0.78-7.44,0.51-10.64-0.73c-1.89-0.73-3.61-1.85-4.89-3.46
		c-0.3-0.37-0.75-0.57-1.25-0.34c-0.43,0.19-0.87,0.76-0.81,1.25c0.44,3.5-1.84,6.99-4.72,9.03c-3.31,2.36-7.27,3.14-10.93,3.85
		c-3.15,0.61-6.39,1.05-9.43,0.52c-1.41-0.24-2.79-0.73-3.91-1.58c-1.28-0.97-1.99-2.68-3.45-3.38s-3.2-0.14-4.75,0.55
		c-1.27,0.56-2.99,1.64-4.3,1.25c-0.74-0.22-1.68,0.3-1.66,1.27c0.06,3.38,1.12,6.52,2.99,8.95c-5.82-0.35-10.92-4.19-12.74-9.93
		c-0.39-1.23-2.08-0.67-2.17,0.65c-0.35,5.09,1.1,9.97,3.9,13.61c-3.13-1.12-5.75-3.32-7.41-6.35c-0.21-0.39-0.55-0.5-0.89-0.44
		c-4.53-6.15-5.3-14.83-4.79-23.08c0.12-2.02,0.22-4.07-0.02-6.02c1.58,1.03,3.04,2.22,4.36,3.6c0.73,0.76,2.19-0.39,1.85-1.42
		c-2.75-8.37-4.93-17.19-4.65-26.56c0.29-9.35,3.12-18.8,2.59-28.08c-0.21-3.61-0.78-7.13-1.47-10.6c1.17,1.8,1.99,3.86,2.43,6.12
		c0.21,1.08,1.95,0.82,2.14-0.33c1.48-9.12,3.34-18.23,5.55-27.3c2.77,4.08,6.5,7.32,10.87,9.45c0.55,0.26,1.18-0.09,1.51-0.65
		c2.69-4.45,6.77-8,11.26-10.05c2.22-1.01,4.53-1.65,6.85-1.85c2.91-0.26,5.74,0.23,8.66-0.15c1.03-0.14,2.08-0.39,3.09-0.79
		c-1.24,1.65-2.64,3.16-4.19,4.5c-0.73,0.63-0.72,2.02,0.27,2.09c5.61,0.39,11.94-1.36,16.85-5.34c2.08-1.68,4.07-4.04,4.55-6.74
		c0.45-2.56-0.39-4.76-1.96-6.38c1.42,0.44,2.77,1.03,4,1.86c2.91,1.96,5.03,5.28,4.49,9.37c-0.34,2.55-1.49,5-2.83,7.26
		c-0.37,0.63-0.01,1.61,0.67,1.61c1.52,0,3.06-0.6,4.29-1.67c0.25,5.12-0.19,10.36-1.39,15.55c-0.17,0.72-0.34,1.44-0.54,2.16
		c-0.17,0.62-0.29,1.39-0.65,1.96c-0.29,0.46-0.72,0.32-1.13,0.27c-0.71-0.08-1.41-0.17-2.11-0.26c-2.56-0.35-5.17-0.87-7.31-2.25
		c-2.03-1.3-3.66-3.46-3.79-6.18c-0.04-0.78-0.96-1.43-1.67-0.75c-3.02,2.9-4.67,6.93-4.5,10.85c-4.62,0.23-8.8-2.68-10.1-7.23
		c-0.26-0.91-1.56-0.92-2.03,0.03c-1.12,2.29-2.25,4.57-3.37,6.86c-0.53,1.08-1.05,2.17-1.59,3.24c-0.11,0.22-0.34,0.77-0.57,0.9
		c-0.29,0.17-0.61-0.13-0.84-0.28c-2.83-1.9-4.8-4.93-5.65-8.46c-0.18-0.76-1.33-1-1.85-0.23c-2.78,4.14-4.35,8.97-4.35,13.73
		c0,4.52,1.49,8.74,4.12,11.91c1.48,1.79,3.27,3.22,5.32,4.25c0.55,0.28,1.17-0.1,1.51-0.65c1.47-2.31,2.64-4.78,3.49-7.34
		c0.66,1.17,1.32,2.34,1.98,3.5c0.89,1.56,2.33,2.93,4.28,1.52c0.79-0.57,1.49-1.41,2.13-2.15c0.7-0.8,1.36-1.64,1.97-2.52
		c0.77-1.09,1.46-2.23,2.08-3.4c1.54,4.11,1.72,8.89,0.52,13.55c-0.36,1.41,1.32,1.7,2.03,0.59c3.02-4.8,6.04-9.59,9.06-14.39
		c1.71,2.4,3.43,4.79,5.14,7.19c0.43,0.6,1.54,0.61,1.91-0.3c1.89-4.54,4.47-8.76,7.66-12.5c0.5,4.18-0.74,8.74-3.18,12.55
		c-1.4,2.18-3.22,4.08-5.31,5.5c-1.1,0.74-2.33,1.24-3.38,2.08c-1.29,1.03-2.01,2.45-2.09,4.06c-0.09,1.76,0.45,3.56,0.95,5.13
		c0.31,0.98,0.68,1.92,1.1,2.84c-3.27-0.78-5.98-3.12-7.13-6.49c-0.41-1.2-2.1-0.69-2.17,0.65c-0.09,1.67-0.44,3.38-1.05,5.01
		c-0.2,0.52-1.35,3.56-1.97,3.32c-0.43-0.16-0.72-1.28-0.89-1.67c-0.37-0.81-0.73-1.63-1.1-2.44c-0.75-1.67-1.5-3.34-2.25-5.01
		c-0.28-0.63-1.3-0.55-1.74,0.03c-2.57,3.41-5.55,7.19-9.33,9.02c-1.72,0.83-3.53,1.13-5.22,0.69c-1.6-0.42-2.93-1.49-3.98-2.73
		c-1.28-1.51-2.23-3.34-3.07-5.19c-0.41-0.91-1.77-0.32-2.02,0.59c-2.23,7.99-4.6,17.82,0.43,24.12c2.09,2.62,5.11,4.32,8.49,4.73
		c3.4,0.41,6.95-0.59,10.07-2.71c2.27-1.54,4.2-3.64,5.64-6.03c-0.11,1.58-0.53,3.18-1.27,4.7c-0.44,0.92,0.15,1.62,0.96,1.61
		c8.56-0.15,17.38-4.27,24.13-10.88c1.29-1.26,2.49-2.63,3.6-4.06c0.47,3.38,0.94,6.76,1.41,10.13c0.1,0.68,1.11,0.95,1.63,0.45
		c1.9-1.83,3.49-3.92,4.72-6.21c0.18,2.81,0.37,5.62,0.55,8.43c0.13,2.01,0.21,4.03,0.41,6.03c0.14,1.49,0.44,2.91,1.26,4.01
		C386.427,370.743,383.137,372.243,380.427,372.833z"/>
	<path fill="#FFF23D" d="M702.187,149.883c0.56,0.13,1.22-0.43,1.36-1.03c2.66-11.57,12.04-22.57,9.61-34.47
		c-0.01-0.03-0.02-0.05-0.03-0.07c3.01-7.01,3.25-14.96,2.37-22.02c-0.4-3.23-0.99-6.4-1.58-9.56c-0.23-1.2-1.8-0.7-2.14,0.33
		c-0.36,1.11-0.82,2.2-1.35,3.24c-0.07-3.18-1.32-6.21-2.98-8.6c-2.79-4-6.82-6.84-9.04-11.33c-0.46-0.94-2.2-0.22-2.06,0.91
		c0.44,3.66-0.06,7.49-1.48,11.12c-4.03-4.45-6.69-10.2-7.71-16.58c-0.31-1.44-2.36-0.47-2.13,0.95c0.71,3.3-0.92,7.32-3.8,9.46
		c-1.8,1.34-3.97,1.84-5.97,2.49c-1.2,0.39-2.39,0.84-3.5,1.48c0.59-5.64-1.17-11.4-1.11-17.05c0.05-0.54,0.08-1.08,0.07-1.62
		c-0.02-1.52-2.09-1.15-2.22,0.34c-0.04,0.48-0.06,0.95-0.07,1.42c-0.5,5.4-4.07,10.86-8.84,13.46c-1.47,0.8-2.95,1.25-4.51,1.56
		c-1.8,0.36-3.63,0.65-5.36,1.5c-2.75,1.35-4.89,3.7-6.57,6.37c-1.2,1.91-2.14,3.95-2.96,6.03c-0.61-3.15-1.05-6.35-1.33-9.6
		c1.11-3.16,1.34-6.68-0.49-9.15c-0.61-0.83-2.05-0.31-2.06,0.91c-0.02,2.76,0.08,5.5,0.3,8.22c-0.13,0.34-0.28,0.67-0.43,0.99
		c-1.57,3.25-4.14,5.91-6.2,8.84c-2.04,2.9-3.51,6.05-4.19,9.46c-0.68,3.44-0.64,6.88-0.23,10.19c0.31,2.52,0.82,4.98,1.41,7.41
		c-0.87-1.04-1.55-2.26-1.98-3.62c-0.46-1.34-2.57-0.43-2.13,0.95c2.26,6.67,4.33,13.65,3.5,21.26c-0.41,3.77-1.34,7.53-1.54,11.29
		c-0.18,3.35,0.14,6.66,0.9,9.77c0.3,1.23,0.67,2.43,1.11,3.6c-0.88-0.95-1.7-1.95-2.48-3c-0.68-0.92-2.42-0.06-2.02,1.21
		c1.71,5.42,2.42,11.27,2.1,17.27c-0.16,2.97-0.59,5.95-1.25,8.91c-0.66,2.93-1.45,6.03-0.79,8.86c0.56,2.39,2.23,4.49,4.65,4.75
		c2.13,2.52,3.46,5.75,4.63,8.99c0.77,2.15,1.49,4.33,2.35,6.43c0.8,1.95,1.78,4.55,4.29,4.23c0.7-0.09,1.28-0.96,1.06-1.64
		c-1.77-5.59-2.87-11.46-3.31-17.5c0.32,0.95,0.64,1.9,0.97,2.84c0.33,0.96,1.46,0.86,2.03-0.03l6.39-10.16
		c0.71,5.04,3.95,9.31,8.49,10.75c0.82,0.26,1.94-0.56,1.62-1.57c-2.07-6.62-3.53-13.52-4.36-20.61c0.96,0.69,2.1,1.14,3.36,1.25
		c0.63,0.06,1.48-0.56,1.4-1.34c-0.76-6.92,2.31-13.83,5.69-20.24c0.74,4.39,2.09,8.54,4.06,12.33c0.45,0.86,1.77,0.36,2.02-0.59
		c0.49-1.83,0.97-3.67,1.46-5.5c0.75,5.41,2.54,10.49,5.26,14.89c0.29,0.47,1.02,0.62,1.52,0.18c3.23-2.84,5-7.39,4.49-11.38
		c1.97,1.96,1.46,6.73,1.67,9.35c0.38,4.69,1.59,9.11,3.56,13.1c0.45,0.91,1.74,0.32,2.02-0.59c0.67-2.15,1.2-4.33,1.59-6.52
		c1.73,5.28,4.81,9.86,9,13.11c0.64,0.5,2.01-0.05,1.89-1.12c-0.5-4.57-0.28-9.27,0.65-13.94c0.79,2.36,1.87,4.6,3.27,6.46
		c0.96,1.27,2.6,2.29,4.23,0.94c0.65-0.53,1-1.29,1.44-2c0.06-0.1,0.13-0.28,0.23-0.35c-0.01,0,0.04-0.05,0.09-0.1
		c0.25,0.87,1.58,1.15,2.01,0.03c0.04-0.1,0.07-0.2,0.11-0.3l0,0v-0.01c3.19-8.62,0.28-16.95-2.64-24.26
		c-0.37-0.92-1.88-0.94-2.14,0.33c-0.32,1.59-1.01,3.13-2.01,4.42c-1.48-4.71-2.48-9.65-2.93-14.73c-0.13-1.45-2.24-1.18-2.22,0.34
		c0,0.26,0.03,0.26-0.17,0.4c-0.2,0.15-0.46,0.24-0.71,0.3c-0.68,0.16-1.37,0.09-1.95-0.18c-1.58-0.74-2.83-2.09-3.69-3.64
		c-0.74-1.33-1.21-2.86-1.38-4.48c0.35,0.55,0.76,1.06,1.21,1.5C695.847,148.393,699.127,149.163,702.187,149.883z M682.967,131.913
		c-1.22,1.22-2.75,2.26-4.36,2.4c-1.39,0.12-2.78-0.46-3.66-1.46c-0.27-0.31-0.5-0.65-0.71-1c-0.41,0.86-1.02,1.62-1.88,2.13
		c-1.54,0.92-3.8,1.25-5.23,0.49c-0.72-0.38-1.13-1-1.36-1.73c-0.84,1.48-2.05,2.71-3.55,3.47c-2.62,1.32-6.01,0.96-7.37-1.29
		c-0.27-0.08-0.5-0.24-0.63-0.51c-0.98-2.08-1.15-4.38-0.62-6.85c0.49-2.3,1.47-4.52,2.39-6.72c0.89-2.14,1.85-4.44,2.13-6.7
		c0.3-2.49-0.14-4.89-0.68-7.18c-0.43-1.85,2.09-2.9,2.74-1.22c0.87,2.24,2.03,4.26,2.9,6.44c0.44-0.46,0.94-0.88,1.52-1.23
		c0.93-0.57,1.9-1,2.88-1.45c0.43-0.2,0.85-0.4,1.26-0.63c0.03-0.02,0.04-0.02,0.06-0.03c0.01-0.01,0.01-0.01,0.03-0.02
		c0.1-0.06,0.19-0.13,0.29-0.19c0.18-0.13,0.35-0.27,0.52-0.42c0.47-0.42,1.15-0.4,1.58-0.13c0.51,0.32,0.59,0.87,0.52,1.5
		c-0.33,2.74-0.13,5.41-0.35,8.14c1.11-0.37,2.07-1,2.84-2.05c0.15-0.21,0.41-0.64,0.59-1.02c0.21-0.43,0.35-0.77,0.47-1.15
		c0.33-1.01,0.53-2.05,0.67-3.08c0.11-0.76,0.92-1.3,1.56-1.31c0.69-0.02,1.23,0.54,1.24,1.28c0.01,1.65,0.11,3.3,0.37,4.89
		c0.25,1.55,0.59,3.18,1.38,4.43c0.53,0.83,1.33,1.19,2.32,1.64c0.99,0.46,1.99,0.97,2.59,1.95
		C686.977,125.883,685.127,129.763,682.967,131.913z"/>
	<path fill="#FFF23D" d="M793.517,280.093c0.56,0.13,1.22-0.43,1.36-1.03c2.66-11.57,12.04-22.57,9.61-34.47
		c-0.01-0.03-0.02-0.05-0.03-0.07c3.01-7.01,3.25-14.96,2.37-22.02c-0.4-3.23-0.99-6.4-1.58-9.56c-0.23-1.2-1.8-0.7-2.14,0.33
		c-0.36,1.11-0.82,2.2-1.35,3.24c-0.07-3.18-1.32-6.21-2.98-8.6c-2.79-4-6.82-6.84-9.04-11.33c-0.46-0.94-2.2-0.22-2.06,0.91
		c0.44,3.66-0.06,7.49-1.48,11.12c-4.03-4.45-6.69-10.2-7.71-16.58c-0.31-1.44-2.36-0.47-2.13,0.95c0.71,3.3-0.92,7.32-3.8,9.46
		c-1.8,1.34-3.97,1.84-5.97,2.49c-1.2,0.39-2.39,0.84-3.5,1.48c0.59-5.64-1.17-11.4-1.11-17.05c0.05-0.54,0.08-1.08,0.07-1.62
		c-0.02-1.52-2.09-1.15-2.22,0.34c-0.04,0.48-0.06,0.95-0.07,1.42c-0.5,5.4-4.07,10.86-8.84,13.46c-1.47,0.8-2.95,1.25-4.51,1.56
		c-1.8,0.36-3.63,0.65-5.36,1.5c-2.75,1.35-4.89,3.7-6.57,6.37c-1.2,1.91-2.14,3.95-2.96,6.03c-0.61-3.15-1.05-6.35-1.33-9.6
		c1.11-3.16,1.34-6.68-0.49-9.15c-0.61-0.83-2.05-0.31-2.06,0.91c-0.02,2.76,0.08,5.5,0.3,8.22c-0.13,0.34-0.28,0.67-0.43,0.99
		c-1.57,3.25-4.14,5.91-6.2,8.84c-2.04,2.9-3.51,6.05-4.19,9.46c-0.68,3.44-0.64,6.88-0.23,10.19c0.31,2.52,0.82,4.98,1.41,7.41
		c-0.87-1.04-1.55-2.26-1.98-3.62c-0.46-1.34-2.57-0.43-2.13,0.95c2.26,6.67,4.33,13.65,3.5,21.26c-0.41,3.77-1.34,7.53-1.54,11.29
		c-0.18,3.35,0.14,6.66,0.9,9.77c0.3,1.23,0.67,2.43,1.11,3.6c-0.88-0.95-1.7-1.95-2.48-3c-0.68-0.92-2.42-0.06-2.02,1.21
		c1.71,5.42,2.42,11.27,2.1,17.27c-0.16,2.97-0.59,5.95-1.25,8.91c-0.66,2.93-1.45,6.03-0.79,8.86c0.56,2.39,2.23,4.49,4.65,4.75
		c2.13,2.52,3.46,5.75,4.63,8.99c0.77,2.15,1.49,4.33,2.35,6.43c0.8,1.95,1.78,4.55,4.29,4.23c0.7-0.09,1.28-0.96,1.06-1.64
		c-1.77-5.59-2.87-11.46-3.31-17.5c0.32,0.95,0.64,1.9,0.97,2.84c0.33,0.96,1.46,0.86,2.03-0.03l6.39-10.16
		c0.71,5.04,3.95,9.31,8.49,10.75c0.82,0.26,1.94-0.56,1.62-1.57c-2.07-6.62-3.53-13.52-4.36-20.61c0.96,0.69,2.1,1.14,3.36,1.25
		c0.63,0.06,1.48-0.56,1.4-1.34c-0.76-6.92,2.31-13.83,5.69-20.24c0.74,4.39,2.09,8.54,4.06,12.33c0.45,0.86,1.77,0.36,2.02-0.59
		c0.49-1.83,0.97-3.67,1.46-5.5c0.75,5.41,2.54,10.49,5.26,14.89c0.29,0.47,1.02,0.62,1.52,0.18c3.23-2.84,5-7.39,4.49-11.38
		c1.97,1.96,1.46,6.73,1.67,9.35c0.38,4.69,1.59,9.11,3.56,13.1c0.45,0.91,1.74,0.32,2.02-0.59c0.67-2.15,1.2-4.33,1.59-6.52
		c1.73,5.28,4.81,9.86,9,13.11c0.64,0.5,2.01-0.05,1.89-1.12c-0.5-4.57-0.28-9.27,0.65-13.94c0.79,2.36,1.87,4.6,3.27,6.46
		c0.96,1.27,2.6,2.29,4.23,0.94c0.65-0.53,1-1.29,1.44-2c0.06-0.1,0.13-0.28,0.23-0.35c-0.01,0,0.04-0.05,0.09-0.1
		c0.25,0.87,1.58,1.15,2.01,0.03c0.04-0.1,0.07-0.2,0.11-0.3l0,0v-0.01c3.19-8.62,0.28-16.95-2.64-24.26
		c-0.37-0.92-1.88-0.94-2.14,0.33c-0.32,1.59-1.01,3.13-2.01,4.42c-1.48-4.71-2.48-9.65-2.93-14.73c-0.13-1.45-2.24-1.18-2.22,0.34
		c0,0.26,0.03,0.26-0.17,0.4c-0.2,0.15-0.46,0.24-0.71,0.3c-0.68,0.16-1.37,0.09-1.95-0.18c-1.58-0.74-2.83-2.09-3.69-3.64
		c-0.74-1.33-1.21-2.86-1.38-4.48c0.35,0.55,0.76,1.06,1.21,1.5C787.187,278.603,790.467,279.373,793.517,280.093z M774.297,262.123
		c-1.22,1.22-2.75,2.26-4.36,2.4c-1.39,0.12-2.78-0.46-3.66-1.46c-0.27-0.31-0.5-0.65-0.71-1c-0.41,0.86-1.02,1.62-1.88,2.13
		c-1.54,0.92-3.8,1.25-5.23,0.49c-0.72-0.38-1.13-1-1.36-1.73c-0.84,1.48-2.05,2.71-3.55,3.47c-2.62,1.32-6.01,0.96-7.37-1.29
		c-0.27-0.08-0.5-0.24-0.63-0.51c-0.98-2.08-1.15-4.38-0.62-6.85c0.49-2.3,1.47-4.52,2.39-6.72c0.89-2.14,1.85-4.44,2.13-6.7
		c0.3-2.49-0.14-4.89-0.68-7.18c-0.43-1.85,2.09-2.9,2.74-1.22c0.87,2.24,2.03,4.26,2.9,6.44c0.44-0.46,0.94-0.88,1.52-1.23
		c0.93-0.57,1.9-1,2.88-1.45c0.43-0.2,0.85-0.4,1.26-0.63c0.03-0.02,0.04-0.02,0.06-0.03c0.01-0.01,0.01-0.01,0.03-0.02
		c0.1-0.06,0.19-0.13,0.29-0.19c0.18-0.13,0.35-0.27,0.52-0.42c0.47-0.42,1.15-0.4,1.58-0.13c0.51,0.32,0.59,0.87,0.52,1.5
		c-0.33,2.74-0.13,5.41-0.35,8.14c1.11-0.37,2.07-1,2.84-2.05c0.15-0.21,0.41-0.64,0.59-1.02c0.21-0.43,0.35-0.77,0.47-1.15
		c0.33-1.01,0.53-2.05,0.67-3.08c0.11-0.76,0.92-1.3,1.56-1.31c0.69-0.02,1.23,0.54,1.24,1.28c0.01,1.65,0.11,3.3,0.37,4.89
		c0.25,1.55,0.59,3.18,1.38,4.43c0.53,0.83,1.33,1.19,2.32,1.64c0.99,0.46,1.99,0.97,2.59,1.95
		C778.307,256.083,776.457,259.963,774.297,262.123z"/>
	<path fill="#FFF23D" d="M949.217,99.613c-0.19-3.63-0.85-7.14-1.51-10.63c-0.25-1.35-2.07-0.59-2.17,0.65
		c-0.25,2.84-0.91,5.72-1.98,8.46c-0.34,0.87-0.72,1.72-1.13,2.57c0.26-0.8,0.43-1.63,0.56-2.42c0.49-2.98,0.55-5.95,0.3-8.86
		c-0.51-5.88-2.14-11.39-3.47-16.98c-0.67-2.82-1.29-5.68-1.6-8.62c-0.33-3.08-0.33-6.24-0.07-9.41c0.36-4.45,1.23-8.9,2.27-13.33
		c0.69-0.76,1.3-1.62,1.82-2.64c1.18-2.32,1.45-4.92,0.29-6.96c-0.47-0.83-1.76-0.39-2.02,0.59c-0.7,2.67-1.4,5.34-2.05,8.01
		c-1.09,1.06-2.39,1.85-3.77,2.46c-2.39,1.06-4.88,1.67-7.29,2.65c-2.12,0.87-4.11,2.12-5.79,3.86c-0.57,0.59-1.07,1.24-1.49,1.93
		c-1.07-6.08-2.14-12.15-3.21-18.23c0.26-1.84-0.01-3.66-0.96-5.07c-0.7-1.05-2.24-0.03-2.02,1.21c0.25,1.4,0.49,2.79,0.74,4.19
		c-0.1,0.54-0.25,1.08-0.46,1.61c-0.87,2.18-2.52,3.9-4.32,5.29c-2.02,1.57-4.22,2.83-6.36,4.15c-1.94,1.2-3.89,2.39-5.83,3.59
		c-1.29-11.09-2.98-22.07-5.06-32.9c-0.24-1.27-2.18-0.64-2.17,0.65c0.06,7.92,0.05,17.83-6.61,24.13
		c-3.15,2.98-7.21,4.06-10.94,5.53c-3.52,1.38-6.76,3.32-9.61,6.12c-2.57,2.52-4.63,5.53-6.1,8.81c-1.61-2.36-3.22-4.72-4.83-7.08
		c-0.57-0.84-2.11-0.3-2.06,0.91c0.25,6.01-3.37,11.62-6.39,16.86c-1.59,2.76-3.13,5.55-4.23,8.51c-1.31,3.52-1.8,7.17-1.58,10.73
		c0.13,2.13,0.48,4.2,0.97,6.21c-0.49-0.81-0.93-1.66-1.32-2.54c-0.06-0.13-0.11-0.26-0.17-0.39c-0.55-1.09-2.52,0.06-2.02,1.21
		c0.04,0.09,0.08,0.17,0.12,0.26c0,0,0,0-0.01,0c1.73,3.41-0.56,7.95-2.14,11.44c-1.55,3.43-2.86,6.79-3.33,10.45
		c-0.88,6.86,0.66,13.68,4.22,18.81c1.73,2.5,3.92,4.58,6.49,6.08c-0.06,1.63,0.64,2.82,1.62,3.94c0.99,1.14,2.02,2.23,2.98,3.39
		c0.36,0.44,0.71,0.88,1.06,1.33c0.36,0.9,0.66,1.84,0.91,2.79c0.36,1.36,0.51,2.84,1.18,4.05c0.9,1.63,2.51,2.06,4.15,2.46
		c2.5,4.38,4.6,9.05,6.26,13.96c1.15,3.42,2.09,6.94,2.81,10.55c0.26,1.32,2.1,0.61,2.17-0.65c0.18-3.08,0.27-6.15,0.3-9.22
		c0.55,0.59,1.17,1.11,1.86,1.46c0.9,1.66,1.73,3.37,2.47,5.13c0.49,1.17,2.02,0.71,2.17-0.65c0.24-2.15,0.85-4.3,1.75-6.34
		c0.37-0.54,0.67-1.14,0.89-1.79c1.06-1.93,2.4-3.72,3.95-5.26c0.57,2.17,1.71,4.05,3.39,5.39c0.51,0.41,1.39,0.24,1.74-0.51
		c1.77-3.8,2.93-7.75,3.51-11.77c1.71,0.63,2.92,2.15,3.26,4.13c0.14,0.8,1.36,0.97,1.85,0.23c1.77-2.62,3.53-5.24,5.3-7.85
		c0.12-0.01,0.24-0.01,0.37-0.02c6.43-0.58,12.89-3.66,17.81-8.81c0.15-0.16,0.3-0.33,0.45-0.49c2-0.47,4.3-1.4,5.72-3.05
		c1.52,2.2,3.65,3.88,6.23,4.71c0.69,0.22,1.74-0.31,1.66-1.27c-0.63-7.38-0.37-14.94,0.78-22.5c1.71,2.72,4.49,4.57,7.73,4.97
		c1.08,0.13,1.83-1.39,1.07-2.12c-1.58-1.5,0.19-4.32,1.51-5.7c0.99-1.04,2.11-1.95,3.13-2.97c0.96-0.96,1.79-2.03,2.53-3.18
		C948.617,110.903,949.507,104.993,949.217,99.613z M907.507,100.813c-0.13,0.88-0.36,1.72-0.7,2.5c0.17,0.3,0.25,0.68,0.17,1.05
		c-1.01,5.06-5.28,9.11-9.92,10.84c0.16,1.9-1.58,3.72-3.17,4.71c-1.89,1.17-4.07,1.31-6.04,1.17c-1.71-0.11-3.4-0.5-4.96-1.11
		c-0.32,0.24-0.71,0.36-1.09,0.33c-0.73-0.05-1.39-0.36-1.91-0.83c-0.15,0.21-0.29,0.44-0.59,0.72c-0.22,0.21-0.45,0.41-0.69,0.6
		c-0.96,0.79-2.06,1.48-3.19,1.86c-1.25,0.43-2.49,0.54-3.65,0.13c-1.19-0.42-2.07-1.44-2.59-2.61c-0.29-0.66-0.23-1.46,0.38-2.02
		c-1.01-1.33-1.65-3.01-1.95-4.88c-0.52-3.26-0.25-6.9-0.94-9.92c-0.37-1.61,1.72-2.87,2.6-1.56c0.48,0.73,1,1.42,1.54,2.08
		c-0.27-1.85-0.28-3.77,0.1-5.72c0.81-4.16,3.52-7.66,6.8-10.24c1-0.79,2.04-0.11,2.15,0.96c0.29,2.75,0.81,5.43,1.51,8.04
		c1.86-1.19,3.66-2.63,5.29-4.17c2.01-1.9,3.88-4.16,4.89-6.78c0.42-1.08,2.01-1.26,2.46-0.38c1.36,2.64,2.63,5.4,3.5,8.34
		c1.81-2.12,3.64-4.24,5.15-6.58c0.72-1.12,2.2-1.31,2.6-0.04c0.45,1.43,0.92,2.85,1.31,4.31
		C907.367,94.533,907.967,97.623,907.507,100.813z"/>
	<path fill="#FFF23D" d="M291.777,330.563c0.2-3.37-0.04-6.68-0.65-9.87c-0.14-0.7-0.76-0.82-1.3-0.59c0.56-3.07,0.4-6.2-0.16-9.13
		c-0.97-5.09-3.26-9.52-5.07-14.19c-1.05-2.7-1.96-5.52-2.3-8.52c-0.16-1.43-2.21-1.2-2.22,0.34c-0.02,3.17-0.75,6.41-2.13,9.41
		c-0.66-2.62-2.51-4.96-3.84-7c-2.57-3.94-5.15-7.87-7.72-11.81c-1.48-2.26-2.96-4.52-4.43-6.78c-0.71-1.08-2.2-0.02-2.02,1.21
		c0.86,5.9,0.81,12.07-0.13,18.23c-3.93-4.49-7.86-8.98-11.79-13.46c-0.68-0.78-1.79,0.23-1.89,1.12c-0.38,3.6-4.77,6.06-7.45,7.57
		c-3.65,2.05-7.49,3.58-11.38,4.54c-0.37-3.67-0.26-7.45,0.37-11.23c0.14-0.82-0.51-1.68-1.37-1.22
		c-7.74,4.09-15.67,8.36-22.12,14.88c-1.37,1.39-2.65,2.88-3.81,4.47c-1.78-3.5-3.57-7.01-5.35-10.51
		c-0.42-0.83-1.83-0.39-2.02,0.59c-1.96,9.7-2.21,19.47-0.79,28.77c0.09,0.56,0.18,1.11,0.28,1.66c-1.72-2.35-3.53-4.62-5.43-6.81
		c-0.81-0.92-2.36,0.66-1.73,1.68c3.31,5.43,2.3,12.85,1.84,19.45c-0.52,7.48-0.05,14.82,1.58,21.81c0.56,2.4,1.25,4.74,2.07,7.02
		l-3.37-2.55c-0.89-0.67-2.51,0.65-1.73,1.68c1.76,2.33,3.03,5.03,3.74,8.02c0.74,3.12,0.75,6.39,0.34,9.72
		c-0.43,3.57-1.14,7.19-0.89,10.71c0.23,3.24,1.12,6.26,2.17,9.18c1.19,3.33,2.55,6.59,3.32,10.12c0.04,0.17,0.1,0.3,0.18,0.4
		c-0.27,0.24-0.46,0.58-0.46,0.99c0,0.57,0.52,1.17,1.11,1c3.97-1.15,7.94-2.3,11.91-3.44c0.98-0.28,1.41-1.38,0.77-2.11
		c-0.71-0.81-1.42-1.62-2.13-2.43c6.5,1.45,13.6,0.57,20.47-0.92c2.44-0.53,4.87-1.14,7.3-1.76c0.5-0.13,0.92-0.47,1.06-1.02
		c0.12-0.47-0.07-1.11-0.51-1.24c-3.97-1.2-7.38-3.58-9.87-6.87c3.24,1.19,6.19,3.08,9.47,4.19c4.4,1.48,9.19,1.94,14.04,1.35
		c2.74-0.33,5.47-1.02,8.15-2c1.03-0.38,1.07-2.23-0.01-2.25c-3-0.05-5.57-1.77-7.03-4.29c1.03,1.01,2.27,1.78,3.67,2.24
		c2.34,0.75,4.91,0.53,7.44-0.01c2.36-0.51,4.72-1.17,7.04-1.98c4.39-1.53,8.75-3.76,12.3-7.21c3.49-3.39,5.84-7.72,7.24-12.32
		c1.59-5.21,1.99-10.61,2.04-15.83c0.01-1.41-1.74-1.19-2.18,0.03c-1.29,3.61-3,7.11-5.05,10.39c-0.95,1.53-1.97,3.11-3.22,4.41
		c-0.71,0.74-1.66,1.52-2.61,1.68c1.23-2.81,2.13-5.72,2.7-8.65C286.227,353.033,291.127,341.713,291.777,330.563z M224.117,342.063
		c0.13,0.77,0.25,1.55,0.36,2.33c-0.1-0.08-0.21-0.14-0.33-0.17C224.147,343.503,224.137,342.783,224.117,342.063z M220.657,349.333
		c-0.04,0.63-0.09,1.26-0.14,1.89c-0.01-0.03-0.03-0.06-0.04-0.08C220.187,350.583,220.237,349.873,220.657,349.333z
		 M264.007,346.783c-1.32,1.44-3.23,1.64-4.84,1.4c1.02,1.79,2.11,3.93,2.03,6.23c-0.06,1.81-1.08,3.85-2.87,4.48
		c-1.72,0.61-3.41-0.14-4.86-0.77c-0.77-0.34-1.54-0.7-2.32-1.01c-0.81-0.32-1.28-0.5-2.2-0.59c-0.11-0.01-0.22-0.02-0.33-0.02
		c-0.02,0-0.02,0-0.04,0c-0.01,0-0.02,0-0.04,0c-0.19,0.02-0.38,0.05-0.57,0.08c-0.02,0-0.04,0.01-0.07,0.02
		c-0.06,0.02-0.11,0.04-0.17,0.06c-0.06,0.03-0.35,0.19-0.32,0.16c-0.36,0.24-0.69,0.55-0.9,0.76c-0.21,0.22-0.07,0.04-0.24,0.36
		c-0.03,0.06-0.06,0.13-0.09,0.2c-0.01,0.03-0.03,0.07-0.03,0.09c-0.25,0.84-0.29,1.69-0.51,2.53c-0.3,1.15-0.86,2.17-1.74,2.99
		c-1.91,1.79-4.55,2.32-6.79,2.08c-2.36-0.25-4.53-1.21-6.66-2.07c-0.67-0.27-1.37-0.55-2.09-0.8c-0.34,0.18-0.73,0.23-1.14,0.04
		c-0.37-0.17-0.7-0.39-1.02-0.62c-0.6-0.1-1.21-0.16-1.81-0.11c-0.36-0.83-0.6-1.75-0.74-2.69c0.03-0.03,0.06-0.06,0.09-0.08
		c-0.05-0.09-0.09-0.18-0.14-0.28c-0.1-0.78-0.14-1.58-0.13-2.37c0.01-0.83,0.07-1.66,0.16-2.49c0.18-0.21,0.3-0.49,0.32-0.84
		c0.04-0.76,0.06-1.52,0.09-2.28c0.12-0.8,0.25-1.61,0.37-2.41c0.39,0.87,0.7,1.78,0.93,2.75c0.28,1.21,2.29,0.66,2.17-0.65
		c-0.55-6.05-1.5-12-2.87-17.78c0.28-0.84,0.56-1.69,0.81-2.52c0.46-1.53,2.25-1.73,2.74-0.42c0.41,1.09,0.76,2.21,1.1,3.33
		c2.59-5.76,8.78-9.68,14.09-12.57c0.88-0.48,1.81,0.26,1.81,1.17c0,2.53-0.36,5.1-0.82,7.66c5.41-2.11,11.05-2.31,16.45-1.89
		c1.79,0.21,1.04,3.14-0.74,3.01c-0.08-0.01-0.17-0.01-0.25-0.02c-0.01,0-0.01,0-0.02,0c-0.16,0.01-0.32,0.04-0.47,0.07
		c-0.25,0.05-0.44,0.11-0.74,0.23c-0.72,0.28-1.43,0.65-2.11,1.07c-0.56,0.34-1.1,0.72-1.63,1.11c1.67,0.47,3.3,1.08,4.8,1.89
		c2.14,1.15,4.2,2.74,5.08,5.21C265.387,342.313,265.597,345.043,264.007,346.783z"/>
	<path fill="#FFF23D" d="M699.647,283.833c0.37-2.68,0.92-5.35,1.56-8.01c2.61-10.76,6.87-21.29,8.34-32.19
		c0.82-6.08,0.79-12.17-0.86-17.73c-0.29-0.97-1.97-0.9-2.14,0.33c-0.35,2.57-0.83,5.13-1.45,7.67c-0.09-1.5-0.29-2.99-0.58-4.44
		c-1.16-5.74-3.83-10.8-6.92-15.38c-1.79-2.64-3.73-5.15-5.68-7.66c-0.51-0.66-1.82-0.52-2.02,0.59c-1.2,6.55-2.41,13.1-3.61,19.65
		c-3.06-4.7-6.34-9.21-9.85-13.51c-0.71-0.87-2.39-0.11-2.02,1.21c1.07,3.77,2.17,7.57,2.65,11.56c0.48,4.02,0.14,8.1-0.47,12.25
		c-0.61,4.19-1.21,8.37-1.48,12.56c-0.27,4.26-0.31,8.5-0.22,12.71c0.01,0.7,0.04,1.39,0.06,2.09c-1.15-4.29-2.43-8.52-3.85-12.68
		c-0.11-0.34-0.39-0.69-0.78-0.7c-1.51-0.01-2.32,1.41-2.35,2.89c-0.02,0.81,0.15,1.62,0.24,2.4c0.11,0.92,0.22,1.85,0.33,2.77
		c0.43,3.59,0.87,7.19,1.15,10.82c0.51,6.68,0.47,13.57-1.17,20.41c-0.47,1.96-1.08,3.89-1.82,5.78c-0.34-1.09-0.88-2.1-1.5-2.99
		c-1.51-2.17-3.91-4.08-4.13-7.08c-0.07-0.62-0.46-1.1-1.11-1c-0.57,0.09-1.15,0.71-1.1,1.34c0.29,2.46,0.32,4.99,0.05,7.54
		c-0.13,1.26-0.35,2.54-0.64,3.79c-0.19,0.85-0.41,1.81-1.11,2.43c-1.33,1.17-3.44,0.83-4.83,0.56c-1.58-0.3-3.05-0.92-4.39-1.75
		c-5.28-3.27-8.33-10.31-6.77-17.33c1.14-5.11,3.82-10.01,3.09-15.16c-0.12-0.82-1.37-0.95-1.85-0.23l-2.14,3.2
		c2.42-10.13,2.26-20.58-0.42-29.87c-0.93-3.21-2.16-6.28-3.67-9.16c-0.49-0.94-2.15-0.23-2.06,0.91c0.48,6.2-0.28,12.65-2.24,18.87
		c-1.85-11.51-5.73-22.22-10.09-32.58c-1.39-3.3-2.82-6.56-4.26-9.83c-0.22-0.5-0.93-0.53-1.39-0.26c-0.55,0.33-0.72,0.9-0.64,1.48
		c1.27,8.74,1.11,17.95-0.46,27.06c-0.78,4.52-1.98,8.95-3.29,13.39c-1.29,4.35-2.52,8.81-2.49,13.22c0.01,0.81,0.06,1.6,0.14,2.39
		c-0.7-1.4-1.41-2.8-2.11-4.2c-0.51-1.01-2.04-0.18-2.06,0.91c-0.35,16.64-0.66,33.87,5.22,48.69c1.47,3.7,3.29,7.19,5.54,10.34
		c1,3.4,2.41,6.59,4.44,9.32c3.64,4.92,9.27,7.85,15.67,7.32c3.38-0.28,6.82-1.68,9.59-4.19c0.76-0.69,0.69-1.93-0.27-2.09
		c-3.27-0.55-6.7-1.09-9.44-2.92c-1.88-1.25-3.38-3.18-3.85-5.55c9.02,3.9,19.66,4.42,29.88,1.5c2.19-0.63,4.36-1.4,6.49-2.33
		c-2.86,4.11-8.44,5.57-12.64,6.57c-1.03,0.25-1.58,1.82-0.55,2.26c8.59,3.67,19.26,2.72,28.28-2.68
		c8.18-4.89,14.68-13.16,17.78-22.39c2.13-6.34,2.34-12.91,2.23-19.24c-0.02-1.12-1.54-1.4-2.07-0.27c-0.93,1.97-1.85,3.93-2.78,5.9
		c0.07-0.63,0.13-1.26,0.19-1.89C699.147,288.763,699.307,286.303,699.647,283.833z"/>
	<path fill="#FFF23D" d="M590.977,263.503c1.52,1.02,3.38,2.16,5.4,1.09c2.66-1.42,2.68-4.55,2.02-6.87c-0.38-1.33-1-2.53-1.46-3.82
		c-0.54-1.52-0.93-3.13-1.12-4.78c-0.44-3.79,0-7.74,1.28-11.57c0.37-1.11-0.85-1.57-1.63-1.07c-4.2,2.71-9.51,5.95-14.14,4.93
		c1.18-1.51,2.35-3.02,3.53-4.54c0.58-0.75,0.3-1.72-0.5-1.87c-8.81-1.71-19.46-3.31-27.88,3.63c-2-4.21-3.99-8.43-5.99-12.64
		c-0.5-1.05-2.02-0.16-2.06,0.91c-0.22,5.27-0.94,10.79-3.36,15.82c-1.86,3.88-4.74,7.4-8.39,9.43c-0.62-2.71-0.59-5.6,0.11-8.51
		c0.24-1.02-0.79-1.71-1.63-1.07c-10.89,8.31-17.52,22.12-16.83,35.3c0.13,2.45,0.5,4.85,1.1,7.15c-2.08-1.88-4.06-3.89-5.91-6.04
		c-0.64-0.75-1.85,0.2-1.89,1.12c-0.23,6.54,1.85,12.75,5.56,17.37c3.22,4.01,7.46,6.7,12.37,7.89c-0.1,0.19-0.16,0.4-0.15,0.63
		c0.24,4.23,3.09,7.02,6.52,8.46c4.01,1.68,8.74,1.71,13.25,1.07c2.63-0.38,5.28-1.06,7.85-2.01c1.26-0.46,2.51-1,3.74-1.6
		c1.04-0.51,2.27-1.22,3.35-0.93c1.74,0.47,2.3,2.71,2.24,4.49c-0.08,2.14-1.02,4.34-2.3,6.14c-3.04,4.27-7.66,6.39-12.15,8.1
		c0.39-1.67,0.38-3.36-0.05-4.95c-0.19-0.71-1.01-0.9-1.63-0.45c-4.07,3.01-8.97,3.78-13.33,2.95c-4.39-0.83-8.09-3.41-11.06-6.61
		c-1.71-1.84-3.18-3.93-4.5-6.12c-0.56-0.93-2.05-0.24-2.06,0.91c-0.02,2.11,0.13,4.19,0.45,6.21c-2.96-2.54-5.57-5.48-7.77-8.8
		c-0.59-0.89-2.04-0.27-2.06,0.91c-0.12,6.39,0.32,12.7,1.27,18.84c-3.39-2.27-6.62-4.76-9.69-7.47c-0.78-0.69-2.17,0.34-1.85,1.42
		c2.35,7.83,6.59,14.7,12.28,19.93c-0.18,0.18-0.33,0.4-0.41,0.67c-0.97,3.08,2.04,4.68,4.28,5.13c3.18,0.64,6.54,0.85,9.83,0.96
		c6.77,0.21,13.68-0.44,20.53-1.98c3.08-0.69,6.15-1.56,9.19-2.59c-0.92,1.61-2.18,3.01-3.67,4.08c-1.04,0.75-0.45,2.15,0.57,2.09
		c6.57-0.42,13.27-4.17,17.8-9.86c0.53,1,0.76,2.18,0.73,3.42c-0.03,0.89,0.97,1.3,1.67,0.75c5.41-4.28,9.69-10.05,12.31-16.48
		c1.27,0.7,3.03,0.57,4.48-0.1c2.09-0.96,3.77-3,4.75-5.16c2.3-5.06,1.76-10.81,0.78-15.67c-0.4-2-0.97-3.94-1.66-5.81
		c0.57,0.49,1.1,1.04,1.57,1.65c0.52,0.68,1.8,0.5,2.02-0.59c1.93-9.56-3.12-17.47-7.81-24.15c-0.25-0.35-0.79-0.62-1.25-0.34
		c-2.94,1.74-6.02,3.11-9.17,4.04c0.01-2.48-0.63-4.83-1.81-6.81c-0.45-0.75-1.44-0.46-1.91,0.3c-2.86,4.54-8.78,4.99-12.64,3.53
		c-5.25-2-8.97-6.5-13.77-9.26c-1.56-0.89-3.22-1.58-4.99-1.96c7.12-2.74,14.87-1.02,21.5,0.52c0.92,0.21,1.73-1.16,1.24-1.91
		c-1.24-1.91-2.92-3.38-4.87-4.34c7.47-0.51,14.75,1.49,20.5,5.74c2.08,1.53,3.96,3.34,5.57,5.41c0.68,0.88,1.93,0.28,2.06-0.91
		c0.6-5.25-0.48-10.21-1.69-15.01c0.35,0.01,0.72,0.13,1.08,0.3C589.537,262.483,590.247,263.013,590.977,263.503z M534.217,306.013
		c2.86,0.17,5.77,0,8.68-0.27c-1.18,0.68-2.51,1.04-3.81,1.12C537.387,306.963,535.767,306.573,534.217,306.013z"/>
</g>
</svg>
