<?xml version="1.0" encoding="utf-8"?>
<!-- Generator: Adobe Illustrator 27.3.1, SVG Export Plug-In . SVG Version: 6.00 Build 0)  -->
<svg version="1.1" id="Layer_1" xmlns="http://www.w3.org/2000/svg" xmlns:xlink="http://www.w3.org/1999/xlink" x="0px" y="0px"
	 width="384.5px" height="100px" viewBox="0 0 384.5 100" enable-background="new 0 0 384.5 100" xml:space="preserve">
<g>
	<path fill="#FFFFFF" d="M268.5,46l-12.1,15.6c-1.7,2.2,2.1,3.7,4.2,3.7c1.8,0,6.2,0,6.2,0L281.6,46L268.5,46z M370.1,44.5l2.5-3.2
		l-27.3,0l-5.4,0c-3,0-6.8,0.5-7.9,2.1l-14.2,18.3c-1.7,2.2,2.1,3.7,4.2,3.7c1.7,0,11.5,0,11.5,0l20.7,0l3.9-5.1c0,0-19.4,0-21.2,0
		c-2.1,0-3.6-1.5-1.9-3.7l3.4-4.4l25.9,0l2.4-3.2l-25.9,0l3.4-4.5L370.1,44.5z M250.7,46.7c-1.2,1.5-2,2.4-4.9,2.4l-7.7,0l-2.4,3.2
		l10.6,0l-3.3,4.4c-1.2,1.8-2.6,3.7-5.4,3.7l-10.4,0l10.4-13.8c1.1-1.4,3.3-2,6.3-2h8.4L250.7,46.7z M255.8,50.2
		c4,0,5.6-0.6,6.8-2.1l3.7-4.8c1.7-1.8-2-2.1-3.1-2.1l-21.7,0c-8.1,0-13.5,0.7-17,5.1l-14.7,18.9h34.7c2,0,5.2-0.2,6.3-2.1l8.3-10.8
		C260.6,50.7,255.8,50.2,255.8,50.2 M328.9,41.3l-13.1,0L296.8,49l5.9-7.7h-13.1l-15.7,20.4c-1.7,2.2,2.1,3.7,4.2,3.7h6.2l10-13.1
		l8.7,13.1l13.1,0l-10.2-14.9L328.9,41.3z M118.6,41.3c-7.6,0-13.4,0.7-18.9,5.1L76.8,65.4H90l23-19.4c1.2-1,2.4-1.4,4.9-1.4l7.1,0
		l-3.5,4.5H113l-4.2,3.2h10.2l-10.1,13.1h9c2.8,0,5.4-1.6,7.1-3.7l15.7-20.3H118.6z M211,41.3L200.4,55c-1.4,1.8-4.5,5.3-6.9,5.3
		h-10l14.6-19H185l-15.8,20.4c-1.7,2.2,2.1,3.7,4.2,3.7h29c3.1,0,4.2-1.2,5.5-2.8l16.4-21.2H211z M285.2,41.3l-13.1,0l-2.4,3.2h13.1
		L285.2,41.3z M158,41.3h-13.2L129,61.7c-1.7,2.2,2.1,3.7,4.2,3.7h29l3.8-5.1h-22.4L158,41.3z"/>
	<path fill="#FFFFFF" d="M66,53.5c0.1,6.4-2.4,12.3-6.5,16.5c-4.1,4.3-9.8,7-16.2,7.1C37,77.2,31.2,74.6,27,70.5
		c-0.2-0.2-0.4-0.4-0.6-0.6c0.1,0,0.1,0,0.2,0c1.6-0.1,3.1-0.4,4.6-0.7c2.8-0.6,5.4-1.7,7.8-3.3c1.5-1,3-2.3,4.3-3.8
		c0,0,0.1-0.1,0.1-0.1l0,0c0-0.1,0.1-0.2,0.1-0.3l0,0c0-0.4-0.3-0.7-0.7-0.7c-0.1,0-0.1,0-0.2,0c0,0-0.1,0-0.1,0l0,0
		c0,0-0.1,0-0.1,0l0,0c-1.5,0.8-3,1.6-4.6,2.2C36.5,63.6,35.2,64,34,64l0,0c-0.1,0-0.2,0-0.2,0c-0.4,0-0.8-0.1-1.1-0.2
		c-0.3-0.1-0.5-0.3-0.5-0.5c0-0.1,0-0.2,0-0.3c0,0,0,0,0,0c0-0.5,0.4-1.2,0.8-1.8c0.8-1.1,1.9-2.1,3.1-3c1.3-1.1,2.8-2,4.2-2.9
		c1.6-0.9,3.2-1.7,4.8-2.3c0.9-0.3,1.9-0.6,2.8-0.6c0.2,0,0.5,0,0.7,0c0.4,0.1,0.7,0.2,0.9,0.4c0.2,0.2,0.3,0.4,0.3,0.8
		c0,0,0,0.1,0,0.1c0,0,0,0,0,0c0,1.2-0.8,2.6-1.6,3.9c-1.5,2.7-3.7,4.9-6.1,6.8c-0.1,0.1-0.2,0.2-0.2,0.4c0,0.1,0,0.1,0,0.2
		c0,0.4,0.3,0.7,0.6,0.7c0,0,0.1,0,0.1,0c0,0,0.1,0,0.1,0c1.5-0.3,3-0.6,4.5-1.1c3.3-1.1,6.4-2.9,9.2-5c1-0.8,1.9-1.6,2.6-2.7
		c0.8-1.1,1.4-2.2,2-3.3c1-1.9,1.9-3.9,2.6-6c0.3-0.7,0.5-1.4,0.7-2.2C65.4,47.9,66,50.6,66,53.5 M20,54.1
		c-0.1-6.4,2.4-12.3,6.5-16.6c4.1-4.3,9.8-7,16.2-7.1C49,30.4,54.8,33,59,37.1c0.1,0.1,0.3,0.3,0.4,0.4c-0.1,0-0.2,0-0.3,0
		c-1.3,0-2.6,0.2-3.8,0.4c-3.4,0.5-6.8,1.4-10,2.6c-2.4,0.8-4.7,1.9-6.9,3.2c-1.2,0.7-2.5,1.4-3.7,2.3c0,0-0.1,0-0.1,0.1
		c-0.1,0.1-0.2,0.3-0.2,0.5c0,0,0,0,0,0c0,0.4,0.3,0.7,0.7,0.7c0.1,0,0.1,0,0.2,0c0,0,0,0,0,0h0l0,0l0,0l0.1,0l0,0
		c1.5-0.8,3-1.5,4.5-2.1c1.5-0.7,3-1.2,4.6-1.6c1.2-0.3,2.5-0.5,3.7-0.5c0.2,0,0.3,0,0.5,0c0.4,0,0.9,0,1.3,0.1
		c0.4,0.1,0.7,0.2,0.9,0.4c0.1,0.1,0.1,0.2,0.1,0.3c0,0,0,0,0,0c0,0.2-0.2,0.6-0.5,0.9c-0.3,0.4-0.7,0.8-1,1c-0.9,0.9-2,1.6-3.1,2.3
		c-1.5,0.9-3.2,1.5-4.9,2.3c-1.6,0.7-3.2,1.4-4.8,2.2c-3.2,1.5-6.5,2.8-9.6,4.7c-2,1.3-4.1,2.9-5.5,5.1C20.6,59.7,20.1,57,20,54.1
		 M42.6,27.1c-14.6,0.2-26.2,12.4-26,27.1C16.8,69,28.8,80.8,43.4,80.5c14.6-0.2,26.2-12.4,26-27.1C69.2,38.6,57.2,26.9,42.6,27.1"
		/>
</g>
</svg>
