<?xml version="1.0" encoding="utf-8"?>
<!-- Generator: Adobe Illustrator 29.2.1, SVG Export Plug-In . SVG Version: 9.03 Build 55982)  -->
<svg version="1.0" id="Capa_1" xmlns="http://www.w3.org/2000/svg" xmlns:xlink="http://www.w3.org/1999/xlink" x="0px" y="0px"
	 viewBox="0 0 2790.5 1110.4" style="enable-background:new 0 0 2790.5 1110.4;" xml:space="preserve">
<style type="text/css">
	.st0{fill:#404550;}
	.st1{fill:#FFFFFF;}
	.st2{fill:#4C555D;}
	.st3{fill:#5F7AA8;}
	.st4{fill:#F6E48D;}
	.st5{fill:#5F7BA9;}
	.st6{fill:#414651;}
	.st7{fill:#424C57;}
	.st8{fill:#F9E78E;}
	.st9{fill:#F88E64;}
	.st10{fill:#F78E64;}
	.st11{fill:#F9F9FA;}
	.st12{fill:#F48F63;}
	.st13{fill:#464B52;}
	.st14{fill:#E78762;}
</style>
<path class="st0" d="M1020.8,706.8c4.1-0.2,10.2-8.5,8.8,2.9c-2.8,0.3-6.2-0.5-8.8,0V706.8z"/>
<g>
	<g id="Capa_1-2">
		<path class="st1" d="M1025.4,1001c-0.5-3.8,0.9-7.1,2.1-10.5c13.4-40.1,35.4-80.5,48.9-121c2.7-5.2,7.9-8.4,13.8-8.1
			c60.1,3.5,125.9-5.2,185.2,2c27.8,3.4,57.8,10.4,44,45.2c-6.8,17.1-20.5,26.1-37.5,31.5c-16.7,5.3-37,8.8-54.3,10.6l56.4,43.7
			l4.3,6.7h-51.4c-4.9,0-8.2,1.1-14.7-0.5c-26.4-6.4-51.2-47.4-76.3-49.9c-5.7-0.6-34.4-0.8-37.9,0.8c-6,2.9-18,49.6-24.4,49.6
			L1025.4,1001L1025.4,1001z M1118.1,923.6h107c3,0,15.7-3.1,18.9-4.7c17.3-8.8,18.1-26.9-5.3-29c-32.8-2.9-69.7,2.4-102.9,0
			c-2.9-0.2-3.9,0.6-5.6,2.8C1128,895.3,1116.9,922.5,1118.1,923.6L1118.1,923.6z"/>
		<path class="st1" d="M881.9,856.9c33.4-2.2,117.2,1.7,141.9,25.5c25.6,24.7,4.2,65.9-17.8,84.9c-49.1,42.5-166.2,46.3-226.6,31.2
			c-48.1-12.1-63.9-43.5-34.1-86.2C773.1,872.7,836.2,860,881.9,856.9z M876.8,885.5c-27.6,2.6-61.4,13.7-74.1,40.4
			c-19.4,40.8,15.7,49.6,48.3,51.7c37.8,2.4,94.6-1.4,112.4-40.9C988.2,881.6,911.1,882.2,876.8,885.5L876.8,885.5z"/>
		<path class="st1" d="M1665.6,915.2h143.2c0.9,4.8-8.8,28.6-12.6,28.6h-142.4c-3.4,20.6,19.3,24,35,26.4
			c21.6,3.4,82.7,5.3,103.6,1.7c7.6-1.3,16.1-8.4,22.7-12.7c46.7-30.1,90.9-64.5,137.5-94.8c9.5-4.1,58-4.7,69.3-2.9
			c5.2,0.8,7,3.1,9.7,7.1c15.6,23.1,35.6,69.6,48.3,96.4c5.5,11.5,11.8,24.1,15.4,35.9h-64.9c-5.7,0-6.9-10.8-9-14.6
			c-4.8-8.9-11-12.8-21.3-14c-39.6-4.4-87.4,3.2-127.8,0.2c-22.3,2.6-34.4,26.6-55.7,28.5c-42.8,3.8-111.7,1.7-155-1.8
			c-33.4-2.7-78.7-14.8-73.2-56.2c8.8-66.1,105-79.8,157.3-81.7c40.8-1.5,82,1.1,122.8,0.3c5.4,1.7-0.1,13.8-1.9,17.7
			c-2.7,5.5-3.8,8.3-10.3,9.9c-41.8,3.4-85.8-2-127.4,0.7C1705.8,891.4,1681.6,897.8,1665.6,915.2L1665.6,915.2z M1910.7,943.8
			c29.3-1.4,59.1,1.1,88.4,0l-22.8-47.1l-69.8,45.5l0.9,3.4C1908.9,945.4,1910.2,943.8,1910.7,943.8L1910.7,943.8z"/>
		<path class="st1" d="M1582.5,909.6c-9.1,9.5-26.7,16.4-39.8,17.4c4.4,5.1,13.3,5,19.7,8.1c28.2,13.9,7.2,44.9-12.9,55
			c-14.9,7.5-33.4,8.2-49.7,10.9l-198-0.1c15.4-39.1,29.8-79,46.3-117.6c2.5-5.8,6.8-19.3,12.5-21.1c56.8,0.9,116.3-3.7,172.9-0.8
			c12.6,0.6,40.7,3.2,51.2,9.4C1599.7,879.8,1592.1,899.5,1582.5,909.6L1582.5,909.6z M1399.4,915.2h107c11.8,0,30.3-17.3,13.1-24.8
			c-33.2,1.8-71.6-3.7-104.2-0.5C1403.3,891.1,1402.3,905,1399.4,915.2z M1375.8,972.4h112c1.7,0,13.8-4.6,15.9-6
			c16.4-10.6,7.4-23.5-9.1-24.4l-104.2,0.5C1383.8,942.3,1374.4,970.9,1375.8,972.4z"/>
	</g>
	<g>
		<g>
			<path class="st2" d="M1362.8,588.9c0.9-1-1.4-8.5,0.4-11.4c3.2-5.2,50.2-0.5,59.7-3.6c0.8,14.6,22,25.2,22.1,36.9
				c0.1,12.6-27.8,72.2-36.7,83.9c-7.5,9.9-23.1,13.9-35.2,14.9c-39.3,3.2-43.9-33.4-80.6-38.7c-2.6-30.1-7.2-60.4-6.1-90.8
				c14.4,0.3,24.3-10.7,39.4-8.9C1335.6,572.5,1358.2,593.9,1362.8,588.9z M1295.4,586.3c2.5,21.7-0.9,54.7,2.6,74.8
				c2.5,14.4,40.6-1.9,45-11c11.7-24.7-18.5-22.7-18.4-27.3C1364.3,595.4,1332.8,567.3,1295.4,586.3z M1418.8,580.1
				c-27.3-5.3-12.9,10.9-25.1,26.5c-6.8,3.5-11.7-33.8-22-23.5c-2.7,2.7,12,30.7,11.6,39.5c-0.4,8.8-18,36.6-14.6,40
				c1.7,1.6,10.4-0.1,11.3-4.8L1418.8,580.1z M1371,604.3c-2-1.9-16.1-3.8-19.9-9.5c1.5,9.6-10,19.4-9.1,27.6c0.2,2.1,5.1,1.9,6,3.9
				c12.6,26.2-4.9,39.8-29.4,45.1l29.6,24.9c12.5,9,42.6,4.9,53-5.6c4.2-4.3,17.9-33.3,21-40.9c2.1-5.1,13.5-34.1,13.6-36.4
				c0.3-4.7-12.5-22-17.1-18.6c-9.4,17-16,36-25,53.2c-8.7,16.7-14.1,31.8-33.8,15.9C1364.4,650.1,1384.2,617.2,1371,604.3z"/>
			<path class="st3" d="M1371,604.3c13.3,12.9-6.6,45.8-10.9,59.5c19.7,15.9,25.1,0.8,33.8-15.9c8.9-17.1,15.5-36.2,25-53.2
				c4.5-3.3,17.4,13.9,17.1,18.6c-0.1,2.3-11.5,31.3-13.6,36.4c-3.1,7.5-16.8,36.6-21,40.9c-10.5,10.5-40.5,14.6-53,5.6l-29.6-24.9
				c24.5-5.3,42-18.9,29.4-45.1c-0.9-1.9-5.8-1.8-6-3.9c-1-8.3,10.5-18.1,9.1-27.6C1354.9,600.5,1369,602.4,1371,604.3z"/>
			<path class="st4" d="M1295.4,586.3c37.3-19,68.9,9.1,29.2,36.5c-0.1,4.6,30.1,2.6,18.4,27.3c-4.3,9.1-42.4,25.4-45,11
				C1294.5,640.9,1297.9,607.9,1295.4,586.3z M1306.8,612.5c6.4,0.3,15.9,0.2,20.7-4.4C1342.3,593.9,1297.9,578.7,1306.8,612.5z
				 M1313.2,653.3c8.3,5.3,23.6-3.7,16-14.5C1320.2,626.2,1300.8,645.4,1313.2,653.3z"/>
			<path class="st4" d="M1418.8,580.1l-38.7,77.6c-0.9,4.7-9.7,6.5-11.3,4.8c-3.5-3.4,14.2-31.2,14.6-40
				c0.4-8.8-14.3-36.9-11.6-39.5c10.3-10.3,15.3,27,22,23.5C1405.8,591,1391.5,574.8,1418.8,580.1z"/>
			<path class="st2" d="M1306.8,612.5c-8.9-33.8,35.4-18.6,20.7-4.4C1322.7,612.7,1313.2,612.8,1306.8,612.5z"/>
			<path class="st2" d="M1313.2,653.3c-12.4-7.9,7.1-27.1,16-14.5C1336.8,649.6,1321.5,658.6,1313.2,653.3z"/>
		</g>
		<g>
			<path class="st5" d="M470,102.7c0.1,0.2-2.8,2.2-2.3,4c3.6,13,161.3,164.3,186.1,195.4c1.1,1.3,4.6,0.7,4.8,1
				c1.5,2,4.8,11.5,5.9,14.7c20.5,3.2,4.6,52.8,32,50.5c4.3,44,19.4,88.4,26.1,131.5c2.3,14.8,9.7,59.1-12.7,59.6
				c-4.2,0.1-5.4,0.1-8.6-2.9c-12.5-11.4-34.9-123.4-39-146.7c-1.5-8.6-7.8-40.7-6.8-46.2c0.7-3.7,11.8,1.2,14.5-6.4
				c2.6-7.2-2.8-31.2-5.5-39.4c-11.5-1.8-100.6,14.4-104.8,20.5c-3,4.4,4.3,35.1,8.8,38.7c7.2,5.9,14.3-0.5,22.4-0.3
				c17.8,65.3,22.6,136.2,50.5,198.5c20.4,45.5,57.4,79.6,108.4,50.3c48.1-27.6,40-85.3,35.5-132.4c-4.7-49-20-97.5-22.3-146
				c21.8-1.3,10-28.4,13.6-32.1c0.8-0.8,19.6-2.7,23.4-3.1c-2.1,10.8,2.3,21.1,2.9,31c5.1,76.5-2.4,153.3,9,230
				c1.2,10.7-8.8,9.1-15.1,14.4c-12.6,10.4-10.7,33.5,2.3,42.4c37.8,0.7,76.3-1.1,113.6-6.1c14.3,0,4.1-38.7,1.9-40.2
				c-5.1-3.5-18.3,5-23.4,1.4c-14.1-10.1-19.4-89-14.6-107.8c34.8,46.2,36.5,102.3,89.8,135.6c25.7,16.1,63.5,21.6,92.5,17.2
				c-2.1-15.2,0.9-118-3.2-122.6c-3.2-3.6-33.1-8.6-37.8-5.3c-5.4,3.8-0.8,26.5-5.7,34.1c-40.9-11.3-43.4-60-62.3-86.4
				c-6.1-8.5-15.9-10.6-17.2-19.6c40.7-5.4,66.9-46.1,58.9-85.5c14,10.9,29,21.1,42.6,32.5c28.2,23.6,58.3,44.9,51.4,86.7
				c-2.5,15.2-16,13.5-20.2,26.3c1.4,8.3,74.7,50,85.3,60c3.1,18-3.1,38.7-3.1,55.2c0,4.9,3.1,10.1,3,14.9
				c-0.3,20.6,0.4,40.8-2.9,61.2c-2.1,8.4-72.7,18.6-84,19.7c-12,1.2-40.5-6.4-42.7,8.9c-3.9,0.2-7.9-0.4-11.8,0
				c1.4-11.5-4.8-3.1-8.8-2.9c-18.5,0.9-40.6-34.1-48.6-32.4c-11.5,2.4,3,33,1.2,39.4c-2.3,8-24.9,4-33.3,5.1
				c-26.5,3.3-39.2,1.8-65.3,2.5c-8.2,0.2-15.1,2.3-23.1,3.3c-10-9.5-13.8-62.1-26.9-62.2c-10.4-0.1-5.9,18.2-10.7,27.7
				c-16.3,32.5-97.6,34.6-126.1,17.8c-13.7-8.1-22.2-39.6-34.1-36.6c-9,5.9,0.3,11.7,1.3,19.3c9.7,76.3-102.4,103.2-154.1,68.6
				c-8-5.3-19-27.1-24-26c-15,3.3,15.3,45.2,13.2,47.1c-26.7,3-52.6,11.8-78.9,16.9c-15.6,3-32.3,3.3-47.8,6.7L252,737.7l115.8-25.6
				c9.3-3.1,4.2-33.1,0.6-37.8c-4.9-6.5-22.3-0.1-31-4.3c-16-7.8-28.1-63.1-31.5-80.4c-3.8-19.3-23.3-139.5-17.2-148.1
				c4.5-6.4,41.3-6.9,49.6-5.1c16.7,3.7,9.5,22.7,16.7,27.4c9,5.9,31-4.9,35.3-1.3c4.9,12.8,1.6,26.7,3.5,39.2
				c6,38.8,33.3,108.4,60,137.4c41.4,45,124.7,50,143.9-18.2c19.4-69.1-19-194.4-65.8-248.4c-61.7-71.2-143.5-17.5-138.4,66.2
				l-17-55.2l-0.7-18.5c-4.5-4.6-111,13.9-128.3,14.8c-5.2,0.3-10.4,0.8-14.8-2.9l-45.5-41.4c35.7-11.7,81.1-11,115.8-21.4
				c4.9-1.5,6.2-4.4,7.9-5.2c2.9-1.3,5.9-5,8.8-5.9c0.2-0.1,2,2.4,4,2c43.6-9.2,92.7-9.1,137.5-10.8c-0.4-6.8,0.6-13.9,0-20.6
				c-0.2-2.7-2.9-5.3-2.9-5.9c-0.9-10.9,3.1-41.6-10.3-44.2c-2.5-0.5-18.4-0.5-19.2,0c-6.3-0.7-6.6-0.4-5.9,5.9
				c-1.2,1.5,2.6,11.1-7.4,11.9c-12.7,1.1-19.7-10.4-19-21.9c1.2-19.9,22.4-6.7,26.4-10.6c1.5-1.5,0.3-38.9-1.4-41.4
				c-4.6-7-16,3.6-22.4-1.1c-9.2-6.8,1.8-42,16.3-22.3c3.2,4.4,4.2,13.8,4.8,14.3c1.3,1.2,26.5,1,29.3-1c8.9-6.2-4.9-59.3,8.7-69.4
				C462.9,93.4,466.4,93.4,470,102.7z"/>
			<path class="st6" d="M2355.8,167.5c-11.3,1.2-17.7,2.6-14.7,14.7c3.3,3.9,15.5-10.4,17.7-11.8c6.8-4.5,40.2-28.9,42.8-29.4
				c15.9-3,44,0.7,61.9,0.1c10.1-0.4,20.2-5,30.8-3.1l0,17.7c9.2-5.9,16-16.8,27.8-17.8l137.3,1.4c4.5,3.2,16.1,89.3,13.1,95.9
				c-3.9,8.4-31.1,33.4-30.9,42.8c0.1,3.6,4.8,7.2,5.7,12c3.7,20.5,11.2,85.9,1.5,101.3c-4.3,6.8-11.8,8.9-15.1,12.9
				c-1.8,2.2-1.7,6.6-3.9,9.3c-2.5,3.1-14.8,13.7-14.8,14.8v54.5c14.4-1.9,62.7-2.5,68.6-15.4c3.8-8.3-1.2-17.8,7.1-22.3
				c11.6-6.3,22.8-6.1,26.1,8.1c2.3,9.5,8.5,71.5,6.6,77.7c-1.6,5.3-32.5,42.1-39,52.4c-5.7,9.2-26.7,54.1-31.3,57.1
				c-4.9,3.2-30.2,9.3-37.1,10.1c-35,3.8-78.9,7-114.4,9.3c-21.4,1.4-14-0.6-21-18c-10.7,4.8-45.8,0.5-51.4,4.5
				c-3.4,2.4-2,11-7.6,13c-14.9,5.2-83.7-5.5-91.9,4.1c-6.4,7.4,7.3,7.3-18.2,8.1l-2.9-8.8c3.1-0.5,9.6,1.3,11.4-0.4
				c1.9-1.8-0.4-12.1,7.8-11.4l88.1-2.7c3.3-1,1.3-8.4,4.5-10.7c10.5-7.4,58.5-1.6,73.9-7.2l1.7,20.7c49.2-8.2,98.4-11,148-15.4
				c9.8-15.3,18.6-30.2,24.7-47.5l37.7-52.1l-174.8,6c-5.7-1.3-6.6-31.8-7.8-38.4c10.3-2.9,16.2-4,17.8-16.1
				c3.1-23.2-2.7-52.9,0-76.9c-7.2-73.9-12.7-148-11.9-222.4c-30.5,3.1-18-3.4-20.6-25c-15.6-7.1-9.4,13.6-14.5,20.8
				c-4.5,6.5-17.2,6.5-17.8,7.3c-2.6,3,10.2,68.1,11.6,78l8.9,192.9c0.7,0.8,14-6,19.2,2.9c1,1.7,6.2,32.2,7.3,38.3
				c-32,8.9-69.7,6.7-102.4,11.2c-9.8,0.4-8.2-28.6-5.2-34.8c4.6-9.5,20.8-4.6,22.1-5.9c2.5-2.4-5.6-59.6-6-69.1
				c-2.6-58.6-3.5-112.2-8.7-171c-0.9-10,3.7-42.6-4.8-45.2c-19.7-6.2-32.1,9.9-27.6-26.9c-17,15.5-41.2,21.4-55.3,40.4l-30.3,129
				c0.5,11.1,20.7,37.8,27.2,49.6c17.4,31.9,34.5,63.9,51,96.3c5,6.4,19.1-0.2,22.5,4.6c3.3,4.6,4.8,28.9-0.1,32.4
				c-3,2.1-69.8,3.3-73.5,0.9l-54.9-114.6c-5,0.2,6.4,63.7,4.4,70.8c3.5,3.5,23.4-11.6,23.7,25.2c0.2,24.1-25.5,14.5-42.8,16.1
				c-8.2,0.7-17,4.7-24.4,5.1c-10.2,0.5-24.2-4.2-35.6-2.6c-3.8-2.4-4.7-39.3-3.3-40.7c3.4-3.3,16,7.3,14.7-16.2
				c-3.4-60.7-17.6-127.3-23.6-188.7c-1.2-12.5-3-83.6-6.3-86.5c-3.2-2.9-21.4,1-17.3-21c-4.5,1.9-19.9,20.2-20.3,22.5
				c-0.5,3.3,4.9,7.1,5.5,11.5c2.8,20.6,3.8,33.7-20.5,30.8c4.5,14.3,1.7,28.6,3,42.7c5.6,62.5,12.8,165.2,27.3,223.3
				c4.1,16.5,26.2,3.2,31.2,11.4c0.9,1.5,4.2,33.3,3.1,34.6c-3.3,3.9-80.3,10.3-89.6,3.3l-61.8-171l4.4,134.1
				c0,11,15.5,4.7,19.4,10.1c6.6,9.1,2.3,27.3-12.2,29.5c-8.9,1.3-28.9,3.1-38,3.2c-8.5,0.1-58-3-60.1-6.4c-1-9-1.7-30.6,5.7-36.3
				c2.1-1.6,7.2-0.9,8.2-1.9c5.7-5.9-7.4-97.7-8.4-113.1c-2.9-46.8-1.1-94.5-5.9-141.4c-0.5-5.1-1.9-27-2.9-28
				c-4-4.1-33.7,11.6-26.6-23.6c-9.9,9.1-26.8,19.2-26.6,33.7c10.5,60.4,16,121.9,27.5,182.1c2.1,11,6.5,41.1,10.2,48.7
				c3.8,7.9,13.4,6,15.4,11.4c2.1,5.4-2.7,8.7-2.8,9.9c-1.6-0.4-5.3,0.5-5.9,0c-0.3-0.3,0.6-3.8-0.9-4.9c-11.2-7.6-14-4.1-18.4-21.5
				c-18.3-72.6-37.8-195.1-42.6-269.7c-1.4-21.1,0.7-12.1,8.7-17.9c3.1-2.2,5-8.4,3.2-10.2c-2-2-48.8,0.4-57.6,0.1
				c-11.9-0.3-45.2-10.8-48.6,4.3c-2.6,11.6,9.2,5.3,13.4,13.2c-1.7,72.1-14.6,144.6-22.2,216.6c-1,9.8-2.2,63.4-6.3,65.9
				c-3.3,2-13.1-0.7-14.4,0.4c-1.1,1,0.8,24.5,0,29.5h72.2c7.3,0,9.3-9.9,7.5-16c-0.4-1.3-14.1-3.8-15.1-11.9
				c-4.8-38.2,4-86.3,6.6-124.8c5.8-2.9,18-5.8,23.3-2.2c5.3,3.7,27.2,113.2,28,125.3c0.9,15.4-22.2,15.5-13.3,26.4
				c3.2,4,44.5,3.3,52.9,3.1v2.9c-2,1-3.4,1-5.9,2.9c-1.1,0.9-2.3,1.6-2.9,2.9v2.9c-10.8-0.4-33.1-1.3-42.7-3
				c-12-2.2-13.1-21.6-10.6-30.5c0.9-3.3,8.3-1.5,10.7-4.5c5.8-7.1-24.3-100.8-22.3-118.1l-8.8,0c-0.4,14.9-10.5,113.2-5.8,117.7
				c0.7,0.6,8-0.2,11.6,1.6c11.2,5.6,6,33.9-1.4,33.9h-95.8c1.6-18.7-2.9-49,20.8-51.9c0-68.2,13.9-135.4,20.4-203
				c1.1-11.5,5.4-50.5,3.1-58.6c-0.5-1.8-19.5-5.2-16.4-19.5c-10.2,3-13.6,12.2-18.9,16.5c-5.6,4.5-11,7-17.9,13l-2.9-2.9
				c1.1-0.8,14.2-15.8,18-18.8c4.3-3.4,31.4-25.4,33.5-25.4h109c7.4,0,10,23,5.9,29.5c-1.9,3-8.8,3.6-10,7.8
				c-1.4,4.6,5.3,17.7,2.7,24.6c6.2,6.7,25.8-20.9,30.8-23.7c10.2-5.9,68-2.5,82.6,0.2c8.6,1.6,13.5,11,17.8,17.7
				c6.5,0,13.2-12.5,19.4-16c21.7-12.2,61.3,4.9,86.1-2.3c10.1-2.9,30.3-40.7,44.9-43.5c8.7-1.7,83.7-0.1,86.8,2.9
				c1.8,1.8-2.5,14.8,1.5,17.6c8.1-1.7,24.7-22.3,27-23.1c4.5-1.5,49.3-1.5,55.4-0.4C2363,140.9,2359.3,157,2355.8,167.5z
				 M2349.9,149.9c-11.2-0.2-22.6,0.3-33.8,0c-5.6-0.2-13.6-6-17.7,0L2257.1,309c-4.8,1-6.5-3.6-7.2-7.5
				c-7.8-39.3-6.4-83.9-14.8-123.6c1.2-14.7,26-5.2,20.6-25.1c-16.7,0-31.7-3.7-48.8-3.1c-4.1,0.1-26.8,2.1-27.8,3.1
				c-0.6,0.6-0.5,16.4,0.3,17.3c1.8,2.2,15.3-0.8,17.4,10.6c-0.6,23.6,0.6,47.3,3,70.7c7,68.5,24.1,148.1,26.6,215.3
				c0.9,25.3-13.9,15.6-17.8,19c-0.7,0.6,2.6,16.8,3.2,17.4c9,8.5,67.3-7.1,82.2-2.7c-0.1-15-7.5-14.9-17.8-22
				c-10.4-35.3-9.6-75.4-17.6-112.1c-1.3-5.9,3.5-5.2,7.6-4.6c8.7,1.5,64.2,125.4,73.5,141.6c5.6,5.8,55.4,2,57.5-0.1
				c0.4-0.4,0.5-11.2,0-11.7c-1.2-1.2-23.6,0.5-25.9-16.8L2294,333.7l41.1-170.7C2344,160.8,2352,161.8,2349.9,149.9z M2653.3,147
				l-132.6,2.9c0.9,6.5-1.6,16,0.4,21.8c2.2,6.3,14,1.7,17.1,18.3c7.6,41.3,3.6,92.8,6.2,135.3c3.2,53.4,15.1,111.2,8.9,165.1
				c-2.5,21.7-29.2,19.4-10,39.3l155.8-5.5l13.4-4.9c-4-9.9-2-59.5-6.2-62.9c-0.3-0.3-8-0.3-8.7,0.1c-2.9,1.9,1.5,23.7-24.2,30.3
				c-10.1,2.6-44,7.4-54.4,7.6c-3.4,0.1-12.1-1-13-4.6l-5.2-131.4c1.5-13.8,19.1-10.6,28.1-6c10,5.1,6.7,19.5,15.5,24.5
				c-3.3-24-3.3-48.3-5.7-72.3c-0.5-5.1,0.7-9.7-4.6-13.1c-7.6-0.9-3.7,9.7-7.2,15.6c-6.9,11.8-27.6,10.1-34.9-3
				c-7.5-13.5-14.6-92.9-6.8-102.8c3.9-4.9,42.3-11.3,48.3-9.6c13.7,4,9.5,36.4,10.9,37.9c0.9,0.9,14.1-0.6,17.7,0L2653.3,147z
				 M2488.4,149.9h-85.4c0.8,4.7-1.1,25.5,0,26.5c1.3,1.3,26.4-3,29.5,5.1c1.9,32.1,6.8,64.5,8.8,96.6c2.6,41.3,1.2,82.5,2.9,123.8
				c0.8,19.8,8.5,52.6,6.1,70.7c-2.7,20.4-21,10.6-23.7,13.1c-0.6,0.6-0.7,17.9,1.5,17.7c10.8-4.5,77.7-3,80.8-13.6
				c0.5-1.7-2.5-15-3.1-15.5c-3.6-3-17.9,5.2-20.3-7.7c-2-10.5,0.8-26.5,0-38.3c-2.6-39.2-3.1-78.9-5.9-117.9
				c-3.1-43.2-10.2-86.3-14.9-129.3c0.8-5.4,20-4,20.8-4.8C2486.4,175.4,2484.8,155,2488.4,149.9z M2285.1,158.7
				c-12.3-2.7-18.6,15.6-26.6,19.1c-5,2.2-14.2,1-14.7,1.5c-3.3,3.1,11.4,78.1,8.9,91.3L2285.1,158.7z M2011.1,194.1h-70.7
				c-7.7,25.6,23.5,9.7,26.5,25c1.2,89.7,13.2,178.9,17.8,268c2,39.4-7.7,20.5-14.5,28.4c-1.9,2.2,0.5,15.7-0.3,20.3l88.4-3
				c4.8-20.4-12.2-7.7-17.4-12.1c-6-5.1-8-137.7-9.2-157.3c-0.7-12.3-3.9-26.9-4.5-39.8c-0.3-5-3.4-7.5,3.1-11.7
				c5.8-1.2,6.6,5.8,8.2,9.4c29.9,68.3,46.4,142.5,76.1,211.1l67.4-2.5l0-17.7c-9.8-0.8-22.5,4.1-27.3-6.6
				c-6.1-13.5-11.1-62.9-13.5-80.8c-8-57.9-20.4-137-21.3-194.1c-0.4-26.6,17.3-12.6,20.9-16.2l-1.3-14.9c-27-5.4-56.2-6.2-84.2-5.7
				c-6.9,19.1,14.5,17.1,14.9,19.4c5.2,32,6.4,64.8,11.5,96.8c-1.9,2.4-3.6,5.3-7.2,4.5C2063,312.4,2020.9,210.1,2011.1,194.1z
				 M2046.4,202.9c-8.3-0.3-13.5,8-11.3,15.4l31.9,64.1l-6.2-57.1C2050.4,217.5,2043.5,219.6,2046.4,202.9z M2632.4,203.3
				c-5-3.2-40.2,4.3-41,7.3c4.8,19.2-5.5,89.8,19.8,92c11.5,1,8.2-15.5,10.5-19.5c0.7-1.2,6.5-2.8,9.5-6.7
				c5.4-7.2,20.3-26.5,22.2-33.9c2-7.8-8.4-1.7-13.2-7.2C2634.9,229.5,2636.3,205.8,2632.4,203.3z M2635.4,400
				c1.5-1.6-8.3-33.1-10-35.1c-2.7-3.2-12-4.1-13.3-2.9c-3.6,3.5,5.4,41.9,2.9,50.1C2625,411.9,2623.9,398.5,2635.4,400z"/>
			<path class="st0" d="M1021,709.7c2.2-15.3,30.7-7.7,42.7-8.9c11.3-1.1,82-11.3,84-19.7c3.3-20.4,2.5-40.6,2.9-61.2
				c0.1-4.8-3-10-3-14.9c0-16.6,6.2-37.2,3.1-55.2c-10.6-9.9-83.8-51.6-85.3-60c4.2-12.8,17.7-11.1,20.2-26.3
				c6.9-41.8-23.3-63.1-51.4-86.7c-13.7-11.4-28.6-21.6-42.6-32.5c7.9,39.4-18.2,80-58.9,85.5c1.2,9,11.1,11.1,17.2,19.6
				c18.9,26.5,21.5,75.1,62.3,86.4c4.9-7.6,0.3-30.3,5.7-34.1c4.7-3.3,34.6,1.7,37.8,5.3c4.1,4.6,1.2,107.4,3.2,122.6
				c-29,4.4-66.8-1.1-92.5-17.2c-53.3-33.3-55-89.4-89.8-135.6c-4.8,18.8,0.5,97.7,14.6,107.8c5.1,3.6,18.2-4.9,23.4-1.4
				c2.2,1.5,12.4,40.2-1.9,40.2c-37.2,4.9-75.8,6.8-113.6,6.1c-12.9-8.9-14.8-32-2.3-42.4c6.3-5.3,16.3-3.7,15.1-14.4
				c-11.5-76.7-3.9-153.5-9-230c-0.7-9.9-5.1-20.2-2.9-31c-3.8,0.4-22.6,2.2-23.4,3.1c-3.7,3.8,8.2,30.9-13.6,32.1
				c2.3,48.5,17.6,97,22.3,146c4.5,47.1,12.5,104.8-35.5,132.4c-51,29.3-88-4.8-108.4-50.3c-27.9-62.3-32.7-133.2-50.5-198.5
				c-8-0.2-15.2,6.2-22.4,0.3c-4.4-3.6-11.8-34.3-8.8-38.7c4.2-6.1,93.3-22.3,104.8-20.5c2.7,8.2,8.1,32.2,5.5,39.4
				c-2.7,7.6-13.8,2.7-14.5,6.4c-1,5.6,5.3,37.6,6.8,46.2c4.1,23.3,26.5,135.3,39,146.7c3.3,3,4.4,3,8.6,2.9
				c22.4-0.5,15.1-44.7,12.7-59.6c-6.8-43.1-21.9-87.5-26.1-131.5c-27.5,2.3-11.5-47.3-32-50.5c-1.1-3.2-4.4-12.7-5.9-14.7h5.9
				c1.9,2,10.3,8.6,12.5,9.6c17.9,7.8,73.5-13.3,96.5-9.6c-5-20.8-7.4-29.8,13.9-37.6c50.6-18.3,117.1-7.9,159.7,24.6
				c15.2,11.6,28.2,29.9,43,42.4c37.9,31.8,129.5,79.7,102.2,140.7c-3,6.8-12.9,9.9-8.2,18.5c6.4,11.7,70.5,40.7,74.7,55.1
				c-2.2,25.4,7.7,130-6.8,145.2C1137.8,707.1,1045.1,708.3,1021,709.7z M864.9,546.2c-2.9-23.4,0-57.7,0-82.5
				c0-11.5,19.7,5.2,23.1,9.3c14.8,17.6,21.2,46.1,31.3,66c28.8,57,61.1,83.3,128.3,82.4c2.7-18.2-2.5-37.3-3.1-54.4
				c-0.3-8.4,3.1-46.7,1.8-48.7c-3-4.8-13.9-6.5-19.3-5.9c1.7,65.5-47.6,23.7-64.9-7.2c-15.3-27.3-11.6-50.1-45-67
				c-10.9-5.5-23.5,0.1-19.7-17.1c46.3,8.3,98-30.5,79.2-80.7c-7-18.9-46.2-50.9-64.5-59.2c-38.5-17.4-84.2-14.4-124.8-6.9
				c-8.8,1.1-3.2,27.3-1.6,28.7c3,2.5,20.6-3.1,24.9,3.1c1.2,1.8,3.9,36.6,4.2,42.9c1.8,35.1-0.9,71.6,0.6,106
				c1.9,41.1,6.6,82.7,11,123.6c-0.4,16-31.6,14.7-23.4,39.9l106.1-5.9c0.3-28.6-10.4-13.3-21.8-15.4
				C879.6,595.7,865.9,554.5,864.9,546.2z M764.7,314.9l-79.6,8.9c-1.2,1.1,5,28.2,6.2,29.2c2.3,1.9,13.3-0.9,14.5,0.3
				c0.5,0.5,0,11.2,0.8,15.4c8.4,43,31.3,120.6,31.7,160.1c0.2,19-6.5,40.5-28.4,42.6c-26.1,2.4-36.6-58.9-41.6-78.9
				c-10.3-41.5-16.5-84-24.5-126c-0.5-18,12.1-12.8,14.7-16.3c0.6-0.8-2.2-19.5-2.9-20.2c-3-2.9-81.4,12.3-82.5,16.3
				c-0.9,3.2,1.7,20.6,3.3,21.7c3.3,2.3,17-6.8,20.8-1.2c4.2,6.3,10.9,35.9,13,45.3c7.5,32.5,11,65.6,19.9,98
				c13.6,49.4,43.5,143.9,112.7,105.5c43.5-24.1,34.8-77.4,30.8-119.4c-4.9-51.1-18.2-102.8-26.4-153.5
				C747.4,332.9,772.7,338.6,764.7,314.9z"/>
			<path class="st7" d="M1147.7,93.9c5.2-7.7,11.9-28.1,22.7-31.8c14.7-5,50.3-7.9,67.2-9.4c9.4-0.8,49.9-5,54.7-1.7l16.8,86.3
				c0.6,9.3-6.4,31.4-5.4,37.1c0.2,1.1,8.2,6.8,12,16.7c0.8,2.1,2.7,5,2.9,5.9c2.9,11.8,3.1,26.1,3,38.3c8.1-0.3,15.9-7.1,17.7,4.6
				c2.6,16.2-5.5,54.8-6.1,73.4c-1.4,45.5,4.7,100.2-0.9,144.1c-2,15.9-22.7,25.1-27.1,40.1c-3.1,10.4-0.7,21.9-1.4,32.6l103.1-3
				l0,11.8c35.8,4.2,71.7,1.5,107.7,2.8c7,0.3,13.4,3,20.4,3.2c21.9,0.7,57.3-3.7,76.7,0c15.4,2.9,15.7,24.9,22.7,36.3
				c23.4,38.2,73.1,22.7,108.6,19.6l-3,23.6c20.6,0.3,39.7-3.6,60.5-3c15,0.4,35.1,5.7,50,6c19,0.4,55.5-7.5,73-5.3
				c3.5,0.5,15.6,6.7,16.6,10.2l-5.6,71.7c36.8-13.8,76.1-6.9,114.6-12.1c27.3-86.4,30.1-0.3,34.4,0.4c12,2.2,24-3,35-3.2
				c22.5-0.3,44.2-2.9,65-3.1c8.4-0.1,30.1,8.2,35.5,0.4c4.4-6.3-2.4-18.1,11.4-24c14.4-6.2,33.2-0.3,48.9,0.3v8.8
				c-7.3,0.1-45.1-1.2-46.8,0.3c-3.6,3,0.4,26.7-10.6,26.2l-144.2,5.6c-7.3-1.8-3.6-23.1-9-29.1l-15.1,29.1
				c-41.4,2.6-84.7-2-123.1,15c-14-3.4,6.4-69.9-4.6-80.9c-9.5-9.6-82.9-1.1-101.9-1.3c-16.1-0.1-32.3-3.6-50.1-3.2
				c-7.3,0.2-39.3,6.4-42.6,3.1c-1.1-1.1,0.8-19.2,0-23.6c-26.8,5.4-71.9,8-94.2-10.4c-11.3-9.4-18.2-41.8-28.7-45
				c-56.7-3.7-117,0.1-173.2-3.5c-5.6-0.4-29.1-2.4-32-3.4c-5-1.7-4.1-9.8-12.2-11.4c-27.2-5.3-67.2,4.8-95.8,0v-42.7
				c0-8.3,29.5-35.9,29.5-38.3V294.2c-15-0.4-13.4,13.6-19,23.7c-6.1,10.9-24.8,47.9-35.5,49.9c-7.9,1.4-26.2,2.6-35.2,3.1
				c-10.2,0.6-41.9,1.7-49.6-0.7c-8-2.4-12-18.2-16.1-25.1c-6-10.2-9.1,4.4-15.5,9.4c-37.2,29.1-87.7,24.2-119.3-10.2
				c-4.2-4.6-32.5-37.8-33.4-40.3c-4.2-11.9-2.3-37.4-6.4-51.1c4.4-0.8,22.5,1.1,23.6,0c1.1-1.1,0.3-26.1,0-30.9
				c-2.6-35.4-24.4-61.8-31.1-95.6c-2.2-11.4-7.4-39.2,1.8-45.7c10-7,66.5-8.7,80.8-7.5c24.7,2.1,52.4,12,72.2,26.5
				c1.7,1.2,4.4,1.7,5.9,2.9c50.5,42.3,37.1,113.9-0.1,160.5c-29.9,37.5-77.4,50-123.7,50.1c27.6,45.4,73,67.2,120.6,32.2
				c8-5.9,17.9-24.9,25.3-25c12.1-0.1,6.2,33.4,21.2,37.9c20.5,6.1,54.2-4.9,76.1-2.3c7.1-1,8.8-8.8,12.6-13.9l35.9-65.7
				l-123.7,11.8c-4.7-5.3-6.9-3.8-5.9,2.9c-19.2,0.2-19.5-33.5-14.8-36.9c5.2-3.7,19.8-0.6,20.7-11.7L1186,99.8
				c-17.6,2-20.7,0.5-20.7-17.7c-7.3,4.8-7.2,11.3-14.7,17.7L1147.7,93.9z M1286.1,61.6l-111.8,8.7c-6.6,21.3,19.3,17.2,20.7,22.6
				c6.1,24.7-0.5,53.7,6,78.9c-3,16.8,6.1,76.4-6.2,85.4c-8.6,6.4-22.2,0.1-11.8,21l129.4-13.9c-1.8-11.4-1.5-72.3-5.8-75.8
				c-1.9-1.5-8.2,0.2-11.4-0.4c2.2,23.7-2.9,52.7-32.6,45.9c-32.4-7.4-43.4-59.7-2.7-59.2c-3.1-3.7-2.3-18.4-3-19.1
				c-2.6-2.8-21.9,8.6-28.1-14.7c-12.5-47.5,55.8-48.3,54.6-0.1c3-2.4,11.2-2.1,11.9-4.7C1300,120.2,1285.2,80.3,1286.1,61.6z
				 M1003.4,261.9l8.6,40c141.8,28,239.2-191.3,63.2-216.4c-12-1.7-74.6-3.8-80.3,2.9c-1.9,2.3,0.1,30.2,2.7,32
				c3.4,2.4,19.4-8.9,23,2c-3.6,24.4,14.4,117.5,4.9,133.6C1022.1,261.7,1009.5,262.2,1003.4,261.9z M1298,149.9
				c-10.9-3.2-23.5,14-26.4-1.6c-2.2-11.5,2-13.7-7.4-25c-19.7-23.5-32.6,9.9-23.7,17.7c8.2,7.2,21.3-3.1,25,0.1
				c4.2,3.7,2.8,41.9,3,50c-54-13.3-5.2,51.7,11.6,27.8c8-11.5-0.6-24.9,0.8-31.9c1.1-5.4,8.9-5.9,11.3-9.7
				C1294.4,174,1299.5,151.4,1298,149.9z M1012.2,129.2l-14.7,0l11.8,32.4c5.1,0.7,2.8-6.7,2.9-10.3
				C1012.5,144,1012,136.6,1012.2,129.2z M1327.5,247.1c-11.3-2.4-3.9,17.1-5.9,23.5C1332.9,273,1325.5,253.6,1327.5,247.1z
				 M1326,285.4v2.9C1327.9,287.4,1327.9,286.4,1326,285.4z"/>
			<path class="st0" d="M175.4,303.1c1.2,9-10.1,5-9,16.1c0.5,5.2,5,10,10.3,10.2L308,303.1l5.8-1.5l-2.9,7.4
				c-1.7,0.8-3,3.7-7.9,5.2c-34.7,10.4-80.1,9.6-115.8,21.4l45.5,41.4c4.4,3.7,9.5,3.2,14.8,2.9c17.3-0.9,123.8-19.5,128.3-14.8
				l0.7,18.5l17,55.2c-5-83.6,76.7-137.4,138.4-66.2c46.8,54,85.2,179.3,65.8,248.4C578.5,689,495.2,684,453.8,639
				c-26.7-29-54-98.6-60-137.4c-1.9-12.5,1.4-26.4-3.5-39.2c-4.2-3.6-26.3,7.2-35.3,1.3c-7.2-4.8-0.1-23.8-16.7-27.4
				c-8.3-1.8-45.1-1.4-49.6,5.1c-6.1,8.6,13.5,128.8,17.2,148.1c3.4,17.3,15.6,72.7,31.5,80.4c8.7,4.2,26.1-2.2,31,4.3
				c3.6,4.7,8.7,34.7-0.6,37.8L252,737.7l91.3,66.3c-1.7,0.4-5.1,4.4-8.8,2.9c-0.4-0.3-6.2,0-10.3-2.8c-11.5-8-93.1-70.1-95.2-75.8
				c-0.7-1.8-3.5-21.5-3.2-22.6c1.5-5.3,13.2-6.8,17.5-12.1c12.8-15.8,10.4-75.3-0.1-91.5c-40.7-36.2-88.7-65.2-128.4-101.4
				c0.4-18-18.8-85.7-11.6-97.6c6.5-10.7,99.5-18.9,116.4-17.6c2.2-1.9-15.3-22.9-17.5-25.1c-4.6-4.7-18.3-16.3-23.8-20.4
				c-6.2-4.6-14.5-3.1-18.4-11.1c-5-10.4-4.5-26.2,9-28.4C173.3,299.8,175,303.1,175.4,303.1z M465.8,631.5
				c30,30.3,89.9,44.5,114.5,1.3c34-59.8-16.8-218.2-65.9-263.5c-37.4-34.6-92.9-15.5-105.3,33.4
				C391.5,471.3,415.1,580.2,465.8,631.5z M366.8,376.9l-253.1,29.5l11.9,88c31.4,1,22.1-9.7,31-28.9c10.1-21.7,39.5-27.2,61.3-23.7
				c18.2,2.9,21.3,36,24.4,52.2c8.6,44.6,21.2,120.1,21.7,164.2c0.1,8.2-3.3,27.5-6.8,34.7c-4.4,9.2-19,16.1-19.7,17.3
				c-1.3,2.3,4.3,12.7,2.7,17.3l120.6-26.8c1.4-29.4-12.8-12.3-24.3-15c-3.2-0.7-9.7-8.3-12.4-11.3c-24.1-26.6-30.7-84.8-36.3-119.8
				c-3.1-19.6-18.4-113.3-8.8-124.2c6.3-7.2,54.6-7.1,65.9-3.6c24.4,7.6,8.4,31.6,33.8,26.6C380.2,427.3,368.7,402.8,366.8,376.9z
				 M243.1,586l-19.8-126c-8-17.4-52-3.7-58.4,16.8c-2.6,8.4,2.8,22.5,1.7,23.7c-3,3.4-29.7,0.2-32.4,8.8L243.1,586z"/>
			<path class="st0" d="M1495.4,93.9c14.3,1.6,66.5,1.8,73.7,7.3c5.7,4.3,1.9,18.5,2.9,25.1c12-11,27.1-9.9,42.7-8.8
				c53,3.8,98.3,21.9,107.6,79.5c0.8,0.7,13.2-4.9,14.7-5.9l2.9,2.9c-4.6,3.9-5.9,5.4-12,7.7c2.3,25.1-4.1,60.6-21.4,79.8
				c-3.6,4-18.5,10.5-19.5,14.5c-1,4,9.9,16.8,12.2,22.7c4.8,12.2,8.1,39.9,8.4,53.5c0.3,17.1-7.5,53.4-1.5,66.4
				c10.2,22.2,16.5-16.3,17.6-17.7c4.8-6.3,25.4-2.7,27.8,5c1.2,4-10.4,74.9-12.8,83.6c-4.7,16.8-8.1,21.9-26.3,20.2
				c-16.8-1.6-37.8-12.3-48.7-25c-29.4-34.2-9.5-148.9-23.9-163.3c-5-5-5,0.9-5.8,4.4c-8.3,34.4-8.5,78-14.7,113.4
				c23-2.5,26.3,36.5,1.5,38.6c-13.1,1.1-60.1-3.6-73.2-6.7c-17.9-4.3-13.4-40.5-3.9-40.4c3.5,0,8.1,3.6,11.7,2.6
				c8.2-2.2,3.9-25.8,4.8-33.6c8.4-68.7,18.7-143.5,23.6-212.1c0.6-8.5,1.6-37.5,0-43.8c-0.9-3.7-20.5-3-10.4-25.5
				c-12.5,17.7-0.6,67.8-29.3,67.8c-27.3,0.1-15.2-22.3-19.4-26.6c-1.4-1.5-34.9,0.9-41.1,0.1c-4.4,25.2-9.6,50.6-8.9,76.5
				c7.6-0.7,4.9-19.5,5.9-20.6c2-2.1,27.9,1,31,5.8c2.9,4.4-2.2,70.2-5.1,77.7c-2.4,6.1-19.3,7.8-26.1,6.7l-5.7-19.4l-8.9,54.5v48.6
				c35.5,0.1,49.9,1.7,36.3,41.4l-111.2-3.4c-20.5,6.8-18.9-38.2-16.3-40.8c0.9-0.9,16.7-0.7,19.8-3.8
				c4.9-4.8,13.6-118.2,15.8-135.9c4.5-35.4,14.4-74,17.2-109.5c1.1-13.5,4.2-30.7-11.7-33.8c-0.5-2.5,0.8-7.1,0-8.8
				c26.7-0.6,21.9,29.6,20.6,48.6c-2.6,37.2-12.3,78-17.2,115.4c-5.1,38.6-6.6,78.3-13,116.7c-4,24.1-22.3,15.4-22.8,40.5l112,3
				l0-17.7c-13.5-1.4-32.6,5.8-39-9.6c-6.1-14.6,1-84,6.5-101c1.9-6,8.3-17.1,15.9-15.6c7.6,1.6,11.2,23.5,16.6,17.2
				c2.1-2.5,8.2-62.6,5.9-64.8c-8-7.8-13.2,17.6-22.7,20.2c-7.9,2.2-14-2.1-15.5-10c-2.1-10.9,6.4-86.8,16.1-86.8h57.5
				c1.2,0-1.2,22.5,0,23.6c3.6-0.6,9.6,2,12.1-1.7c2.4-3.5,17.1-80.4,14.3-83.6c-22.6-1.6-45.4-6.4-67.7-9V93.9z M1671.2,298.2
				c-2.8-3.1-11.9-5.3-10.7-11.3c1.3-6.8,23.1-2.2,32.3-8.9c5.2-3.8,16.4-21.9,18.7-28.5c15.7-44.6-8.1-101.4-54.5-115.3
				c-8.7-2.6-66.8-11.4-70.1-7.9c-0.8,0.9-3.6,22.5-2.9,23.4c0.9,1.1,9.2,1,11.1,3.7c7.1,9.9-9.2,107.6-11.2,127.6
				c-4.6,47.8-8,91.1-14.4,138.8c-1.4,10.7,1.8,25.2-1,34.4c-3.4,11.5-18.7,6.7-20,8c-0.6,0.6-0.6,17,0,17.6
				c2.8,2.7,66.6,5,76.6,5.9c4.4-22.8-8.7-9.7-12.7-18.3c-3.2-6.7-2.6-22.6-2.1-30.4c2-35.6,14.7-74.7,15.4-111.3
				c3.6-9.9,14.3-1.2,18.5,4c9,11.1,12.5,37,13.5,51.3c3,43.1-14.9,108,34.1,130.9c15.6,7.3,31.6,12.9,35.8-7.8
				c4.7-23.2,7.3-50.7,9.5-74.4c-10.5,10-8,39.3-30.5,26.2c-17.3-10-13.7-37.3-13.6-54.2C1693,362,1700.8,331,1671.2,298.2z"/>
			<path class="st8" d="M187.2,297.2l-2.9-154.7c-3-16.2-28.9-6.2-34.1-13.2c-1.2-1.6-0.2-20.5,2.4-23c10-9.5,111.7-13.8,132-18.4
				c-0.9,4.6,1.6,18.1-0.3,20.3c-0.4,0.5-9.2,1.8-12.6,3.6c-14.3,7.3-37.5,21.6-41.7,37.9c-7.3,28.6-2.5,71,1.6,100.3
				c1.2,8.7,2.8,17.6,3,26.5c43.3,5.2,51.2-25.1,47.1-61.8c4.1,0,12.8-1.6,15.1,1.7c3.4,4.9,9.4,65.1,11.4,77.9c0.4,2.8-0.3,6,0,8.8
				l-131.3,26.3c-5.2-0.3-9.8-5-10.3-10.2c-1.1-11.1,10.2-7.1,9-16.1c1,0,2,0.1,2.9,0C182.8,302.8,185.6,301.6,187.2,297.2z"/>
			<path class="st8" d="M375.7,79.1c0.7,0.7-0.7,5.4,0,5.9c5.3,4,54-6.6,64.9-3c-3.4,9.6,6.2,64.7,2.9,67.8
				c-9.3,9-19.8-20.1-31.7-23c-21.9-5.4-30.7,20.7-26.6,38.5c4.3,18.2,24.1,12.2,25.9,13.9c0.6,0.6,0.7,17.1,0,17.7
				c-0.7,0.7-10.4-1.5-16.5,2.7c-20.4,14.4-7.2,50.9,18.2,53.3c20.6,1.9,16.9-18.4,19-20.5c0.6-0.6,13.7-0.6,14.4,0
				c2.8,2.6,2.3,29.4,3.1,35.2c0.4,2.9-1,4.7,2.9,5.9c-1.3,4.5,4.1,11.2-4.3,11.8c-22.8,1.6-47.9,0.7-70.8,3
				c-8,0.8-44.5,9.3-46.8,8.6c-4.4-1.3-8.2-23.3-7.3-27.2c1-4.3,11.4-11,14.9-17.7c1.9-3.6,8.2-24.3,8.2-27.1V118.9
				c0-4.6-12.4-8.7-14.7-10.3c-2-1.4-5.7-2.7-5.9-2.9c-4.7-5-2.9-11.7-2.9-17.7c6.3,0.7,6.6,0.4,5.9-5.9c1,0.1,2-0.2,2.9,0
				c13.7,2.7,10.9,4.9,28,2.9c5.6-0.7,12,3.5,10.3-5.8C371.6,79.3,375.4,78.7,375.7,79.1z"/>
			<path class="st7" d="M343.3,804c15.5-3.4,32.3-3.7,47.8-6.7c26.2-5.1,52.1-13.9,78.9-16.9c2.1-2-28.2-43.8-13.2-47.1
				c5-1.1,16,20.7,24,26c51.6,34.6,163.8,7.7,154.1-68.6c-1-7.6-10.3-13.4-1.3-19.3c11.8-3,20.3,28.5,34.1,36.6
				c28.5,16.7,109.8,14.7,126.1-17.8c4.8-9.5,0.3-27.8,10.7-27.7c13,0.1,16.9,52.7,26.9,62.2c7.9-1,14.9-3.1,23.1-3.3
				c26.1-0.7,38.7,0.8,65.3-2.5c8.4-1.1,31.1,2.9,33.3-5.1c1.8-6.4-12.7-37-1.2-39.4c8-1.7,30.1,33.3,48.6,32.4v2.9
				c-1.4,0.3-4.8,6.8-13.1,5.9c-8.2-0.9-13.6-11.9-22.3-11.8c-1.4,7.1,6.9,17.5-1.9,20.2l-134.8,11.6c-10.3-1.9-16.7-37.1-19.5-46.5
				l-16.3,17.6c-43,32.4-106.7,30.2-148.7-2.9c0.8,57.2-68.4,82.2-116.5,79.6c-10.7-0.6-46.8-13.7-48.5-11.9
				c-3,3.2,6.3,12.2-14.7,19.3c-26,8.8-83.7,18.8-111.6,21.2c-2.5,0.2-15.5,0.9-16.3,0.6c-3.1-0.9-1.4-5.3-1.9-5.7
				C338.2,808.3,341.6,804.4,343.3,804z M963.6,697.9v2.9C965.5,699.9,965.5,698.9,963.6,697.9z"/>
			<path class="st7" d="M308,102.7c-0.6,0.1-3.1,3-5.9,2.9c-1.2,0-5.1-4.2-5.9-2.9c4.6,21.2-16.9,17.4-33.4,27.1
				c-22.8,13.5-25.5,34.3-25.8,59.8c-0.2,15.9,1.4,44.8,3.1,60.5h-8.8c-4.1-29.3-8.9-71.7-1.6-100.3c4.2-16.4,27.3-30.6,41.7-37.9
				c3.4-1.8,12.2-3.1,12.6-3.6c1.9-2.2-0.5-15.7,0.3-20.3c-20.2,4.6-122,8.9-132,18.4c-2.5,2.4-3.5,21.4-2.4,23
				c5.2,6.9,31.1-3,34.1,13.2l2.9,154.7h-8.8c-0.1-50.3-5.3-101-6.3-151.3c-3.9-11.9-21.9,3.7-27.6-4.8c-2.7-4-6.1-33.6-3.7-37.8
				c1.7-2.9,20.4-10.5,25.2-11.6c24.8-6,79.4-12.1,105.2-12.7C290.4,78.6,300.1,84.1,308,102.7z"/>
			<path class="st6" d="M458.2,88c-13.6,10.1,0.3,63.2-8.7,69.4c-2.8,2-28,2.1-29.3,1c-0.6-0.5-1.5-9.9-4.8-14.3
				c-14.5-19.8-25.6,15.5-16.3,22.3c6.4,4.7,17.8-5.9,22.4,1.1c1.7,2.5,2.8,39.9,1.4,41.4c-4,4-25.2-9.3-26.4,10.6
				c-0.7,11.6,6.3,23,19,21.9c10-0.9,6.2-10.5,7.4-11.9c0.5-0.6,5.1,0.7,5.9,0c0.7-0.7-0.6-5.4,0-5.9c0.8-0.6,16.6-0.5,19.2,0
				c13.4,2.7,9.4,33.4,10.3,44.2h-8.8c-0.9-5.8-0.3-32.6-3.1-35.2c-0.7-0.6-13.8-0.6-14.4,0c-2.1,2.1,1.6,22.4-19,20.5
				c-25.5-2.3-38.6-38.9-18.2-53.3c6-4.3,15.7-2,16.5-2.7c0.6-0.6,0.6-17.1,0-17.7c-1.8-1.7-21.6,4.3-25.9-13.9
				c-4.2-17.9,4.7-43.9,26.6-38.5c11.9,2.9,22.4,31.9,31.7,23c3.3-3.1-6.3-58.2-2.9-67.8c-10.9-3.7-59.5,6.9-64.9,3
				c-0.7-0.5,0.7-5.2,0-5.9c22.3-5.6,46.4-6.3,69.3-5.9C452.5,74.2,453.9,83,458.2,88z"/>
			<path class="st6" d="M322.7,88c0,5.9-1.7,12.7,2.9,17.7c-0.3,5-1.1,6.9,4.4,5.9l1.5-2.9c2.3,1.6,14.7,5.7,14.7,10.3V225
				c0,2.8-6.4,23.5-8.2,27.1c-3.4,6.7-13.9,13.4-14.9,17.7c-0.9,3.9,2.8,25.9,7.3,27.2c2.3,0.7,38.8-7.8,46.8-8.6
				c22.9-2.3,48-1.4,70.8-3c8.4-0.6,3.1-7.3,4.3-11.8c2.2,0.7,6.2-0.5,8.8,0c0.6,6.8-0.4,13.8,0,20.6c-44.8,1.7-93.9,1.6-137.5,10.8
				c-1.9,0.4-3.8-2.1-4-2l-2.9-41.3c27.4-10.5,19.2-91,20.7-115.8c-13.6-10.4-28.5-24.6-35.4-40.4c2.8,0,5.3-2.9,5.9-2.9
				c1-0.1,5.2,3.6,5.8,3c0.7-0.6,3.9-13.1,5.9-17.7H322.7z M337.4,129.2c1.9-5.4-9-14.4-11.8-11.8
				C323.7,122.9,334.6,131.9,337.4,129.2z"/>
			<path class="st2" d="M470,102.7c6.5-0.9,9.1,1.8,13.4,5.8C547.6,168,604.4,240,664.5,303.1h-5.9c-0.2-0.3-3.8,0.4-4.8-1
				C629.1,271,471.3,119.7,467.7,106.7C467.2,104.9,470.1,102.9,470,102.7z"/>
			<path class="st2" d="M1474.8,90.9v5.9c-19.7-2.2-42,0.4-61.9-5.9c1.2,6-3.7,13.4-2.5,18.7c0.8,3.3,5.2,4.3,5.4,4.9
				c0.8,1.7-0.5,6.4,0,8.8c-4.2-0.8-10.9,1.6-14.9-1.3c-3.6-2.5-0.9-13.7-7.1-10.5l-61.9,76.6l-13.3,8.8c-0.2-0.9-2.1-3.8-2.9-5.9
				c31.7-34.3,58.6-74.4,94.4-104.5C1423.7,81.2,1458.9,89.3,1474.8,90.9z"/>
			<path class="st0" d="M2308.7,662.6l2.9,8.8c-10.8,0.3-21.6-0.2-32.4,0v-8.8C2290.4,663,2297.2,664.2,2308.7,662.6z"/>
			<path class="st6" d="M369.8,79.1c1.7,9.3-4.7,5.2-10.3,5.8c-17,2-14.3-0.1-28-2.9C342,78,358.5,77.9,369.8,79.1z"/>
			<path class="st4" d="M2358.8,170.5c-2.2,1.4-14.4,15.7-17.7,11.8c-2.9-12.1,3.4-13.5,14.7-14.7
				C2357.1,167.4,2359.3,168.7,2358.8,170.5z"/>
			<path class="st0" d="M1492.5,93.9v5.9c-6.3-0.7-12.2-2.3-17.7-2.9v-5.9C1481.6,91.6,1487.8,93.4,1492.5,93.9z"/>
			<path class="st5" d="M1147.7,93.9l2.9,5.9c-1.1,0.9-2,1.9-2.9,2.9c-1.4-1.2-4.2-1.7-5.9-2.9C1139.5,92.4,1147.4,94.3,1147.7,93.9
				z"/>
			<path class="st2" d="M328.6,82.1c0.7,6.3,0.4,6.6-5.9,5.9h-2.9C321.6,83.7,316.3,81,328.6,82.1z"/>
			<path class="st0" d="M187.2,297.2c-1.5,4.5-4.3,5.7-8.8,5.9c0-2,0-3.9,0-5.9H187.2z"/>
			<path class="st2" d="M1495.4,99.8c-1-0.1-2,0.1-2.9,0v-5.9c1,0.1,2-0.1,2.9,0V99.8z"/>
			<path class="st7" d="M316.8,261.8l2.9,41.3c-2.9,0.9-5.9,4.6-8.8,5.9l2.9-7.4l-5.8,1.5c-0.3-2.9,0.4-6.1,0-8.8l5.9,0
				c-4.1-10.9-2.4-21.4-2.9-32.4C312.7,261.5,315.4,262.4,316.8,261.8z"/>
			<path class="st7" d="M458.2,267.7c0.1,0.6,2.7,3.1,2.9,5.9c-2.7-0.5-6.6,0.7-8.8,0c-4-1.2-2.5-3-2.9-5.9H458.2z"/>
			<path class="st7" d="M428.8,223.5c-0.6,0.5,0.7,5.1,0,5.9c-0.7,0.7-5.4-0.6-5.9,0C422.2,223.2,422.5,222.8,428.8,223.5z"/>
			<path class="st5" d="M1318.6,197l13.3-8.8l61.9-76.6c6.2-3.3,3.6,7.9,7.1,10.5c4,2.9,10.8,0.5,14.9,1.3
				c15.9,3.1,12.8,20.4,11.7,33.8c-2.8,35.4-12.7,74.1-17.2,109.5c-2.3,17.8-10.9,131.1-15.8,135.9c-3.1,3.1-18.9,2.8-19.8,3.8
				c-2.6,2.6-4.2,47.6,16.3,40.8l111.2,3.4c13.5-39.7-0.9-41.2-36.3-41.4v-48.6l8.9-54.5l5.7,19.4c6.8,1.1,23.8-0.6,26.1-6.7
				c2.9-7.4,8-73.2,5.1-77.7c-3.1-4.8-29-7.8-31-5.8c-1,1.1,1.7,19.9-5.9,20.6c-0.6-25.9,4.6-51.2,8.9-76.5
				c6.2,0.8,39.7-1.6,41.1-0.1c4.1,4.3-7.9,26.7,19.4,26.6c28.7-0.1,16.8-50.1,29.3-67.8c-10,22.4,9.5,21.7,10.4,25.5
				c1.6,6.4,0.6,35.4,0,43.8c-4.9,68.6-15.3,143.4-23.6,212.1c-1,7.9,3.4,31.5-4.8,33.6c-3.6,1-8.2-2.6-11.7-2.6
				c-9.6-0.1-14,36.1,3.9,40.4c13.1,3.1,60.1,7.8,73.2,6.7c24.8-2,21.4-41.1-1.5-38.6c6.2-35.4,6.3-78.9,14.7-113.4
				c0.8-3.5,0.8-9.4,5.8-4.4c14.4,14.4-5.5,129.1,23.9,163.3c10.9,12.7,31.9,23.4,48.7,25c18.1,1.7,21.6-3.5,26.3-20.2
				c2.4-8.6,14.1-79.5,12.8-83.6c-2.3-7.7-23-11.3-27.8-5c-1.1,1.4-7.3,39.9-17.6,17.7c-6-13,1.9-49.2,1.5-66.4
				c-0.3-13.6-3.5-41.3-8.4-53.5c-2.3-5.8-13.1-18.7-12.2-22.7c1-3.9,15.9-10.5,19.5-14.5c17.3-19.2,23.6-54.7,21.4-79.8
				c6-2.3,7.4-3.8,12-7.7c6.9-5.9,12.4-8.5,17.9-13c5.3-4.2,8.7-13.4,18.9-16.5c-3.1,14.3,15.9,17.7,16.4,19.5
				c2.2,8-2,47.1-3.1,58.6c-6.6,67.5-20.4,134.8-20.4,203c-23.7,2.9-19.2,33.2-20.8,51.9h95.8c7.4,0,12.6-28.3,1.4-33.9
				c-3.6-1.8-10.9-1-11.6-1.6c-4.7-4.6,5.4-102.8,5.8-117.7l8.8,0c-2,17.3,28.1,111,22.3,118.1c-2.4,3-9.8,1.3-10.7,4.5
				c-2.6,8.9-1.5,28.4,10.6,30.5c9.5,1.7,31.8,2.7,42.7,3c4.9,0.2,9.9,0.2,14.7,0c2-0.1,3.9,0.1,5.9,0c4.8-0.3,13.2,1.7,16.4-2.8
				c2.7-3.7,0.7-10.6,1.3-14.9c0.2-1.3,4.9-4.5,2.8-9.9c-2-5.3-11.6-3.5-15.4-11.4c-3.7-7.6-8.1-37.7-10.2-48.7
				c-11.5-60.2-17-121.7-27.5-182.1c-0.2-14.5,16.7-24.6,26.6-33.7c-7.2,35.2,22.6,19.4,26.6,23.6c1,1,2.4,22.9,2.9,28
				c4.9,46.8,3,94.6,5.9,141.4c1,15.4,14,107.2,8.4,113.1c-1,1.1-6.1,0.3-8.2,1.9c-7.4,5.7-6.7,27.3-5.7,36.3
				c2.1,3.4,51.7,6.6,60.1,6.4c9.1-0.1,29.1-1.9,38-3.2c14.5-2.1,18.8-20.4,12.2-29.5c-3.9-5.4-19.4,0.9-19.4-10.1l-4.4-134.1
				l61.8,171c9.3,7,86.3,0.7,89.6-3.3c1.1-1.4-2.2-33.1-3.1-34.6c-5-8.2-27,5.1-31.2-11.4c-14.6-58.1-21.7-160.8-27.3-223.3
				c-1.3-14.1,1.5-28.4-3-42.7c24.3,2.9,23.4-10.3,20.5-30.8c-0.6-4.4-6-8.2-5.5-11.5c0.4-2.3,15.8-20.6,20.3-22.5
				c-4,22,14.2,18.1,17.3,21c3.2,3,5.1,74,6.3,86.5c6,61.4,20.2,128,23.6,188.7c1.3,23.6-11.2,12.9-14.7,16.2
				c-1.5,1.4-0.6,38.3,3.3,40.7c11.4-1.6,25.4,3.1,35.6,2.6c7.4-0.4,16.2-4.3,24.4-5.1c17.3-1.6,43,8.1,42.8-16.1
				c-0.4-36.8-20.2-21.7-23.7-25.2c2-7.1-9.4-70.6-4.4-70.8l54.9,114.6c3.6,2.4,70.4,1.2,73.5-0.9c4.9-3.4,3.5-27.7,0.1-32.4
				c-3.4-4.8-17.4,1.7-22.5-4.6c-16.5-32.4-33.6-64.4-51-96.3c-6.5-11.9-26.7-38.5-27.2-49.6l30.3-129c14.1-19,38.3-24.9,55.3-40.4
				c-4.5,36.9,7.9,20.7,27.6,26.9c8.6,2.7,4,35.3,4.8,45.2c5.2,58.8,6,112.4,8.7,171c0.4,9.5,8.5,66.7,6,69.1
				c-1.4,1.3-17.5-3.6-22.1,5.9c-3,6.2-4.6,35.2,5.2,34.8c32.7-4.5,70.4-2.3,102.4-11.2c-1.1-6.2-6.3-36.7-7.3-38.3
				c-5.2-9-18.5-2.1-19.2-2.9l-8.9-192.9c-1.4-9.9-14.2-75-11.6-78c0.6-0.7,13.3-0.8,17.8-7.3c5.1-7.3-1.1-28,14.5-20.8
				c2.7,21.7-9.9,28.1,20.6,25c-0.8,74.4,4.7,148.5,11.9,222.4c-2.7,24,3.1,53.7,0,76.9c-1.6,12-7.5,13.2-17.8,16.1
				c1.2,6.6,2.1,37.1,7.8,38.4l174.8-6l-37.7,52.1c-6.2,17.2-15,32.1-24.7,47.5c-49.6,4.4-98.9,7.1-148,15.4l-1.7-20.7
				c-15.4,5.6-63.4-0.2-73.9,7.2c-3.2,2.3-1.2,9.7-4.5,10.7l-88.1,2.7c-8.2-0.6-5.9,9.6-7.8,11.4c-1.7,1.7-8.2,0-11.4,0.4
				c-11.4,1.7-18.3,0.4-29.5,0c-15.7-0.6-34.5-6.5-48.9-0.3c-13.7,5.9-7,17.7-11.4,24c-5.4,7.8-27.1-0.5-35.5-0.4
				c-20.7,0.2-42.5,2.7-65,3.1c-11.1,0.2-23,5.4-35,3.2c-4.3-0.7-7.1-86.9-34.4-0.4c-38.5,5.2-77.8-1.7-114.6,12.1l5.6-71.7
				c-1-3.5-13-9.7-16.6-10.2c-17.6-2.2-54.1,5.7-73,5.3c-14.8-0.3-34.9-5.6-50-6c-20.9-0.6-39.9,3.3-60.5,3l3-23.6
				c-35.5,3.1-85.2,18.5-108.6-19.6c-7-11.4-7.2-33.4-22.7-36.3c-19.4-3.6-54.7,0.7-76.7,0c-7-0.2-13.4-2.9-20.4-3.2
				c-35.9-1.3-71.9,1.4-107.7-2.8l0-11.8l-103.1,3c0.7-10.6-1.7-22.2,1.4-32.6c4.4-15,25.1-24.1,27.1-40.1
				c5.5-43.9-0.5-98.6,0.9-144.1c0.6-18.6,8.7-57.3,6.1-73.4c-1.9-11.7-9.6-4.8-17.7-4.6C1321.7,223.1,1321.5,208.8,1318.6,197z"/>
			<path class="st9" d="M2011.1,194.1c9.9,16,51.9,118.3,63.4,120.8c3.6,0.8,5.3-2.2,7.2-4.5c-5-32-6.3-64.8-11.5-96.8
				c-0.4-2.3-21.8-0.4-14.9-19.4c28-0.5,57.2,0.3,84.2,5.7l1.3,14.9c-3.6,3.6-21.3-10.3-20.9,16.2c0.9,57,13.3,136.1,21.3,194.1
				c2.5,17.9,7.4,67.2,13.5,80.8c4.8,10.6,17.5,5.7,27.3,6.6l0,17.7l-67.4,2.5c-29.8-68.6-46.2-142.8-76.1-211.1
				c-1.6-3.6-2.4-10.6-8.2-9.4c-6.5,4.2-3.4,6.8-3.1,11.7c0.7,12.9,3.8,27.5,4.5,39.8c1.2,19.6,3.1,152.2,9.2,157.3
				c5.2,4.4,22.2-8.4,17.4,12.1l-88.4,3c0.9-4.6-1.5-18.1,0.3-20.3c6.8-8,16.6,11,14.5-28.4c-4.6-89.1-16.6-178.3-17.8-268
				c-3-15.4-34.3,0.6-26.5-25H2011.1z"/>
			<path class="st10" d="M2349.9,149.9c2.1,11.9-5.9,11-14.8,13.2L2294,333.7l77.1,141.1c2.4,17.4,24.7,15.6,25.9,16.8
				c0.4,0.4,0.4,11.2,0,11.7c-2,2.1-51.8,6-57.5,0.1c-9.3-16.2-64.8-140.1-73.5-141.6c-4.1-0.7-8.9-1.3-7.6,4.6
				c8,36.6,7.2,76.8,17.6,112.1c10.3,7.1,17.7,7,17.8,22c-14.9-4.4-73.2,11.2-82.2,2.7c-0.6-0.6-3.9-16.8-3.2-17.4
				c3.8-3.4,18.7,6.3,17.8-19c-2.4-67.2-19.6-146.8-26.6-215.3c-2.4-23.4-3.5-47.1-3-70.7c-2.1-11.4-15.5-8.5-17.4-10.6
				c-0.8-0.9-0.9-16.7-0.3-17.3c1-1,23.7-3,27.8-3.1c17.1-0.6,32,3,48.8,3.1c5.4,19.9-19.4,10.4-20.6,25.1
				c8.4,39.7,7.1,84.3,14.8,123.6c0.8,3.8,2.4,8.4,7.2,7.5l41.3-159.1c4.1-5.9,12.1-0.1,17.7,0
				C2327.3,150.2,2338.7,149.7,2349.9,149.9z"/>
			<path class="st10" d="M1922.7,488.7c-8.4,0.2-49.7,0.9-52.9-3.1c-8.9-11,14.2-11.1,13.3-26.4c-0.7-12.2-22.7-121.6-28-125.3
				c-5.2-3.7-17.5-0.8-23.3,2.2c-2.6,38.5-11.4,86.6-6.6,124.8c1,8.2,14.7,10.6,15.1,11.9c1.8,6.1-0.2,16-7.5,16h-72.2
				c0.8-5-1.1-28.5,0-29.5c1.2-1.1,11,1.6,14.4-0.4c4.1-2.5,5.3-56.1,6.3-65.9c7.6-72,20.5-144.5,22.2-216.6
				c-4.2-8-16-1.6-13.4-13.2c3.4-15.1,36.7-4.6,48.6-4.3c8.8,0.3,55.5-2.1,57.6-0.1c1.8,1.8-0.1,8-3.2,10.2
				c-8,5.8-10.1-3.2-8.7,17.9c4.8,74.6,24.4,197.1,42.6,269.7c4.4,17.4,7.2,13.9,18.4,21.5c1.5,1,0.6,4.6,0.9,4.9
				c-0.4,1.7,0.6,5,0,5.9c-0.2,0.3-1.9-0.2-2.9,0c-4.9,0.9-12.2-0.2-17.7,0C1924.6,488.7,1923.6,488.7,1922.7,488.7z M1857.9,300.2
				c3.4-3.4-6.1-90.1-10.3-94.3c-3.5-3.5-5.6-3.4-10.3-2.9c-2.3,32.7-12.7,64.5-11.8,97.3L1857.9,300.2z"/>
			<path class="st10" d="M2653.3,147l8.9,82.4c-3.6-0.6-16.8,0.9-17.7,0c-1.4-1.5,2.7-33.9-10.9-37.9c-6-1.7-44.4,4.7-48.3,9.6
				c-7.8,9.8-0.7,89.2,6.8,102.8c7.3,13.1,28,14.8,34.9,3c3.4-5.9-0.4-16.5,7.2-15.6c5.3,3.4,4.1,8,4.6,13.1
				c2.4,24.1,2.4,48.4,5.7,72.3c-8.7-5-5.5-19.4-15.5-24.5c-9.1-4.6-26.6-7.9-28.1,6l5.2,131.4c0.9,3.6,9.6,4.7,13,4.6
				c10.3-0.2,44.2-5,54.4-7.6c25.7-6.6,21.4-28.5,24.2-30.3c0.6-0.4,8.3-0.3,8.7-0.1c4.1,3.4,2.2,53,6.2,62.9l-13.4,4.9l-155.8,5.5
				c-19.2-19.9,7.5-17.6,10-39.3c6.3-53.9-5.7-111.7-8.9-165.1c-2.5-42.4,1.4-93.9-6.2-135.3c-3-16.6-14.8-11.9-17.1-18.3
				c-2-5.7,0.5-15.3-0.4-21.8L2653.3,147z"/>
			<path class="st10" d="M2488.4,149.9c-3.6,5.1-2,25.6-3,26.5c-0.8,0.8-20-0.6-20.8,4.8c4.7,43,11.8,86.1,14.9,129.3
				c2.8,39,3.3,78.6,5.9,117.9c0.8,11.8-1.9,27.7,0,38.3c2.4,12.9,16.7,4.7,20.3,7.7c0.6,0.5,3.5,13.9,3.1,15.5
				c-3.1,10.7-70,9.2-80.8,13.6c-2.3,0.1-2.2-17.1-1.5-17.7c2.7-2.5,21.1,7.2,23.7-13.1c2.4-18.1-5.4-51-6.1-70.7
				c-1.6-41.4-0.2-82.5-2.9-123.8c-2-32.1-6.9-64.5-8.8-96.6c-3.1-8-28.2-3.8-29.5-5.1c-1.1-1.1,0.8-21.9,0-26.5H2488.4z"/>
			<path class="st3" d="M2632.4,203.3c3.9,2.4,2.6,26.2,7.7,32.1c4.8,5.5,15.2-0.6,13.2,7.2c-1.9,7.3-16.8,26.6-22.2,33.9
				c-2.9,3.9-8.7,5.4-9.5,6.7c-2.3,4,1.1,20.5-10.5,19.5c-25.3-2.2-15.1-72.9-19.8-92C2592.2,207.7,2627.4,200.2,2632.4,203.3z"/>
			<path class="st3" d="M2285.1,158.7l-32.4,111.9c2.6-13.3-12.2-88.2-8.9-91.3c0.5-0.5,9.7,0.7,14.7-1.5
				C2266.5,174.3,2272.8,156,2285.1,158.7z"/>
			<path class="st3" d="M2046.4,202.9c-2.9,16.7,4,14.6,14.4,22.4l6.2,57.1l-31.9-64.1C2032.9,210.9,2038.1,202.6,2046.4,202.9z"/>
			<path class="st3" d="M2635.4,400c-11.5-1.6-10.4,11.8-20.3,12c2.5-8.2-6.6-46.6-2.9-50.1c1.3-1.2,10.6-0.3,13.3,2.9
				C2627.2,367,2636.9,398.4,2635.4,400z"/>
			<path class="st0" d="M1952.1,482.8c-0.5,4.3,1.4,11.1-1.3,14.9c-3.2,4.4-11.6,2.5-16.4,2.8c1.8-8.8-7.5-9.2-5.9,0
				c-4.9,0.2-9.9,0.2-14.7,0v-2.9l2.9-2.9c2.5-2,3.9-1.9,5.9-2.9c1.2-0.6,2.1-1.9,2.9-2.9c5.5-0.2,12.8,0.9,17.7,0l1.5,2.9l1.5-2.9
				c0.6-0.8-0.4-4.2,0-5.9C1946.8,483.4,1950.5,482.5,1952.1,482.8z"/>
			<path class="st2" d="M1913.8,497.6c0.6-1.4,1.8-2.1,2.9-2.9L1913.8,497.6z"/>
			<path class="st2" d="M1922.7,491.7v-2.9c1,0,2,0,2.9,0C1924.8,489.8,1923.8,491,1922.7,491.7z"/>
			<path class="st9" d="M864.9,546.2c1,8.4,14.7,49.5,22.4,50.9c11.4,2.1,22.2-13.2,21.8,15.4L803,618.4
				c-8.3-25.2,23-23.9,23.4-39.9c-4.4-40.9-9.1-82.5-11-123.6c-1.5-34.4,1.2-70.9-0.6-106c-0.3-6.3-3-41.2-4.2-42.9
				c-4.3-6.1-21.9-0.5-24.9-3.1c-1.6-1.4-7.2-27.6,1.6-28.7c40.6-7.5,86.3-10.5,124.8,6.9c18.3,8.3,57.5,40.4,64.5,59.2
				c18.7,50.2-33,89-79.2,80.7c-3.8,17.2,8.8,11.6,19.7,17.1c33.4,16.9,29.7,39.7,45,67c17.4,31,66.6,72.8,64.9,7.2
				c5.5-0.5,16.4,1.1,19.3,5.9c1.3,2.1-2.1,40.3-1.8,48.7c0.5,17.1,5.8,36.2,3.1,54.4c-67.3,0.9-99.6-25.4-128.3-82.4
				c-10.1-19.9-16.4-48.4-31.3-66c-3.4-4.1-23.1-20.8-23.1-9.3C864.9,488.5,862,522.8,864.9,546.2z M864.1,318.4
				c-3.9,0.8-9.2,3.2-10.5,7.3c-3,9,3.3,69.4,9.6,75c7,6.2,33.2-6.8,39.9-13.7C933.9,355.8,902.1,310.5,864.1,318.4z"/>
			<path class="st10" d="M764.7,314.9c8,23.7-17.3,18-17.6,27.7c8.1,50.7,21.5,102.4,26.4,153.5c4,42,12.7,95.3-30.8,119.4
				C673.5,653.9,643.6,559.4,630,510c-8.9-32.4-12.3-65.5-19.9-98c-2.2-9.4-8.8-39-13-45.3c-3.8-5.7-17.5,3.5-20.8,1.2
				c-1.6-1.1-4.2-18.5-3.3-21.7c1.1-4.1,79.5-19.3,82.5-16.3c0.7,0.7,3.5,19.4,2.9,20.2c-2.6,3.5-15.2-1.7-14.7,16.3
				c8,42,14.2,84.5,24.5,126c5,20,15.5,81.4,41.6,78.9c21.9-2,28.6-23.6,28.4-42.6c-0.4-39.4-23.3-117-31.7-160.1
				c-0.8-4.2-0.2-14.9-0.8-15.4c-1.2-1.2-12.2,1.6-14.5-0.3c-1.1-1-7.4-28-6.2-29.2L764.7,314.9z"/>
			<path class="st8" d="M1003.4,261.9c6.2,0.4,18.7-0.1,22.1-5.9c9.5-16.1-8.5-109.2-4.9-133.6c-3.6-10.9-19.6,0.4-23-2
				c-2.6-1.9-4.7-29.8-2.7-32c5.7-6.8,68.3-4.6,80.3-2.9c176,25.1,78.6,244.4-63.2,216.4L1003.4,261.9z M1081.9,141.9
				c-2.6,0.1-9.1,2-10.8,3.5c-9.6,8.1,3.8,83.7,0,100.2c2.5,13,16.9,7.3,25.1,1.5c19.5-13.9,31.1-55.7,21.4-77.4
				C1112.6,158.6,1094.8,141.4,1081.9,141.9z"/>
			<path class="st3" d="M1150.7,99.8c7.5-6.4,7.4-12.9,14.7-17.7c0,18.1,3.1,19.6,20.7,17.7l5.9,142.9c-0.8,11.1-15.5,8-20.7,11.7
				c-4.7,3.4-4.4,37.1,14.8,36.9c2.5,0,5.1-0.2,5.9-2.9l123.7-11.8l-35.9,65.7c-3.9,5.1-5.6,12.9-12.6,13.9
				c-21.9-2.5-55.5,8.5-76.1,2.3c-15-4.5-9.1-38-21.2-37.9c-7.3,0-17.2,19.1-25.3,25c-47.6,34.9-93,13.2-120.6-32.2
				c46.3-0.1,93.8-12.7,123.7-50.1c37.1-46.6,50.5-118.2,0.1-160.5C1148.7,101.7,1149.6,100.7,1150.7,99.8z"/>
			<path class="st8" d="M1286.1,61.6c-0.8,18.7,13.9,58.6,9.1,74.7c-0.8,2.7-8.9,2.4-11.9,4.7c1.1-48.3-67.1-47.4-54.6,0.1
				c6.1,23.2,25.4,11.9,28.1,14.7c0.7,0.7-0.1,15.4,3,19.1c-40.7-0.5-29.7,51.8,2.7,59.2c29.8,6.8,34.8-22.2,32.6-45.9
				c3.2,0.6,9.6-1.1,11.4,0.4c4.3,3.5,4,64.4,5.8,75.8l-129.4,13.9c-10.3-20.9,3.2-14.6,11.8-21c12.3-9.1,3.2-68.6,6.2-85.4
				c-6.5-25.1,0.1-54.1-6-78.9c-1.3-5.5-27.3-1.4-20.7-22.6L1286.1,61.6z"/>
			<path class="st3" d="M1298,149.9c1.5,1.5-3.6,24.1-5.7,27.4c-2.4,3.8-10.3,4.3-11.3,9.7c-1.4,7,7.2,20.4-0.8,31.9
				c-16.8,23.9-65.5-41.1-11.6-27.8c-0.2-8.1,1.2-46.3-3-50c-3.7-3.2-16.8,7.2-25-0.1c-8.8-7.8,4.1-41.3,23.7-17.7
				c9.4,11.3,5.2,13.5,7.4,25C1274.5,163.8,1287.1,146.7,1298,149.9z"/>
			<path class="st3" d="M1012.2,129.2c-0.2,7.3,0.3,14.8,0,22.2c-0.1,3.6,2.2,11-2.9,10.3l-11.8-32.4L1012.2,129.2z"/>
			<path class="st11" d="M1327.5,247.1c-1.9,6.4,5.4,25.9-5.9,23.5C1323.5,264.2,1316.2,244.8,1327.5,247.1z"/>
			<path class="st4" d="M1191.9,288.4c-0.8,2.8-3.4,2.9-5.9,2.9C1185,284.5,1187.2,283.1,1191.9,288.4z"/>
			<path class="st1" d="M1326,285.4c1.9,1,1.9,2,0,2.9V285.4z"/>
			<path class="st9" d="M465.8,631.5c-50.7-51.2-74.3-160.1-56.8-228.8c12.4-48.9,67.9-67.9,105.3-33.4
				c49.1,45.4,99.9,203.8,65.9,263.5C555.7,676,495.8,661.8,465.8,631.5z M512.3,605.6c17.5,18.1,33.1,8,33.7-15.2
				c1-39.4-28.4-161.8-64.5-182.4c-9-5.1-20.4-7.7-26.5,2.5c-6.7,11.3,1.7,65.3,5.1,80.7C465.8,517.2,494.4,587,512.3,605.6z"/>
			<path class="st12" d="M366.8,376.9c2,25.8,13.4,50.4,11.9,76.5c-25.4,5-9.4-19-33.8-26.6c-11.3-3.5-59.5-3.6-65.9,3.6
				c-9.6,10.9,5.6,104.6,8.8,124.2c5.6,35,12.2,93.3,36.3,119.8c2.7,3,9.2,10.6,12.4,11.3c11.4,2.6,25.7-14.4,24.3,15l-120.6,26.8
				c1.6-4.6-4-15-2.7-17.3c0.7-1.2,15.3-8.1,19.7-17.3c3.5-7.2,6.9-26.5,6.8-34.7c-0.6-44-13.2-119.6-21.7-164.2
				c-3.1-16.2-6.2-49.3-24.4-52.2c-21.9-3.5-51.3,1.9-61.3,23.7c-8.9,19.2,0.4,30-31,28.9l-11.9-88L366.8,376.9z"/>
			<path class="st3" d="M243.1,586l-109-76.6c2.7-8.6,29.4-5.5,32.4-8.8c1.1-1.2-4.4-15.3-1.7-23.7c6.4-20.5,50.4-34.2,58.4-16.8
				L243.1,586z"/>
			<path class="st10" d="M1671.2,298.2c29.7,32.7,21.8,63.8,21.7,103.6c0,16.9-3.6,44.1,13.6,54.2c22.5,13.1,20-16.2,30.5-26.2
				c-2.2,23.7-4.9,51.3-9.5,74.4c-4.2,20.7-20.1,15.1-35.8,7.8c-49-22.9-31.1-87.8-34.1-130.9c-1-14.3-4.5-40.2-13.5-51.3
				c-4.2-5.2-14.8-13.9-18.5-4c-0.7,36.6-13.3,75.7-15.4,111.3c-0.5,7.9-1,23.7,2.1,30.4c4.1,8.6,17.1-4.5,12.7,18.3
				c-10-1-73.8-3.3-76.6-5.9c-0.6-0.6-0.7-17,0-17.6c1.3-1.2,16.6,3.5,20-8c2.7-9.2-0.5-23.7,1-34.4c6.4-47.7,9.7-91.1,14.4-138.8
				c1.9-19.9,18.3-117.6,11.2-127.6c-2-2.7-10.3-2.6-11.1-3.7c-0.7-0.9,2.1-22.6,2.9-23.4c3.3-3.5,61.4,5.3,70.1,7.9
				c46.4,13.9,70.2,70.6,54.5,115.3c-2.3,6.5-13.4,24.7-18.7,28.5c-9.2,6.7-31,2.1-32.3,8.9C1659.3,292.9,1668.3,295.1,1671.2,298.2
				z M1644.6,176.5c-12.2,2-7.2,46.3-7.6,57.4c-0.4,11.5-10.1,33.3,13,30.9c18.7-2,23.8-33.4,22.2-48.7
				C1671.1,205.9,1654.6,174.9,1644.6,176.5z"/>
			<path class="st12" d="M1474.8,96.8c5.5,0.6,11.4,2.2,17.7,2.9c1,0.1,2-0.1,2.9,0c22.3,2.6,45.1,7.4,67.7,9
				c2.8,3.2-11.9,80.1-14.3,83.6c-2.5,3.7-8.5,1.1-12.1,1.7c-1.2-1.1,1.2-23.6,0-23.6h-57.5c-9.7,0-18.2,76-16.1,86.8
				c1.5,7.9,7.6,12.1,15.5,10c9.6-2.6,14.7-28,22.7-20.2c2.3,2.3-3.8,62.4-5.9,64.8c-5.4,6.3-9-15.6-16.6-17.2
				c-7.5-1.6-14,9.5-15.9,15.6c-5.5,17-12.6,86.4-6.5,101c6.4,15.4,25.5,8.2,39,9.6l0,17.7l-112-3c0.5-25.2,18.8-16.5,22.8-40.5
				c6.4-38.3,7.9-78.1,13-116.7c4.9-37.4,14.7-78.1,17.2-115.4c1.3-19,6.1-49.2-20.6-48.6c-0.3-0.6-4.7-1.6-5.4-4.9
				c-1.2-5.3,3.7-12.7,2.5-18.7C1432.8,97.2,1455.1,94.7,1474.8,96.8z"/>
			<path class="st6" d="M281.4,214.7c4.1,36.7-3.8,67-47.1,61.8c-0.2-8.9-1.8-17.7-3-26.5h8.8c0.4,3.5,5.9,11.1,3,17.7
				c39-4,21.2-31,26.5-53C273.6,214.7,277.5,214.7,281.4,214.7z"/>
			<path class="st0" d="M269.7,214.7c2-8.2,24.5-13.3,32.2-14.6c8.2,19.1,8,41,9.1,61.8c0.6,11-1.2,21.5,2.9,32.4l-5.9,0
				c-2-12.8-8-73-11.4-77.9c-2.3-3.3-11-1.7-15.1-1.7C277.5,214.7,273.6,214.7,269.7,214.7z"/>
			<path class="st7" d="M331.5,108.6l-1.5,2.9c-5.5,1-4.7-0.9-4.4-5.9C325.9,105.9,329.5,107.2,331.5,108.6z"/>
			<path class="st1" d="M963.6,697.9c1.9,1,1.9,2,0,2.9V697.9z"/>
			<path class="st3" d="M302.1,105.7c6.9,15.8,21.8,30,35.4,40.4c-1.5,24.8,6.7,105.3-20.7,115.8c-1.4,0.5-4.1-0.4-5.9,0
				c-1.1-20.7-0.9-42.6-9.1-61.8c-7.7,1.4-30.2,6.4-32.2,14.6c-5.3,22.1,12.5,49-26.5,53c3-6.6-2.6-14.2-3-17.7
				c-1.7-15.7-3.3-44.6-3.1-60.5c0.3-25.5,3-46.3,25.8-59.8c16.5-9.7,38-5.9,33.4-27.1C296.9,101.4,300.8,105.7,302.1,105.7z"/>
			<path class="st4" d="M337.4,129.2c-2.8,2.7-13.7-6.3-11.8-11.8C328.4,114.8,339.3,123.8,337.4,129.2z"/>
			<path class="st2" d="M1928.6,500.5c-1.6-9.2,7.7-8.8,5.9,0C1932.5,500.6,1930.5,500.4,1928.6,500.5z"/>
			<path class="st0" d="M1857.9,300.2l-32.4,0c-0.9-32.8,9.5-64.6,11.8-97.3c4.6-0.4,6.8-0.6,10.3,2.9
				C1851.7,210.1,1861.2,296.8,1857.9,300.2z M1846,244.2c-5.8-0.8-4.9-0.6-6.7,3.6c-1.6,3.9-6.7,42-5.1,43.5l14.8,0L1846,244.2z"/>
			<path class="st2" d="M1943.3,488.7c1-0.2,2.7,0.3,2.9,0l-1.5,2.9L1943.3,488.7z"/>
			<path class="st13" d="M864.1,318.4c38-7.9,69.8,37.4,39,68.6c-6.7,6.8-32.9,19.8-39.9,13.7c-6.4-5.6-12.6-66.1-9.6-75
				C854.9,321.6,860.2,319.2,864.1,318.4z M861.9,329.6c-2,2,4.8,51.6,6.4,57c3.1,10.7,28-5.2,31.6-11.6
				C915.9,346.7,891.3,323.1,861.9,329.6z"/>
			<path class="st2" d="M1081.9,141.9c12.9-0.5,30.7,16.6,35.6,27.8c9.7,21.6-1.9,63.5-21.4,77.4c-8.1,5.8-22.6,11.5-25.1-1.5
				c3.8-16.5-9.7-92.1,0-100.2C1072.9,143.9,1079.4,142,1081.9,141.9z M1099.5,162.7c-3.5-3.7-18.5-13.8-22.5-9.9
				c0.2,25.4,0.1,53,2.8,78.2c2,18.7,14.1,6.2,20.3-3.6C1112.3,208.3,1116.2,180.3,1099.5,162.7z"/>
			<path class="st13" d="M512.3,605.6c-17.9-18.5-46.5-88.3-52.1-114.4c-3.3-15.4-11.8-69.4-5.1-80.7c6.1-10.2,17.5-7.7,26.5-2.5
				c36.1,20.7,65.5,143.1,64.5,182.4C545.4,613.6,529.8,623.6,512.3,605.6z M461.6,415.5c-5.9,3.7,1.6,49.8,3.4,59.1
				c5.7,29.5,16.9,60.5,31,86.8c4.7,8.7,35,64.6,38.9,32.1c3.2-26.1-16.6-106-27.3-132C502.5,449,478.3,404.8,461.6,415.5z"/>
			<path class="st0" d="M1644.6,176.5c10-1.6,26.6,29.4,27.6,39.6c1.6,15.3-3.5,46.7-22.2,48.7c-23.1,2.4-13.4-19.4-13-30.9
				C1637.3,222.8,1632.3,178.5,1644.6,176.5z M1651,191.8c-13.9-8-5.6,13.5-5.2,21.3c0.5,11.4-2.1,20.9-2.4,30.5
				c-0.6,19.6,18.7,3.3,20.1-12.7C1664.3,222.2,1657.8,195.7,1651,191.8z"/>
			<path class="st3" d="M1846,244.2l3,47.1l-14.8,0c-1.6-1.6,3.5-39.6,5.1-43.5C1841.2,243.5,1840.2,243.4,1846,244.2z"/>
			<path class="st11" d="M861.9,329.6c29.4-6.5,54,17.1,38,45.3c-3.6,6.4-28.5,22.3-31.6,11.6C866.7,381.2,859.9,331.6,861.9,329.6z
				"/>
			<path class="st11" d="M1099.5,162.7c16.6,17.7,12.8,45.6,0.6,64.8c-6.2,9.7-18.3,22.3-20.3,3.6c-2.7-25.2-2.6-52.8-2.8-78.2
				C1081,148.9,1096,158.9,1099.5,162.7z"/>
			<path class="st11" d="M461.6,415.5c16.8-10.6,40.9,33.6,46,46c10.7,26.1,30.5,105.9,27.3,132c-3.9,32.5-34.3-23.4-38.9-32.1
				c-14.1-26.4-25.3-57.4-31-86.8C463.2,465.2,455.7,419.2,461.6,415.5z"/>
			<path class="st3" d="M1651,191.8c6.8,3.9,13.3,30.4,12.5,39.1c-1.4,16-20.7,32.3-20.1,12.7c0.3-9.6,2.9-19.1,2.4-30.5
				C1645.4,205.3,1637.1,183.8,1651,191.8z"/>
		</g>
		<g>
			<g>
				<path class="st13" d="M2197.1,630c7.2,8.2,18.2,37,18.2,47.6c0,14.5-16.8,45.6-14.3,55.3c1.2,4.9,21.7,15.5,25.1,19.8
					c3.7,4.6,13.4,34.2,10.1,38.1c-18.3-0.9-88.7,25.6-100.1,22.5c-6.4-1.7-10.9-9.8-16.4-13.1c-5.1-3-15.2-2.8-17.5-6.1
					c-1.1-1.5-4.7-34.4-4.3-36.9c1.1-8.2,9.6-9.8,14.9-14.8c12.8-12.2,32-31.3,36.9-48.6c5.7-20.6-7.9-17.9-10.2-10
					c-1.5,5.5,3.8,14.3,2.7,15.7c-1.6,2.2-41.1,10.3-43.8,8.5c-2.1-1.3-4.9-17-7.8-20.3c-2.9-3.3-8.7-1.5-10.3-5
					c-14.2-31.5,19.7-72.9,51.9-77.2C2152.5,603,2183.7,614.8,2197.1,630z M2204,767.5c-2.4-35.7-24.4-16-43.4-15.2
					c-18.3,0.8,8-37.2,11-45.1c15.3-40.4,11.3-103.6-47.3-88.5c-24.7,6.4-37.1,33.4-35.3,57.5c31.1,5.5,18.5-33,51.6-32.7
					c41.1,0.3,15.7,72-3,91.6c-15.7,16.5-35,14.8-28,47.2C2142.3,785.9,2172.2,769.5,2204,767.5z M2186.3,629
					c-0.3-0.2-6.2-1.1-5.8,1.4c4.9,2.9,4.3,11,8.8,10.3C2189.7,639.8,2186.7,629.4,2186.3,629z M2195.1,643.7
					c-10.3-11.5-2.7,26.1-2.7,28c0.2,21.2-13.1,44.2-20.9,63.3c5.2-0.2,12.3,1.8,16.2-2.9c5.8-7,15.4-47.2,15.1-57
					C2202.8,671.4,2196.2,644.9,2195.1,643.7z M2151,667.3c3.7-3.5-4.5-19.3-17.6-13.3c-19.8,9.1-1.6,38-32.5,31
					c-5,16.8,26.1,12.2,29.1,8.4c1.8-2.2-1.3-14.7,6.1-21.9C2142,665.8,2150.4,667.8,2151,667.3z M2218.7,758.6
					c-0.2-0.2-6.2-1.1-5.8,1.4c2.3,3.2,3.7,6.5,1.7,10.3c-5.8,11.2-70.4,15.1-84.2,25.1c3.4,3.7,7.4,6.6,12.7,6.6
					c22.9-0.3,56.5-18.7,81.6-16.9C2223.8,781.3,2219.7,759.6,2218.7,758.6z"/>
				<path class="st4" d="M2204,767.5c-31.8,2.1-61.7,18.5-94.3,14.8c-7-32.3,12.3-30.7,28-47.2c18.7-19.6,44.1-91.3,3-91.6
					c-33.1-0.2-20.5,38.2-51.6,32.7c-1.8-24.1,10.5-51.2,35.3-57.5c58.6-15.1,62.6,48.1,47.3,88.5c-3,7.9-29.3,45.9-11,45.1
					C2179.6,751.4,2201.6,731.7,2204,767.5z"/>
				<path class="st14" d="M2218.7,758.6c1,0.9,5.1,22.6,5.9,26.5c-25.1-1.9-58.7,16.6-81.6,16.9c-5.3,0.1-9.3-2.9-12.7-6.6
					c13.8-9.9,78.4-13.8,84.2-25.1c2-3.9,0.6-7.1-1.7-10.3C2212.5,757.6,2218.5,758.4,2218.7,758.6z"/>
				<path class="st14" d="M2195.1,643.7c1.1,1.2,7.6,27.7,7.8,31.4c0.3,9.8-9.2,50-15.1,57c-3.9,4.7-11,2.7-16.2,2.9
					c7.8-19.2,21.1-42.2,20.9-63.3C2192.5,669.8,2184.8,632.3,2195.1,643.7z"/>
				<path class="st14" d="M2151,667.3c-0.6,0.6-9-1.5-14.9,4.3c-7.4,7.2-4.3,19.7-6.1,21.9c-3,3.7-34.1,8.3-29.1-8.4
					c30.9,7,12.6-21.9,32.5-31C2146.5,648,2154.7,663.8,2151,667.3z"/>
				<path class="st2" d="M2186.3,629c0.4,0.4,3.4,10.8,3,11.8c-4.5,0.7-3.9-7.4-8.8-10.3C2180.1,627.9,2186,628.8,2186.3,629z"/>
			</g>
			<g>
				<path class="st4" d="M2301.3,620.2c41.7-38,65.5,11.3,61.8,51.5c-2.9,32.5-37.7,115.5-81,87c-36.8-24.3-1.4-90.3,7.4-120.8
					c0.2-0.7,2.8-1.5,2.9-5.9c3.3-0.5,2.4-5.4,2.9-5.9C2300.8,621.7,2300,621.3,2301.3,620.2z M2293.1,731.4
					c18.7,22,44.7-42,45.3-57.2c0.5-11.5-3.6-43.1-21.6-34.3C2299.4,648.4,2282.3,718.6,2293.1,731.4z"/>
				<path class="st13" d="M2298.3,617.2c9.6-15,14.9-22,36.5-20.5c10.9,0.8,52.4,31.9,59.1,41.3c11.1,15.7,11,43,5.2,60.7
					c-7.2,22.1-40.3,88.7-64.1,92.2c-12.5,1.8-39.4-10.2-50.5-17c-45.5-27.7-29.4-92.6-6.6-130.9c0.3-0.5,9.6-13.1,11.6-5.2
					c-8.8,30.5-44.2,96.5-7.4,120.8c43.3,28.6,78.1-54.5,81-87c3.6-40.3-20.1-89.5-61.8-51.5L2298.3,617.2z M2316,779.3
					c18.1,4.4,22,0.9,33.9-11.7c21-22.2,47.9-78.7,41.4-109.2c-2.3-10.6-20.2-35.9-19.3-16.1c1.9,44.3-2.8,71.5-30,108.6L2316,779.3
					z"/>
				<path class="st2" d="M2301.3,620.2c-1.3,1.2-0.5,1.6-5.9,5.9c-0.6,0.4,0.4,5.4-2.9,5.9c0-0.5-4-3.2-2.9-5.9
					c1.7-0.4,5.3,0.5,5.9,0c0.3-0.3,0.3-4.7,2.9-8.8L2301.3,620.2z"/>
				<path class="st13" d="M2293.1,731.4c-10.8-12.7,6.3-83,23.7-91.4c18.1-8.8,22.1,22.8,21.6,34.3
					C2337.8,689.3,2311.8,753.3,2293.1,731.4z M2324.8,649.6c-7.6-8.9-19.5,30.7-20.3,34.2c-2.6,11.8-3.7,24.4-3.3,36.5
					c7.2,0.6,11.2-8.8,14.1-13.8C2326.5,687.3,2329.4,671.4,2324.8,649.6z"/>
				<path class="st12" d="M2316,779.3l26-28.5c27.1-37.1,31.9-64.2,30-108.6c-0.9-19.8,17,5.5,19.3,16.1
					c6.5,30.5-20.4,87-41.4,109.2C2338,780.1,2334.1,783.7,2316,779.3z"/>
				<path class="st14" d="M2324.8,649.6c4.6,21.7,1.7,37.7-9.4,56.9c-2.9,5.1-7,14.5-14.1,13.8c-0.5-12.1,0.7-24.7,3.3-36.5
					C2305.3,680.3,2317.2,640.8,2324.8,649.6z"/>
			</g>
		</g>
		<g>
			<path class="st13" d="M2510.2,710.9c34.1-0.1,46.6,20.7,34.8,52.5c-22.6,0.1-57,16-77.7,15c-3.6-0.2-26.5-16.9-28-19.4
				c-4.5-7.6-8.1-44.2-5.3-52.1c1.6-4.7,10.1-5.2,14.5-9.1c16.1-14.4,22.6-33.1,20.5-54.6c-12.6-1.6-6.3,15-10.5,18
				c-3.8,2.7-35.8,8.1-41.1,2.7c-9.4-21.9-19-24.5-7.8-49.2c9.3-20.5,34.2-35.2,56.7-32.1c7.4,1,40.5,24.9,45.3,31.3
				C2529.3,637.4,2524,685.9,2510.2,710.9z M2519.1,722.7c-9.1-3.8-48.2,7.9-50.1-1.5c-1.8-9.3,30.7-48.9,29.5-73.4
				c-3.1-69.1-78-74.6-82.6-7.5c25.6,3.8,9.8-11.9,22.4-23.4c19.2-17.6,40.4,3.4,42.5,24.8c1.9,19.8-7,50-22,63.4
				c-3.9,3.5-12.8,5-13.5,7.8c-1.1,4.6,0,30.8,3.5,33c23.7,0.4,46.5-8.1,70.3-5.5L2519.1,722.7z M2483.7,713.9
				c36.1-8.8,34.3-70.1,20.6-97.2l2.3,47.9L2483.7,713.9z M2459.8,619.9c-2.3-1.6-16.1,1.5-17,3c-3.3,5.2,4.2,16.8,1.4,20.4
				c-2.3,3-32.3,4.3-22.3,14.6c0.9,1,24.8-3,26.6-4.3c3.6-2.6,2.2-10.7,5.6-15.2c2.3-3,8.9-3.1,9.3-6
				C2463.6,630.6,2460.6,620.4,2459.8,619.9z M2536.2,729.1c-0.3-0.4-6.4-2.3-8.3-3.5c3.7,32.5-9,20.9-30.6,23.9l-40.1,9.9
				c6.9,14.5,69.6,1.5,77.8-4C2537.8,753.6,2537.7,731.3,2536.2,729.1z"/>
			<path class="st13" d="M2636.3,579c1.4,2.2,0.3,7.6,2.1,11c3.1,6,16.5,8.1,15.7,15.8c-0.2,2-11.5,27.5-12.7,28.6
				c-6.8,5.8-16.4-0.5-22.1,7.3c13.7,7.5,29.6,18.9,39.5,31.2c34.7,43.1-17.7,117.9-74.7,80.6c-56.1-36.6-64.6-119.5-13.4-163.3
				C2582.6,580.1,2627.9,566.3,2636.3,579z M2621.7,604.4c4.9-3.1,8.4-21-9.3-19.9c-59.4,3.7-81.9,92-50.3,135.1
				c35,47.9,106.7-11.2,72.8-55.1c-22.3-28.9-42.1,6.5-49.4,8.1c-19.3,4.2,0.5-44.8,7.9-54C2607.7,600.8,2613.7,609.4,2621.7,604.4z
				 M2636.4,625c0.9-0.8,9.5-21.4,2-23c-6.2-1.3-6.6,9.3-12.3,11.3c-4.4,1.5-10.1-0.3-15.6,2c-6.9,2.9-25.2,32-20.7,36.8
				c16.4,0.6,20.5-17.5,31.3-23.2C2626.2,626.1,2635.1,626.1,2636.4,625z M2657.5,684.5c-2-1.9-6.1-2.2-5.1,3.7
				c5.4,30.7-28.7,62.6-59.7,58.2c17.3,17.7,46.1,5.5,58.9-13.3C2657.4,724.7,2664.6,691.3,2657.5,684.5z"/>
			<path class="st4" d="M2519.1,722.7l0,17.7c-23.8-2.6-46.6,5.9-70.3,5.5c-3.4-2.2-4.6-28.4-3.5-33c0.7-2.8,9.6-4.3,13.5-7.8
				c15.1-13.4,23.9-43.7,22-63.4c-2-21.4-23.3-42.4-42.5-24.8c-12.5,11.5,3.3,27.2-22.4,23.4c4.6-67.1,79.5-61.6,82.6,7.5
				c1.1,24.5-31.4,64.1-29.5,73.4C2470.8,730.6,2509.9,719,2519.1,722.7z"/>
			<path class="st14" d="M2536.2,729.1c1.5,2.2,1.6,24.5-1.2,26.4c-8.2,5.6-70.9,18.5-77.8,4l40.1-9.9c21.6-3.1,34.3,8.6,30.6-23.9
				C2529.8,726.9,2536,728.7,2536.2,729.1z"/>
			<path class="st14" d="M2483.7,713.9l22.8-49.3l-2.3-47.9C2518,643.8,2519.8,705.1,2483.7,713.9z"/>
			<path class="st14" d="M2459.8,619.9c0.8,0.5,3.8,10.8,3.5,12.6c-0.4,2.9-7,3-9.3,6c-3.3,4.5-2,12.5-5.6,15.2
				c-1.8,1.3-25.7,5.3-26.6,4.3c-10-10.3,20-11.6,22.3-14.6c2.8-3.6-4.7-15.2-1.4-20.4C2443.8,621.4,2457.6,618.3,2459.8,619.9z"/>
			<path class="st4" d="M2621.7,604.4c-8,5-14-3.6-28.4,14.2c-7.4,9.2-27.3,58.2-7.9,54c7.3-1.6,27.1-37,49.4-8.1
				c33.9,43.9-37.7,103-72.8,55.1c-31.5-43.1-9.1-131.4,50.3-135.1C2630.1,583.4,2626.6,601.3,2621.7,604.4z M2596.4,679.4
				c-20,18.4,2.4,68.3,22.4,29.8C2628.8,689.9,2609.8,667.1,2596.4,679.4z"/>
			<path class="st14" d="M2657.5,684.5c7.1,6.9-0.1,40.2-5.8,48.6c-12.8,18.8-41.7,31-58.9,13.3c31,4.5,65.1-27.5,59.7-58.2
				C2651.4,682.2,2655.5,682.5,2657.5,684.5z"/>
			<path class="st14" d="M2636.4,625c-1.3,1.1-10.2,1.2-15.3,3.8c-10.8,5.7-14.9,23.8-31.3,23.2c-4.6-4.8,13.7-33.9,20.7-36.8
				c5.6-2.3,11.2-0.5,15.6-2c5.6-2,6-12.6,12.3-11.3C2645.9,603.5,2637.3,624.2,2636.4,625z"/>
			<path class="st13" d="M2596.4,679.4c13.4-12.3,32.4,10.5,22.4,29.8C2598.9,747.7,2576.4,697.8,2596.4,679.4z M2598.6,710.9
				c11.4,1.5,16.8-18.9,7.3-23.5C2598.5,683.8,2597.9,707.9,2598.6,710.9z"/>
			<path class="st14" d="M2598.6,710.9c-0.8-3-0.2-27.2,7.3-23.5C2615.4,692,2610.1,712.5,2598.6,710.9z"/>
		</g>
	</g>
</g>
</svg>
