<?xml version="1.0" encoding="utf-8"?>
<!-- Generator: Adobe Illustrator 27.3.1, SVG Export Plug-In . SVG Version: 6.00 Build 0)  -->
<svg version="1.1" id="Layer_1" xmlns="http://www.w3.org/2000/svg" xmlns:xlink="http://www.w3.org/1999/xlink" x="0px" y="0px"
	 width="16px" height="5.412px" viewBox="0 0 16 5.412" enable-background="new 0 0 16 5.412" xml:space="preserve">
<g>
	<g>
		<path fill="#FFFFFF" d="M3.148,4.239H2.922v0.528h0.146V4.617h0.072c0.131,0,0.227-0.066,0.227-0.19V4.425
			C3.368,4.308,3.282,4.239,3.148,4.239z M3.222,4.433c0,0.042-0.032,0.069-0.084,0.069H3.068v-0.14h0.069
			c0.053,0,0.085,0.024,0.085,0.069V4.433z"/>
		<path fill="#FFFFFF" d="M3.954,4.229c-0.163,0-0.285,0.123-0.285,0.275v0.002c0,0.152,0.121,0.273,0.284,0.273
			c0.163,0,0.285-0.123,0.285-0.275V4.502C4.238,4.35,4.117,4.229,3.954,4.229z M4.088,4.505c0,0.076-0.054,0.141-0.134,0.141
			c-0.08,0-0.135-0.066-0.135-0.143V4.502c0-0.076,0.054-0.141,0.134-0.141c0.081,0,0.136,0.066,0.136,0.143V4.505z"/>
		<path fill="#FFFFFF" d="M5.04,4.421V4.42c0-0.052-0.016-0.093-0.047-0.123C4.957,4.26,4.902,4.239,4.821,4.239h-0.25v0.528h0.146
			v-0.16H4.78h0.002l0.106,0.16h0.169L4.931,4.583C4.997,4.556,5.04,4.502,5.04,4.421z M4.893,4.43c0,0.038-0.029,0.063-0.078,0.063
			H4.717V4.366h0.096c0.049,0,0.079,0.021,0.079,0.063V4.43z"/>
		<polygon fill="#FFFFFF" points="5.983,4.239 5.837,4.239 5.837,4.768 6.239,4.768 6.239,4.639 5.983,4.639 		"/>
		<path fill="#FFFFFF" d="M6.741,4.236L6.516,4.768H6.67l0.038-0.094h0.204L6.95,4.768h0.157L6.882,4.236H6.741z M6.751,4.559
			l0.06-0.15l0.059,0.15H6.751z"/>
		<polygon fill="#FFFFFF" points="8.162,4.444 8.036,4.239 7.882,4.239 7.882,4.768 8.025,4.768 8.025,4.466 8.159,4.671 
			8.162,4.671 8.297,4.464 8.297,4.768 8.443,4.768 8.443,4.239 8.288,4.239 		"/>
		<rect x="8.797" y="4.239" fill="#FFFFFF" width="0.147" height="0.528"/>
		<polygon fill="#FFFFFF" points="9.787,4.239 9.623,4.239 9.528,4.388 9.435,4.239 9.266,4.239 9.44,4.499 9.259,4.768 
			9.423,4.768 9.525,4.608 9.626,4.768 9.795,4.768 9.614,4.497 		"/>
		<polygon fill="#FFFFFF" points="10.077,4.368 10.236,4.368 10.236,4.768 10.382,4.768 10.382,4.368 10.541,4.368 10.541,4.239 
			10.077,4.239 		"/>
		<polygon fill="#FFFFFF" points="11.007,4.559 11.26,4.559 11.26,4.444 11.007,4.444 11.007,4.364 11.287,4.364 11.287,4.239 
			10.862,4.239 10.862,4.768 11.291,4.768 11.291,4.643 11.007,4.643 		"/>
		<path fill="#FFFFFF" d="M11.877,4.645c-0.074,0-0.126-0.062-0.126-0.141V4.502c0-0.077,0.052-0.14,0.126-0.14
			c0.051,0,0.085,0.024,0.116,0.062l0.11-0.085c-0.047-0.065-0.116-0.11-0.224-0.11c-0.16,0-0.279,0.121-0.279,0.275v0.002
			c0,0.158,0.122,0.273,0.272,0.273c0.117,0,0.184-0.051,0.234-0.119l-0.11-0.079C11.965,4.619,11.933,4.645,11.877,4.645z"/>
		<path fill="#FFFFFF" d="M12.746,4.236h-0.141L12.38,4.768h0.154l0.038-0.094h0.204l0.038,0.094h0.157L12.746,4.236z M12.614,4.559
			l0.06-0.15l0.059,0.15H12.614z"/>
	</g>
	<g>
		<polygon fill="#FFFFFF" points="3.959,1.052 1.718,3.293 4.08,3.293 4.08,2.95 2.546,2.95 4.201,1.294 		"/>
		<polygon fill="#FFFFFF" points="4.847,1.294 5.326,1.774 5.326,3.251 5.669,3.251 5.669,2.117 6.795,3.243 7.037,3 5.089,1.052 		
			"/>
		<path fill="#FFFFFF" d="M10.467,2.213C10.082,1.521,9.353,1.099,8.562,1.11C8.18,1.116,7.806,1.224,7.481,1.422
			C7.166,1.614,6.904,1.886,6.724,2.208l0.299,0.167C7.175,2.105,7.395,1.876,7.66,1.715c0.273-0.166,0.587-0.257,0.908-0.261
			c0.664-0.01,1.277,0.345,1.599,0.926L10.467,2.213z"/>
		<polygon fill="#FFFFFF" points="13.932,3.123 14.174,2.881 12.224,0.931 10.155,3 10.397,3.243 11.389,2.25 12.471,3.332 
			12.713,3.089 11.632,2.008 12.224,1.416 		"/>
		
			<rect x="10.139" y="1.356" transform="matrix(0.6966 -0.7174 0.7174 0.6966 2.0411 7.8816)" fill="#FFFFFF" width="0.402" height="0.343"/>
		
			<rect x="9.613" y="0.971" transform="matrix(0.4871 -0.8733 0.8733 0.4871 4.0352 9.1563)" fill="#FFFFFF" width="0.402" height="0.343"/>
		
			<rect x="9.005" y="0.736" transform="matrix(0.2444 -0.9697 0.9697 0.2444 6.076 9.6117)" fill="#FFFFFF" width="0.401" height="0.343"/>
		
			<rect x="8.386" y="0.636" transform="matrix(0.9999 -0.0147 0.0147 0.9999 -0.0114 0.1263)" fill="#FFFFFF" width="0.343" height="0.402"/>
		
			<rect x="7.742" y="0.736" transform="matrix(0.962 -0.273 0.273 0.962 0.0448 2.1958)" fill="#FFFFFF" width="0.343" height="0.402"/>
		
			<rect x="7.145" y="0.999" transform="matrix(0.8586 -0.5127 0.5127 0.8586 0.4196 3.9212)" fill="#FFFFFF" width="0.343" height="0.402"/>
		
			<rect x="6.637" y="1.408" transform="matrix(0.6966 -0.7174 0.7174 0.6966 0.9113 5.373)" fill="#FFFFFF" width="0.343" height="0.402"/>
	</g>
</g>
</svg>
