<?xml version="1.0" encoding="utf-8"?>
<!-- Generator: Adobe Illustrator 27.3.1, SVG Export Plug-In . SVG Version: 6.00 Build 0)  -->
<svg version="1.1" id="Layer_1" xmlns="http://www.w3.org/2000/svg" xmlns:xlink="http://www.w3.org/1999/xlink" x="0px" y="0px"
	 width="16px" height="16px" viewBox="0 0 16 16" enable-background="new 0 0 16 16" xml:space="preserve">
<g id="GfsLMU_00000088092609614004264510000003500046313906329492_">
	<g>
		<path fill="#FFFFFF" d="M14.813,5.795c-0.094,0.081-0.174,0.18-0.277,0.227C14.482,6.046,14.368,6,14.314,5.95
			c-0.55-0.506-1.19-0.78-1.941-0.771c-0.084,0.001-0.219-0.059-0.225,0.108c-0.005,0.16,0.092,0.188,0.236,0.188
			c1.368,0,2.425,0.996,2.464,2.313c0.046,1.599-1.58,2.764-3.14,2.249c-0.919-0.303-1.558-1.141-1.608-2.111
			c-0.051-0.976,0.493-1.846,1.41-2.268c0.07-0.032,0.164-0.107,0.169-0.168c0.015-0.177-0.079-0.238-0.255-0.171
			c-0.436,0.166-0.866,0.346-1.301,0.514C9.349,6.132,8.576,6.426,7.804,6.722C7.679,6.77,7.553,6.815,7.387,6.876
			C7.466,7.001,7.53,7.113,7.604,7.218c0.631,0.907,1.217,1.842,1.625,2.873c0.182,0.458,0.3,0.942,0.445,1.414
			c0.041,0.135-0.006,0.197-0.156,0.189c-0.798-0.039-1.597-0.076-2.396-0.108c-0.169-0.007-0.143-0.115-0.145-0.221
			c-0.003-0.121,0.014-0.204,0.171-0.195c0.544,0.033,1.088,0.059,1.632,0.085c0.118,0.006,0.236,0.001,0.409,0.001
			c-0.132-0.368-0.23-0.722-0.382-1.051C8.309,9.132,7.71,8.116,7.006,7.163c-0.083-0.112-0.151-0.137-0.279-0.09
			c-0.192,0.07-0.39,0.129-0.59,0.173C5.974,7.281,5.912,7.361,5.889,7.529C5.754,8.487,5.22,9.142,4.313,9.453
			c-0.917,0.314-1.754,0.116-2.45-0.557c-0.968-0.935-0.94-2.429,0.04-3.371c0.932-0.896,2.496-0.822,3.395,0.159
			C5.542,5.95,5.715,6.255,5.809,6.601c0.039,0.144,0.11,0.179,0.247,0.14c0.16-0.047,0.323-0.083,0.538-0.136
			C6.41,6.39,6.26,6.207,6.104,6.031C5.742,5.624,5.386,5.212,4.909,4.928C3.973,4.372,2.733,4.437,1.878,5.115
			c-0.197,0.156-0.26-0.001-0.354-0.096C1.398,4.892,1.528,4.835,1.606,4.773C2.605,3.975,4.08,3.92,5.233,4.618
			C5.802,4.963,6.22,5.459,6.65,5.947C6.734,6.042,6.832,6.131,6.894,6.24c0.118,0.204,0.261,0.207,0.461,0.127
			c0.991-0.396,1.985-0.787,2.981-1.17c0.316-0.122,0.642-0.219,0.968-0.315c0.134-0.04,0.194-0.088,0.141-0.237
			c-0.062-0.173-0.11-0.351-0.15-0.53c-0.03-0.135-0.092-0.157-0.225-0.135c-0.404,0.065-0.812,0.111-1.218,0.164
			C9.715,4.161,9.614,4.15,9.626,3.966C9.636,3.817,9.62,3.698,9.844,3.7c0.56,0.004,1.118-0.04,1.641-0.27
			c0.097-0.042,0.193-0.092,0.277-0.154c0.312-0.228,0.283-0.613-0.083-0.747c-0.272-0.099-0.576-0.138-0.868-0.148
			c-0.396-0.013-0.791,0.045-1.155,0.226C9.53,2.67,9.473,2.611,9.438,2.498C9.405,2.393,9.327,2.262,9.492,2.216
			c0.802-0.226,1.606-0.35,2.406,0.016c0.305,0.139,0.48,0.379,0.503,0.705c0.022,0.317-0.167,0.545-0.431,0.676
			c-0.227,0.113-0.244,0.249-0.167,0.456c0.054,0.145,0.087,0.299,0.116,0.451c0.032,0.168,0.109,0.228,0.29,0.216
			c0.971-0.064,1.808,0.246,2.504,0.929c0.02,0.02,0.04,0.04,0.059,0.061C14.782,5.737,14.787,5.751,14.813,5.795z M11.844,5.984
			c-0.067,0.016-0.118,0.02-0.161,0.04c-0.847,0.394-1.282,1.154-1.164,2.063c0.142,1.09,1.146,1.81,2.258,1.656
			c0.985-0.136,1.751-1.042,1.649-2.121c-0.089-0.944-0.954-1.753-1.899-1.76c-0.174-0.001-0.234,0.048-0.175,0.224
			c0.069,0.208,0.128,0.419,0.181,0.632c0.034,0.134,0.091,0.212,0.237,0.258c0.475,0.149,0.73,0.692,0.558,1.144
			c-0.142,0.372-0.488,0.609-0.867,0.593c-0.449-0.019-0.779-0.276-0.886-0.689C11.482,7.658,11.65,7.28,11.999,7.04
			c0.052-0.035,0.11-0.128,0.098-0.178C12.024,6.57,11.932,6.282,11.844,5.984z M5.486,7.413C5.2,7.444,4.955,7.49,4.71,7.491
			c-0.197,0-0.312,0.05-0.413,0.235c-0.182,0.333-0.62,0.492-0.972,0.398C2.925,8.017,2.648,7.689,2.632,7.308
			c-0.017-0.43,0.209-0.781,0.586-0.911C3.593,6.269,4.064,6.371,4.24,6.692C4.395,6.975,4.602,6.977,4.852,6.95
			c0.148-0.016,0.294-0.045,0.442-0.057C5.442,6.88,5.465,6.818,5.42,6.682C5.172,5.925,4.646,5.469,3.878,5.327
			C3.124,5.187,2.472,5.432,1.989,6.032C1.357,6.817,1.453,7.96,2.181,8.652c0.736,0.699,1.915,0.727,2.667,0.049
			C5.221,8.366,5.458,7.954,5.486,7.413z M12.51,7.325c-0.274-0.017-0.536,0.212-0.548,0.48c-0.011,0.243,0.235,0.49,0.506,0.506
			c0.252,0.015,0.48-0.187,0.502-0.447C12.992,7.597,12.774,7.342,12.51,7.325z M3.529,6.763C3.254,6.76,3.046,6.967,3.048,7.242
			C3.051,7.526,3.26,7.734,3.546,7.733c0.251-0.001,0.483-0.219,0.491-0.462C4.045,6.992,3.819,6.765,3.529,6.763z"/>
		<path fill="#FFFFFF" d="M12.046,10.575c0.173,0.4,0.421,0.662,0.846,0.675c0.435,0.013,0.677-0.249,0.827-0.655
			c0.078,0.323-0.061,0.655-0.312,0.846c-0.182,0.139-0.36,0.286-0.522,0.447c-1.015,1.014-2.191,1.741-3.619,1.993
			c-2.312,0.407-4.307-0.233-5.97-1.884c-0.279-0.277-0.501-0.61-0.756-0.911c-0.08-0.094-0.175-0.182-0.278-0.249
			c-0.308-0.202-0.42-0.488-0.392-0.85c0.161,0.369,0.426,0.591,0.833,0.608c0.418,0.018,0.686-0.204,0.857-0.57
			c0.144,0.264-0.01,0.532-0.533,0.93c0.017,0.034,0.03,0.074,0.054,0.106c1.428,1.839,3.309,2.671,5.622,2.447
			c1.41-0.137,2.629-0.738,3.631-1.753c0.18-0.182,0.178-0.198-0.016-0.359C12.068,11.19,11.95,10.866,12.046,10.575z"/>
	</g>
</g>
</svg>
