<?xml version="1.0" encoding="utf-8"?>
<!-- Generator: Adobe Illustrator 27.3.1, SVG Export Plug-In . SVG Version: 6.00 Build 0)  -->
<svg version="1.1" id="Layer_1" xmlns="http://www.w3.org/2000/svg" xmlns:xlink="http://www.w3.org/1999/xlink" x="0px" y="0px"
	 width="434.1px" height="143.9px" viewBox="0 0 434.1 143.9" enable-background="new 0 0 434.1 143.9" xml:space="preserve">
<g>
	<rect x="19.7" y="10.8" fill="#F5822A" width="398.1" height="118.9"/>
	<polygon fill="#00000A" points="370.3,22 31.2,22 31.2,119.1 370.3,119.1 406.4,70.4 	"/>
	<path fill="#FFFFFF" stroke="#FFFFFF" stroke-width="0.8065" stroke-miterlimit="10" d="M125.2,99.4c-0.9,0-1.8-0.2-2.6-0.5
		c-0.8-0.3-1.5-0.9-2.2-1.6l0.8-1.1c0.6,0.6,1.2,1.1,1.8,1.4c0.6,0.3,1.3,0.5,2.1,0.5c0.8,0,1.4-0.2,1.9-0.6
		c0.5-0.4,0.7-0.9,0.7-1.6v0c0-0.3,0-0.6-0.1-0.8c-0.1-0.2-0.2-0.5-0.5-0.7c-0.2-0.2-0.5-0.4-0.9-0.5c-0.4-0.2-0.9-0.3-1.5-0.5
		c-0.7-0.2-1.2-0.3-1.7-0.6c-0.5-0.2-0.9-0.5-1.2-0.8c-0.3-0.3-0.6-0.6-0.7-1c-0.2-0.4-0.2-0.9-0.2-1.4v0c0-0.5,0.1-1,0.3-1.4
		c0.2-0.4,0.5-0.8,0.8-1.1c0.3-0.3,0.7-0.6,1.2-0.7c0.5-0.2,1-0.3,1.5-0.3c0.9,0,1.6,0.1,2.2,0.4c0.6,0.3,1.3,0.7,1.9,1.2l-0.8,1.1
		c-0.5-0.5-1.1-0.9-1.6-1.1c-0.5-0.2-1.1-0.3-1.7-0.3c-0.8,0-1.4,0.2-1.8,0.6c-0.4,0.4-0.7,0.9-0.7,1.5v0c0,0.3,0,0.6,0.1,0.8
		c0.1,0.2,0.2,0.5,0.5,0.7c0.2,0.2,0.6,0.4,1,0.6c0.4,0.2,0.9,0.3,1.6,0.5c1.3,0.3,2.3,0.8,2.9,1.3c0.6,0.6,0.9,1.3,0.9,2.3v0
		c0,0.6-0.1,1.1-0.3,1.5c-0.2,0.4-0.5,0.8-0.8,1.2c-0.3,0.3-0.8,0.6-1.3,0.7C126.3,99.3,125.7,99.4,125.2,99.4z"/>
	<path fill="#FFFFFF" stroke="#FFFFFF" stroke-width="0.8065" stroke-miterlimit="10" d="M143.1,99.4c-0.7,0-1.4-0.1-2-0.4
		c-0.6-0.2-1.1-0.6-1.5-1.1c-0.4-0.5-0.8-1.1-1-1.8c-0.2-0.7-0.3-1.5-0.3-2.4v-7.5h1.3v7.4c0,1.4,0.3,2.5,0.9,3.2
		c0.6,0.8,1.5,1.1,2.6,1.1c1.1,0,1.9-0.4,2.6-1.1c0.6-0.7,0.9-1.8,0.9-3.2v-7.5h1.3v7.4c0,0.9-0.1,1.8-0.3,2.5
		c-0.2,0.7-0.6,1.3-1,1.8c-0.4,0.5-0.9,0.8-1.5,1.1C144.5,99.3,143.8,99.4,143.1,99.4z"/>
	<path fill="#FFFFFF" stroke="#FFFFFF" stroke-width="0.8065" stroke-miterlimit="10" d="M157.7,86.3h4.4c0.7,0,1.2,0.1,1.8,0.3
		c0.5,0.2,1,0.5,1.4,0.8c0.4,0.4,0.7,0.8,0.9,1.3c0.2,0.5,0.3,1.1,0.3,1.7v0c0,0.7-0.1,1.3-0.4,1.8c-0.2,0.5-0.6,1-1,1.3
		c-0.4,0.4-0.9,0.6-1.5,0.8c-0.6,0.2-1.1,0.3-1.8,0.3H159v4.6h-1.3V86.3z M161.9,93.4c0.5,0,0.9-0.1,1.3-0.2c0.4-0.1,0.7-0.3,1-0.6
		c0.3-0.3,0.5-0.6,0.6-0.9c0.2-0.3,0.2-0.7,0.2-1.2v0c0-0.9-0.3-1.6-0.9-2.1c-0.6-0.5-1.3-0.7-2.3-0.7h-3v5.7H161.9z"/>
	<path fill="#FFFFFF" stroke="#FFFFFF" stroke-width="0.8065" stroke-miterlimit="10" d="M175.5,86.3h8.4v1.3h-7.1v4.5h6.4v1.3h-6.4
		v4.5h7.2v1.3h-8.5V86.3z"/>
	<path fill="#FFFFFF" stroke="#FFFFFF" stroke-width="0.8065" stroke-miterlimit="10" d="M193.3,86.3h5c0.7,0,1.4,0.1,1.9,0.3
		c0.6,0.2,1,0.5,1.4,1c0.3,0.3,0.5,0.7,0.7,1.1c0.2,0.4,0.2,0.9,0.2,1.4v0c0,0.5-0.1,1-0.2,1.5c-0.2,0.4-0.4,0.8-0.7,1.1
		c-0.3,0.3-0.6,0.6-1,0.8c-0.4,0.2-0.8,0.3-1.3,0.4l3.6,5.3h-1.6l-3.4-5h0h-3.3v5h-1.3V86.3z M198.2,92.9c0.4,0,0.8-0.1,1.2-0.2
		c0.4-0.1,0.7-0.3,1-0.5c0.3-0.2,0.5-0.5,0.6-0.8c0.1-0.3,0.2-0.7,0.2-1.1v0c0-0.8-0.3-1.4-0.8-1.9c-0.5-0.4-1.3-0.7-2.2-0.7h-3.6
		v5.2H198.2z"/>
	<path fill="#FFFFFF" stroke="#FFFFFF" stroke-width="0.8065" stroke-miterlimit="10" d="M211.9,86.3h8.4v1.3h-7v4.6h6.3v1.3h-6.3
		v5.6h-1.3V86.3z"/>
	<path fill="#FFFFFF" stroke="#FFFFFF" stroke-width="0.8065" stroke-miterlimit="10" d="M234.9,99.5c-0.9,0-1.7-0.2-2.4-0.5
		c-0.7-0.4-1.4-0.8-1.9-1.5c-0.5-0.6-0.9-1.3-1.2-2.1c-0.3-0.8-0.4-1.7-0.4-2.5v0c0-0.9,0.1-1.7,0.4-2.5c0.3-0.8,0.7-1.5,1.2-2.1
		c0.5-0.6,1.1-1.1,1.9-1.5c0.7-0.4,1.5-0.5,2.4-0.5c0.9,0,1.7,0.2,2.4,0.5c0.7,0.4,1.3,0.8,1.9,1.5c0.5,0.6,0.9,1.3,1.2,2.1
		c0.3,0.8,0.4,1.7,0.4,2.5c0,0,0,0,0,0c0,0.9-0.1,1.7-0.4,2.6c-0.3,0.8-0.7,1.5-1.2,2.1c-0.5,0.6-1.1,1.1-1.9,1.5
		C236.6,99.3,235.8,99.5,234.9,99.5z M234.9,98.1c0.7,0,1.3-0.1,1.8-0.4c0.6-0.3,1-0.7,1.4-1.1c0.4-0.5,0.7-1,0.9-1.7
		c0.2-0.6,0.3-1.3,0.3-2.1v0c0-0.7-0.1-1.4-0.3-2.1c-0.2-0.6-0.5-1.2-1-1.7c-0.4-0.5-0.9-0.9-1.5-1.1c-0.6-0.3-1.2-0.4-1.8-0.4
		c-0.7,0-1.3,0.1-1.8,0.4c-0.6,0.3-1,0.7-1.4,1.1c-0.4,0.5-0.7,1-0.9,1.7c-0.2,0.6-0.3,1.3-0.3,2.1v0c0,0.7,0.1,1.4,0.3,2.1
		c0.2,0.6,0.5,1.2,1,1.7c0.4,0.5,0.9,0.9,1.5,1.1C233.7,98,234.3,98.1,234.9,98.1z"/>
	<path fill="#FFFFFF" stroke="#FFFFFF" stroke-width="0.8065" stroke-miterlimit="10" d="M255.7,99.5c-0.9,0-1.7-0.2-2.4-0.5
		c-0.7-0.4-1.4-0.8-1.9-1.5c-0.5-0.6-0.9-1.3-1.2-2.1c-0.3-0.8-0.4-1.7-0.4-2.5v0c0-0.9,0.1-1.7,0.4-2.5c0.3-0.8,0.7-1.5,1.2-2.1
		c0.5-0.6,1.1-1.1,1.9-1.5c0.7-0.4,1.5-0.5,2.4-0.5c0.9,0,1.7,0.2,2.4,0.5c0.7,0.4,1.3,0.8,1.9,1.5c0.5,0.6,0.9,1.3,1.2,2.1
		c0.3,0.8,0.4,1.7,0.4,2.5c0,0,0,0,0,0c0,0.9-0.1,1.7-0.4,2.6c-0.3,0.8-0.7,1.5-1.2,2.1c-0.5,0.6-1.1,1.1-1.9,1.5
		C257.4,99.3,256.6,99.5,255.7,99.5z M255.7,98.1c0.7,0,1.3-0.1,1.8-0.4c0.6-0.3,1-0.7,1.4-1.1c0.4-0.5,0.7-1,0.9-1.7
		c0.2-0.6,0.3-1.3,0.3-2.1v0c0-0.7-0.1-1.4-0.3-2.1c-0.2-0.6-0.5-1.2-1-1.7c-0.4-0.5-0.9-0.9-1.5-1.1c-0.6-0.3-1.2-0.4-1.8-0.4
		c-0.7,0-1.3,0.1-1.8,0.4c-0.6,0.3-1,0.7-1.4,1.1c-0.4,0.5-0.7,1-0.9,1.7c-0.2,0.6-0.3,1.3-0.3,2.1v0c0,0.7,0.1,1.4,0.3,2.1
		c0.2,0.6,0.5,1.2,1,1.7c0.4,0.5,0.9,0.9,1.5,1.1C254.4,98,255.1,98.1,255.7,98.1z"/>
	<path fill="#FFFFFF" stroke="#FFFFFF" stroke-width="0.8065" stroke-miterlimit="10" d="M271.1,86.3h4c0.9,0,1.7,0.2,2.5,0.5
		c0.8,0.3,1.4,0.8,2,1.4c0.5,0.6,1,1.3,1.3,2c0.3,0.8,0.4,1.6,0.4,2.5v0c0,0.9-0.1,1.8-0.4,2.6c-0.3,0.8-0.7,1.5-1.3,2.1
		c-0.6,0.6-1.2,1-2,1.4c-0.8,0.3-1.6,0.5-2.5,0.5h-4V86.3z M275.1,97.9c0.7,0,1.4-0.1,2-0.4c0.6-0.3,1.1-0.6,1.5-1.1
		c0.4-0.5,0.7-1,1-1.6c0.2-0.6,0.3-1.3,0.3-2v0c0-0.7-0.1-1.4-0.3-2c-0.2-0.6-0.6-1.2-1-1.6c-0.4-0.5-0.9-0.8-1.5-1.1
		c-0.6-0.3-1.3-0.4-2-0.4h-2.7v10.2H275.1z"/>
	<path fill="#FFFFFF" d="M231.9,64.4c0,0.6,0.1,1.2,0.3,1.7c0.5,1.6,2.2,1.9,3.6,1.9c1.2,0,3.1-0.4,3.1-2.4c0-1.3-1.1-1.7-5.3-3
		c-3.9-1.2-8.3-2.3-8.3-7.5c0-6,4.8-8.6,9.9-8.6c5.3,0,10,2.1,10.2,8.5h-7.1c0.1-1-0.3-1.6-0.9-2.1c-0.6-0.5-1.5-0.6-2.2-0.6
		c-1,0-2.7,0.3-2.7,1.7c0.1,1.8,3.6,2.2,7.1,3.3c3.5,1,6.9,2.7,6.9,7.5c0,6.8-5.9,8.9-11.3,8.9c-2.8,0-10.7-1.1-10.7-9.3H231.9z"/>
	<path fill="#FFFFFF" d="M248.8,47.2h12.6c6.6,0,9,5.1,9,8.9c0,6.3-4,9.2-9.6,9.2h-4.5v7.9h-7.5V47.2z M256.3,59.1h2.9
		c2,0,4-0.1,4-2.8c0-2.4-1.7-2.5-3.6-2.5h-3.4V59.1z"/>
	<path fill="#FFFFFF" d="M284.5,46.6c7.4,0,12.4,5.7,12.4,13.6c0,7.9-5,13.6-12.4,13.6c-7.4,0-12.4-5.7-12.4-13.6
		C272.1,52.2,277.1,46.6,284.5,46.6z M284.5,67.3c1.9,0,4.9-1.3,4.9-7.1c0-5.8-2.9-7.1-4.9-7.1c-1.9,0-4.9,1.3-4.9,7.1
		C279.7,65.9,282.6,67.3,284.5,67.3z"/>
	<path fill="#FFFFFF" d="M300.1,47.2h14.3c4.3,0,8,2.5,8,7.4c0,2.7-1.2,5.5-3.7,6.5c2.1,0.8,3.3,3.2,3.6,6.5
		c0.1,1.3,0.1,4.4,0.8,5.6h-7.5c-0.4-1.3-0.5-2.7-0.6-4c-0.2-2.5-0.4-5-3.4-5h-4v9h-7.5V47.2z M307.6,58.5h3.9
		c1.4,0,3.3-0.3,3.3-2.6c0-1.6-0.9-2.6-3.7-2.6h-3.5V58.5z"/>
	<path fill="#FFFFFF" d="M330.6,53.8h-6.8v-6.6h21.2v6.6h-6.8v19.3h-7.5V53.8z"/>
	<rect x="57.2" y="47.2" fill-rule="evenodd" clip-rule="evenodd" fill="#FFFFFF" width="11.4" height="11.4"/>
	<rect x="73" y="47.2" fill-rule="evenodd" clip-rule="evenodd" fill="#FFFFFF" width="11.4" height="11.4"/>
	<rect x="73" y="62.1" fill-rule="evenodd" clip-rule="evenodd" fill="#FFFFFF" width="11.4" height="11.4"/>
	<g>
		<path fill="#FCE200" d="M92.3,47.2h7.7l7.1,13.9h0.1V47.2h7.1v25.9H107l-7.5-14.2h-0.1v14.2h-7.1V47.2z"/>
		<path fill="#FCE200" d="M125,47.2h7.4l8.9,25.9h-7.8l-1-3.7h-7.8l-1.1,3.7H116L125,47.2z M130.9,63.8l-2.2-8h-0.1l-2.4,8H130.9z"
			/>
		<path fill="#FCE200" d="M142.9,47.2h10.7l3.5,15.2h0.1l3.5-15.2h10.7v25.9h-7.1V56.5h-0.1L160,73.1h-5.6l-4.2-16.6H150v16.6h-7.1
			V47.2z"/>
		<path fill="#FCE200" d="M175.2,47.2h20.2v6.6h-12.7v3.2h11.5v6.2h-11.5v3.2h13.1v6.7h-20.6V47.2z"/>
		<path fill="#FCE200" d="M199.3,47.2h12.3c8.1,0,11,6.4,11,12.9c0,8-4,13-12.5,13h-10.9V47.2z M206.9,66.5h2.9c4.7,0,5.4-4,5.4-6.5
			c0-1.6-0.5-6.2-5.9-6.2h-2.4V66.5z"/>
		<rect x="57.2" y="62.1" fill-rule="evenodd" clip-rule="evenodd" fill="#FCE200" width="11.4" height="11.4"/>
	</g>
	<path fill="#FFFFFF" d="M353.4,47c2.5,0,4.5,1.9,4.5,4.4c0,2.5-2,4.4-4.5,4.4c-2.5,0-4.6-2-4.6-4.4C348.8,48.9,350.8,47,353.4,47
		L353.4,47z M353.3,47.9c-1.9,0-3.4,1.6-3.4,3.5c0,2,1.5,3.5,3.4,3.5c1.9,0,3.4-1.6,3.4-3.5C356.8,49.5,355.3,47.9,353.3,47.9
		L353.3,47.9z M352.7,53.7h-1v-4.4c0.4-0.1,1-0.1,1.7-0.1c0.8,0,1.2,0.1,1.5,0.3c0.3,0.2,0.5,0.5,0.5,0.9c0,0.5-0.4,0.9-0.9,1.1v0.1
		c0.4,0.1,0.6,0.5,0.8,1.1c0.1,0.7,0.2,0.9,0.3,1.1h-1.1c-0.1-0.2-0.2-0.5-0.4-1.1c-0.1-0.5-0.3-0.7-0.9-0.7h-0.5V53.7z M352.7,51.2
		h0.5c0.6,0,1-0.2,1-0.6c0-0.4-0.3-0.7-0.9-0.7c-0.3,0-0.5,0-0.6,0.1V51.2z"/>
</g>
</svg>
