<?xml version="1.0" encoding="UTF-8"?><svg id="Capa_2" xmlns="http://www.w3.org/2000/svg" width="743.08" height="81.78" viewBox="0 0 743.08 81.78"><g id="Capa_1-2"><path d="M160.7,78.73c-.27-2.08.49-3.84,1.12-5.74,7.28-21.85,19.25-43.83,26.62-65.87,1.46-2.84,4.29-4.55,7.52-4.39,32.7,1.9,68.52-2.83,100.81,1.08,15.15,1.83,31.48,5.67,23.95,24.58-3.71,9.31-11.16,14.19-20.42,17.15-9.08,2.9-20.12,4.79-29.55,5.76l30.69,23.81,2.32,3.63h-27.97c-2.69,0-4.44.61-8-.26-14.36-3.5-27.87-25.81-41.53-27.19-3.08-.31-18.74-.46-20.63.44-3.29,1.57-9.78,27-13.3,27h-31.64ZM211.14,36.63h58.24c1.62,0,8.56-1.69,10.27-2.56,9.43-4.8,9.83-14.66-2.9-15.78-17.85-1.57-37.93,1.29-56.04-.02-1.6-.11-2.14.35-3.06,1.52-1.12,1.44-7.18,16.22-6.52,16.83Z" style="fill:#fff;"/><path d="M82.55.3c18.19-1.22,63.82.93,77.26,13.88,13.92,13.42,2.28,35.88-9.69,46.22-26.74,23.12-90.48,25.22-123.34,16.97C.61,70.79-8.01,53.69,8.24,30.47,23.33,8.9,57.66,1.97,82.55.3ZM79.8,15.85c-15.04,1.44-33.43,7.46-40.33,21.99-10.55,22.21,8.54,26.99,26.27,28.12,20.58,1.31,51.48-.77,61.2-22.28,13.52-29.92-28.5-29.61-47.14-27.82Z" style="fill:#fff;"/><path d="M509.21,32.06h77.96c.49,2.61-4.78,15.56-6.88,15.56h-77.5c-1.86,11.22,10.53,13.04,19.05,14.39,11.78,1.86,45.03,2.87,56.39.95,4.13-.7,8.77-4.59,12.35-6.9,25.43-16.38,49.46-35.11,74.83-51.63,5.19-2.24,31.55-2.57,37.72-1.6,2.85.44,3.8,1.69,5.28,3.88,8.5,12.57,19.38,37.88,26.28,52.48,2.97,6.28,6.41,13.1,8.38,19.55h-35.31c-3.09,0-3.77-5.89-4.88-7.94-2.62-4.85-6-6.99-11.62-7.62-21.55-2.42-47.58,1.73-69.6.1-12.12,1.44-18.75,14.46-30.33,15.49-23.29,2.07-60.82.93-84.4-.97-18.18-1.46-42.84-8.06-39.83-30.57,4.8-35.97,57.14-43.44,85.64-44.5,22.21-.83,44.62.58,66.85.18,2.95.94-.04,7.52-1.06,9.64-1.45,3-2.08,4.53-5.61,5.38-22.76,1.84-46.71-1.09-69.34.36-12.48.8-25.69,4.26-34.35,13.77ZM642.65,47.62c15.94-.78,32.19.58,48.15,0l-12.41-25.65-38.02,24.75.47,1.83c.84-.09,1.54-.92,1.82-.94Z" style="fill:#fff;"/><path d="M463.94,28.99c-4.95,5.19-14.52,8.94-21.69,9.49,2.41,2.75,7.25,2.7,10.71,4.4,15.33,7.55,3.92,24.42-7.01,29.94-8.12,4.1-18.19,4.48-27.05,5.95l-107.8-.04c8.38-21.3,16.23-43,25.23-64.04,1.36-3.18,3.71-10.5,6.81-11.51,30.92.48,63.32-2.01,94.1-.44,6.86.35,22.18,1.75,27.86,5.14,8.21,4.9,4.08,15.61-1.17,21.11ZM364.3,32.06h58.24c6.45,0,16.5-9.41,7.13-13.52-18.07.99-38.97-2.01-56.71-.26-6.55.65-7.11,8.21-8.66,13.78ZM351.46,63.17h60.99c.94,0,7.49-2.49,8.67-3.25,8.92-5.79,4.01-12.79-4.95-13.27l-56.71.25c-3.67-.12-8.8,15.46-8,16.27Z" style="fill:#fff;"/></g></svg>