<?xml version="1.0" encoding="utf-8"?>
<!-- Generator: Adobe Illustrator 28.3.0, SVG Export Plug-In . SVG Version: 6.00 Build 0)  -->
<svg version="1.1" id="Capa_1" xmlns="http://www.w3.org/2000/svg" xmlns:xlink="http://www.w3.org/1999/xlink" x="0px" y="0px"
	 viewBox="0 0 620 768" style="enable-background:new 0 0 620 768;" xml:space="preserve">
<style type="text/css">
	.st0{fill:#FFFFFF;}
</style>
<path class="st0" d="M104.7,55.1c11,0,21.4,2.4,31.3,7.2c1.4,0.7,3,1.3,2.2,3.4c-0.6,1.7-2.1,2.1-4.3,1c-11.9-5.8-24.5-7.7-37.6-6.1
	c-9,1.1-17.4,4.2-25.4,8.3c-15.5,8.1-26.6,20-33,36.2c-5.9,14.9-6.9,30.2-1.9,45.6c1.6,5,3.8,9.8,9,12.2c2.3,1.1,4.1,1.1,6.1-0.6
	c1.3-1.1,2.5-2.3,3.8-3.3c4-3.1,8-3.2,12.2-0.2c1.6,1.1,3,2.4,4.6,3.4c3.3,2.3,6.2,2,8.8-1c3.2-3.8,7-5.1,11.8-3.4
	c0.6,0.2,1.1,0.3,1.3-0.5c2.5-7.7,4.2-15.4,1.2-23.3c-3.1-8.1-9.7-11.8-17.8-13.4c-4.2-0.8-8.4-0.3-12.6-0.4
	c-3.5-0.1-5.9-2.9-5.5-6.2c0.2-2.2,1.6-3.6,3.5-4.5c2.4-1.2,5-1.7,7.7-1.5c9.6,0.8,17.4-2.9,23.7-9.9c6.3-7,21.2-6,26.4,1.9
	c2.8,4.3,2.6,9.1,1.6,13.9c-1.7,8.4-3.6,16.8-4.4,25.4c-1,10.6-0.4,20.9,5.3,30.3c5.2,8.5,12.2,14.7,22.2,16.9
	c1.7,0.4,3,1.2,2.6,3.1c-0.4,2-2.1,2-3.7,1.7c-10-2.2-17.6-8-23.4-16.2c-6.1-8.6-8.3-18.3-8.2-28.8c0.2-11.2,2.6-22,4.8-32.9
	c0.2-0.9,0.3-1.9,0.4-2.8c0.9-7.3-2.1-11.1-9.5-11.9c-0.7-0.1-1.5-0.2-2.2-0.3c-3.4-0.4-6.1,0.5-8.6,3.3
	c-7.4,8.2-16.7,12.3-27.9,11.3c-1.4-0.1-2.8,0.1-4.1,0.7c-0.6,0.2-1.4,0.5-1.2,1.3c0.2,0.9,1,0.7,1.6,0.6c4.1-0.3,8.1-0.4,12.1,0.4
	c9.3,1.7,16.9,6,21.1,14.9c3.2,6.8,3.1,14,1.4,21.2c-2.1,9.2-5.8,17.9-8.3,26.9c-1.8,6.6-3.4,13.2-3.9,20.1c0,0.5-0.1,1-0.2,1.5
	c-0.2,1.7-1.2,2.5-2.9,2.3c-1.7-0.2-2-1.4-1.9-2.9c0.6-7.3,1.9-14.4,4-21.4c1.4-4.6,2.8-9.3,4.3-13.9c0.4-1.3,0.2-1.8-1-2.3
	c-1.9-0.7-3.6-0.4-5,1.1c-0.7,0.7-1.3,1.4-2,2.1c-3.6,3.6-8.6,4.2-12.9,1.6c-2.1-1.3-3.9-2.9-5.9-4.2c-2.7-1.8-4.3-1.7-6.8,0.3
	c-1.3,1.1-2.6,2.4-4,3.5c-3.1,2.5-6.5,2.7-9.9,1.1c-3.8-1.8-6.9-4.4-9-8.2c-5.9-10.6-7.3-22.1-6.4-34c1.2-15.7,6.8-29.7,16.7-42
	c6.7-8.3,15-14.4,24.4-19.4c10.6-5.6,21.8-8.8,33.8-9.1C103.6,55,104.2,55,104.7,55.1L104.7,55.1z"/>
<path class="st0" d="M180.3,133.6c-0.2,5.8-1,11.4-2.4,17c-0.4,1.8-1.1,3.2-3.2,2.7c-2.2-0.5-2-2.3-1.6-3.9c1.5-6,2.4-12.1,2.3-18.3
	c-0.2-15.4-4.7-29.4-13.8-41.8c-0.9-1.2-1.8-2.3-2.6-3.6c-0.8-1.2-0.8-2.4,0.4-3.3c1.3-0.9,2.5-0.7,3.5,0.6c5,6.1,9.1,12.8,12,20.2
	C178.8,113,180.6,123.1,180.3,133.6L180.3,133.6z"/>
<path class="st0" d="M35.7,59.9c0-6.4,5.5-11.8,12-11.6c1.7,0,3.3,0.3,3.3,2.3c0,2-1.6,2.2-3.3,2.3c-3.9,0.1-6.6,2.3-7.3,5.8
	c-0.7,3.5,1,6.7,4.2,8.1c3.8,1.7,8.5-0.4,9.8-4.4c0.1-0.4,0.2-0.9,0.3-1.3c0.4-1.2,1.2-2.1,2.6-1.8c1.5,0.3,2,1.4,1.7,2.8
	c-0.8,4.5-3.4,7.5-7.5,9.1C43.8,74.1,35.6,68.2,35.7,59.9L35.7,59.9z"/>
<path class="st0" d="M85.4,31.8c1.3,0,3,0.5,4.4,1.8c1,0.9,1.4,1.9,0.7,3.1c-0.8,1.2-1.9,1.3-3.1,0.5c-1.5-1-2.9-1.3-4.6-0.5
	c-0.9,0.4-1.7,1-1.7,2.1c0,1.2,1.1,1.4,2,1.6c2,0.5,4.1,0.4,6.1,1.1c5.1,1.8,6.5,7.4,2.7,11.3c-3.4,3.5-9.5,3.5-12.7,0
	c-1-1-1.6-2.2-0.4-3.5c1.2-1.3,2.3-0.8,3.5,0.1c2.2,1.7,4.3,1.9,6,0.5c0.8-0.6,1.3-1.4,1.2-2.4c-0.1-1.2-1-1.6-2-1.8
	c-1.1-0.3-2.3-0.4-3.5-0.5c-4.9-0.5-7.6-2.9-7.5-6.7C76.7,34.7,80.4,31.7,85.4,31.8L85.4,31.8z"/>
<path class="st0" d="M115.6,51.2c0.1,1.3-0.5,2-1.4,2.2c-1.1,0.3-2.1,0-2.7-1c-0.7-1.3-1.2-2.7-1.7-4c-0.4-1.1-0.9-1.6-2.1-1.5
	c-0.1,0-0.3,0-0.4,0c-3.9-0.6-7-0.1-7.9,4.6c-0.3,1.5-1.7,2.2-3.1,1.5c-1.5-0.7-1.5-2-0.9-3.4c2.7-6,5.4-12,8.3-18
	c1-2,3.2-2.2,4.1-0.2c2.7,6.3,5.2,12.7,7.8,19.1C115.6,50.9,115.6,51.2,115.6,51.2L115.6,51.2z M105.7,37.9c-0.8,1.7-1.6,3-1.9,4.4
	h3.6C106.8,40.8,106.3,39.5,105.7,37.9z"/>
<path class="st0" d="M59.9,51c0-3.2,0-6.3,0-9.5c0-1.2,0.2-2.2,1.4-2.7c1.2-0.6,2.1,0.2,2.9,0.9c4.7,4.4,9.3,8.8,14,13.1
	c1.2,1.1,1.7,2.4,0.5,3.6c-1.1,1.1-2.6,0.9-3.5-0.3c-2.5-3.6-5.3-3.2-8.8-1.3c-1.5,0.8-2.3,1.5-2.1,3.2c0.1,0.9,0,1.9,0,2.9
	c0,1.5-0.6,2.7-2.2,2.7c-1.6,0-2.2-1.1-2.2-2.7C59.9,57.6,59.9,54.3,59.9,51L59.9,51L59.9,51z M64.3,45.9c0,1.4,0.1,2.2,0,3.1
	c-0.1,1.5,0.3,1.7,1.7,1.2c1.8-0.7,1.8-1.3,0.4-2.4C65.7,47.3,65.2,46.8,64.3,45.9L64.3,45.9z"/>
<path class="st0" d="M144.8,43.7c-0.1,4.6-4.2,7.9-8.7,6.8c-0.8-0.2-1.6-0.4-2.3-0.7c-1.4-0.7-2.1-0.3-2.5,1.2
	c-0.4,1.5-1,2.9-1.6,4.3c-0.6,1.3-1.6,2-3,1.4c-1.3-0.6-1.7-1.7-1.2-3.1c2.1-5.7,4.2-11.4,6.3-17.1c0.5-1.4,1.6-2,2.9-1.6
	c2.3,0.7,4.7,1.4,6.7,2.7C143.7,39,144.8,41.1,144.8,43.7L144.8,43.7z M137.3,46.1c1.7,0,2.8-0.7,2.9-2.4c0.1-1.6-2-3.3-4.1-3.5
	c-0.7-0.1-2.7,3.1-2.3,4.2C134.4,45.9,136.1,45.7,137.3,46.1L137.3,46.1z"/>
<path class="st0" d="M145.2,70.2c-1.7-0.1-3.2-0.5-4.6-1.5c-1-0.7-1.4-1.8-0.7-2.9c0.6-0.9,1.4-1.3,2.6-1c4.2,1,4.2,0.9,6.6-2.6
	c2.8-4.1,5.6-8.3,8.4-12.4c0.2-0.4,0.5-0.7,0.8-1.1c0.9-1.2,2.1-1.5,3.3-0.7c1.2,0.8,1.2,2.1,0.4,3.3c-3.6,5.3-7.1,10.6-10.8,15.8
	C149.8,69.2,147.6,70.1,145.2,70.2L145.2,70.2z"/>
<path class="st0" d="M157,79.3c-1.1,0-2.8-0.6-4.3-2c-1-0.9-1.5-2.1-0.6-3.3c0.9-1.1,1.9-1,3.1-0.4c3.1,1.6,3.8,1.5,6.3-1.1
	c3.8-3.8,7.5-7.6,11.3-11.5c0.7-0.7,1.4-1.4,2.4-1.3c0.9,0.1,1.6,0.5,2,1.5c0.4,1.2-0.1,2-0.9,2.7c-2.6,2.7-5.3,5.3-7.9,8
	c-1.6,1.7-3.3,3.3-5,5C162,78.5,160.1,79.3,157,79.3L157,79.3z"/>
<path class="st0" d="M154.3,45.1c-0.1,0.3-0.4,1-0.7,1.7c-2.7,5-5.4,9.9-8.1,14.9c-0.8,1.4-1.7,2.6-3.5,1.6
	c-1.7-0.9-1.3-2.3-0.5-3.8c2.8-5,5.4-10.1,8.2-15.1c1.2-2.1,2.7-2.5,4-1.1C154,43.7,154.4,44.1,154.3,45.1L154.3,45.1z"/>
<path class="st0" d="M184,69.1c-0.1,0.9-0.6,1.5-1.3,2.1c-4.4,3.7-8.9,7.4-13.3,11.2c-1.2,1.1-2.6,1.6-3.8,0.1
	c-1.1-1.4-0.3-2.6,0.9-3.6c4.4-3.7,8.9-7.5,13.3-11.2c0.8-0.7,1.6-1.3,2.8-0.8C183.5,67.4,183.8,68.2,184,69.1L184,69.1z"/>
<path class="st0" d="M167.7,53.3c1.9,0.1,2.9,1.5,2.3,3c-0.2,0.5-0.6,1-0.9,1.5c-3.5,4.3-7.1,8.7-10.6,13c-0.1,0.1-0.2,0.2-0.3,0.3
	c-1,1.3-2.3,1.8-3.6,0.7c-1.2-1.1-0.9-2.3,0.1-3.5c2.9-3.6,5.9-7.2,8.8-10.8c0.8-1,1.7-2,2.5-3.1C166.6,53.8,167.2,53.3,167.7,53.3
	L167.7,53.3z"/>
</svg>
