<?xml version="1.0" encoding="UTF-8"?><svg id="Layer_1" xmlns="http://www.w3.org/2000/svg" viewBox="0 0 16 16"><path d="m3.148,9.533h-.226v.528h.146v-.151h.072c.131,0,.227-.066.227-.19h0c0-.118-.086-.187-.22-.187Zm.073.194c0,.042-.032.069-.084.069h-.069v-.14h.069c.053,0,.085.024.085.069v.002Z" fill="#fff"/><path d="m3.954,9.523c-.163,0-.285.123-.285.275v.002c0,.152.121.273.284.273s.285-.123.285-.275h0c0-.153-.121-.275-.284-.275Zm.134.276c0,.076-.054.141-.134.141-.08,0-.135-.066-.135-.143h0c0-.078.054-.143.134-.143.081,0,.136.066.136.143v.002Z" fill="#fff"/><path d="m5.04,9.715h0c0-.054-.016-.094-.047-.125-.036-.036-.091-.057-.172-.057h-.25v.528h.146v-.16h.064l.106.16h.169l-.126-.184c.066-.028.109-.081.109-.162Zm-.147.009c0,.038-.029.063-.078.063h-.097v-.127h.096c.049,0,.079.021.079.063v.002Z" fill="#fff"/><polygon points="5.983 9.533 5.837 9.533 5.837 10.062 6.239 10.062 6.239 9.933 5.983 9.933 5.983 9.533" fill="#fff"/><path d="m6.741,9.53l-.225.532h.154l.038-.094h.204l.038.094h.157l-.225-.532h-.141Zm.01.324l.06-.15.059.15h-.118Z" fill="#fff"/><polygon points="8.162 9.738 8.036 9.533 7.882 9.533 7.882 10.062 8.025 10.062 8.025 9.76 8.159 9.965 8.162 9.965 8.297 9.758 8.297 10.062 8.443 10.062 8.443 9.533 8.288 9.533 8.162 9.738" fill="#fff"/><rect x="8.797" y="9.533" width=".147" height=".528" fill="#fff"/><polygon points="9.787 9.533 9.623 9.533 9.528 9.682 9.435 9.533 9.266 9.533 9.44 9.793 9.259 10.062 9.423 10.062 9.525 9.902 9.626 10.062 9.795 10.062 9.614 9.792 9.787 9.533" fill="#fff"/><polygon points="10.077 9.662 10.236 9.662 10.236 10.062 10.382 10.062 10.382 9.662 10.541 9.662 10.541 9.533 10.077 9.533 10.077 9.662" fill="#fff"/><polygon points="11.007 9.853 11.26 9.853 11.26 9.738 11.007 9.738 11.007 9.658 11.287 9.658 11.287 9.533 10.862 9.533 10.862 10.062 11.291 10.062 11.291 9.937 11.007 9.937 11.007 9.853" fill="#fff"/><path d="m11.877,9.939c-.074,0-.126-.062-.126-.141h0c0-.078.052-.141.126-.141.051,0,.085.024.116.062l.11-.085c-.047-.065-.116-.11-.224-.11-.16,0-.279.121-.279.275v.002c0,.158.122.273.272.273.117,0,.184-.051.234-.119l-.11-.079c-.032.039-.064.064-.119.064Z" fill="#fff"/><path d="m12.746,9.53h-.141l-.225.532h.154l.038-.094h.204l.038.094h.157l-.225-.532Zm-.131.324l.06-.15.059.15h-.118Z" fill="#fff"/><polygon points="3.959 6.346 1.718 8.587 4.08 8.587 4.08 8.244 2.546 8.244 4.201 6.588 3.959 6.346" fill="#fff"/><polygon points="4.847 6.588 5.326 7.068 5.326 8.545 5.669 8.545 5.669 7.411 6.795 8.537 7.037 8.294 5.089 6.346 4.847 6.588" fill="#fff"/><path d="m10.467,7.507c-.384-.692-1.114-1.114-1.904-1.102-.382.006-.756.113-1.081.311-.315.192-.577.464-.757.786l.299.167c.151-.271.371-.499.636-.661.273-.166.587-.257.908-.261.664-.01,1.277.345,1.599.926l.3-.167Z" fill="#fff"/><polygon points="13.932 8.417 14.174 8.175 12.224 6.225 10.155 8.294 10.397 8.537 11.389 7.545 12.471 8.626 12.713 8.383 11.632 7.302 12.224 6.71 13.932 8.417" fill="#fff"/><rect x="10.139" y="6.65" width=".402" height=".343" transform="translate(-1.757 9.488) rotate(-45.844)" fill="#fff"/><rect x="9.613" y="6.265" width=".402" height=".343" transform="translate(-.588 11.871) rotate(-60.847)" fill="#fff"/><rect x="9.005" y="6.03" width=".401" height=".343" transform="translate(.943 13.612) rotate(-75.852)" fill="#fff"/><rect x="8.386" y="5.93" width=".343" height=".402" transform="translate(-.089 .127) rotate(-.845)" fill="#fff"/><rect x="7.742" y="6.03" width=".343" height=".402" transform="translate(-1.4 2.397) rotate(-15.843)" fill="#fff"/><rect x="7.145" y="6.294" width=".343" height=".402" transform="translate(-2.295 4.67) rotate(-30.846)" fill="#fff"/><rect x="6.637" y="6.702" width=".343" height=".402" transform="translate(-2.887 6.979) rotate(-45.844)" fill="#fff"/></svg>