<?xml version="1.0" encoding="utf-8"?>
<!-- Generator: Adobe Illustrator 29.2.1, SVG Export Plug-In . SVG Version: 9.03 Build 55982)  -->
<svg version="1.0" id="Capa_1" xmlns="http://www.w3.org/2000/svg" xmlns:xlink="http://www.w3.org/1999/xlink" x="0px" y="0px"
	 viewBox="0 0 2075 810.8" style="enable-background:new 0 0 2075 810.8;" xml:space="preserve">
<style type="text/css">
	.st0{fill:#FFFFFF;}
</style>
<g>
	<path class="st0" d="M1111.7,614.4l22.1-62.8l22.8,62.8H1111.7z M847.1,516h34.9c15.7,0,24.2,10,24.2,21.4
		c0,11.4-8.6,21.4-24.2,21.4h-34.9V516z M1933.2,433.9c-24.2,0-44.9,20-44.9,44.9v91.3L1812,456.8c-8.6-12.8-20.7-22.8-39.2-22.8
		c-25,0-44.9,20-44.9,44.9v208.9c0,25,20,44.9,44.9,44.9c25,0,44.9-20,44.9-44.9v-93.4l76.3,115.5c8.6,12.8,22.8,22.8,39.9,22.8
		c25,0,44.2-20,44.2-44.9V478.9C1978.1,453.9,1958.2,433.9,1933.2,433.9 M1675.8,519.5c23.5,0,42.8-19.3,42.8-42.8
		c0-23.5-19.3-42.8-42.8-42.8h-121.9c-25,0-44.9,20-44.9,44.9v208.9c0,25,20,44.9,44.9,44.9h121.9c23.5,0,42.8-19.3,42.8-42.8
		s-19.3-42.8-42.8-42.8h-76.3v-27.8h62c20.7,0,37.8-17.1,37.8-37.1c0-20.7-17.1-37.8-37.8-37.8h-62v-25H1675.8z M1456.1,433.9
		c-20.7,0-36.4,10.7-42.8,29.2l-50.6,133.4l-51.3-133.4c-6.4-18.5-22.1-29.2-42.8-29.2c-32.8,0-52.8,32.8-39.9,65.6l79.9,196.1
		c8.6,21.4,25,37.1,54.2,37.1c28.5,0,44.9-15.7,53.5-37.1l79.9-196.1C1509.6,467.5,1489.6,433.9,1456.1,433.9 M1186.6,470.3
		c-9.3-21.4-25.7-36.4-52.1-36.4c-27.1,0-42.8,15-52.1,36.4l-84.9,197.5c-12.8,29.2,5,64.9,41.4,64.9c18.5,0,35.7-11.4,41.4-29.2
		l5.7-17.1h95.6l6.4,17.8c5.7,15.7,21.4,28.5,42.1,28.5c34.9,0,52.8-35.7,40.6-63.5L1186.6,470.3z M944.8,614.4
		c30.7-15,51.3-42.8,51.3-81.3c0-62.8-51.3-99.1-112-99.1h-82.7c-25,0-44.9,20-44.9,44.9v208.9c0,25,20,44.9,44.9,44.9
		c25.7,0,45.6-20,45.6-44.9v-58.5l57.8,83.4c9.3,12.8,22.8,20,37.8,20c39.2,0,57.8-42.1,36.4-71.3L944.8,614.4z M1183.7,438.2
		c0,10,8.6,18.5,18.5,18.5c10.7,0,19.3-8.6,19.3-18.5c0-10-8.6-18.5-19.3-18.5C1192.3,419.7,1183.7,428.2,1183.7,438.2 M1066,419.7
		c-10.7,0-19.3,8.6-19.3,18.5c0,10,8.6,18.5,19.3,18.5c10,0,18.5-8.6,18.5-18.5C1084.6,428.2,1076,419.7,1066,419.7 M216,394
		c-18.5-5-36.4-7.1-57-7.1l-0.7-0.7c2.1-10.7,7.1-20,12.8-26.4c17.8,5.7,32.8,16.4,44.9,32.8V394z M1202.3,299.9l22.1-62.8
		l22.8,62.8H1202.3z M1628.7,418.3h115.5c23.5,0,42.8-19.3,42.8-42.8c0-23.5-19.3-42.8-42.8-42.8h-69.9V164.4
		c0-25-20-44.9-45.6-44.9c-25,0-44.9,20-44.9,44.9v208.9C1583.8,398.3,1603.7,418.3,1628.7,418.3 M1418.3,418.3h115.5
		c23.5,0,42.8-19.3,42.8-42.8c0-23.5-19.3-42.8-42.8-42.8H1464V164.4c0-25-20-44.9-45.6-44.9c-25,0-44.9,20-44.9,44.9v208.9
		C1373.4,398.3,1393.4,418.3,1418.3,418.3 M1129.5,418.3c18.5,0,35.7-11.4,41.4-29.2l5.7-17.1h95.6l6.4,17.8
		c5.7,15.7,21.4,28.5,42.1,28.5c34.9,0,52.8-35.7,40.6-63.5l-84.1-199c-9.3-21.4-25.7-36.4-52.1-36.4c-27.1,0-42.8,15-52.1,36.4
		l-84.9,197.5C1075.3,382.6,1093.1,418.3,1129.5,418.3 M919.1,319.8c-23.5,0-42.1,20-42.1,42.8c0,10.7,3.6,22.1,12.8,31.4
		c16.4,16.4,44.2,27.8,85.6,27.8c69.9,0,108.4-48.5,108.4-104.8V164.4c0-25-20-44.9-44.9-44.9c-25,0-45.6,20-45.6,44.9v151.2
		c0,14.3-8.6,21.4-20,21.4c-11.4,0-17.8-3.6-30-10C935.5,322,927.7,319.8,919.1,319.8 M801.5,418.3c25.7,0,45.6-20,45.6-44.9v-62
		H912c21.4,0,38.5-17.1,38.5-39.2c0-21.4-17.1-38.5-38.5-38.5h-64.9V205h76.3c23.5,0,42.8-19.3,42.8-42.8
		c0-23.5-19.3-42.8-42.8-42.8H801.5c-25,0-44.9,20-44.9,44.9v208.9C756.6,398.3,776.5,418.3,801.5,418.3 M1292.8,142.3
		c10.7,0,19.3-8.6,19.3-18.5c0-10-8.6-18.5-19.3-18.5c-10,0-18.5,8.6-18.5,18.5C1274.3,133.7,1282.8,142.3,1292.8,142.3
		 M1156.6,142.3c10,0,18.5-8.6,18.5-18.5c0-10-8.6-18.5-18.5-18.5c-10.7,0-19.3,8.6-19.3,18.5
		C1137.4,133.7,1145.9,142.3,1156.6,142.3 M420,107.3c-0.7-13.5-2.1-28.5-3.6-45.6h-0.7l-32.8,42.8h-10
		c-61.3,0-127.6,12.8-182.6,44.2l0.7,1.4c25.7-9.3,53.5-14.3,80.6-14.3c27.1,0,53.5,5,77,14.3L333,170.8
		c-20.7-8.6-45.6-13.5-70.6-13.5c-34.2,0-67.7,9.3-91.3,23.5l-62.8-84.9h-0.7c-6.4,74.9-10.7,158.3-10.7,201.1
		c0,97,22.8,116.2,49.2,138.3c20.7,17.1,44.2,37.1,59.2,99.8c9.3,38.5,15.7,47.1,38.5,47.1c19.3,0,27.8-7.1,36.4-39.9
		c16.4-62,50.6-93.4,82-121.2c35.7-32.1,68.5-59.2,68.5-120.5c0-36.4-5-67-15.7-104.8c26.4,29.2,42.8,67.7,42.8,114.1
		c0,48.5-17.8,82-75.6,132.6c-44.2,39.2-57.8,55.6-76.3,114.8C292.3,600.1,268.1,645,201,645c-20,0-42.8-3.6-62.8-12.1l-0.7,1.4
		c59.2,72.7,151.9,114.8,251.7,114.8c184,0,320.9-141.2,320.9-323.8C710.2,258.5,594.7,127.3,420,107.3"/>
</g>
</svg>
