<?xml version="1.0" encoding="utf-8"?>
<!-- Generator: Adobe Illustrator 27.3.1, SVG Export Plug-In . SVG Version: 6.00 Build 0)  -->
<svg version="1.1" id="Layer_1" xmlns="http://www.w3.org/2000/svg" xmlns:xlink="http://www.w3.org/1999/xlink" x="0px" y="0px"
	 width="16px" height="16px" viewBox="0 0 16 16" enable-background="new 0 0 16 16" xml:space="preserve">
<g>
	<path fill="#FFFFFF" d="M5.413,2.504l1.041,1.04l0.075-0.068L5.485,2.434c0.473-0.446,1.106-0.723,1.803-0.736v1.091l0.015-0.014
		l0.086,0.086V1.698C8.085,1.711,8.717,1.987,9.19,2.432L8.074,3.547l0.071,0.071l1.117-1.116c0.462,0.467,0.754,1.102,0.78,1.803
		l0.592,0.525c0.018-0.14,0.028-0.282,0.028-0.427c0-1.833-1.491-3.325-3.325-3.325c-1.833,0-3.325,1.491-3.325,3.325
		c0,0.14,0.01,0.278,0.027,0.414l0.595-0.535C4.666,3.591,4.957,2.966,5.413,2.504z"/>
	<g>
		<path fill="#FFFFFF" d="M5.783,8.156C5.697,8.107,5.608,8.059,5.519,8.014C5.517,8.013,5.28,7.891,4.994,7.736
			C4.933,7.703,4.856,7.725,4.823,7.787C4.79,7.848,4.813,7.924,4.874,7.957c0.289,0.157,0.529,0.28,0.532,0.281
			c0.086,0.043,0.171,0.089,0.252,0.136c0.02,0.011,0.041,0.017,0.062,0.017c0.044,0,0.086-0.023,0.109-0.063
			C5.864,8.267,5.843,8.19,5.783,8.156z"/>
		<path fill="#FFFFFF" d="M6.531,8.675C6.478,8.63,6.398,8.637,6.354,8.691C6.309,8.744,6.316,8.823,6.369,8.868
			C6.594,9.057,6.796,9.265,6.97,9.487c0.025,0.032,0.062,0.048,0.099,0.048c0.027,0,0.055-0.009,0.078-0.027
			c0.055-0.043,0.064-0.122,0.021-0.177C6.984,9.096,6.769,8.876,6.531,8.675z"/>
		<path fill="#FFFFFF" d="M12.226,5.842c-0.2-0.69-0.79-0.771-1.089-0.717l-0.2,0V5.098L10.635,4.83l-0.592-0.525L9.413,3.748
			L8.824,4.296L8.146,3.618L8.074,3.547L7.389,2.862L7.303,2.776L7.288,2.789l-0.76,0.686L6.454,3.544l-1.05,0.949L4.93,4.018
			L4.635,4.283L4.041,4.817L3.727,5.098v2.678c0,0.03,0.011,0.735,0.465,1.447c0.417,0.655,1.302,1.435,3.144,1.437
			c0.031,0.003,0.151,0.012,0.328,0.012c0.425,0,1.245-0.057,1.953-0.44c0.876-0.474,1.32-1.279,1.32-2.395v-2.41l0.214,0
			l0.031-0.003c0.024-0.005,0.576-0.111,0.754,0.502c0.202,0.699-0.587,0.948-0.621,0.959c-0.08,0.024-0.125,0.108-0.101,0.188
			c0.02,0.065,0.08,0.108,0.145,0.108c0.014,0,0.029-0.002,0.043-0.006C11.787,7.059,12.455,6.633,12.226,5.842z M5.766,4.573
			l0.902-0.815L6.743,3.69l0.546-0.493l0.005-0.004l0.096,0.096L7.861,3.76l0.071,0.071l0.673,0.672l-0.382,0.37l0.21,0.217
			l0.447-0.433l0.539-0.502l0.61,0.541l0.483,0.428L5.202,5.118L5.766,4.573z M7.465,6.328l0.246-0.227L7.609,5.99L7.465,6.122
			V5.864H7.314v0.847C7.048,6.674,6.843,6.446,6.843,6.17c0-0.302,0.245-0.547,0.547-0.547c0.302,0,0.547,0.245,0.547,0.547
			c0,0.276-0.206,0.504-0.471,0.541V6.328z M4.646,4.679l0.272-0.245l0.273,0.273L4.959,4.933l0.179,0.185L4.159,5.117L4.646,4.679z
			 M7.362,5.423c-0.4,0.015-0.721,0.344-0.721,0.747c0,0.387,0.295,0.707,0.673,0.745v1.017C6.585,7.58,5.832,7.386,5.197,7.257
			C4.337,7.082,4.096,6.796,4.03,6.661V5.419L7.362,5.423z M4.455,9.072C4.099,8.521,4.041,7.961,4.031,7.813
			c0.137,0.154,0.335,0.335,0.614,0.508c0.499,0.31,0.716,1.061,0.689,1.582C4.973,9.695,4.678,9.419,4.455,9.072z M7.343,10.358
			c-0.691,0-1.281-0.111-1.767-0.331c0.066-0.584-0.16-1.524-0.798-1.92c-0.342-0.213-0.55-0.438-0.666-0.592
			c0.017,0.007,0.034,0.012,0.051,0.012c0.041,0,0.082-0.02,0.106-0.058C4.307,7.411,4.29,7.333,4.232,7.295
			c-0.11-0.071-0.17-0.116-0.202-0.143V7.049c0.198,0.164,0.537,0.337,1.117,0.455C6.405,7.76,8.144,8.277,9.165,9.815l0.034,0.051
			c0.038,0.059,0.075,0.12,0.111,0.183c-0.551,0.253-1.156,0.314-1.564,0.321c-0.021-0.064-0.053-0.151-0.1-0.254
			c-0.028-0.064-0.103-0.092-0.166-0.064c-0.063,0.028-0.092,0.103-0.064,0.166c0.025,0.055,0.045,0.105,0.061,0.148
			c-0.075-0.003-0.118-0.008-0.119-0.008L7.343,10.358z M9.316,7.601l0.286-0.263L9.5,7.227L9.316,7.396V7.075H9.165v0.987
			C8.847,8.024,8.599,7.753,8.599,7.425c0-0.354,0.288-0.641,0.641-0.641c0.354,0,0.641,0.288,0.641,0.641
			c0,0.328-0.248,0.599-0.566,0.636V7.601z M10.635,7.837c0,1.113-0.493,1.742-1.101,2.096c-0.069-0.12-0.141-0.235-0.218-0.344
			V8.264c0.429-0.038,0.767-0.4,0.767-0.839c0-0.465-0.378-0.843-0.843-0.843c-0.465,0-0.843,0.378-0.843,0.843
			c0,0.439,0.338,0.8,0.767,0.839v1.119c-0.482-0.618-1.079-1.057-1.7-1.377V6.915C7.842,6.877,8.138,6.557,8.138,6.17
			c0-0.403-0.32-0.732-0.72-0.747l3.216,0.004V7.837z"/>
	</g>
	<g>
		<path fill="#FFFFFF" d="M3.921,14.715v0.057c0,0.1-0.047,0.15-0.141,0.15H3.703c-0.094,0-0.141-0.05-0.141-0.15v-0.583
			c0-0.1,0.047-0.15,0.141-0.15h0.076c0.094,0,0.141,0.05,0.141,0.15v0.1H3.803v-0.091c0-0.034-0.018-0.052-0.053-0.052H3.727
			c-0.031,0-0.047,0.017-0.047,0.052v0.566c0,0.034,0.016,0.052,0.047,0.052h0.03c0.031,0,0.047-0.017,0.047-0.052v-0.048H3.921z"/>
		<path fill="#FFFFFF" d="M4.494,14.922H4.376V14.19c0-0.101,0.047-0.151,0.141-0.151h0.089c0.094,0,0.141,0.05,0.141,0.151v0.731
			H4.629v-0.323H4.494V14.922z M4.629,14.491v-0.294c0-0.034-0.017-0.052-0.052-0.052H4.545c-0.034,0-0.052,0.017-0.052,0.052v0.294
			H4.629z"/>
		<path fill="#FFFFFF" d="M5.493,14.414v0.107H5.338v0.401H5.22v-0.883h0.293v0.107H5.338v0.268H5.493z"/>
		<path fill="#FFFFFF" d="M5.962,14.922v-0.883h0.293v0.107H6.079v0.268h0.155v0.107H6.079v0.294h0.175v0.107H5.962z M6.109,13.981
			H6.025l0.057-0.145H6.19L6.109,13.981z"/>
		<path fill="#FFFFFF" d="M7.356,14.715v0.057c0,0.1-0.047,0.15-0.141,0.15H7.138c-0.094,0-0.141-0.05-0.141-0.15v-0.583
			c0-0.1,0.047-0.15,0.141-0.15h0.076c0.094,0,0.141,0.05,0.141,0.15v0.1H7.238v-0.091c0-0.034-0.018-0.052-0.053-0.052H7.161
			c-0.031,0-0.047,0.017-0.047,0.052v0.566c0,0.034,0.016,0.052,0.047,0.052h0.029c0.031,0,0.047-0.017,0.047-0.052v-0.048H7.356z"
			/>
		<path fill="#FFFFFF" d="M7.817,14.922v-0.883h0.118v0.883H7.817z"/>
		<path fill="#FFFFFF" d="M8.767,14.715v0.057c0,0.1-0.047,0.15-0.141,0.15H8.549c-0.094,0-0.141-0.05-0.141-0.15v-0.583
			c0-0.1,0.047-0.15,0.141-0.15h0.076c0.094,0,0.141,0.05,0.141,0.15v0.1H8.649v-0.091c0-0.034-0.018-0.052-0.053-0.052H8.573
			c-0.031,0-0.047,0.017-0.047,0.052v0.566c0,0.034,0.016,0.052,0.047,0.052h0.03c0.031,0,0.047-0.017,0.047-0.052v-0.048H8.767z"/>
		<path fill="#FFFFFF" d="M9.508,14.922h-0.28v-0.883h0.118v0.776h0.162V14.922z"/>
		<path fill="#FFFFFF" d="M9.944,14.922v-0.883h0.118v0.883H9.944z"/>
		<path fill="#FFFFFF" d="M10.768,14.276v-0.077c0-0.035-0.017-0.053-0.052-0.053h-0.019c-0.034,0-0.05,0.018-0.05,0.053v0.146
			c0,0.016,0.003,0.027,0.01,0.033c0.007,0.006,0.017,0.013,0.032,0.022l0.112,0.06c0.025,0.014,0.042,0.025,0.052,0.033
			c0.01,0.008,0.018,0.017,0.024,0.028c0.006,0.011,0.009,0.032,0.009,0.063v0.188c0,0.099-0.048,0.149-0.143,0.149h-0.073
			c-0.094,0-0.141-0.054-0.141-0.162v-0.044h0.118v0.048c0,0.034,0.018,0.052,0.053,0.052h0.021c0.031,0,0.047-0.017,0.047-0.052
			v-0.15c0-0.016-0.003-0.027-0.01-0.033c-0.007-0.006-0.017-0.013-0.032-0.022l-0.112-0.063c-0.025-0.013-0.042-0.024-0.053-0.033
			c-0.011-0.009-0.019-0.021-0.024-0.035c-0.005-0.014-0.007-0.033-0.007-0.056V14.19c0-0.101,0.047-0.151,0.141-0.151h0.074
			c0.094,0,0.141,0.05,0.141,0.151v0.086H10.768z"/>
		<path fill="#FFFFFF" d="M11.541,14.146v0.776h-0.118v-0.776H11.31v-0.107h0.344v0.107H11.541z"/>
		<path fill="#FFFFFF" d="M12.203,14.922h-0.118V14.19c0-0.101,0.047-0.151,0.141-0.151h0.088c0.094,0,0.141,0.05,0.141,0.151v0.731
			h-0.118v-0.323h-0.135V14.922z M12.338,14.491v-0.294c0-0.034-0.017-0.052-0.052-0.052h-0.032c-0.034,0-0.052,0.017-0.052,0.052
			v0.294H12.338z"/>
	</g>
	<line fill="#FFFFFF" x1="9.468" y1="13.559" x2="9.468" y2="13.54"/>
	<polygon fill="#FFFFFF" points="7.45,11.328 7.45,11.737 8.08,11.737 8.08,13.559 8.537,13.559 8.537,11.737 9.163,11.737 
		9.163,11.328 	"/>
	<path fill="#FFFFFF" d="M6.869,11.331v1.323c0,0.106-0.018,0.195-0.052,0.264c-0.035,0.069-0.078,0.124-0.128,0.164
		c-0.051,0.04-0.106,0.068-0.164,0.083c-0.059,0.015-0.113,0.023-0.159,0.023c-0.046,0-0.1-0.008-0.158-0.023
		c-0.058-0.015-0.113-0.043-0.164-0.083c-0.05-0.04-0.094-0.095-0.128-0.164c-0.035-0.069-0.052-0.158-0.052-0.264v-1.323H5.406
		v1.326c0,0.142,0.023,0.272,0.069,0.387c0.046,0.116,0.111,0.216,0.195,0.297c0.084,0.082,0.186,0.146,0.303,0.19
		c0.117,0.044,0.25,0.067,0.393,0.067c0.146,0,0.279-0.022,0.396-0.067c0.118-0.045,0.22-0.108,0.303-0.19
		c0.083-0.081,0.148-0.181,0.193-0.297c0.045-0.116,0.067-0.246,0.067-0.387v-1.326H6.869z"/>
	<path fill="#FFFFFF" d="M5.203,13.105c0,0-0.193,0.004-0.242,0.004c-0.133,0-0.363-0.03-0.432-0.225
		c0.051-0.01,0.098-0.023,0.142-0.038c0.109-0.04,0.2-0.095,0.272-0.166c0.072-0.071,0.126-0.154,0.163-0.248
		c0.037-0.094,0.055-0.197,0.055-0.307c0-0.11-0.021-0.215-0.063-0.312C5.057,11.718,5,11.632,4.929,11.561
		c-0.071-0.071-0.156-0.129-0.253-0.17c-0.097-0.042-0.202-0.063-0.312-0.063H3.368v2.231h0.457v-1.822h0.494
		c0.062,0,0.118,0.012,0.166,0.034c0.048,0.023,0.088,0.053,0.12,0.088c0.032,0.036,0.057,0.078,0.074,0.124
		c0.017,0.046,0.026,0.094,0.026,0.142c0,0.048-0.007,0.094-0.02,0.138c-0.013,0.043-0.034,0.083-0.061,0.117
		c-0.027,0.033-0.062,0.06-0.105,0.08c-0.043,0.02-0.095,0.03-0.154,0.03H4.007v0.397l0.001,0.019h0.001
		c0.043,0.579,0.549,0.666,0.849,0.666h0.672C5.531,13.571,5.29,13.416,5.203,13.105z"/>
	<path fill="#FFFFFF" d="M12.587,12.642c-0.03-0.068-0.069-0.127-0.118-0.174c-0.048-0.047-0.104-0.085-0.165-0.115
		c-0.061-0.029-0.123-0.053-0.184-0.071c-0.061-0.017-0.121-0.031-0.179-0.041c-0.058-0.01-0.106-0.019-0.147-0.029
		c-0.056-0.014-0.114-0.027-0.174-0.041c-0.059-0.013-0.113-0.029-0.162-0.048c-0.047-0.018-0.087-0.042-0.117-0.069
		c-0.028-0.025-0.042-0.056-0.042-0.093c0-0.038,0.012-0.07,0.036-0.096c0.025-0.028,0.058-0.051,0.096-0.069
		c0.04-0.019,0.082-0.032,0.126-0.041c0.037-0.007,0.071-0.012,0.099-0.014h0.849v-0.413h-0.781l-0.01,0
		c-0.01-0.001-0.02-0.001-0.031,0l-0.033,0.001v0c-0.082,0.002-0.165,0.012-0.246,0.028c-0.101,0.02-0.193,0.054-0.276,0.102
		c-0.083,0.049-0.152,0.116-0.206,0.201c-0.054,0.085-0.081,0.192-0.081,0.319c0,0.088,0.015,0.165,0.045,0.23
		c0.03,0.065,0.07,0.121,0.119,0.168c0.049,0.046,0.105,0.086,0.166,0.116c0.06,0.03,0.123,0.055,0.186,0.074
		c0.062,0.018,0.123,0.033,0.182,0.044c0.058,0.011,0.109,0.02,0.153,0.028c0.065,0.011,0.129,0.024,0.189,0.038
		c0.059,0.013,0.111,0.029,0.155,0.048c0.042,0.018,0.076,0.041,0.101,0.069c0.024,0.027,0.036,0.058,0.036,0.096
		c0,0.029-0.008,0.06-0.025,0.091c-0.017,0.031-0.042,0.059-0.075,0.084c-0.034,0.025-0.077,0.045-0.126,0.061
		c-0.047,0.015-0.102,0.022-0.172,0.022c-0.016,0-0.04,0-0.049,0h-1.028l0.2,0.413h0.807l0.017,0c0.018,0,0.039,0,0.057,0
		c0.125,0,0.241-0.014,0.344-0.041c0.104-0.027,0.194-0.069,0.27-0.123c0.076-0.055,0.135-0.125,0.177-0.209
		c0.041-0.084,0.062-0.183,0.062-0.296C12.632,12.795,12.617,12.711,12.587,12.642z"/>
	<g>
		<path fill="#FFFFFF" d="M10.078,11.355c-0.025-0.048-0.074-0.079-0.128-0.079c-0.054,0-0.103,0.03-0.128,0.08L9.36,12.409
			c-0.372-0.149-0.568-0.067-0.568-0.067s0.667,0.021,1.492,1.217h0.231h0.224h0.303L10.078,11.355z M9.753,12.622l0.162-0.403
			c0.016-0.037,0.046-0.036,0.061,0l0.359,0.894C10.12,12.897,9.926,12.738,9.753,12.622z"/>
		<path fill="#FFFFFF" d="M9.066,13.559h0.532c0,0-0.156-0.698-0.749-1.016C8.849,12.543,9.301,12.875,9.066,13.559z"/>
	</g>
</g>
</svg>
