<?xml version="1.0" encoding="utf-8"?>
<!-- Generator: Adobe Illustrator 27.3.1, SVG Export Plug-In . SVG Version: 6.00 Build 0)  -->
<svg version="1.1" id="Layer_1" xmlns="http://www.w3.org/2000/svg" xmlns:xlink="http://www.w3.org/1999/xlink" x="0px" y="0px"
	 width="16px" height="16px" viewBox="0 0 16 16" enable-background="new 0 0 16 16" xml:space="preserve">
<g>
	<path fill="#FFFFFF" d="M7.412,10.931c0.014-0.752-0.049-2.19-0.049-2.19c0-0.557-0.289-0.839-0.859-0.839
		c-0.74,0-0.884,0.646-0.903,0.687c-0.018,0.041-0.33,0.054-0.361,0C5.208,8.536,5.345,8.107,5.528,7.918
		C5.692,7.75,5.995,7.579,6.504,7.549c0.42-0.025,0.748,0.128,0.96,0.379c0.171,0.202,0.261,0.483,0.261,0.813l0.035,2.19h7.028
		c0,0,0.092-0.776,0-0.906c-0.092-0.13-1.671,0-1.671,0c-0.009-0.03-0.022-0.059-0.044-0.087c-0.001-0.009-0.002-0.019-0.003-0.028
		c0.011-0.014,0.006-0.026-0.011-0.035c-0.001-0.008-0.002-0.016-0.003-0.025c0.006-0.026,0.008-0.052-0.025-0.071v0
		c-0.003-0.008-0.005-0.016-0.008-0.024c0.006-0.026,0.009-0.051-0.022-0.071c-0.016-0.066-0.031-0.132-0.048-0.198
		c-0.026-0.101-0.048-0.202-0.096-0.299c-0.005-0.071-0.022-0.12-0.063-0.17c-0.011-0.031-0.023-0.062-0.034-0.093l1.689-0.703
		c0,0-0.047-0.827-0.276-0.732c-0.229,0.095-1.752,0.729-1.752,0.729c-0.048-0.075-0.099-0.149-0.155-0.222
		c-0.015-0.02-0.03-0.039-0.045-0.059c-0.045-0.069-0.091-0.137-0.139-0.204c-0.013-0.022-0.027-0.045-0.039-0.068
		c-0.094-0.178-0.231-0.341-0.347-0.511c-0.024-0.035-0.051-0.069-0.082-0.101c0,0,1.314-1.263,1.36-1.429
		c0.047-0.166-0.347-0.365-0.347-0.365l-1.418,1.489c-0.109-0.078-0.219-0.157-0.327-0.236c-0.115-0.084-0.231-0.168-0.355-0.245
		c-0.116-0.073-0.246-0.132-0.374-0.191c-0.023-0.011-0.047-0.019-0.072-0.027c-0.009-0.004-0.017-0.008-0.026-0.013
		c0,0,0.778-1.84,0.772-2.046l-0.649-0.27c-0.065,0.171-0.78,2.067-0.78,2.067C9.094,5.696,8.779,5.635,8.456,5.605
		c0,0,0.044-2.077,0-2.25c-0.044-0.172-0.905,0-0.905,0c0,0.128,0,2.25,0,2.25C7.266,5.631,6.985,5.683,6.724,5.796
		c0,0-0.654-1.989-0.784-2.079C5.81,3.628,5.059,3.807,5.085,4.03c0.026,0.223,0.751,1.991,0.751,1.991
		C5.713,6.066,5.595,6.116,5.485,6.177C5.307,6.276,5.132,6.376,4.953,6.472C4.86,6.522,4.77,6.573,4.687,6.631
		c0,0-1.237-1.258-1.307-1.372c-0.07-0.114-0.459,0.248-0.347,0.365C3.144,5.74,4.32,6.974,4.32,6.974
		c-0.035,0.04-0.069,0.081-0.103,0.121C4.085,7.25,3.963,7.409,3.835,7.565C3.776,7.637,3.724,7.71,3.686,7.789
		C3.634,7.896,3.588,8.004,3.548,8.113c0,0-1.538-0.647-1.684-0.7C1.717,7.359,1.53,8.296,1.53,8.296
		C1.688,8.362,3.25,9.012,3.25,9.012C3.133,9.329,3.045,9.659,2.988,9.998c-0.002,0.009-0.003,0.018-0.004,0.027
		c0,0-1.653-0.103-1.764,0c-0.111,0.103,0,0.906,0,0.906H7.412z M6.005,9.263c0.039-0.495,0.194-0.562,0.336-0.569
		c0.355-0.017,0.458,0.331,0.482,0.587c0.058,0.603-0.209,0.818-0.349,0.832c-0.122,0.012-0.246-0.072-0.281-0.115
		C5.967,9.724,6.005,9.263,6.005,9.263z M8.516,9.274C8.988,9.11,9.403,8.827,9.87,8.65c0.064-0.024,0.252,0.222,0.155,0.288
		C9.889,9.029,9.74,9.096,9.595,9.169c0.255,0.029,0.506,0.103,0.753,0.23c0.033,0.024-0.068,0.34-0.175,0.276
		c-0.471-0.281-1.005-0.123-1.586-0.06C8.459,9.629,8.452,9.297,8.516,9.274z"/>
	<path fill="#FFFFFF" d="M14.654,11.869l0-0.004c0.037-0.011,0.063-0.037,0.063-0.07c0-0.03-0.013-0.054-0.029-0.067
		c-0.022-0.013-0.048-0.022-0.105-0.023c-0.05,0-0.089,0.003-0.117,0.009l-0.001,0.304l0.07,0l0-0.122l0.033,0
		c0.039,0,0.057,0.015,0.063,0.048c0.009,0.035,0.015,0.063,0.024,0.074l0.076,0c-0.007-0.011-0.013-0.03-0.022-0.076
		C14.7,11.902,14.684,11.88,14.654,11.869z M14.571,11.846l-0.033,0l0-0.087c0.007-0.002,0.02-0.004,0.039-0.004
		c0.044,0,0.065,0.019,0.065,0.047C14.641,11.833,14.61,11.846,14.571,11.846z"/>
	<path fill="#FFFFFF" d="M14.585,11.555c-0.174-0.001-0.314,0.134-0.314,0.303c-0.001,0.172,0.138,0.308,0.312,0.309
		c0.176,0.001,0.312-0.134,0.312-0.306C14.896,11.692,14.761,11.556,14.585,11.555z M14.585,12.102
		c-0.137-0.001-0.237-0.108-0.236-0.244c0.001-0.133,0.101-0.242,0.236-0.242c0.135,0.001,0.233,0.11,0.232,0.245
		C14.817,11.995,14.718,12.102,14.585,12.102z"/>
	<path fill="#FFFFFF" d="M1.918,11.842l-0.143-0.017c-0.029-0.003-0.049-0.008-0.06-0.013c-0.011-0.005-0.017-0.013-0.017-0.024
		c0-0.013,0.009-0.022,0.027-0.028c0.018-0.006,0.051-0.009,0.098-0.008c0.071,0,0.142,0.008,0.215,0.024
		c0.073,0.016,0.136,0.037,0.19,0.062L2.23,11.54c-0.054-0.029-0.127-0.053-0.219-0.072c-0.092-0.019-0.191-0.029-0.296-0.029
		c-0.119,0-0.223,0.013-0.312,0.04c-0.089,0.027-0.159,0.066-0.208,0.117c-0.049,0.051-0.074,0.111-0.074,0.181
		c0,0.074,0.026,0.133,0.078,0.178c0.052,0.045,0.142,0.079,0.269,0.1l0.141,0.026c0.037,0.008,0.062,0.015,0.074,0.022
		c0.012,0.007,0.018,0.016,0.018,0.028c0,0.011-0.006,0.019-0.018,0.025c-0.012,0.006-0.03,0.009-0.055,0.009
		c-0.085,0-0.181-0.015-0.286-0.044c-0.105-0.029-0.183-0.065-0.234-0.108l-0.001,0.316c0.08,0.045,0.172,0.081,0.275,0.106
		c0.103,0.025,0.211,0.038,0.322,0.039c0.127,0.001,0.234-0.013,0.321-0.04c0.087-0.027,0.152-0.066,0.195-0.115
		c0.043-0.05,0.065-0.108,0.066-0.175c0-0.097-0.029-0.168-0.087-0.213C2.137,11.883,2.045,11.854,1.918,11.842z"/>
	<path fill="#FFFFFF" d="M3.184,11.956c0,0.035-0.004,0.065-0.011,0.088c-0.007,0.023-0.019,0.041-0.037,0.053
		c-0.018,0.012-0.04,0.017-0.067,0.017c-0.028,0-0.05-0.007-0.066-0.019c-0.017-0.013-0.028-0.031-0.034-0.053
		s-0.009-0.05-0.009-0.083l0.002-0.466L2.4,11.49l-0.002,0.586c0,0.084,0.014,0.157,0.042,0.216c0.029,0.06,0.072,0.106,0.131,0.137
		c0.059,0.031,0.131,0.047,0.218,0.047c0.122,0,0.218-0.031,0.289-0.094c0.049-0.043,0.083-0.101,0.106-0.17l-0.001,0.233
		l0.562,0.002l0.004-0.953l-0.562-0.002L3.184,11.956z"/>
	<path fill="#FFFFFF" d="M5.124,11.521c-0.068-0.046-0.147-0.069-0.239-0.07c-0.088,0-0.161,0.014-0.221,0.044
		c-0.06,0.03-0.108,0.075-0.144,0.136c-0.021,0.035-0.037,0.077-0.049,0.123l0.001-0.256l-0.562-0.002L3.904,12.72l0.562,0.002
		l0.002-0.496c0.012,0.033,0.025,0.064,0.041,0.091c0.038,0.061,0.088,0.105,0.149,0.132c0.061,0.027,0.133,0.041,0.216,0.041
		c0.093,0,0.174-0.021,0.242-0.063c0.069-0.042,0.121-0.103,0.159-0.181c0.037-0.078,0.056-0.169,0.056-0.271
		c0-0.099-0.017-0.188-0.053-0.266C5.243,11.63,5.192,11.567,5.124,11.521z M4.73,12.047c-0.012,0.021-0.029,0.038-0.051,0.049
		c-0.022,0.012-0.047,0.017-0.075,0.017c-0.029,0-0.053-0.006-0.074-0.018c-0.02-0.012-0.036-0.028-0.046-0.05
		c-0.011-0.021-0.016-0.047-0.016-0.075c0-0.028,0.006-0.052,0.016-0.074c0.011-0.021,0.027-0.038,0.047-0.049
		c0.021-0.012,0.045-0.017,0.073-0.017c0.029,0,0.054,0.006,0.075,0.018c0.021,0.012,0.038,0.028,0.049,0.049
		c0.012,0.021,0.017,0.046,0.017,0.075C4.748,12,4.742,12.026,4.73,12.047z"/>
	<path fill="#FFFFFF" d="M6.407,11.522c-0.091-0.044-0.206-0.066-0.343-0.066c-0.132-0.001-0.247,0.02-0.343,0.063
		c-0.096,0.042-0.17,0.102-0.222,0.178c-0.052,0.076-0.078,0.164-0.078,0.265c0,0.106,0.027,0.199,0.082,0.279
		c0.055,0.08,0.136,0.143,0.242,0.187c0.106,0.044,0.233,0.067,0.38,0.067c0.103,0,0.199-0.009,0.288-0.029
		c0.09-0.019,0.164-0.045,0.223-0.077l0.001-0.317c-0.046,0.023-0.097,0.042-0.154,0.055c-0.057,0.013-0.119,0.02-0.186,0.019
		c-0.09,0-0.162-0.01-0.218-0.028c-0.055-0.018-0.095-0.043-0.12-0.074l0.71,0.003l0-0.077c0-0.103-0.021-0.192-0.063-0.268
		C6.565,11.626,6.499,11.566,6.407,11.522z M6.007,11.784c0.023-0.011,0.052-0.016,0.086-0.016c0.033,0,0.062,0.006,0.086,0.017
		c0.024,0.011,0.042,0.027,0.053,0.047c0.008,0.014,0.009,0.031,0.011,0.047l-0.3-0.001c0.003-0.017,0.004-0.036,0.012-0.049
		C5.967,11.81,5.984,11.795,6.007,11.784z"/>
	<path fill="#FFFFFF" d="M7.692,11.482c-0.097,0-0.173,0.026-0.226,0.08C7.412,11.615,7.373,11.7,7.35,11.815
		c0,0.002-0.001,0.004-0.001,0.005l0.001-0.311l-0.55-0.002L6.797,12.46l0.562,0.002l0.001-0.171h0
		c0.002-0.117,0.028-0.203,0.079-0.255s0.129-0.079,0.233-0.078c0.04,0,0.075,0.004,0.107,0.012
		c0.031,0.008,0.057,0.016,0.076,0.026l0.002-0.479c-0.017-0.009-0.041-0.016-0.071-0.024C7.755,11.485,7.724,11.482,7.692,11.482z"
		/>
	<polygon fill="#FFFFFF" points="8.275,11.508 8.064,11.507 8.06,12.463 8.426,12.465 8.427,12.126 8.937,12.128 8.938,11.901 
		8.428,11.899 8.429,11.778 8.964,11.78 8.965,11.51 8.275,11.508 	"/>
	<path fill="#FFFFFF" d="M10.053,11.547c-0.095-0.044-0.206-0.066-0.332-0.067c-0.128,0-0.241,0.021-0.337,0.064
		c-0.096,0.043-0.17,0.103-0.222,0.179C9.11,11.8,9.084,11.886,9.084,11.982c0,0.096,0.025,0.183,0.076,0.262
		c0.051,0.079,0.125,0.142,0.221,0.188c0.096,0.046,0.208,0.07,0.335,0.07c0.126,0,0.237-0.022,0.333-0.068
		c0.096-0.046,0.171-0.107,0.223-0.186c0.052-0.078,0.079-0.165,0.079-0.262c0-0.097-0.025-0.183-0.077-0.259
		C10.222,11.652,10.148,11.592,10.053,11.547z M9.927,12.106c-0.02,0.035-0.048,0.061-0.084,0.08
		c-0.037,0.019-0.078,0.028-0.126,0.028c-0.049,0-0.092-0.01-0.128-0.029c-0.036-0.019-0.065-0.046-0.084-0.08
		c-0.02-0.035-0.03-0.073-0.03-0.116c0-0.044,0.01-0.082,0.031-0.115c0.02-0.033,0.048-0.058,0.085-0.076
		c0.036-0.018,0.079-0.027,0.129-0.027c0.047,0,0.089,0.009,0.126,0.028c0.037,0.018,0.065,0.044,0.084,0.077
		c0.019,0.033,0.028,0.071,0.028,0.115C9.957,12.033,9.947,12.071,9.927,12.106z"/>
	<path fill="#FFFFFF" d="M11.435,11.553c-0.095-0.044-0.206-0.066-0.332-0.067c-0.128,0-0.241,0.021-0.337,0.064
		c-0.096,0.043-0.17,0.103-0.222,0.179c-0.052,0.076-0.078,0.162-0.078,0.259c0,0.096,0.025,0.183,0.076,0.262
		c0.051,0.079,0.125,0.142,0.221,0.188c0.096,0.046,0.208,0.07,0.335,0.07c0.126,0,0.237-0.022,0.333-0.068
		c0.096-0.046,0.171-0.107,0.223-0.186c0.052-0.078,0.079-0.165,0.079-0.262c0-0.097-0.025-0.183-0.077-0.259
		C11.603,11.657,11.53,11.597,11.435,11.553z M11.308,12.111c-0.02,0.035-0.048,0.061-0.084,0.08
		c-0.037,0.019-0.078,0.028-0.126,0.028c-0.049,0-0.092-0.01-0.128-0.029c-0.036-0.019-0.065-0.046-0.084-0.08
		c-0.02-0.035-0.03-0.073-0.03-0.116c0-0.044,0.01-0.082,0.031-0.115c0.02-0.033,0.048-0.058,0.085-0.076
		c0.036-0.018,0.079-0.027,0.129-0.027c0.047,0,0.089,0.009,0.126,0.028c0.037,0.018,0.065,0.044,0.084,0.077
		c0.019,0.033,0.028,0.071,0.028,0.115C11.338,12.038,11.328,12.077,11.308,12.111z"/>
	<path fill="#FFFFFF" d="M12.769,11.585c-0.09-0.04-0.2-0.061-0.331-0.061l-0.546-0.002l-0.004,0.956l0.507,0.002
		c0.143,0.001,0.262-0.02,0.358-0.063c0.096-0.042,0.167-0.1,0.214-0.174c0.047-0.074,0.07-0.155,0.071-0.244
		c0-0.092-0.022-0.174-0.067-0.245C12.926,11.682,12.859,11.626,12.769,11.585z M12.618,12.12c-0.019,0.035-0.048,0.062-0.087,0.081
		c-0.039,0.019-0.086,0.028-0.14,0.028l-0.135-0.001l0.002-0.454l0.154,0.001c0.054,0,0.098,0.01,0.133,0.029
		c0.035,0.019,0.061,0.045,0.078,0.077c0.017,0.033,0.025,0.071,0.025,0.115C12.647,12.043,12.637,12.085,12.618,12.12z"/>
	<path fill="#FFFFFF" d="M13.811,11.889l-0.152-0.022c-0.042-0.007-0.07-0.014-0.085-0.022c-0.015-0.008-0.022-0.019-0.022-0.034
		c0-0.017,0.014-0.031,0.04-0.041c0.027-0.01,0.07-0.015,0.131-0.015c0.074,0,0.142,0.009,0.206,0.025
		c0.064,0.017,0.116,0.036,0.157,0.059l0.001-0.245c-0.045-0.026-0.101-0.048-0.169-0.068c-0.068-0.019-0.149-0.029-0.243-0.03
		c-0.112,0-0.206,0.013-0.281,0.039c-0.075,0.027-0.132,0.063-0.169,0.11c-0.038,0.047-0.056,0.101-0.057,0.163
		c0,0.081,0.027,0.147,0.081,0.196c0.054,0.05,0.139,0.085,0.255,0.104l0.135,0.024c0.044,0.007,0.074,0.016,0.091,0.027
		c0.017,0.011,0.026,0.025,0.026,0.043c0,0.02-0.012,0.035-0.037,0.044c-0.025,0.009-0.063,0.013-0.116,0.013
		c-0.05,0-0.101-0.005-0.153-0.016c-0.052-0.01-0.101-0.025-0.147-0.044c-0.046-0.019-0.089-0.041-0.128-0.067l-0.001,0.255
		c0.059,0.037,0.129,0.066,0.21,0.089c0.081,0.023,0.169,0.034,0.264,0.034c0.097,0,0.184-0.013,0.258-0.04
		c0.075-0.027,0.133-0.066,0.175-0.115c0.042-0.05,0.063-0.109,0.063-0.176c0-0.086-0.027-0.152-0.081-0.198
		C14.008,11.94,13.924,11.907,13.811,11.889z"/>
</g>
</svg>
