<?xml version="1.0" encoding="utf-8"?>
<!-- Generator: Adobe Illustrator 27.4.1, SVG Export Plug-In . SVG Version: 6.00 Build 0)  -->
<svg version="1.1" id="Layer_1" xmlns="http://www.w3.org/2000/svg" xmlns:xlink="http://www.w3.org/1999/xlink" x="0px" y="0px"
	 width="113.2px" height="56.6px" viewBox="0 0 113.2 56.6" enable-background="new 0 0 113.2 56.6" xml:space="preserve">
<g>
	<g>
		<g>
			<g>
				<path fill="#FFFFFF" d="M12.7,14.8h-5V13h12.1v1.8h-5v12.8h-2V14.8z"/>
				<path fill="#FFFFFF" d="M29.8,24.3c0,0,1.4,1.7,3.7,1.7c1.6,0,2.9-1.1,2.9-2.7c0-1.6-1.4-2.6-3.1-2.6h-1l-0.4-1.1l3.9-4.8
					l-1.2,0h-2.8c-0.3,0-0.5,0.1-0.5,0.5v0.9h-1.9v-1.8c0-0.9,0.3-1.3,1.3-1.3h7.7v1.3L34.4,19c1.9,0.2,4.1,1.5,4.1,4.3
					c0,2.4-2,4.6-5,4.6s-4.8-2-4.8-2L29.8,24.3z"/>
				<path fill="#FFFFFF" d="M50.3,13h2.2l3.4,7.9c0.3,0.8,0.7,2,0.7,2h0c0,0,0.4-1.2,0.7-2l3.4-7.9h2.2L64,27.7h-2l-0.7-9.2
					c-0.1-0.9,0-2.2,0-2.2h0c0,0-0.4,1.3-0.8,2.2L57.5,25h-1.8l-2.9-6.6c-0.3-0.8-0.8-2.2-0.8-2.2h0c0,0,0,1.3,0,2.2l-0.7,9.2h-2
					L50.3,13z"/>
				<path fill="#FFFFFF" d="M75.8,13h5.3c2.7,0,4.6,1.8,4.6,4.6s-1.9,4.6-4.6,4.6h-3.3v5.4h-2V13z M80.8,20.5c1.8,0,2.8-1.1,2.8-2.9
					c0-1.8-1.1-2.8-2.8-2.8h-3v5.6H80.8z"/>
				<path fill="#FFFFFF" d="M96.6,13h8.5v1.8h-6.4v4.6h5.2v1.8h-5.2v4.7h6.8v1.8h-8.8V13z"/>
			</g>
		</g>
	</g>
	<g>
		<path fill="#FFFFFF" d="M36.9,43.6c-2.1,0-2.9-1.2-2.9-3.7s0.8-3.7,2.9-3.7c1.8,0,2.6,0.8,2.7,2.6h-0.9c0-1.2-0.6-1.8-1.8-1.8
			c-1.4,0-2,0.9-2,2.9c0,2,0.6,2.8,2,2.8c1.1,0,1.7-0.5,1.7-1.7h0.9C39.5,42.8,38.6,43.6,36.9,43.6z"/>
		<path fill="#FFFFFF" d="M50.5,42.7c-0.4,0.4-1,0.8-1.9,0.8c-1.3,0-1.9-0.6-1.9-1.6c0-1.3,0.9-1.7,2.2-1.7c0.7,0,1.2,0,1.4,0.1
			c0-1.1-0.2-1.5-1.3-1.5c-1.2,0-1.3,0.6-1.3,1h-0.8c0-0.7,0.2-1.7,2.1-1.7c2.2,0,2.2,1.1,2.2,2.8V42l0.1,1.4h-0.8L50.5,42.7z
			 M50.4,41.8v-0.9c-0.3,0-0.7-0.1-1.2-0.1c-1,0-1.5,0.2-1.5,1c0,0.5,0.3,0.9,1.1,0.9C49.7,42.8,50.3,42.2,50.4,41.8z"/>
		<path fill="#FFFFFF" d="M61.6,36.7h-0.4c-0.8,0-1,0.4-1,1.2v0.3h1.4v0.8h-1.4v4.5h-0.9v-4.5h-0.7v-0.8h0.7v-0.4
			c0-1,0.3-1.9,1.7-1.9l0.6,0V36.7z"/>
		<path fill="#FFFFFF" d="M70.6,43.5c-1.8,0-2.4-1-2.4-2.8c0-1.7,0.6-2.8,2.4-2.8c1.7,0,2.4,0.9,2.4,3h-3.8c0,1.2,0.5,1.8,1.5,1.8
			c1.1,0,1.4-0.6,1.4-1h0.9C72.9,42.4,72.5,43.5,70.6,43.5z M69.1,40.2H72c-0.1-1.1-0.6-1.5-1.4-1.5C69.6,38.7,69.2,39.2,69.1,40.2z
			 M70.9,35.7h0.9L71,37.2h-0.8L70.9,35.7z"/>
	</g>
</g>
</svg>
