<?xml version="1.0" encoding="utf-8"?>
<!-- Generator: Adobe Illustrator 27.3.1, SVG Export Plug-In . SVG Version: 6.00 Build 0)  -->
<svg version="1.1" id="Layer_1" xmlns="http://www.w3.org/2000/svg" xmlns:xlink="http://www.w3.org/1999/xlink" x="0px" y="0px"
	 width="16px" height="16px" viewBox="0 0 16 16" enable-background="new 0 0 16 16" xml:space="preserve">
<g>
	<path fill="#FFFFFF" d="M4.339,12.899"/>
	<g>
		<g>
			<path fill="#FFFFFF" d="M14.249,8c0-0.415,0.499-0.774,1.227-0.951c-0.016-0.112-0.034-0.223-0.055-0.333
				c-0.751,0.045-1.343-0.151-1.478-0.546c-0.135-0.395,0.222-0.883,0.858-1.265c-0.052-0.101-0.105-0.201-0.161-0.3
				c-0.7,0.263-1.327,0.25-1.584-0.086c-0.257-0.336-0.077-0.904,0.402-1.453c-0.081-0.081-0.165-0.161-0.251-0.238
				c-0.58,0.454-1.179,0.625-1.533,0.381c-0.354-0.244-0.368-0.838-0.091-1.501c-0.104-0.053-0.209-0.105-0.316-0.153
				c-0.403,0.602-0.918,0.941-1.335,0.813C9.514,2.24,9.308,1.679,9.355,0.967C9.239,0.947,9.122,0.93,9.004,0.915
				C8.817,1.606,8.438,2.078,8,2.078c-0.437,0-0.817-0.473-1.004-1.163C6.878,0.93,6.761,0.947,6.645,0.967
				C6.692,1.679,6.485,2.24,6.069,2.368C5.653,2.496,5.138,2.157,4.734,1.555c-0.107,0.049-0.212,0.1-0.316,0.153
				c0.277,0.663,0.263,1.257-0.091,1.501C3.973,3.453,3.373,3.282,2.794,2.828C2.708,2.905,2.624,2.985,2.542,3.066
				c0.479,0.549,0.66,1.118,0.402,1.453C2.687,4.855,2.06,4.868,1.361,4.605c-0.056,0.098-0.11,0.198-0.162,0.3
				c0.636,0.382,0.993,0.87,0.858,1.265C1.921,6.565,1.33,6.761,0.579,6.716C0.558,6.826,0.54,6.937,0.524,7.049
				C1.253,7.226,1.751,7.585,1.751,8c0,0.415-0.498,0.774-1.227,0.951C0.54,9.063,0.558,9.175,0.579,9.285
				C1.33,9.24,1.921,9.436,2.057,9.83c0.136,0.395-0.222,0.883-0.858,1.265c0.052,0.101,0.105,0.201,0.162,0.3
				c0.7-0.262,1.327-0.25,1.584,0.086c0.257,0.335,0.077,0.904-0.402,1.453c0.082,0.081,0.166,0.161,0.251,0.238
				c0.58-0.454,1.179-0.625,1.533-0.381c0.354,0.244,0.368,0.838,0.091,1.501c0.104,0.053,0.209,0.104,0.316,0.153
				c0.404-0.602,0.918-0.941,1.335-0.813c0.416,0.128,0.623,0.689,0.576,1.401c0.116,0.02,0.233,0.037,0.351,0.052
				c0.188-0.69,0.567-1.163,1.004-1.163c0.438,0,0.817,0.473,1.004,1.163c0.118-0.015,0.235-0.032,0.351-0.052
				c-0.047-0.712,0.159-1.272,0.576-1.401c0.417-0.128,0.931,0.211,1.335,0.813c0.107-0.049,0.212-0.1,0.316-0.153
				c-0.277-0.663-0.264-1.257,0.091-1.501c0.354-0.244,0.953-0.073,1.533,0.381c0.086-0.077,0.17-0.157,0.251-0.238
				c-0.479-0.549-0.659-1.118-0.402-1.453c0.257-0.336,0.884-0.348,1.584-0.086c0.056-0.099,0.11-0.198,0.161-0.3
				c-0.635-0.382-0.993-0.87-0.858-1.265c0.135-0.395,0.727-0.59,1.478-0.546c0.021-0.11,0.039-0.221,0.055-0.333
				C14.747,8.774,14.249,8.415,14.249,8 M13.164,6.516c0.079,0.23-0.054,0.476-0.296,0.551c-0.242,0.075-0.502-0.051-0.581-0.281
				c-0.078-0.23,0.054-0.476,0.296-0.551C12.825,6.16,13.085,6.286,13.164,6.516 M11.783,4.979c0.206-0.142,0.495-0.098,0.645,0.097
				c0.149,0.195,0.104,0.469-0.102,0.611c-0.206,0.142-0.495,0.098-0.644-0.097C11.531,5.395,11.577,5.121,11.783,4.979
				 M10.613,4.019c0.15-0.195,0.438-0.239,0.644-0.097c0.206,0.142,0.252,0.415,0.102,0.611c-0.15,0.195-0.439,0.238-0.645,0.096
				C10.509,4.488,10.463,4.215,10.613,4.019 M9.187,3.449c0.079-0.229,0.339-0.355,0.581-0.281c0.243,0.075,0.375,0.321,0.296,0.551
				C9.985,3.949,9.725,4.074,9.483,4C9.241,3.925,9.108,3.678,9.187,3.449 M8.106,2.887c0.255,0,0.461,0.195,0.461,0.437
				c0,0.241-0.206,0.437-0.461,0.437c-0.255,0-0.461-0.196-0.461-0.437C7.645,3.082,7.851,2.887,8.106,2.887 M6.433,3.106
				c0.242-0.075,0.503,0.051,0.581,0.281c0.079,0.23-0.054,0.476-0.296,0.551C6.476,4.012,6.216,3.886,6.137,3.657
				C6.059,3.427,6.191,3.181,6.433,3.106 M4.914,3.804C5.12,3.662,5.409,3.706,5.559,3.901c0.15,0.196,0.104,0.469-0.102,0.611
				C5.251,4.653,4.962,4.61,4.812,4.415C4.663,4.22,4.708,3.946,4.914,3.804 M3.697,4.913c0.149-0.195,0.438-0.239,0.644-0.097
				c0.206,0.142,0.252,0.415,0.102,0.611c-0.15,0.195-0.438,0.239-0.644,0.097C3.593,5.382,3.547,5.108,3.697,4.913 M2.901,6.324
				C2.98,6.095,3.24,5.969,3.482,6.044c0.242,0.075,0.375,0.321,0.296,0.551C3.7,6.824,3.44,6.95,3.197,6.875
				C2.955,6.801,2.823,6.554,2.901,6.324 M2.604,7.9c0-0.241,0.206-0.437,0.461-0.437c0.255,0,0.461,0.196,0.461,0.437
				c0,0.241-0.207,0.437-0.461,0.437C2.811,8.337,2.604,8.141,2.604,7.9 M2.836,9.485c-0.079-0.23,0.054-0.476,0.296-0.551
				c0.242-0.074,0.503,0.051,0.581,0.281c0.079,0.23-0.054,0.476-0.296,0.551C3.175,9.84,2.915,9.714,2.836,9.485 M4.217,11.021
				c-0.206,0.142-0.495,0.098-0.644-0.097c-0.15-0.195-0.104-0.469,0.102-0.611c0.206-0.142,0.494-0.099,0.644,0.097
				C4.469,10.606,4.423,10.879,4.217,11.021 M5.387,11.981c-0.15,0.195-0.438,0.239-0.644,0.097
				c-0.206-0.142-0.252-0.415-0.102-0.611c0.15-0.195,0.438-0.239,0.644-0.097C5.491,11.512,5.537,11.786,5.387,11.981
				 M6.813,12.551c-0.079,0.23-0.339,0.355-0.581,0.281c-0.243-0.074-0.375-0.321-0.296-0.551c0.079-0.23,0.339-0.355,0.581-0.281
				C6.759,12.075,6.891,12.322,6.813,12.551 M7.894,13.113c-0.255,0-0.461-0.196-0.461-0.437c0-0.241,0.207-0.437,0.461-0.437
				c0.254,0,0.461,0.195,0.461,0.437C8.355,12.918,8.148,13.113,7.894,13.113 M9.566,12.894c-0.243,0.075-0.502-0.051-0.581-0.281
				c-0.079-0.23,0.054-0.476,0.296-0.551c0.242-0.075,0.502,0.051,0.581,0.281C9.941,12.573,9.808,12.82,9.566,12.894
				 M11.085,12.196c-0.206,0.142-0.494,0.099-0.644-0.097c-0.15-0.195-0.104-0.469,0.102-0.611c0.206-0.142,0.494-0.098,0.644,0.097
				C11.337,11.781,11.291,12.054,11.085,12.196 M8,11.724c-2.17,0-3.93-1.667-3.93-3.724C4.07,5.943,5.83,4.276,8,4.276
				c2.17,0,3.93,1.667,3.93,3.724C11.93,10.057,10.17,11.724,8,11.724 M12.302,11.087c-0.15,0.195-0.438,0.238-0.644,0.097
				c-0.206-0.142-0.252-0.415-0.102-0.611c0.15-0.195,0.438-0.239,0.644-0.097C12.407,10.618,12.452,10.892,12.302,11.087
				 M13.098,9.676c-0.079,0.23-0.339,0.355-0.581,0.281c-0.243-0.074-0.375-0.321-0.296-0.551c0.079-0.23,0.339-0.355,0.581-0.281
				C13.045,9.2,13.177,9.446,13.098,9.676 M12.934,8.538c-0.254,0-0.461-0.196-0.461-0.437c0-0.241,0.207-0.437,0.461-0.437
				c0.255,0,0.461,0.196,0.461,0.437C13.395,8.342,13.189,8.538,12.934,8.538"/>
			<path fill="#FFFFFF" d="M9.662,9.649c0.029,0,0.049,0.007,0.049,0.042v1.217c0,0.035-0.02,0.043-0.049,0.043H6.401
				c-0.013,0-0.036-0.028-0.036-0.099V9.741c0-0.035,0.016-0.092,0.036-0.092h0.778V6.924H6.306v0.948
				c0,0.049-0.026,0.049-0.045,0.049H5.172c-0.03,0-0.052-0.035-0.052-0.092V5.742c0-0.05,0.016-0.099,0.039-0.099h5.699
				c0.036,0,0.059,0.014,0.059,0.17v2.01c0,0.05-0.009,0.113-0.039,0.113H9.829c-0.02,0-0.036,0-0.036-0.085V6.924H8.857v2.725
				H9.662z"/>
		</g>
	</g>
</g>
</svg>
