<?xml version="1.0" encoding="utf-8"?>
<!-- Generator: Adobe Illustrator 27.3.1, SVG Export Plug-In . SVG Version: 6.00 Build 0)  -->
<svg version="1.1" id="Layer_1" xmlns="http://www.w3.org/2000/svg" xmlns:xlink="http://www.w3.org/1999/xlink" x="0px" y="0px"
	 width="16px" height="16px" viewBox="0 0 16 16" enable-background="new 0 0 16 16" xml:space="preserve">
<g>
	<path fill="#FFFFFF" d="M15.257,9.046c0,0.067,0,0.128,0,0.193c-4.838,0-9.673,0-14.514,0c0-0.062,0-0.124,0-0.193
		C5.578,9.046,10.414,9.046,15.257,9.046z"/>
	<path fill="#FFFFFF" d="M13.065,8.618c-0.128,0-0.25-0.002-0.372,0.001c-0.051,0.001-0.051-0.032-0.058-0.067
		c-0.09-0.486-0.18-0.972-0.27-1.457c-0.002-0.013-0.006-0.025-0.022-0.037c0,0.517,0,1.033,0,1.555c-0.144,0-0.279,0-0.42,0
		c0-0.995,0-1.991,0-3c0.129,0,0.261-0.001,0.392,0.002c0.012,0,0.03,0.034,0.034,0.054c0.086,0.459,0.171,0.919,0.257,1.379
		c0.007,0.036,0.014,0.072,0.037,0.107c0-0.512,0-1.023,0-1.539c0.147,0,0.282,0,0.422,0C13.065,6.614,13.065,7.61,13.065,8.618z"/>
	<path fill="#FFFFFF" d="M14.588,7.342c-0.038-0.003-0.069-0.006-0.106-0.008c0-0.139,0-0.276,0-0.422
		c0.169,0,0.336-0.002,0.503,0.003c0.012,0,0.034,0.047,0.034,0.072c0.002,0.41,0.002,0.819,0.001,1.229
		c0,0.045-0.005,0.09-0.013,0.135c-0.025,0.14-0.11,0.233-0.245,0.266c-0.196,0.048-0.396,0.052-0.593-0.003
		c-0.17-0.048-0.241-0.139-0.253-0.316c-0.006-0.087-0.007-0.175-0.007-0.263c-0.001-0.652,0-1.304,0-1.955
		c0-0.05,0.002-0.101,0.007-0.151c0.016-0.179,0.137-0.32,0.316-0.338c0.152-0.016,0.308-0.015,0.461-0.001
		c0.169,0.015,0.304,0.143,0.314,0.311c0.014,0.248,0.004,0.498,0.004,0.753c-0.136,0-0.273,0-0.421,0c0-0.029,0-0.057,0-0.086
		c-0.001-0.152-0.001-0.303-0.003-0.455c-0.001-0.077-0.049-0.108-0.12-0.108c-0.07,0-0.119,0.027-0.12,0.107
		C14.344,6.145,14.34,6.18,14.34,6.214c0,0.596,0,1.192,0,1.788c0,0.029,0,0.059,0.003,0.088c0.009,0.093,0.039,0.121,0.124,0.12
		c0.085-0.001,0.119-0.031,0.12-0.124C14.59,7.838,14.588,7.592,14.588,7.342z"/>
	<path fill="#FFFFFF" d="M8.597,6.914c0.18,0,0.352,0,0.531,0C9.13,6.937,9.135,6.957,9.135,6.977c0,0.42,0,0.841,0,1.261
		c0,0.134-0.033,0.259-0.156,0.329C8.911,8.605,8.83,8.628,8.753,8.638c-0.164,0.02-0.33,0.024-0.49-0.032
		C8.11,8.552,8.034,8.459,8.032,8.298c-0.005-0.375-0.005-0.75-0.005-1.125C8.026,6.79,8.027,6.406,8.026,6.023
		c-0.001-0.158,0.032-0.3,0.181-0.381c0.061-0.033,0.134-0.057,0.204-0.06c0.137-0.007,0.277-0.009,0.413,0.01
		c0.17,0.023,0.294,0.151,0.303,0.323C9.14,6.158,9.13,6.403,9.13,6.652c-0.14,0-0.277,0-0.427,0c0-0.028,0-0.056,0-0.085
		C8.703,6.416,8.704,6.264,8.7,6.113C8.698,6.036,8.66,6.005,8.582,6.004C8.504,6.003,8.469,6.033,8.461,6.11
		C8.46,6.12,8.459,6.131,8.459,6.141c0,0.644-0.001,1.288,0.001,1.932c0,0.114,0.047,0.149,0.155,0.133
		c0.054-0.008,0.085-0.037,0.085-0.088C8.701,7.86,8.7,7.603,8.7,7.341C8.665,7.339,8.634,7.336,8.597,7.334
		C8.597,7.195,8.597,7.059,8.597,6.914z"/>
	<path fill="#FFFFFF" d="M3.383,5.615c0.147,0,0.28,0,0.419,0c0,0.998,0,1.996,0,2.998c-0.136,0-0.27,0-0.414,0
		c0-0.424,0-0.845,0-1.273c-0.092,0-0.176,0-0.267,0c0,0.422,0,0.843,0,1.271c-0.144,0-0.281,0-0.423,0c0-0.997,0-1.994,0-2.995
		c0.138,0,0.273,0,0.416,0c0,0.425,0,0.852,0,1.285c0.092,0,0.175,0,0.268,0C3.383,6.478,3.383,6.051,3.383,5.615z"/>
	<path fill="#FFFFFF" d="M10.634,8.066c-0.092,0-0.174,0-0.265,0c-0.017,0.159-0.037,0.316-0.049,0.474
		c-0.005,0.062-0.025,0.082-0.087,0.079c-0.114-0.005-0.228-0.001-0.352-0.001c0.137-1.005,0.273-2,0.411-3.006
		c0.131,0,0.26-0.002,0.39,0.003c0.014,0,0.035,0.035,0.038,0.055c0.059,0.418,0.116,0.837,0.174,1.256
		c0.074,0.543,0.147,1.085,0.221,1.628c0.002,0.018,0.002,0.036,0.004,0.064c-0.131,0-0.258,0.002-0.385-0.003
		c-0.016-0.001-0.04-0.042-0.043-0.067C10.668,8.39,10.652,8.232,10.634,8.066z M10.593,7.634c-0.029-0.323-0.058-0.637-0.087-0.951
		c-0.004,0-0.009,0-0.013,0c-0.028,0.316-0.055,0.631-0.083,0.951C10.476,7.634,10.529,7.634,10.593,7.634z"/>
	<path fill="#FFFFFF" d="M5.078,6.029c0,0.298,0,0.581,0,0.874c0.142,0,0.282,0,0.429,0c0,0.145,0,0.281,0,0.426
		c-0.143,0-0.283,0-0.428,0c0,0.29,0,0.571,0,0.864c0.213,0,0.427,0,0.645,0c0,0.146,0,0.281,0,0.42c-0.355,0-0.708,0-1.067,0
		c0-0.998,0-1.994,0-2.996c0.354,0,0.707,0,1.066,0c0,0.135,0,0.269,0,0.412C5.511,6.029,5.299,6.029,5.078,6.029z"/>
	<path fill="#FFFFFF" d="M1.569,8.615c-0.145,0-0.278,0-0.423,0c0-0.858,0-1.715,0-2.58c-0.12,0-0.228,0-0.342,0
		c0-0.142,0-0.277,0-0.417c0.367,0,0.735,0,1.107,0c0,0.138,0,0.272,0,0.415c-0.115,0-0.225,0-0.343,0
		C1.569,6.897,1.569,7.752,1.569,8.615z"/>
	<path fill="#FFFFFF" d="M7.705,10.402c-0.079,0.024-0.134,0.004-0.184-0.065C7.42,10.198,7.31,10.065,7.189,9.91
		c0,0.179,0,0.333,0,0.494c-0.058,0-0.106,0-0.16,0c0-0.258,0-0.515,0-0.775C7.104,9.61,7.16,9.621,7.211,9.692
		c0.102,0.141,0.214,0.275,0.335,0.43c0-0.177,0-0.332,0-0.493c0.056,0,0.105,0,0.159,0C7.705,9.885,7.705,10.143,7.705,10.402z"/>
	<path fill="#FFFFFF" d="M11.146,10.41c0.068-0.149,0.131-0.286,0.194-0.423c0.044-0.096,0.09-0.192,0.132-0.29
		c0.021-0.049,0.043-0.079,0.108-0.08c0.067-0.001,0.085,0.035,0.106,0.083c0.094,0.208,0.19,0.415,0.285,0.622
		c0.011,0.024,0.02,0.048,0.03,0.072c-0.133,0.039-0.158,0.029-0.206-0.092c-0.021-0.053-0.049-0.076-0.106-0.069
		c-0.039,0.005-0.08,0.005-0.12,0c-0.116-0.015-0.209,0.001-0.237,0.138c-0.003,0.016-0.037,0.032-0.059,0.036
		C11.237,10.415,11.197,10.41,11.146,10.41z M11.581,9.808c-0.047,0.109-0.084,0.197-0.124,0.29c0.087,0,0.163,0,0.249,0
		C11.665,10.004,11.628,9.917,11.581,9.808z"/>
	<path fill="#FFFFFF" d="M14.225,10.333c0.021-0.048,0.037-0.084,0.044-0.099c0.112,0.017,0.212,0.036,0.313,0.045
		c0.048,0.004,0.099-0.015,0.106-0.075c0.007-0.064-0.047-0.076-0.092-0.09c-0.063-0.02-0.129-0.033-0.191-0.055
		c-0.114-0.04-0.165-0.105-0.164-0.2c0.002-0.098,0.066-0.184,0.168-0.221c0.104-0.038,0.209-0.033,0.313,0
		c0.13,0.041,0.135,0.057,0.068,0.168c-0.076-0.02-0.148-0.041-0.222-0.056c-0.025-0.005-0.058-0.004-0.077,0.009
		c-0.03,0.02-0.07,0.052-0.072,0.081c-0.002,0.027,0.036,0.068,0.066,0.081c0.06,0.027,0.128,0.035,0.191,0.057
		c0.078,0.027,0.156,0.059,0.181,0.151c0.026,0.096-0.018,0.201-0.115,0.246C14.566,10.456,14.396,10.43,14.225,10.333z"/>
	<path fill="#FFFFFF" d="M3.096,9.799c-0.096-0.018-0.177-0.04-0.259-0.047C2.783,9.747,2.728,9.768,2.718,9.834
		c-0.01,0.069,0.046,0.08,0.094,0.096c0.078,0.026,0.157,0.048,0.234,0.078c0.076,0.03,0.119,0.087,0.119,0.172
		c0,0.091-0.041,0.162-0.123,0.198c-0.176,0.078-0.345,0.052-0.514-0.044c0.02-0.045,0.036-0.082,0.043-0.099
		c0.114,0.017,0.213,0.036,0.314,0.044c0.048,0.004,0.107-0.017,0.101-0.075c-0.003-0.032-0.048-0.07-0.083-0.086
		c-0.063-0.028-0.133-0.037-0.198-0.059c-0.111-0.039-0.16-0.101-0.162-0.193C2.543,9.768,2.606,9.677,2.705,9.64
		c0.109-0.041,0.22-0.035,0.329,0.001C3.155,9.682,3.16,9.703,3.096,9.799z"/>
	<path fill="#FFFFFF" d="M4.651,9.709C4.636,9.743,4.62,9.779,4.607,9.807C4.526,9.787,4.451,9.765,4.375,9.75
		c-0.027-0.005-0.063,0-0.084,0.014C4.263,9.784,4.232,9.816,4.229,9.845C4.226,9.868,4.261,9.906,4.287,9.917
		c0.066,0.027,0.138,0.038,0.206,0.062c0.083,0.03,0.166,0.065,0.179,0.171c0.012,0.103-0.033,0.193-0.13,0.233
		c-0.172,0.069-0.337,0.045-0.504-0.049c0.018-0.043,0.034-0.081,0.043-0.1c0.112,0.017,0.211,0.04,0.312,0.043
		c0.035,0.001,0.093-0.039,0.104-0.073c0.02-0.059-0.042-0.076-0.087-0.09c-0.071-0.022-0.144-0.038-0.214-0.063
		c-0.081-0.029-0.136-0.083-0.14-0.175c-0.004-0.089,0.031-0.16,0.107-0.209C4.299,9.58,4.529,9.598,4.651,9.709z"/>
	<path fill="#FFFFFF" d="M6.124,10.274c0,0.051,0,0.087,0,0.13c-0.179,0-0.355,0-0.537,0c0-0.257,0-0.513,0-0.776
		c0.175,0,0.351,0,0.534,0c0,0.036,0,0.074,0,0.123c-0.118,0-0.239,0-0.366,0c0,0.067,0,0.123,0,0.189c0.113,0,0.226,0,0.343,0
		c0,0.047,0,0.086,0,0.136c-0.115,0-0.227,0-0.345,0c0,0.071,0,0.13,0,0.199C5.875,10.274,5.996,10.274,6.124,10.274z"/>
	<path fill="#FFFFFF" d="M1.133,10.405c0-0.262,0-0.518,0-0.779c0.181,0,0.357,0,0.538,0c0,0.041,0,0.077,0,0.123
		c-0.12,0-0.241,0-0.368,0c0,0.067,0,0.123,0,0.189c0.11,0,0.223,0,0.341,0c0,0.047,0,0.085,0,0.135c-0.111,0-0.224,0-0.342,0
		c0,0.072,0,0.134,0,0.204c0.123,0,0.244,0,0.369,0c0,0.047,0,0.085,0,0.128C1.492,10.405,1.318,10.405,1.133,10.405z"/>
	<path fill="#FFFFFF" d="M8.588,9.764c0-0.052,0-0.093,0-0.138c0.222,0,0.439,0,0.662,0c0,0.043,0,0.084,0,0.136
		c-0.08,0-0.158,0-0.242,0c0,0.219,0,0.428,0,0.643c-0.061,0-0.114,0-0.175,0c0-0.211,0-0.42,0-0.64
		C8.748,9.764,8.67,9.764,8.588,9.764z"/>
	<path fill="#FFFFFF" d="M13.031,10.273c0.126,0,0.237,0,0.352,0c0,0.047,0,0.086,0,0.131c-0.172,0-0.343,0-0.518,0
		c0-0.259,0-0.515,0-0.777c0.053,0,0.105,0,0.167,0C13.031,9.837,13.031,10.049,13.031,10.273z"/>
	<path fill="#FFFFFF" d="M10.132,9.626c0.054,0,0.106,0,0.163,0c0,0.259,0,0.515,0,0.778c-0.053,0-0.105,0-0.163,0
		C10.132,10.147,10.132,9.889,10.132,9.626z"/>
</g>
</svg>
