<?xml version="1.0" encoding="UTF-8"?><svg id="Capa_2" xmlns="http://www.w3.org/2000/svg" width="402.82" height="375.2" viewBox="0 0 402.82 375.2"><g id="Capa_1-2"><path d="M159.62,32.69c-2.62-.92-5.15-1.76-7.65-2.7-4.78-1.79-9.51-3.69-14.3-5.45-4.04-1.48-8.15-2.75-12.48-3.15-4.13-.38-8.21-.22-11.84,2.07-5.15,3.26-7.14,9.72-3.98,14.92,1.24,2.05,3.08,3.54,5.25,4.53,5.98,2.72,12.04,2.49,18.07.13,3.24-1.27,5.76-3.46,7.8-6.2.14-.19.3-.38.5-.64.24.18.45.34.69.51-1.61,2.4-3.57,4.39-6.01,5.87-6.01,3.65-12.5,4.24-19.18,2.32-4.04-1.16-7.39-3.49-9.22-7.33-.76-1.59-1.24-3.39-1.44-5.14-.54-4.86.47-9.52,2.74-13.86,2.57-4.91,6.09-9.04,11.13-11.74,4.44-2.38,9.25-3.56,14.3-3.9,6.35-.42,12.31,1.09,18.18,3.25,5.51,2.02,10.57,4.9,15.8,7.47,4.2,2.06,8.42,4.13,13.06,5.15,3.14.69,6.25.82,9.2-.79,3.5-1.91,4.93-6.23,3.26-9.81-3.02-6.46-10.58-8.82-17.19-5.94-2.37,1.04-4.46,2.42-5.88,4.62-.34.53-.7.33-1.09-.07,1.16-2.05,2.85-3.61,4.9-4.76,4.27-2.4,8.81-2.75,13.33-.95,5.2,2.07,9.04,6.81,7.7,13.33-.77,3.75-2.57,6.93-5.18,9.74-2.63,2.82-5.63,5.17-9.11,6.91-6.09,3.03-12.45,3.73-19.08,2.03-.61-.16-.97-.17-1.35.49-1.97,3.46-1.92,6.97-.37,10.52,1.19,2.72,2.99,5.08,5.1,7.15,3.83,3.76,7.85,7.33,11.68,11.09,3.88,3.8,6.87,8.21,8.43,13.39,1.61,5.37,1.42,10.71-.93,15.87-3.47,7.65-9.25,13.28-16.62,17.36-4.72,2.62-9.92,3.74-15.36,3.74-5,0-9.89-.64-14.65-2.25-6.54-2.22-11.44-6.29-14.52-12.29-3.23-6.29-3.54-12.79-.66-19.31,1.43-3.23,3.1-6.37,4.5-9.61.79-1.84,1.51-3.77,1.82-5.73.57-3.67-.73-6.77-3.8-9.06-.53-.39-.63-.68-.03-1.29,2.62,1.73,5.32,3.41,7.89,5.25,3.78,2.69,7.19,5.78,9.64,9.72,2.29,3.69,3.54,7.67,1.98,11.91-.85,2.32-2.23,4.46-3.43,6.65-1.85,3.37-4,6.6-4.79,10.43-.64,3.06-.44,6,1.43,8.66,1.48,2.1,3.57,3.49,5.98,4.34,6.59,2.33,13.09,2.29,19.35-1.08,2.84-1.53,5.4-3.38,7.03-6.24,1.76-3.09,1.96-6.36,1.36-9.74-.68-3.83-2.59-7.13-5.19-9.96-2.53-2.76-5.31-5.31-8.1-7.83-3.38-3.05-6.71-6.11-9.22-9.92-2.41-3.65-3.16-7.58-2.48-11.86.74-4.68,2.91-8.69,5.84-12.35,1.97-2.46,4.06-4.84,6.1-7.26.34-.4.67-.8,1.06-1.25Z" style="fill:#fff;"/><path d="M212.08,50.98c1.65-1.67,3.31-3.34,4.95-5.01,2.49-2.53,4.99-5.05,7.44-7.61.56-.59.97-.58,1.58-.13,1.46,1.09,3,2.06,4.42,3.19,2.81,2.24,3.89,5.31,3.98,8.81.01.53.04,1.05.04,1.58,0,13.01-.07,26.01.04,39.02.04,5.02-1.95,9.09-4.96,12.84-5.09,6.32-11.28,11.53-17.19,17.03-.38.36-.77.71-1.49,1.04.02-.33-.1-.8.08-.98,6.76-6.81,9.13-15.36,9.63-24.58.27-5.01.19-10.05.2-15.07.03-8.19.01-16.38,0-24.57,0-1.63-.17-3.21-1.06-4.65-1.28-2.07-3.44-2.54-5.5-1.28-1.74,1.07-2.55,2.33-2.52,4.57.15,11.04.06,22.08.08,33.11,0,.98.05,1.98.28,2.92.61,2.53,2.7,3.26,4.8,1.75.14-.1.29-.19.43-.29.45.34.77.63.22,1.18-4.1,4.05-8.19,8.12-12.28,12.18-.05.05-.12.06.08-.03-1.96-2.34-3.78-4.7-5.79-6.87-1.6-1.72-3.51-3.11-5.76-3.95-.32-.12-.51-.59-.88-1.04,4-.48,5.25-3.27,5.25-6.17,0-16.98.03-33.96-.02-50.94-.02-5.9-.3-11.78-1.78-17.53.79-.35.85-.36,1.04.44.57,2.49,1.09,4.99,1.63,7.49.04.16.06.33.14.7.46-.82.8-1.5,1.21-2.12,2.1-3.2,5.14-5.2,8.57-6.71,3.82-1.68,11-2.86,15.27-2.49.31.69-.11.81-.67.88-1.18.17-2.39.24-3.52.58-5,1.53-7.89,5.21-8.08,10.69-.2,5.76-.12,11.52-.15,17.29,0,1.54,0,3.07,0,4.61.09.04.19.09.28.13Z" style="fill:#fff;"/><path d="M280.1,89.99c.17.25.27.4.36.55.05.09.09.18.26.53-.26.18-.62.35-.89.62-4.51,4.49-9.02,8.97-13.48,13.5-.83.84-1.57,1.2-2.82,1.02-3.59-.54-6.92-1.57-9.98-3.59-3.79-2.5-6.06-6.01-7.36-10.27-1.21-3.97-1.56-8.05-1.57-12.16-.02-4.63.08-9.27.21-13.9.12-4.36,2.18-7.89,5.14-10.86,6.03-6.03,12.18-11.94,18.28-17.89.05-.05.12-.07.07-.04,4.33,6.8,8.65,13.59,13.08,20.55-1.08,1-2.37,2.21-3.68,3.41-5.39,4.92-10.78,9.84-16.16,14.76-.8.73-1.56,1.52-2.42,2.18-.72.55-.82,1.17-.71,2,.47,3.63,1.38,7.09,3.86,9.92,3.14,3.58,7.16,4.81,11.75,3.33,2.24-.72,4.16-1.97,6.08-3.66ZM268.68,67.76c-4.3-5.62-7.79-11.58-10.56-17.97v27.45c.09.03.18.07.27.1,3.42-3.19,6.84-6.38,10.29-9.58Z" style="fill:#fff;"/><path d="M91.43,239.39h-30.93l-.81-41.62c-.16-8.06-.14-15.04.08-20.94.1-2.92.18-5.36.23-7.31.05-1.95.11-3.43.17-4.46-.59,2.1-1.59,6.03-3.01,11.77-.72,2.93-1.51,6.01-2.38,9.23-.86,3.24-1.84,6.65-2.92,10.24l-12.89,43.09H7.71L0,120.58h31.7l.07,32.71c-.06,13.02-.29,23.27-.7,30.7l-.64,10.85,2.47-9.31c2.79-10.87,5.81-21.21,9.05-31.01l11.37-33.94h27.62l.88,28.56c.47,13.29.22,29.01-.75,47.17,1.84-8.16,3.61-15.39,5.27-21.7,1.66-6.31,3.3-12.03,4.93-17.16l11.67-36.86h31.32l-42.84,118.81Z" style="fill:#fff;"/><path d="M194.64,239.39h-32.09l7.54-47.78h-15.31l-7.54,47.78h-32.09l18.76-118.81h32.09l-6.64,42.01h15.31l6.64-42.01h32.09l-18.76,118.81Z" style="fill:#fff;"/><path d="M385.57,239.39h-58.42l18.76-118.81h32.08l-14.25,90.26h26.33l-4.5,28.55Z" style="fill:#fff;"/><polygon points="258.82 239.32 263.19 210.9 236.15 210.9 267.69 165.76 242.59 165.76 245.8 148.7 273.17 148.7 277.92 120.58 218.29 120.58 207.69 186.44 220.94 186.44 204.08 210.9 199.53 239.32 258.82 239.32" style="fill:#fff;"/><polygon points="323.07 239.32 327.43 210.9 300.4 210.9 331.94 165.76 306.83 165.76 310.05 148.7 337.41 148.7 342.17 120.58 282.54 120.58 271.94 186.44 285.19 186.44 268.33 210.9 263.78 239.32 323.07 239.32" style="fill:#fff;"/><path d="M111.16,373.12h-34.62l-12.67-54.79-7.8,54.79H23.99l18.76-118.81h32.08l-8.89,50.95,26.97-50.95h33.86l-34.67,57.33,19.06,61.48Z" style="fill:#fff;"/><path d="M160.94,372.96l4.64-30.23c.71-4.66,1.7-10.08,2.95-16.27,1.26-6.19,2.86-13.46,4.79-21.8-1.58,3.69-3.35,7.55-5.32,11.63-1.97,4.06-4.14,8.43-6.53,13.08l-22.65,43.59h-30.26s18.17-118.5,18.17-118.5h30.27s-4.09,26.64-4.09,26.64c-.76,4.96-2,11.1-3.73,18.42-1.74,7.31-3.97,16.12-6.71,26.4l4.87-10.44c1.95-4.14,3.71-7.79,5.29-10.97,1.57-3.18,2.98-5.99,4.23-8.44l22.27-41.6h30.25s-18.17,118.5-18.17,118.5h-30.26Z" style="fill:#fff;"/><path d="M245.69,304.4h44.78l-.78,4.93c-3.61,22.88-9.63,39.34-18.03,49.4-9.17,10.98-21.05,16.47-35.62,16.47s-24.69-5.39-31.14-16.17c-6.39-10.87-8.08-25.79-5.08-44.78,3.04-19.23,9.51-34.4,19.41-45.47,9.91-11.08,21.94-16.63,36.1-16.63,18.78,0,30.85,9.8,36.21,29.4l-32.89,11.38c.13-3.75-.47-6.71-1.79-8.89-1.32-2.18-3.24-3.27-5.76-3.27-8.83,0-15.14,12.13-18.97,36.39-1.63,10.31-1.84,17.8-.63,22.47,1.21,4.68,3.95,7.01,8.2,7.01,1.7,0,3.3-.41,4.81-1.23,1.52-.82,2.86-1.98,4.04-3.47,1.18-1.48,2.22-3.29,3.09-5.42.87-2.12,1.52-4.5,1.93-7.11h-11.85l3.95-25.01Z" style="fill:#fff;"/><path d="M277.63,370.2l5.89-37.32c4.95,8.62,11.09,12.92,18.43,12.92,2.77,0,5.14-.73,7.11-2.19,1.97-1.46,3.14-3.3,3.49-5.5.5-3.18-.91-6.28-4.22-9.31l-4.59-4.08c-3.08-2.62-5.64-5.22-7.7-7.81-2.05-2.59-3.64-5.26-4.74-8-1.11-2.75-1.78-5.58-2.04-8.5-.26-2.92-.14-6,.38-9.23.88-5.54,3.07-11.33,6.59-17.39,1.73-2.82,3.62-5.4,5.68-7.73,2.07-2.33,4.34-4.4,6.83-6.19,6.87-5.12,14.58-7.7,23.15-7.7,7.64,0,15.01,2.03,22.12,6.08l-5.73,36.32c-1.98-4.05-4.44-7.25-7.41-9.58-2.97-2.33-6.07-3.5-9.3-3.5-2.46,0-4.6.72-6.41,2.15-1.86,1.39-2.95,3.06-3.26,5.01-.51,3.18,1.18,6.34,5.05,9.47l4.48,3.76c6.01,4.87,10.06,9.88,12.18,15.01,2.17,5.12,2.7,11.13,1.61,18-1.84,11.7-6.93,21.34-15.25,28.94-8.33,7.58-17.96,11.38-28.89,11.38-7.54,0-15.36-1.67-23.45-5Z" style="fill:#fff;"/><path d="M385,271.72h-3.02v4.88h3.02c.8,0,1.41-.21,1.84-.63.43-.42.65-1.03.65-1.83s-.21-1.38-.65-1.79c-.43-.41-1.05-.62-1.84-.62Z" style="fill:#fff;"/><path d="M384.37,258.11c-10.19,0-18.45,8.26-18.45,18.45s8.26,18.45,18.45,18.45,18.45-8.26,18.45-18.45-8.26-18.45-18.45-18.45ZM387.13,285.46l-2.36-4.8h-2.79v4.8h-5.28v-17.81h8.31c2.39,0,4.24.55,5.55,1.65,1.31,1.1,1.97,2.66,1.97,4.67,0,1.3-.26,2.43-.77,3.39-.52.96-1.26,1.71-2.22,2.27l3.61,5.82h-6Z" style="fill:#fff;"/></g></svg>